<?xml version="1.0" encoding="UTF-8"?>
<svg id="_圖層_2" data-name="圖層 2" xmlns="http://www.w3.org/2000/svg" viewBox="0 0 41.06 45.29">
  <defs>
    <style>
      .cls-1 {
        fill: #e48063;
      }

      .cls-2 {
        fill: #e7edf7;
      }
    </style>
  </defs>
  <g id="_圖層_1-2" data-name="圖層 1">
    <g>
      <path class="cls-2" d="M5.96,19.69h13.68c3.29,0,5.96,2.67,5.96,5.96v13.68c0,3.29-2.67,5.96-5.96,5.96H5.96c-3.29,0-5.96-2.67-5.96-5.96v-13.68c0-3.29,2.67-5.96,5.96-5.96Z"/>
      <g>
        <path class="cls-1" d="M41.05.3c.08-.04-.25-.25-.3-.3-.02.16.38.36.3.3Z"/>
        <polygon class="cls-1" points="40.9 1.92 40.79 1.8 40.97 2.2 40.9 1.92"/>
        <path class="cls-1" d="M40.07,2.93c.59.32.22-.43.56-.46l.14.06-.35-.41c-.11.27-.08.78-.35.81Z"/>
        <path class="cls-1" d="M38.53,2.55c.22.13.07.26.16-.07-.03,0-.05-.01-.07-.02-.02.02-.04.05-.1.09Z"/>
        <path class="cls-1" d="M38.63,2.46c.07-.12-.22-.07,0,0h0Z"/>
        <path class="cls-1" d="M38.34,3.03l-.06-.28c-.14-.07-.27.03-.31-.09-.02.22.11.29.37.37Z"/>
        <path class="cls-1" d="M38.59,3.48v-.13c-.07-.03-.1-.02,0,.13Z"/>
        <path class="cls-1" d="M38.55,3.06l.03.28c.1.05.26.18,0-.12.14.14.02-.01-.03-.17Z"/>
        <path class="cls-1" d="M38.7,3.04c.17.02.33-.03.38.26.15-.32-.23-.58-.38-.26Z"/>
        <path class="cls-1" d="M40.55,3.41l.24.02-.09-.23c.05.12-.31.09-.14.21Z"/>
        <path class="cls-1" d="M37.35,3.66c.1.1.32.2.46.31l-.03-.21c-.12-.01-.27.03-.43-.1Z"/>
        <path class="cls-1" d="M37.81,3.97l.05.31c.14-.12.08-.22-.05-.31Z"/>
        <polygon class="cls-1" points="39.12 3.98 38.95 3.4 39.09 4.03 39.12 3.98"/>
        <polygon class="cls-1" points="36.83 4.22 36.66 3.93 36.89 4.4 36.83 4.22"/>
        <path class="cls-1" d="M36.53,4.64c-.14-.24-.41-.22-.48-.39-.06.13.04.38.12.59-.01-.16.09-.23.36-.2Z"/>
        <path class="cls-1" d="M36.28,5.18c-.01-.09-.06-.21-.11-.33,0,.09.03.19.11.33Z"/>
        <path class="cls-1" d="M37.58,4.49c-.07-.04-.26-.17-.4-.14l.35.2.06-.06Z"/>
        <path class="cls-1" d="M37.53,4.55h-.01c-.06.05-.11.09-.13.11.02-.01.06-.05.14-.11Z"/>
        <path class="cls-1" d="M37.59,4.48h-.01s.05.04.01,0Z"/>
        <path class="cls-1" d="M38.51,4.14c.09.23.1.57.51.61-.15-.24-.38-.26-.51-.61Z"/>
        <path class="cls-1" d="M38.03,4.73l.21-.1c-.08-.07-.22-.14-.26-.25l.05.35Z"/>
        <polygon class="cls-1" points="38.05 4.89 38.03 4.73 37.95 4.76 38.05 4.89"/>
        <path class="cls-1" d="M36.8,5.15c.07.18.01.27-.05.37.14-.04.25-.11.33-.2-.08-.09-.21-.28-.29-.17Z"/>
        <path class="cls-1" d="M37.18,4.88v.03s.05.01,0-.03Z"/>
        <path class="cls-1" d="M35.99,6.36s.04.02.06.03l-.05-.05h-.02Z"/>
        <path class="cls-1" d="M37.15,5.36c.12-.02.08-.12.03-.24-.02.08-.05.15-.09.21.04.04.06.07.07.03Z"/>
        <path class="cls-1" d="M36.21,5.53c.09.02.18.03.27.03-.12-.05-.33-.11-.27-.03Z"/>
        <path class="cls-1" d="M37.08,4.86v-.02c-.09-.03-.05,0,0,.02Z"/>
        <path class="cls-1" d="M37.08,4.86c.01.07.06.17.1.25.01-.06.02-.13,0-.2-.03-.01-.07-.03-.1-.05Z"/>
        <path class="cls-1" d="M37.62,8.31c-.26-.26-.34-.67.09-.56-.06-.34-1.04-1.04-1.66-1.36.11.11.22.21.24.51.2.08.66-.04.79.32-.05.34-.25.08-.49.06.41.22.24.71.78,1.12v-.34c.08.07.14.25.25.26Z"/>
        <path class="cls-1" d="M36.36,6.12l.03-.09c-.11.03-.27-.01-.57-.11.03.23.11.34.2.43l.33-.28.02.06Z"/>
        <path class="cls-1" d="M36.65,5.73c.25.32.23.58.64.78.15-.21-.12-.35-.15-.58-.2.37-.08-.24-.45-.16,0-.1.04-.17.07-.24-.08.02-.18.04-.28.04h.02s0,0,0,0h0s.08.04.04.04c0,0,0,.01,0,.01.04.04.07.08.1.11-.14.03-.09-.05-.1-.11l-.04-.04h0s-.12.45-.12.45c.1-.03.17-.12.26-.29Z"/>
        <path class="cls-1" d="M39.52,5.48s-.06-.03-.08-.05c.02.05.04.08.08.05Z"/>
        <path class="cls-1" d="M39.22,5.46c-.02-.06-.12-.18-.03-.23.15.01.14.12.24.21-.04-.11-.08-.34-.34-.33l.02.06c-.21.04-.73-.13-.75-.19.3.2.52.33.86.48Z"/>
        <path class="cls-1" d="M38,5.67l-.08.39.37.1-.16-.13c.19-.09-.03-.23-.13-.35Z"/>
        <polygon class="cls-1" points="35.82 6.25 35.54 5.94 35.84 6.48 35.82 6.25"/>
        <polygon class="cls-1" points="35.55 6.62 35.29 6.36 35.38 6.6 35.55 6.62"/>
        <path class="cls-1" d="M21.15,28.24v.15c.02-.06.01-.1,0-.15Z"/>
        <path class="cls-1" d="M21.68,27.72l-.12-.14c.05.09.09.15.12.14Z"/>
        <path class="cls-1" d="M27.95,14.71c-.35-.13-.84-.37-.54-.1l.32.24c.02-.12.11-.15.22-.14Z"/>
        <path class="cls-1" d="M24.34,21.86l.12.05c-.07-.12-.14-.23-.2-.34.03.09.06.18.09.28Z"/>
        <path class="cls-1" d="M25.46,23.08l-.32-.04c.1.03.2.04.32.04Z"/>
        <path class="cls-1" d="M18.74,31.48l.22.36c.12-.14-.08-.21-.22-.36Z"/>
        <path class="cls-1" d="M32.51,10.1c-.2-.01-.32.01-.4.07.27.05.61.19.4-.07Z"/>
        <path class="cls-1" d="M18.27,25.14c0,.1.05.17.12.23,0-.09-.04-.17-.12-.23Z"/>
        <path class="cls-1" d="M31.86,10.43s.07,0,.11.02c.02-.11.04-.22.14-.28-.2-.03-.37-.01-.26.27Z"/>
        <path class="cls-1" d="M6.8,30.28s0-.03.02-.05c-.05.03-.04.04-.02.05Z"/>
        <path class="cls-1" d="M7.28,24.45s.1.07.15.12c0-.04-.04-.08-.15-.12Z"/>
        <path class="cls-1" d="M34.2,7.83c.05-.09-.02-.04,0,0h0Z"/>
        <path class="cls-1" d="M35.67,8.56s.05.1.12.16c-.06-.07-.1-.12-.12-.16Z"/>
        <path class="cls-1" d="M33,12.84h0c.08.04.06.03,0,0Z"/>
        <path class="cls-1" d="M34.43,7.85c-.06,0-.12,0-.17,0,.04,0,.09,0,.17,0Z"/>
        <path class="cls-1" d="M34.28,7.74s.06-.02.09-.03c-.04-.05-.08-.07-.09.03Z"/>
        <path class="cls-1" d="M34.12,7.94s.08-.07.14-.08c-.03,0-.05-.01-.06-.03-.01.02-.04.06-.08.11Z"/>
        <path class="cls-1" d="M12.24,37.12s0-.02-.01-.05c-.1.4-.06.31.01.05Z"/>
        <path class="cls-1" d="M29.18,19.39s0-.01,0-.02h-.02s.03.02.03.02Z"/>
        <path class="cls-1" d="M29.15,19.84c-.25-.45-.15-.47,0-.48l-.91-.72.9,1.19Z"/>
        <path class="cls-1" d="M20.03,29.61l.43.07c.24.61-.05.63.47.81-.9-.87.54-.77-.35-1.64l.3.06s0,.08-.03.1c.65.18-.5-.78-.1-.95.17-.04.36.02.41.19v-.44c.07-.05.21.12.13.16l.25-.41.02.03c-.1-.18-.21-.5-.25-.65.21.03.06.13.19.22l-.04-.4c.31.14.39.52.23.62,1.07.68-.08-.37.81-.26l-.05.29c.62.37.57.05,1.08.16-.21-.11-1.19-.36-1.22-.78.12,0,.23-.04.15-.32.32.3.35.12.46-.03l.42.41c.02-.26-.21-.46-.32-.73.2-.12.56.16.87.38.32-.2-.7-.32-.49-.71.37-.06.34-.38.34-.89.29-.01.23.28.41.34l-.21-.46s.13.08.18.14c-.02-.24-.42-.42-.36-.71-.42-.5,1.04.29.72-.44.17.06.23.28.41.42-.06-.64,0-.5-.23-1.2l.48.06c-.47-.15-.65-.71-.79-1.18-.21-.09-.39-.17-.48-.2l.04-.5c.1.03.22.2.35.42-.02-.05-.04-.1-.05-.15.25.05.45.34.61.64-.11-.05-.24-.1-.36-.15.19.32.41.66.68.88-.03-.06-.04-.14-.03-.2.05.09.1.16.15.19.05.03-.01-.09-.08-.24l.53.39-.17-.2.65-.08c-.22-.72-.7-1.62-.5-2.22.25.44.54.57.95.97-.54-.31-.13.5-.42.63.15-.07.32.15.37.24l-.02-.76c.33.33.33.16.56.2-.73-.56-.17-.71-.22-1.06.23.21.42.46.19.6.7.27-.52-1.02.11-.82-.04.05-.1.04,0,.17-.09-.3.32-.41.45-.16l-.04.05c.38-.23.91-.93.39-1.52.08.07.64.7.73.82l-1.36-2.38c.44.52,1.76,1.44,1.79,1.96.14,0,.31-.02.29-.34-.12-.02-.82-.55-.8-.66.72.33.41.15,1.09.36-.18-.03-.85-.84-.71-.94.1.13.76.71.79.83l-.46-1.01c.06.2.62.62.89.76-.18-.11.26-.24.26-.39l-.29-.04c.43-.22-.73-1.34-.37-1.63.11.19.85,1.01,1.11.93-.31-.45-1.5-2.11-1.51-2.68l.27.15-.03-.46c.44.69,1.27,2.25,1.53,2.92.29.04.29.21.45,0,.27.13.21.4.17.47l.55-.31c-.46-.41-.12-.76-.51-1.1v.92c-.46-.41-.99-1.49-.62-1.72.25.09.74.82.89.96-.11-.19-.01-.57.13-.5l.11.36c.33-.01-.32-.85.3-.65.1-.04.78.34.53.07-.62-.37-2.21-1.86-2.52-2.3.06,0,.85.09,1.18.25.51.26.78,1.09,1.22,1.32-.12-.12-.21-.33-.23-.4.18.02.35.39.45.18-.43-.46.36-.3-.31-.44.02-.28.26-.08.41-.29-.35-.22-.84-1.12-.81-1.4.11.12.29.23.38.27.35-.29.73-.27,1.02-.57.14.08.41.06.55.3-.04-.12-.15-.31-.08-.41.57.19-.14.27.47.58-.25-.26-.13-.59-.17-.88-.45-.34-.37.24-.34.53-.56-.53-.93-1.32-.89-1.89.1-.39.47.23.43.11.55-.39-.6-1.33.18-1.35.51.18.72.66,1.02.87-.06.34-.53.1-.65.26h.33c.06.17.02.39-.16.37.45.17.82-.75,1.47-.84-.06-.18-.08-.41-.27-.49l-.06.16c-.39-.16-.2-.6-.47-.57-.06-.35-.21-.82.15-.89l.45.34c-.13-.11-.38-.08-.31.1-.1-.26.87.18.42-.43l-.43-.11c-.06-.35-.32-.95-.01-1.03-.49-.29,0,.09-.6-.21.71.43-.48.48.32.86-.69-.37-.46.03-1.11-.22.14.12.32.18.1.28.03.04.07.11.09.15h-.02s.02,0,.02,0c.01.03.02.03,0,0,.1.02.2.05.29.11.24.37-.02.62.06.86-.16.04-.12-.19-.31-.27l.12.36c-.31-.27-.74-.21-.71-.6l-.21.19c-.28-.04-.51.07-.48.29-.16.04.1.56-.05.25l-.12.5-.08-.07c-.33.28-.12,1.12-1.01.97-.03.18-.04.38-.29.47l-.29-.21c-.04.22-.65.16-.44.48-.84-.52-.78.52-1.14.64l.33.33c-.18.15-.24.4-.3.73l.31.27c.07.41-.65.25-.89.56-.09-.13,0-.17.12-.15-.99-.31-.19,1.17-.97,1.01.03.18-.05.2-.18.18,0,0,0-.02,0-.03-.01,0-.02.02-.03.03-.08-.02-.18-.04-.26-.05.1.04.19.06.24.07-.05.06-.1.19-.11.35l-.35-.27s0,.02-.01.03c-.2-.03.08.21.37.4.01.09.03.19.08.3-.58-.43-.05.39-.69-.04.21.32-.22.63.3,1.22-.08-.07-.14-.08-.09-.13-.16.03-.31.07-.24.31l-.44-.35.34.74c-.37-.11-.56-.2-.75-.62.18.77-.06.42.16,1.14l-.25-.27c-.08.1.13.59-.15.44-.7-.27-1.07.97-2.05,1.06.87.64-.59-.08-.01.51-.21-.14-.39-.17-.46-.41-.09.45-.69.13-.37.81-.21-.15-.21-.32-.35-.39.02.06.07.24-.06.16-.14-.08-.11-.19-.15-.31-.24.31.29.88.8,1.41-.39-.1-.42,0-.17.44-.22-.12-.48-.21-.37-.44-.12.07-.83.36-.42.77-.14-.07-.16.11-.14.18-.24.2-.29.18-.46.43h.13c.43.58-.06.29-.16.53l-.05-.06c-.75.05.01.34-.79.34l.34.28c.65.69-.74-.04-.7.45l.26.09c.12.35-1.27-.54-1.47-.49-.09-.03-.05-.13-.06-.22-.72-.05.38.44.24.78-.27-.17-.52-.6-.72-.48-.26-.09.28,1.18-.37,1,.22.11.44.23.47.47-.1.24-1.11-.14-.71.54-.07-.02-.12-.06-.17-.1.02.27-.18.66.05,1.02-1.23-.91-.25,1.34-1.27.39l-.33.47-.1-.11c-.32.21-.16.53,0,.85-.13,0-.18-.14-.23-.19-.57.2-.56.28-.35,1.08l-.37-.27c.11.26-1.05.1-1,.85-.04-.04-.09-.1-.11-.18,0,.4-.47.46-.8.57-.21-.03-.26-.02.21.69.04.17.06.34.08.53.31-.17.37.67.63.78-.08.25-.56-.1-.48-.34l.06.05c-.42-.84-.45.07-.7-.54-.18.24-.4.34-.58.37-.18.04-.31,0-.43.14l-.02,1.07-.12.09c-.01-.23.03-.86.1-.9.01-.61-.16.7-.2.98-.1-.29.19-1.47.14-1.43l-.05.15v.13c-.09.49-.18,1.14-.22.96,0,0,0-.01,0-.02,0-.33.09-.78.08-.85.01-.08.02-.13-.01-.08l-.05-.26-.13.94c-.12.33-.08-.26-.23.82.11-.84.06-1.16-.02-1.36-.08-.2-.21-.3-.16-.51-.26.32-.34.13-.4-.09-.05.15-.38.78-.44.51.81-1.08.17-.82.75-1.6-.37.54-.29-.23-.86.46,0-.2.36-.31.54-.56-.13.01-.2-.03-.25-.11-.07-.13-.11-.29-.15-.46-.07-.33-.12-.71-.38-.96-.14.08-.28.31-.57.32l.47-.75c-.14-.07-.84.42-.52-.1-.09.11-.23.26-.32.22-.06-.77-.6-1.24-1.08-1.73-.49-.49-.91-1.01-.83-2.02-.1.35-.21.28-.32.18,0,.12-.3.27-.45.43l.06-.83c-.51.34-.46-.41-.91-.05l.2.05c-.65.32-.86,1.3-1.53,1.88.74-.35-.41,1.25.68.8-.08.19-.26.13-.38.3.35-.18.49-.13.51.15l-.09.04c.48.42.37.87.6,1.57l.31-.31c.05.16-.04.26-.09.39.63-.26-.23-.36.44-.68-.58.7.64.88-.1,1.58.13.19.37-.35.5-.15l-.19.21.32-.15c.04.16-.2.41-.39.55,0-.05-.11-.05-.15-.07-.16.34.39.4.34.51l.02-.28c.28.19.45.5.64.79.11.16.18.26.34.44.18.21.38.4.6.52l.13-.2c.61.36.1.65.58,1.25l-.05.02c.21-.03.36.05.43.26-.24.05-.13.84-.42.86.59.36.38.09,1.02-.38l-.15.53c.24-.24.33-.44.51-.25-.27.13-.17.96-.51,1.16-.02.95.21,1.03.38,1.04.17.03.27.01.14,1.17.52-1.29-.06-1.59.1-1.73.08-.65.41-.9.45-.55.07.22-.3,2.57-.02,3.25-.02-.08-.05.06-.07-.02.01.37.09.34.16.34.09-.17.16-.21.22,0,.23-1.22.26-.28.41-1.66-.13.25-.26.53-.39.76.12-.28.28-.93.41-1.39.14-.48.25-.8.38-.63-.03.28-.15.74-.23,1.02.07.25.2-.49.28-.23-.09,1.29-.46.84-.8,2.19.07.4.55-1.56.31.02.16-1.02.26-1.09.38-1.15.12-.05.26-.09.41-.9l-.02.73c.05-.18.14-.63.23-.72l-.15,1.11c.23-1.08.54,0,.78-.75-.54.71-.18-.62-.42-.83.48-1.57.5,1.23,1.25-.06-.1.22-.45.14-.34-.32.16-.05.39-.07.55.09.48-.75-.22-.45-.1-1.03.34.43.16-.54.27-.95l.18.48c.66-.36-.28-1.13.31-1.31.05.27.09.54.12.83l.17-.46.21.54c.09-.71.21-.7.58-.92-.26-.18-.47-.69-.27-.94.33.02.2.41.49-.01.13.27.27.64-.16.51.08.13.11.3.18.43.38.02.56-.53.65-.64-.03,0-.13.09-.2.08.03-.19,0-.3-.03-.43l-.07-.38c.17.05.24.19.29.32.03-.1-.08-.29-.02-.42.25.27.53.51.53.77v-.6c.14.08.47.11.53.24.32-.04-.12-.93.32-.98-.04-.06-.07-.13-.06-.22.27-.18.79-.08.67-.69l.62.28c.09-.31-.79-.34-.65-.86.08-.39.49.28.71.31-.13-.35-.41-1.02.19-.89.02.16-.11.16-.14.26ZM22.29,26.78c.02.11.13.41-.09.27-.31-.41-.09-.28.09-.27ZM25.33,22.06c.07.14-.04.15-.22.1.02-.07.08-.12.22-.1ZM33.74,8.84v.02c-.22,0-.13,0,0-.02ZM34.11,8.74c-.02-.07-.07-.11-.12-.14.07.09.02.15-.06.19.1.06.19.09.18-.05ZM12.34,31.97l-.02.23c-.06.15-.02-.03.02-.23Z"/>
        <path class="cls-1" d="M25.33,22.94c-.07-.04-.13-.09-.19-.15.03.07.1.13.19.15Z"/>
        <path class="cls-1" d="M18.7,31.42s-.01,0-.01,0c.02.02.03.04.05.06l-.04-.07Z"/>
        <path class="cls-1" d="M33.36,14.99c-.09,0-.18-.02-.25-.06.08.08.16.12.25.06Z"/>
        <path class="cls-1" d="M34.72,6.97l-.05.23c.05-.09.15-.05.23-.04-.08-.07-.22-.14-.18-.19Z"/>
        <path class="cls-1" d="M37.96,7.49c-.02-.06.04-.05.02-.11l-.16-.13c-.08.1-.02.28.14.24Z"/>
        <path class="cls-1" d="M35.93,7.83c.29.24.28.06.33-.1,0,0,0,.02-.02.02-.36-.38-.33-.15-.31.08Z"/>
        <path class="cls-1" d="M36.27,7.7s.04-.09.08-.11c-.14-.15-.07.01-.08.11Z"/>
        <path class="cls-1" d="M34.21,8.27c.12.02-.32-.36-.18-.28-.29-.38.11.73.18.28Z"/>
        <polygon class="cls-1" points="36.92 8.57 36.54 8.3 36.76 8.61 36.92 8.57"/>
        <path class="cls-1" d="M35.89,9.19l.25-.08c-.06-.05-.07-.1-.07-.15-.11.09-.28.15-.18.24Z"/>
        <path class="cls-1" d="M36.07,8.96c.06-.05.1-.11.07-.19-.02.03-.07.11-.07.19Z"/>
        <polygon class="cls-1" points="36.8 8.9 36.69 8.89 36.55 8.99 36.8 8.9"/>
        <path class="cls-1" d="M34.11,10.96l-.08.28c.1.13.21.14.23.03-.04-.12-.02-.23-.16-.31Z"/>
        <path class="cls-1" d="M35.55,11.26c-.12-.01-.2-.08-.33-.16l.41.4-.08-.24Z"/>
        <path class="cls-1" d="M35.14,11.9c.1.13.08.58.27.32-.1-.13-.02-.4-.27-.32Z"/>
        <polygon class="cls-1" points="31.96 14.19 32 14.14 31.32 13.5 31.96 14.19"/>
        <path class="cls-1" d="M31.22,18.19c.37-.06-.37-.45.03-.45-.11-.2-.32,0-.41-.18.04.29-.12.27.38.64Z"/>
        <path class="cls-1" d="M30.84,17.55s-.02-.1-.04-.17c0,.08.02.13.04.17Z"/>
        <polygon class="cls-1" points="7.12 23.55 7.11 23.27 6.99 23.58 7.12 23.55"/>
        <path class="cls-1" d="M6.35,23.76l.39-.46-.47.29c.05.01.15.04.08.16Z"/>
        <path class="cls-1" d="M23.53,27.22l-.09-.11c-.13-.08-.17-.06-.25-.01l.35.12Z"/>
        <polygon class="cls-1" points="21.41 28.82 21.45 28.79 21 28.49 21.41 28.82"/>
        <path class="cls-1" d="M20.43,30.89c.08-.05.06-.21.14-.26-.06.21-.65-.18-.14.26Z"/>
      </g>
    </g>
  </g>
</svg>