<?xml version="1.0" encoding="UTF-8"?>
<svg id="_圖層_2" data-name="圖層 2" xmlns="http://www.w3.org/2000/svg" viewBox="0 0 250.42 126.54">
  <defs>
    <style>
      .cls-1 {
        fill: #ccb8b4;
      }

      .cls-2 {
        fill: #614545;
      }

      .cls-3 {
        fill: #bfa8a5;
      }

      .cls-4 {
        fill: #d1d7e0;
      }

      .cls-5 {
        fill: #ef9275;
      }

      .cls-6 {
        fill: #b69b96;
      }

      .cls-7 {
        fill: #e7f2fd;
      }

      .cls-7, .cls-8 {
        isolation: isolate;
        opacity: .5;
      }

      .cls-9 {
        fill: #6b8dc9;
      }

      .cls-10, .cls-8 {
        fill: #fff;
      }

      .cls-11 {
        fill: #3f2d2b;
      }

      .cls-12 {
        fill: #d7473f;
      }

      .cls-13 {
        fill: #ec6955;
      }

      .cls-14 {
        fill: #bcc1c9;
      }

      .cls-15 {
        fill: #523a38;
      }

      .cls-16 {
        fill: #ece1e0;
      }

      .cls-17 {
        fill: #dac9c5;
      }

      .cls-18 {
        fill: #7998d8;
      }

      .cls-19 {
        fill: #e8eff9;
      }

      .cls-20 {
        fill: #e6d9d7;
      }
    </style>
  </defs>
  <g id="_圖層_1-2" data-name="圖層 1">
    <g>
      <g>
        <path class="cls-19" d="M158.6,18.38c-6.04-4.22-14.64.54-14.86,7.9-.07,2.19.27,4.53.78,6.19,1.82,5.95,6.49,11.23,12.04,14.68,7.59,4.72,17.06,3.83,22.24,1.34,3.54-1.7,6.96-4.99,8.28-8.54,0,0,4.63-9.55-3.89-16.39s-13.17.45-24.45-5.09c-.05-.03-.09-.07-.14-.1Z"/>
        <path class="cls-19" d="M126.29,19.18c-7.58-6.36-18.58-7.16-27.79-3.48-9.21,3.68-17.3,11-22.32,19.97-9.22,16.47-12.24,42.53.57,62.1,9.37,14.32,25.66,24.88,42.08,27.59,13.14,2.16,27.19,1.45,40.06-2.68,6.84-2.19,13.75-6.26,19.06-10.41,7.09-5.55,14.71-16.33,15.72-26.82.64-6.58-1.35-12.22-5.28-15.76-1.86-1.68-4.22-2.63-6.52-3.54-10.69-4.23-25.58-7.05-33.89-15.77-8.71-9.13-12-23.17-21.69-31.19Z"/>
      </g>
      <g>
        <g>
          <path class="cls-6" d="M124.65,91.44l-1.3.76c-.49-.44-1.06-.86-1.72-1.25l-58.28-33.65c-5.68-3.28-15.69-2.86-22.25.92l-17.53,10.12c-1.41.81-2.53,1.72-3.4,2.68l-1.22-.77s-2.52,3.71-.22,7.76c.01.02.03.03.04.05.61,1.16,1.66,2.24,3.2,3.12l58.28,33.65c5.68,3.28,15.69,2.86,22.25-.92l17.53-10.12c2.12-1.22,3.62-2.66,4.5-4.15.01-.02.03-.03.04-.06,2.64-4.49.07-8.16.07-8.16Z"/>
          <path class="cls-17" d="M80.25,112.43l-58.28-33.65c-5.68-3.28-4.96-9.06,1.6-12.85l17.53-10.12c6.56-3.79,16.57-4.2,22.25-.92l58.28,33.65c5.68,3.28,4.96,9.06-1.6,12.85l-17.53,10.12c-6.56,3.79-16.57,4.2-22.25.92Z"/>
          <g>
            <g>
              <g>
                <path class="cls-18" d="M35.97,72.92c-3.47,0-6.29-1.5-6.29-3.35v4.42c0,1.85,2.82,3.35,6.29,3.35s6.29-1.5,6.29-3.35v-4.42c0,1.85-2.82,3.35-6.29,3.35Z"/>
                <path class="cls-9" d="M35.97,66.23c-3.47,0-6.29,1.5-6.29,3.35s2.82,3.35,6.29,3.35,6.29-1.5,6.29-3.35c0-1.85-2.82-3.35-6.29-3.35Z"/>
              </g>
              <g>
                <path class="cls-7" d="M35.97,73.64c-4.81,0-8.71-2.08-8.71-4.63v6.12c0,2.56,3.9,4.63,8.71,4.63s8.71-2.08,8.71-4.63v-6.12c0,2.56-3.9,4.63-8.71,4.63Z"/>
                <path class="cls-8" d="M35.97,64.37c-4.81,0-8.71,2.08-8.71,4.63s3.9,4.63,8.71,4.63,8.71-2.08,8.71-4.63-3.9-4.63-8.71-4.63Z"/>
              </g>
            </g>
            <g>
              <g>
                <path class="cls-18" d="M53.39,62.75c-3.47,0-6.29-1.5-6.29-3.35v4.42c0,1.85,2.82,3.35,6.29,3.35s6.29-1.5,6.29-3.35v-4.42c0,1.85-2.82,3.35-6.29,3.35Z"/>
                <path class="cls-9" d="M53.39,56.05c-3.47,0-6.29,1.5-6.29,3.35s2.82,3.35,6.29,3.35,6.29-1.5,6.29-3.35-2.82-3.35-6.29-3.35Z"/>
              </g>
              <g>
                <path class="cls-7" d="M53.39,63.47c-4.81,0-8.71-2.08-8.71-4.63v6.12c0,2.56,3.9,4.63,8.71,4.63s8.71-2.08,8.71-4.63v-6.12c0,2.56-3.9,4.63-8.71,4.63Z"/>
                <path class="cls-8" d="M53.39,54.2c-4.81,0-8.71,2.08-8.71,4.63s3.9,4.63,8.71,4.63,8.71-2.08,8.71-4.63c0-2.56-3.9-4.63-8.71-4.63Z"/>
              </g>
            </g>
            <g>
              <g>
                <path class="cls-18" d="M54.38,83.27c-3.47,0-6.29-1.5-6.29-3.35v4.42c0,1.85,2.82,3.35,6.29,3.35s6.29-1.5,6.29-3.35v-4.42c0,1.85-2.82,3.35-6.29,3.35Z"/>
                <path class="cls-9" d="M54.38,76.58c-3.47,0-6.29,1.5-6.29,3.35s2.82,3.35,6.29,3.35,6.29-1.5,6.29-3.35-2.82-3.35-6.29-3.35Z"/>
              </g>
              <g>
                <path class="cls-7" d="M54.38,84c-4.81,0-8.71-2.08-8.71-4.63v6.12c0,2.56,3.9,4.63,8.71,4.63s8.71-2.08,8.71-4.63v-6.12c0,2.56-3.9,4.63-8.71,4.63Z"/>
                <path class="cls-8" d="M54.38,74.73c-4.81,0-8.71,2.07-8.71,4.63s3.9,4.63,8.71,4.63,8.71-2.08,8.71-4.63-3.9-4.63-8.71-4.63Z"/>
              </g>
            </g>
            <g>
              <g>
                <path class="cls-18" d="M71.8,73.1c-3.47,0-6.29-1.5-6.29-3.35v4.42c0,1.85,2.82,3.35,6.29,3.35s6.29-1.5,6.29-3.35v-4.42c0,1.85-2.82,3.35-6.29,3.35Z"/>
                <path class="cls-9" d="M71.8,66.41c-3.47,0-6.29,1.5-6.29,3.35s2.82,3.35,6.29,3.35,6.29-1.5,6.29-3.35c0-1.85-2.82-3.35-6.29-3.35Z"/>
              </g>
              <g>
                <path class="cls-7" d="M71.8,73.82c-4.81,0-8.71-2.08-8.71-4.63v6.12c0,2.56,3.9,4.63,8.71,4.63s8.71-2.08,8.71-4.63v-6.12c0,2.56-3.9,4.63-8.71,4.63Z"/>
                <path class="cls-8" d="M71.8,64.55c-4.81,0-8.71,2.07-8.71,4.63s3.9,4.63,8.71,4.63,8.71-2.08,8.71-4.63-3.9-4.63-8.71-4.63Z"/>
              </g>
            </g>
          </g>
          <g>
            <g>
              <g>
                <path class="cls-18" d="M72.79,93.63c-3.47,0-6.29-1.5-6.29-3.35v4.42c0,1.85,2.82,3.35,6.29,3.35s6.29-1.5,6.29-3.35v-4.42c0,1.85-2.82,3.35-6.29,3.35Z"/>
                <path class="cls-9" d="M72.79,86.94c-3.47,0-6.29,1.5-6.29,3.35s2.82,3.35,6.29,3.35,6.29-1.5,6.29-3.35c0-1.85-2.82-3.35-6.29-3.35Z"/>
              </g>
              <g>
                <path class="cls-7" d="M72.79,94.35c-4.81,0-8.71-2.08-8.71-4.63v6.12c0,2.56,3.9,4.63,8.71,4.63s8.71-2.08,8.71-4.63v-6.12c0,2.56-3.9,4.63-8.71,4.63Z"/>
                <path class="cls-8" d="M72.79,85.08c-4.81,0-8.71,2.08-8.71,4.63s3.9,4.63,8.71,4.63,8.71-2.08,8.71-4.63c0-2.56-3.9-4.63-8.71-4.63Z"/>
              </g>
            </g>
            <g>
              <g>
                <path class="cls-18" d="M90.21,83.46c-3.47,0-6.29-1.5-6.29-3.35v4.42c0,1.85,2.82,3.35,6.29,3.35s6.29-1.5,6.29-3.35v-4.42c0,1.85-2.82,3.35-6.29,3.35Z"/>
                <path class="cls-9" d="M90.21,76.77c-3.47,0-6.29,1.5-6.29,3.35s2.82,3.35,6.29,3.35,6.29-1.5,6.29-3.35-2.82-3.35-6.29-3.35Z"/>
              </g>
              <g>
                <path class="cls-7" d="M90.21,84.18c-4.81,0-8.71-2.08-8.71-4.63v6.12c0,2.56,3.9,4.63,8.71,4.63s8.71-2.08,8.71-4.63v-6.12c0,2.56-3.9,4.63-8.71,4.63Z"/>
                <path class="cls-8" d="M90.21,74.91c-4.81,0-8.71,2.08-8.71,4.63s3.9,4.63,8.71,4.63,8.71-2.08,8.71-4.63-3.9-4.63-8.71-4.63Z"/>
              </g>
            </g>
            <g>
              <g>
                <path class="cls-18" d="M91.2,103.99c-3.47,0-6.29-1.5-6.29-3.35v4.42c0,1.85,2.82,3.35,6.29,3.35s6.29-1.5,6.29-3.35v-4.42c0,1.85-2.82,3.35-6.29,3.35Z"/>
                <path class="cls-9" d="M91.2,97.29c-3.47,0-6.29,1.5-6.29,3.35s2.82,3.35,6.29,3.35,6.29-1.5,6.29-3.35-2.82-3.35-6.29-3.35Z"/>
              </g>
              <g>
                <path class="cls-7" d="M91.2,104.71c-4.81,0-8.71-2.08-8.71-4.63v6.12c0,2.56,3.9,4.63,8.71,4.63s8.71-2.08,8.71-4.63v-6.12c0,2.56-3.9,4.63-8.71,4.63Z"/>
                <path class="cls-8" d="M91.2,95.44c-4.81,0-8.71,2.08-8.71,4.63s3.9,4.63,8.71,4.63,8.71-2.08,8.71-4.63-3.9-4.63-8.71-4.63Z"/>
              </g>
            </g>
            <g>
              <g>
                <path class="cls-18" d="M108.62,93.81c-3.47,0-6.29-1.5-6.29-3.35v4.42c0,1.85,2.82,3.35,6.29,3.35s6.29-1.5,6.29-3.35v-4.42c0,1.85-2.82,3.35-6.29,3.35Z"/>
                <path class="cls-9" d="M108.62,87.12c-3.47,0-6.29,1.5-6.29,3.35s2.82,3.35,6.29,3.35,6.29-1.5,6.29-3.35c0-1.85-2.82-3.35-6.29-3.35Z"/>
              </g>
              <g>
                <path class="cls-7" d="M108.62,94.54c-4.81,0-8.71-2.08-8.71-4.63v6.12c0,2.56,3.9,4.63,8.71,4.63s8.71-2.08,8.71-4.63v-6.12c0,2.56-3.9,4.63-8.71,4.63Z"/>
                <path class="cls-8" d="M108.62,85.27c-4.81,0-8.71,2.08-8.71,4.63s3.9,4.63,8.71,4.63,8.71-2.08,8.71-4.63-3.9-4.63-8.71-4.63Z"/>
              </g>
            </g>
          </g>
        </g>
        <g>
          <path class="cls-12" d="M231.83,108.93c-8.32,0-15.06,3.59-15.06,8.01s6.74,8.01,15.06,8.01,15.06-3.59,15.06-8.01-6.74-8.01-15.06-8.01Z"/>
          <path class="cls-5" d="M213.24,71.59v40.38c0,5.46,8.32,9.89,18.59,9.89s18.59-4.43,18.59-9.89v-40.38h-37.18Z"/>
          <path class="cls-16" d="M231.83,89.04c-10.27,0-18.59-4.43-18.59-9.89v23.66c0,5.46,8.32,9.89,18.59,9.89s18.59-4.43,18.59-9.89v-23.66c0,5.46-8.32,9.89-18.59,9.89Z"/>
          <path class="cls-13" d="M250.42,71.18c0-5.42-6.78-10.56-6.78-10.56l-2.45,2.48c-2.76-.86-5.93-1.39-9.36-1.39s-6.6.53-9.36,1.39l-2.45-2.48s-6.78,5.14-6.78,10.56v.41c0,5.46,8.32,9.89,18.59,9.89s18.59-4.43,18.59-9.89c0-.1,0-.36,0-.41Z"/>
          <path class="cls-5" d="M231.83,57.02c-7.57,0-13.7,3.26-13.7,7.29s6.13,7.29,13.7,7.29,13.7-3.26,13.7-7.29-6.13-7.29-13.7-7.29Z"/>
          <ellipse class="cls-5" cx="231.83" cy="62.04" rx="9.45" ry="5.03"/>
          <g>
            <path class="cls-17" d="M220.25,46.33v9.55c0,1.13.72,2.13,1.72,3.03v-7.33c0-.45.28-.67.62-.47.34.2.62.73.62,1.18v7.59c.97.59,2.12,1.06,3.44,1.42v-7.48c0-.39.32-.72.72-.72s.72.32.72.72v7.8c1.07.2,2.19.34,3.37.36v-7.72c0-.39.32-.72.72-.72s.72.32.72.72v7.65c1.2-.06,2.41-.14,3.48-.38v-8.02c0-.39.32-.72.72-.72s.72.32.72.72v7.5c1.09-.36,2.05-.78,2.87-1.3v-7.43c0-.45.28-.99.62-1.18.34-.2.62.01.62.47v7.17c.88-.87,1.51-1.81,1.51-2.87v-9.55h-23.15Z"/>
            <path class="cls-6" d="M232.17,53.57c-.39,0-.72.32-.72.72v7.72c.13,0,.24.04.38.04.37,0,.69-.09,1.06-.11v-7.65c0-.39-.32-.72-.72-.72Z"/>
            <path class="cls-6" d="M227.36,53.12c-.39,0-.72.32-.72.72v7.48c.47.13.93.23,1.43.32v-7.8c0-.39-.32-.72-.72-.72Z"/>
            <path class="cls-6" d="M237.07,52.82c-.39,0-.72.32-.72.72v8.02c.54-.12.94-.35,1.43-.51v-7.5c0-.39-.32-.72-.72-.72Z"/>
            <path class="cls-6" d="M241.27,51.12c-.34.2-.62.73-.62,1.18v7.43c.47-.3.88-.63,1.24-.98v-7.17c0-.46-.28-.67-.62-.47Z"/>
            <path class="cls-6" d="M222.59,51.12c-.34-.2-.62.01-.62.47v7.33c.37.34.75.68,1.24.98v-7.59c0-.45-.28-.99-.62-1.18Z"/>
          </g>
          <path class="cls-20" d="M231.83,40.18c-6.39,0-11.57,2.76-11.57,6.16s5.18,6.16,11.57,6.16,11.57-2.76,11.57-6.16-5.18-6.16-11.57-6.16Z"/>
          <path class="cls-16" d="M231.93,40.18c-4.82,0-8.72,2.08-8.72,4.64s3.91,4.64,8.72,4.64,8.72-2.08,8.72-4.64-3.91-4.64-8.72-4.64Z"/>
          <path class="cls-10" d="M218.47,63.83c-1.37,1.47-2.61,3.7-3.09,4.84-.47,1.11-1.37,3.39-.48,4.51.73.92,1.77.25,2.15-.6.46-1.02.62-2.26.91-3.35.37-1.4,1.08-3.51,1.39-4.93.15-.7-.1-1.31-.88-.47Z"/>
          <path class="cls-13" d="M241.75,100.13c.15,5.81-4.39,9.71-9.81,9.71s-9.81-3.9-9.81-9.71c0-4.92,4.39-8.11,9.81-8.11,5.42,0,9.68,3.19,9.81,8.11Z"/>
          <path class="cls-16" d="M238.07,98.21c-1.3.36-2.69.59-4.1.71v-4.55h-4.07v4.56c-1.41-.11-2.8-.33-4.11-.68l-.7-.19v3.88l.41.11c1.4.38,2.88.61,4.39.73v4.68h4.07v-4.7c1.52-.12,3-.37,4.4-.76l.41-.11v-3.88l-.71.2Z"/>
        </g>
        <path class="cls-18" d="M206.22,30.98v55.94c0,7.05-10.74,12.76-23.98,12.76s-23.98-5.71-23.98-12.76V30.74l47.96.24Z"/>
        <path class="cls-16" d="M167.81,50.33c4.02,1.63,8.99,2.63,14.43,2.63,13.24,0,23.98-5.71,23.98-12.76v37.48c0,7.05-10.74,12.76-23.98,12.76-5.44,0-10.41-1-14.43-2.63v-37.48h0Z"/>
        <path class="cls-9" d="M173.03,59.37c2.84.65,5.92,1.05,9.21,1.05,13.25,0,23.98-5.71,23.98-12.76v4.28c0,7.04-10.74,12.76-23.98,12.76-3.29,0-6.37-.4-9.21-1.05v-4.28h0Z"/>
        <path class="cls-9" d="M159.31,27.2h-.03s.22-.44.67-1.1c.13-.17.24-.35.38-.52,1.73-2.34,5.84-6.67,13.94-8.9,2.81-.77,4.41-.05,5.26,1.45.9-.05,1.78-.15,2.71-.15s1.85.09,2.77.15c.85-1.5,2.45-2.22,5.26-1.45,8.47,2.34,12.63,7,14.21,9.25.55.78,1.75,3.58,1.75,4.81,0,7.05-10.74,12.76-23.98,12.76s-23.98-5.71-23.98-12.76c0-1.24.43-2.41,1.05-3.54Z"/>
        <path class="cls-18" d="M181.72,15.66c7.13,0,12.91,3.07,12.91,6.87s-5.78,6.87-12.91,6.87-12.91-3.07-12.91-6.87c0-3.79,5.78-6.87,12.91-6.87Z"/>
        <g>
          <path class="cls-15" d="M195.21,7.02v10.9c0,1.29-.83,2.42-1.96,3.46-.43.39-.86.78-1.41,1.12-1.1.67-2.41,1.21-3.92,1.62-.53.14-1.06.26-1.63.37-1.22.23-2.49.39-3.85.41-.15,0-.28.05-.43.05-.43,0-.79-.11-1.2-.13-1.37-.07-2.75-.16-3.97-.43-.61-.14-1.07-.4-1.63-.58-1.25-.41-2.34-.89-3.27-1.49-.54-.35-1.01-.72-1.41-1.12-1-.99-1.72-2.07-1.72-3.27V7.02h26.41Z"/>
          <g>
            <path class="cls-11" d="M181.62,15.27c.45,0,.82.37.82.82v8.81c-.15,0-.28.05-.43.05-.43,0-.79-.11-1.2-.13v-8.72c0-.45.37-.82.82-.82Z"/>
            <path class="cls-11" d="M187.1,14.77c.45,0,.82.37.82.82v8.53c-.53.14-1.06.26-1.63.37v-8.9c0-.45.37-.82.82-.82Z"/>
            <path class="cls-11" d="M176.02,14.42c.45,0,.82.37.82.82v9.15c-.61-.14-1.07-.4-1.63-.58v-8.56c0-.45.37-.82.82-.82Z"/>
            <path class="cls-11" d="M171.22,12.48c.39.22.71.83.71,1.35v8.47c-.54-.35-1.01-.72-1.41-1.12v-8.17c0-.52.32-.76.71-.53Z"/>
            <path class="cls-11" d="M192.54,12.48c.39-.22.71.02.71.53v8.36c-.43.39-.86.78-1.41,1.12v-8.66c0-.52.32-1.13.71-1.35Z"/>
          </g>
          <path class="cls-2" d="M182,0c7.29,0,13.2,3.14,13.2,7.02s-5.91,7.02-13.2,7.02-13.2-3.14-13.2-7.02,5.91-7.02,13.2-7.02Z"/>
        </g>
        <g>
          <path class="cls-6" d="M194.27,69.61c3.18-1.5,8.23-1.54,8.23-1.54l1.37,2.67c1.21,2.56-1.14,6.2-5.23,8.13-4.01,1.89-8.2,1.43-9.5-.99l-1.47-2.81s3.42-3.96,6.6-5.46Z"/>
          <path class="cls-17" d="M197.27,76.2c4.09-1.93,6.44-5.57,5.23-8.13-1.21-2.56-5.5-3.06-9.6-1.13-4.1,1.93-6.44,5.57-5.23,8.13,1.21,2.56,5.5,3.06,9.6,1.13Z"/>
        </g>
        <g>
          <path class="cls-6" d="M174.75,73.04c2.29-.29,5.37.25,8.49,1.7,3.36,1.56,5.92,3.77,7.07,5.84l1.64.79-1.22,2.57c-1.21,2.6-6.52,2.7-11.86.21-5.34-2.48-8.69-6.61-7.48-9.21l1.35-2.9,2.02.98Z"/>
          <path class="cls-1" d="M180.2,81.26c5.34,2.48,10.65,2.39,11.86-.21,1.21-2.6-2.14-6.72-7.48-9.21-5.34-2.48-10.65-2.39-11.86.21-1.21,2.6,2.14,6.72,7.48,9.21Z"/>
        </g>
        <g>
          <path class="cls-3" d="M19.45,104.04c-2.06-.98-4.78-1.58-7.76-1.58s-5.69.6-7.76,1.58l-3.93-2.53v7.17c0,3.43,5.23,6.22,11.69,6.22s11.69-2.78,11.69-6.22v-7.17l-3.93,2.53Z"/>
          <path class="cls-16" d="M11.69,95.29c-6.46,0-11.69,2.78-11.69,6.22s5.23,6.22,11.69,6.22,11.69-2.78,11.69-6.22c0-3.43-5.23-6.22-11.69-6.22Z"/>
          <path class="cls-1" d="M7.24,95.85l-4.25,1.5,14.77,9.46,1.85-.74s1.59-1.01,1.43-1.11c-.16-.1-13.8-9.11-13.8-9.11Z"/>
        </g>
        <g>
          <path class="cls-3" d="M32.82,115.3c2.06-.98,4.78-1.58,7.76-1.58s5.69.6,7.76,1.58l3.93-2.53v7.17c0,3.43-5.23,6.22-11.69,6.22s-11.69-2.78-11.69-6.22v-7.17l3.93,2.53Z"/>
          <path class="cls-16" d="M40.58,106.55c6.46,0,11.69,2.78,11.69,6.22s-5.23,6.22-11.69,6.22-11.69-2.78-11.69-6.22,5.23-6.22,11.69-6.22Z"/>
          <path class="cls-1" d="M45.03,107.12l4.25,1.5-14.77,9.46-1.85-.74s-1.59-1.01-1.43-1.11c.16-.1,13.81-9.11,13.81-9.11Z"/>
        </g>
        <g>
          <path class="cls-4" d="M108.66,49.15v40.13c0,5.05,7.7,9.15,17.21,9.15s17.21-4.1,17.21-9.15v-40.3l-34.41.17Z"/>
          <path class="cls-16" d="M108.66,55.48v25.75c0,5.05,7.7,9.15,17.21,9.15,4.2,0,8.04-.8,11.03-2.13v-25.75c-2.99,1.33-6.83,2.13-11.03,2.13-9.5,0-17.21-4.1-17.21-9.15Z"/>
          <path class="cls-14" d="M132.48,67.82c-2.04.45-4.27.71-6.62.71-9.5,0-17.21-4.1-17.21-9.15v4.18c0,5.06,7.7,9.15,17.21,9.15,2.35,0,4.58-.26,6.62-.71v-4.18Z"/>
          <path class="cls-17" d="M141.55,41.18c-3.61-2.43-9.19-4-15.46-4-3.78,0-7.3.58-10.3,1.56l-1.63-.15-7.76,4.61v4.46c0,5.79,8.82,10.48,19.69,10.48s19.69-4.69,19.69-10.48v-4.46l-4.23-2.01Z"/>
          <path class="cls-16" d="M126.09,32.72c-10.88,0-19.69,4.69-19.69,10.48s8.82,10.48,19.69,10.48,19.69-4.69,19.69-10.48-8.82-10.48-19.69-10.48Z"/>
          <path class="cls-14" d="M139.14,36.33c-3.03-2.04-7.71-3.36-12.98-3.36-3.17,0-6.13.48-8.65,1.31l-1.37-.13-6.51,2.51v5.1c0,4.85,7.4,8.79,16.53,8.79s16.53-3.94,16.53-8.79v-5.1l-3.55-.34Z"/>
          <path class="cls-4" d="M126.16,27.87c-9.13,0-16.53,3.94-16.53,8.79s7.4,8.79,16.53,8.79,16.53-3.94,16.53-8.79c0-4.86-7.4-8.79-16.53-8.79Z"/>
        </g>
        <g>
          <path class="cls-6" d="M140.88,114.28l1.87-.38c1.21-1.37,2.97-2.69,5.23-3.78,4.7-2.27,10.21-2.96,14.22-2.04.89.2,1.69.5,2.41.86l3,.09s.01,3.95,0,4.29c-.14,2.63-2.69,5.58-7.08,7.7-6.52,3.15-14.61,3.25-18.07.24-1.16-1.01-1.64-2.24-1.54-3.55l-.03-3.44Z"/>
          <path class="cls-1" d="M148.01,105.86c-6.53,3.11-9.04,8.09-5.59,11.12,3.45,3.03,11.54,2.97,18.07-.14,6.53-3.11,9.04-8.09,5.59-11.12-3.45-3.03-11.54-2.97-18.07.14Z"/>
          <path class="cls-16" d="M151.25,104.66c6.89,3.03,9.74,8.15,9.74,8.15l-2.4,1.46s-5.37-6.61-10.61-8.39l3.27-1.23Z"/>
        </g>
      </g>
    </g>
  </g>
</svg>