<?xml version="1.0" encoding="UTF-8"?>
<svg id="_圖層_2" data-name="圖層 2" xmlns="http://www.w3.org/2000/svg" viewBox="0 0 234.81 197.27">
  <defs>
    <style>
      .cls-1, .cls-2 {
        fill: #a7cbd2;
      }

      .cls-3, .cls-4 {
        fill: #ce9e96;
      }

      .cls-3, .cls-5, .cls-6, .cls-7, .cls-2 {
        isolation: isolate;
      }

      .cls-3, .cls-7, .cls-2 {
        opacity: .6;
      }

      .cls-8 {
        stroke: #9ab4ba;
      }

      .cls-8, .cls-9, .cls-10, .cls-11, .cls-12, .cls-13 {
        fill: none;
      }

      .cls-8, .cls-9, .cls-10, .cls-11, .cls-13 {
        stroke-miterlimit: 10;
      }

      .cls-8, .cls-10, .cls-13 {
        stroke-width: .43px;
      }

      .cls-9 {
        stroke: #a7cbd2;
      }

      .cls-9, .cls-11, .cls-12 {
        stroke-width: .65px;
      }

      .cls-14, .cls-5 {
        fill: #4f737c;
      }

      .cls-10, .cls-11, .cls-12 {
        stroke: #262425;
      }

      .cls-15 {
        fill: #6b8dc9;
      }

      .cls-5 {
        opacity: .3;
      }

      .cls-16 {
        fill: #9ab4ba;
      }

      .cls-12 {
        stroke-linecap: round;
        stroke-linejoin: round;
      }

      .cls-17 {
        fill: #3f2d2b;
      }

      .cls-13 {
        stroke: #4f737c;
      }

      .cls-18 {
        fill: #f8f4ed;
      }

      .cls-19 {
        opacity: .35;
      }

      .cls-20, .cls-7 {
        fill: #e4b962;
      }

      .cls-6 {
        opacity: .44;
      }

      .cls-6, .cls-21 {
        fill: #e4e7e5;
      }

      .cls-22 {
        fill: #7998d8;
      }

      .cls-23 {
        fill: #e8eff9;
      }
    </style>
  </defs>
  <g id="_圖層_1-2" data-name="圖層 1">
    <g>
      <g>
        <path class="cls-23" d="M162.89,18.92c-9.96-6.95-24.15.89-24.51,13.03-.11,3.61.45,7.47,1.29,10.2,3.01,9.81,10.7,18.52,19.86,24.21,12.51,7.78,28.12,6.32,36.67,2.21,5.83-2.81,11.48-8.23,13.66-14.08,0,0,7.64-15.75-6.41-27.02s-21.72.75-40.32-8.39c-.09-.04-.16-.11-.24-.17Z"/>
        <path class="cls-23" d="M109.61,20.24c-12.49-10.49-30.64-11.81-45.83-5.74-15.19,6.07-28.53,18.14-36.81,32.92-15.21,27.15-20.18,70.13.94,102.39,15.46,23.61,42.32,41.03,69.39,45.49,21.67,3.57,44.83,2.39,66.06-4.41,11.27-3.61,22.68-10.31,31.42-17.16,11.68-9.14,24.25-26.92,25.93-44.22,1.05-10.84-2.23-20.16-8.7-26-3.07-2.78-6.96-4.33-10.76-5.84-17.62-6.98-42.18-11.63-55.88-26-14.36-15.06-19.8-38.21-35.76-51.43Z"/>
      </g>
      <g>
        <g>
          <g>
            <g>
              <g>
                <g>
                  <path class="cls-1" d="M56.05,6.1l-1.09.29c-.2.05-.31.27-.23.46l.98,2.48,1.13-.3-.36-2.65c-.03-.2-.23-.34-.43-.29Z"/>
                  <path class="cls-1" d="M61.32,30.8l1.09-.29c.2-.05.31-.27.23-.46l-.98-2.48-1.13.3.36,2.65c.03.21.23.34.43.29Z"/>
                  <path class="cls-1" d="M71.03,15.82l-.29-1.09c-.05-.2-.27-.31-.46-.23l-2.48.98.3,1.13,2.65-.36c.2-.03.34-.23.29-.43Z"/>
                  <path class="cls-1" d="M46.33,21.09l.29,1.09c.05.2.27.31.46.23l2.48-.98-.3-1.13-2.65.36c-.2.03-.34.23-.29.43Z"/>
                  <path class="cls-1" d="M48.09,11.59l-.57.98c-.11.18-.03.41.16.49l2.45,1.06.59-1.01-2.12-1.62c-.16-.13-.4-.08-.51.1Z"/>
                  <path class="cls-1" d="M69.28,25.32l.57-.98c.11-.18.03-.41-.16-.49l-2.45-1.06-.59,1.01,2.12,1.62c.16.13.4.08.51-.1Z"/>
                  <path class="cls-1" d="M65.55,7.86l-.98-.57c-.18-.11-.41-.03-.49.16l-1.06,2.45,1.01.59,1.62-2.12c.13-.16.08-.4-.1-.51Z"/>
                  <path class="cls-1" d="M51.82,29.05l.98.57c.18.11.41.03.49-.16l1.06-2.45-1.01-.59-1.62,2.12c-.13.16-.08.4.1.51Z"/>
                </g>
                <g>
                  <path class="cls-1" d="M61.5,3.92l-1.84-.24c-.34-.04-.64.22-.64.56l-.03,4.37,1.9.25,1.08-4.23c.09-.33-.14-.66-.47-.7Z"/>
                  <path class="cls-1" d="M55.87,32.91l1.84.24c.34.04.64-.22.64-.56l.03-4.37-1.9-.25-1.08,4.23c-.09.33.14.66.47.7Z"/>
                  <path class="cls-1" d="M73.19,21.23l.24-1.84c.04-.34-.22-.64-.56-.64l-4.37-.03-.25,1.9,4.23,1.08c.33.09.66-.14.7-.47Z"/>
                  <path class="cls-1" d="M44.19,15.6l-.24,1.84c-.04.34.22.64.56.64l4.37.03.25-1.9-4.23-1.08c-.33-.08-.66.14-.7.47Z"/>
                  <path class="cls-1" d="M50.43,6.17l-1.47,1.13c-.27.21-.3.6-.06.84l3.07,3.11,1.52-1.17-2.23-3.76c-.17-.29-.56-.37-.83-.16Z"/>
                  <path class="cls-1" d="M66.95,30.65l1.47-1.13c.27-.21.3-.6.06-.84l-3.07-3.11-1.52,1.17,2.23,3.76c.17.29.56.37.83.16Z"/>
                  <path class="cls-1" d="M70.93,10.16l-1.13-1.47c-.21-.27-.6-.3-.84-.06l-3.11,3.07,1.17,1.52,3.76-2.23c.29-.17.37-.56.16-.83Z"/>
                  <path class="cls-1" d="M46.45,26.67l1.13,1.47c.21.27.6.3.84.06l3.11-3.07-1.17-1.52-3.76,2.23c-.29.17-.37.56-.16.83Z"/>
                </g>
              </g>
              <circle class="cls-1" cx="58.68" cy="18.46" r="10.18"/>
            </g>
            <g>
              <path class="cls-2" d="M61.43,14.25c-.12.93.54,1.78,1.47,1.9.93.12,1.78-.54,1.9-1.47s-.54-1.78-1.47-1.9c-.93-.12-1.78.54-1.9,1.47Z"/>
              <path class="cls-2" d="M52.47,22.26c-.12.93.54,1.78,1.47,1.9.93.12,1.78-.54,1.9-1.47s-.54-1.78-1.47-1.9-1.78.54-1.9,1.47Z"/>
              <path class="cls-2" d="M57.58,16.98c-.09.7.4,1.35,1.11,1.44.7.09,1.35-.4,1.44-1.11.09-.7-.4-1.35-1.11-1.44-.7-.09-1.35.4-1.44,1.11Z"/>
              <path class="cls-2" d="M58.33,24.74c-.09.7.4,1.35,1.11,1.44.7.09,1.35-.4,1.44-1.11.09-.7-.4-1.35-1.11-1.44-.7-.09-1.35.4-1.44,1.11Z"/>
              <path class="cls-2" d="M52.7,13.12c-.07.52.3,1.01.83,1.07.52.07,1.01-.3,1.07-.83.07-.52-.3-1.01-.83-1.07-.52-.07-1.01.3-1.07.83Z"/>
              <path class="cls-2" d="M57.67,11.23c-.05.36.2.68.56.73s.68-.2.73-.56c.05-.36-.2-.68-.56-.73-.36-.05-.68.2-.73.56Z"/>
              <path class="cls-2" d="M63.94,22.04c-.05.36.2.68.56.73.36.05.68-.2.73-.56.05-.36-.2-.68-.56-.73-.36-.05-.68.2-.73.56Z"/>
            </g>
          </g>
          <g class="cls-19">
            <path class="cls-1" d="M66.3,19.44c-.3-1.37-.69-2.56-1.31-3.59-.6-1.03-1.36-1.91-2.27-2.61-.9-.72-1.92-1.21-3.1-1.56-1.11-.34-2.41-.43-3.8-.44,1.13-.85,2.54-1.28,4.07-1.24,1.45.06,2.98.57,4.16,1.53,1.21.93,2.09,2.24,2.51,3.67.42,1.42.34,2.97-.27,4.23Z"/>
          </g>
        </g>
        <g>
          <g>
            <g>
              <g>
                <g>
                  <path class="cls-4" d="M82.66,71.72l-1.05.56c-.19.1-.25.35-.13.53l1.61,2.3,1.09-.58-1-2.62c-.08-.2-.32-.29-.51-.19Z"/>
                  <path class="cls-4" d="M94.05,95.75l1.05-.56c.19-.1.25-.35.13-.53l-1.61-2.3-1.09.58,1,2.62c.08.2.32.29.51.19Z"/>
                  <path class="cls-4" d="M100.37,78.04l-.56-1.05c-.1-.19-.35-.25-.53-.13l-2.3,1.61.58,1.09,2.62-1c.2-.08.29-.32.19-.51Z"/>
                  <path class="cls-4" d="M76.35,89.43l.56,1.05c.1.19.35.25.53.13l2.3-1.61-.58-1.09-2.62,1c-.2.08-.29.32-.19.51Z"/>
                  <path class="cls-4" d="M75.84,79.27l-.35,1.14c-.06.21.07.43.28.46l2.77.49.36-1.18-2.57-1.15c-.2-.09-.43.02-.5.23Z"/>
                  <path class="cls-4" d="M100.88,88.2l.35-1.14c.06-.21-.07-.43-.28-.46l-2.77-.49-.36,1.18,2.57,1.15c.2.09.43-.02.5-.23Z"/>
                  <path class="cls-4" d="M92.83,71.22l-1.14-.35c-.21-.06-.43.07-.46.28l-.49,2.77,1.18.36,1.15-2.57c.09-.2-.02-.43-.23-.5Z"/>
                  <path class="cls-4" d="M83.89,96.25l1.14.35c.21.06.43-.07.46-.28l.49-2.77-1.18-.36-1.15,2.57c-.09.2.02.43.23.5Z"/>
                </g>
                <g>
                  <path class="cls-4" d="M87.73,68.16l-1.94.2c-.36.04-.6.38-.52.72l1.03,4.49,2-.21.09-4.6c0-.36-.3-.64-.66-.6Z"/>
                  <path class="cls-4" d="M88.98,99.22l1.94-.2c.36-.04.6-.38.52-.72l-1.03-4.49-2,.21-.09,4.6c0,.36.3.64.66.6Z"/>
                  <path class="cls-4" d="M103.88,83.07l-.2-1.94c-.04-.36-.38-.6-.72-.52l-4.49,1.03.21,2,4.6.09c.36,0,.64-.3.6-.66Z"/>
                  <path class="cls-4" d="M72.82,84.32l.2,1.94c.04.36.38.6.72.52l4.49-1.03-.21-2-4.6-.09c-.36,0-.64.3-.6.66Z"/>
                  <path class="cls-4" d="M76.93,73.16l-1.23,1.51c-.22.28-.16.69.15.88l3.9,2.45,1.27-1.56-3.19-3.31c-.25-.26-.67-.24-.89.04Z"/>
                  <path class="cls-4" d="M99.78,94.23l1.23-1.51c.22-.28.16-.69-.15-.88l-3.9-2.45-1.27,1.56,3.19,3.31c.25.26.67.24.89-.04Z"/>
                  <path class="cls-4" d="M98.89,72.27l-1.51-1.23c-.28-.22-.69-.16-.88.15l-2.45,3.9,1.56,1.27,3.31-3.19c.26-.25.24-.66-.04-.89Z"/>
                  <path class="cls-4" d="M77.82,95.12l1.51,1.23c.28.22.69.16.88-.15l2.45-3.9-1.56-1.27-3.31,3.19c-.26.25-.24.67.04.89Z"/>
                </g>
              </g>
              <path class="cls-4" d="M99.02,82.63c-.61-5.89-5.88-10.17-11.76-9.56-5.89.61-10.17,5.88-9.56,11.76.61,5.89,5.88,10.17,11.76,9.56,5.89-.61,10.17-5.88,9.56-11.76Z"/>
            </g>
            <g>
              <path class="cls-3" d="M90.15,78.76c.1.98.98,1.7,1.96,1.59.98-.1,1.7-.98,1.59-1.96-.1-.98-.98-1.7-1.96-1.59-.98.1-1.7.98-1.59,1.96Z"/>
              <path class="cls-3" d="M82.92,89.14c.1.98.98,1.7,1.96,1.59s1.7-.98,1.59-1.96c-.1-.98-.98-1.7-1.96-1.59-.98.1-1.7.98-1.59,1.96Z"/>
              <path class="cls-3" d="M86.87,82.49c.08.74.74,1.28,1.48,1.2.74-.08,1.28-.74,1.2-1.48-.08-.74-.74-1.28-1.48-1.2s-1.28.74-1.2,1.48Z"/>
              <path class="cls-3" d="M89.52,90.26c.08.74.74,1.28,1.48,1.2s1.28-.74,1.2-1.48-.74-1.28-1.48-1.2c-.74.08-1.28.74-1.2,1.48Z"/>
              <path class="cls-3" d="M80.93,79.72c.06.55.55.96,1.11.9.55-.06.96-.55.9-1.11-.06-.55-.55-.96-1.11-.9-.55.06-.96.55-.9,1.11Z"/>
              <path class="cls-3" d="M85.57,76.58c.04.38.37.65.75.61s.65-.37.61-.75c-.04-.38-.37-.65-.75-.61-.38.04-.65.37-.61.75Z"/>
              <path class="cls-3" d="M94.6,86.13c.04.38.37.65.75.61s.65-.37.61-.75c-.04-.38-.37-.65-.75-.61-.37.04-.65.37-.61.75Z"/>
            </g>
          </g>
          <g class="cls-19">
            <path class="cls-4" d="M96.4,82.9c-.62-1.34-1.29-2.47-2.17-3.38-.86-.92-1.86-1.65-2.97-2.15-1.1-.52-2.29-.77-3.58-.84-1.23-.07-2.59.17-4,.51.97-1.12,2.3-1.9,3.87-2.21,1.49-.28,3.18-.13,4.61.56,1.45.65,2.67,1.77,3.45,3.13.78,1.35,1.08,2.94.79,4.38Z"/>
          </g>
        </g>
        <g>
          <g>
            <g>
              <g>
                <g>
                  <path class="cls-20" d="M23.33,45.92l-1.85.93c-.34.17-.45.6-.24.91l2.7,4.06,1.91-.96-1.65-4.6c-.13-.36-.54-.52-.88-.35Z"/>
                  <path class="cls-20" d="M42.19,88.08l1.85-.93c.34-.17.45-.6.24-.91l-2.7-4.06-1.91.96,1.65,4.6c.13.36.54.52.88.35Z"/>
                  <path class="cls-20" d="M53.84,57.57l-.93-1.85c-.17-.34-.6-.45-.91-.24l-4.06,2.7.96,1.91,4.6-1.65c.36-.13.52-.54.35-.88Z"/>
                  <path class="cls-20" d="M11.68,76.43l.93,1.85c.17.34.6.45.91.24l4.06-2.7-.96-1.91-4.6,1.64c-.36.13-.52.54-.35.88Z"/>
                  <path class="cls-20" d="M11.19,58.76l-.65,1.96c-.12.36.1.74.47.82l4.79.96.67-2.03-4.41-2.09c-.34-.16-.75.01-.87.37Z"/>
                  <path class="cls-20" d="M54.33,75.24l.65-1.96c.12-.36-.1-.74-.47-.82l-4.79-.96-.67,2.03,4.41,2.09c.34.16.75-.01.87-.37Z"/>
                  <path class="cls-20" d="M41,45.43l-1.96-.65c-.36-.12-.74.1-.82.47l-.96,4.79,2.03.67,2.09-4.41c.16-.34-.01-.75-.37-.87Z"/>
                  <path class="cls-20" d="M24.52,88.57l1.96.65c.36.12.74-.1.82-.47l.96-4.79-2.03-.67-2.09,4.41c-.16.34.01.75.37.87Z"/>
                </g>
                <g>
                  <path class="cls-20" d="M32.25,39.93l-3.38.28c-.62.05-1.05.63-.93,1.24l1.61,7.83,3.49-.28.32-7.99c.02-.62-.5-1.12-1.12-1.07Z"/>
                  <path class="cls-20" d="M33.25,93.92l3.38-.28c.62-.05,1.05-.63.93-1.24l-1.61-7.83-3.49.28-.32,7.99c-.02.62.5,1.12,1.12,1.07Z"/>
                  <path class="cls-20" d="M59.75,66.43l-.28-3.38c-.05-.62-.63-1.05-1.24-.93l-7.83,1.61.28,3.49,7.99.32c.62.02,1.12-.5,1.07-1.12Z"/>
                  <path class="cls-20" d="M5.76,67.43l.28,3.38c.05.62.63,1.05,1.24.93l7.83-1.61-.28-3.49-7.99-.32c-.62-.02-1.12.5-1.07,1.12Z"/>
                  <path class="cls-20" d="M13.31,48.19l-2.19,2.58c-.4.47-.3,1.19.22,1.53l6.68,4.4,2.26-2.67-5.42-5.88c-.42-.46-1.15-.44-1.55.03Z"/>
                  <path class="cls-20" d="M52.19,85.66l2.19-2.58c.4-.47.3-1.19-.22-1.53l-6.68-4.4-2.26,2.67,5.42,5.88c.42.46,1.15.44,1.55-.03Z"/>
                  <path class="cls-20" d="M51.49,47.49l-2.58-2.19c-.47-.4-1.19-.3-1.53.22l-4.4,6.68,2.67,2.26,5.88-5.42c.46-.42.44-1.15-.03-1.55Z"/>
                  <path class="cls-20" d="M14.02,86.37l2.58,2.19c.47.4,1.19.3,1.53-.22l4.4-6.68-2.67-2.26-5.88,5.42c-.46.42-.44,1.15.03,1.55Z"/>
                </g>
              </g>
              <circle class="cls-20" cx="32.76" cy="67.01" r="18.62"/>
            </g>
            <g>
              <circle class="cls-7" cx="39.16" cy="58.18" r="3.11"/>
              <path class="cls-7" d="M23.11,76.18c.14,1.71,1.64,2.98,3.35,2.84,1.71-.14,2.98-1.64,2.84-3.35-.14-1.71-1.64-2.98-3.35-2.84-1.71.14-2.98,1.64-2.84,3.35Z"/>
              <path class="cls-7" d="M30.22,64.78c.11,1.29,1.24,2.25,2.53,2.15,1.29-.11,2.25-1.24,2.15-2.53s-1.24-2.25-2.53-2.15c-1.29.11-2.25,1.24-2.15,2.53Z"/>
              <path class="cls-7" d="M34.53,78.37c.11,1.29,1.24,2.25,2.53,2.15s2.25-1.24,2.15-2.53c-.11-1.29-1.24-2.25-2.53-2.15s-2.25,1.24-2.15,2.53Z"/>
              <path class="cls-7" d="M20.01,59.74c.08.96.92,1.68,1.89,1.6.96-.08,1.68-.92,1.6-1.89-.08-.96-.92-1.68-1.89-1.6s-1.68.92-1.6,1.89Z"/>
              <path class="cls-7" d="M28.19,54.47c.05.65.63,1.14,1.28,1.09.65-.05,1.14-.63,1.09-1.28-.05-.65-.63-1.14-1.28-1.09-.65.05-1.14.63-1.09,1.28Z"/>
              <path class="cls-7" d="M43.52,71.4c.05.65.63,1.14,1.28,1.09.65-.05,1.14-.63,1.09-1.28-.05-.65-.63-1.14-1.28-1.09-.65.05-1.14.63-1.09,1.28Z"/>
            </g>
          </g>
          <g class="cls-19">
            <path class="cls-20" d="M46.76,65.86c-.92-2.36-2.07-4.36-3.54-6.03-1.45-1.67-3.19-2.98-5.1-3.91-1.93-.93-4-1.46-6.25-1.57-1.05-.08-2.22.01-3.38.16-1.17.13-2.34.41-3.58.7.85-.95,1.91-1.69,3.05-2.31,1.15-.6,2.38-1.05,3.76-1.27,2.6-.44,5.47-.04,7.91,1.16,2.46,1.19,4.54,3.14,5.83,5.5,1.3,2.34,1.81,5.08,1.29,7.57Z"/>
          </g>
        </g>
      </g>
      <g>
        <circle class="cls-16" cx="184.47" cy="114.61" r="2.27"/>
        <circle class="cls-21" cx="23.1" cy="26.42" r="2.27"/>
        <path class="cls-14" d="M177.41,104.16c0,.63.51,1.13,1.13,1.13s1.13-.51,1.13-1.13-.51-1.13-1.13-1.13-1.13.51-1.13,1.13Z"/>
        <path class="cls-14" d="M65.61,162.12c0,.63.51,1.13,1.13,1.13s1.13-.51,1.13-1.13-.51-1.13-1.13-1.13-1.13.51-1.13,1.13Z"/>
        <path class="cls-1" d="M132.84,15.48c0,.63.51,1.13,1.13,1.13s1.13-.51,1.13-1.13-.51-1.13-1.13-1.13-1.13.51-1.13,1.13Z"/>
        <path class="cls-14" d="M117.34,1.58c0,.87.71,1.58,1.58,1.58s1.58-.71,1.58-1.58-.71-1.58-1.58-1.58-1.58.71-1.58,1.58Z"/>
        <circle class="cls-14" cx="80.32" cy="52.95" r="2.27"/>
        <path class="cls-20" d="M175.84,59.21c0,.87.71,1.58,1.58,1.58s1.58-.71,1.58-1.58-.71-1.58-1.58-1.58-1.58.71-1.58,1.58Z"/>
        <path class="cls-1" d="M79.46,155.73c0,.87.71,1.58,1.58,1.58s1.58-.71,1.58-1.58-.71-1.58-1.58-1.58-1.58.71-1.58,1.58Z"/>
      </g>
      <g>
        <g>
          <line class="cls-12" x1="44.31" y1="118.51" x2=".33" y2="110.15"/>
          <g>
            <g>
              <rect class="cls-22" x="204.52" y="133.72" width="15.26" height="33.36" transform="translate(24.8 330.76) rotate(-79.25)"/>
              <rect class="cls-17" x="215.62" y="152.06" width="29.35" height="3.62" transform="translate(36.17 351.42) rotate(-79.25)"/>
            </g>
            <g>
              <rect class="cls-22" x="166.78" y="126.98" width="20.17" height="33.49" transform="translate(2.66 290.67) rotate(-79.25)"/>
              <path class="cls-15" d="M62.98,111.81l99.32,18.86-3.76,19.82-99.32-18.86-1.7-3.55c-.12-.26-.16-.54-.11-.82l2.28-12.03c.05-.28.19-.53.4-.73l2.88-2.69Z"/>
            </g>
            <g>
              <line class="cls-11" x1="113.8" y1="121.46" x2="112.64" y2="127.56"/>
              <line class="cls-11" x1="107.96" y1="120.35" x2="106.8" y2="126.45"/>
              <line class="cls-11" x1="102.11" y1="119.24" x2="100.95" y2="125.34"/>
              <line class="cls-11" x1="96.27" y1="118.13" x2="95.11" y2="124.23"/>
              <line class="cls-11" x1="90.42" y1="117.02" x2="89.27" y2="123.12"/>
              <line class="cls-11" x1="84.58" y1="115.91" x2="83.42" y2="122.01"/>
              <line class="cls-11" x1="78.74" y1="114.8" x2="77.58" y2="120.9"/>
              <line class="cls-11" x1="148.86" y1="128.12" x2="147.71" y2="134.22"/>
              <line class="cls-11" x1="143.02" y1="127.01" x2="141.86" y2="133.11"/>
              <line class="cls-11" x1="154.71" y1="129.23" x2="153.55" y2="135.33"/>
              <line class="cls-11" x1="137.18" y1="125.9" x2="136.02" y2="132"/>
              <line class="cls-11" x1="131.33" y1="124.79" x2="130.17" y2="130.89"/>
              <line class="cls-11" x1="125.49" y1="123.68" x2="124.33" y2="129.78"/>
              <line class="cls-11" x1="119.64" y1="122.57" x2="118.49" y2="128.67"/>
              <line class="cls-11" x1="72.89" y1="113.69" x2="71.73" y2="119.79"/>
            </g>
            <g>
              <rect class="cls-17" x="153.85" y="137.69" width="20.17" height="7.11" transform="translate(-5.42 275.94) rotate(-79.25)"/>
              <line class="cls-10" x1="165.78" y1="133.83" x2="162.6" y2="151.26"/>
            </g>
            <line class="cls-13" x1="193.32" y1="146.83" x2="167.41" y2="141.91"/>
            <line class="cls-8" x1="59.39" y1="131.66" x2="62.43" y2="115.65"/>
            <g>
              <polygon class="cls-16" points="53.55 122.69 57.46 127.02 59.66 115.46 54.43 118.05 53.55 122.69"/>
              <rect class="cls-22" x="47.9" y="115.6" width="4.33" height="8.02" transform="translate(-76.78 146.47) rotate(-79.25)"/>
              <rect class="cls-16" x="43.57" y="117.79" width="3.3" height="1.84" transform="translate(-79.85 140.98) rotate(-79.25)"/>
            </g>
            <rect class="cls-17" x="179.03" y="145.84" width="31.03" height="2.46" transform="translate(13.76 310.75) rotate(-79.25)"/>
          </g>
        </g>
        <g>
          <rect class="cls-22" x="210.95" y="129.91" width="3.75" height="33.36" transform="translate(29.1 328.32) rotate(-79.25)"/>
          <rect class="cls-5" x="123.46" y="62.45" width="6.1" height="137.17" transform="translate(-25.82 230.87) rotate(-79.25)"/>
        </g>
      </g>
      <path class="cls-18" d="M146.61,54v-2.97h-41.26v2.97c0,.65-.29,1.28-.79,1.69l-8.08,6.73c-1.4,1.17-2.21,2.9-2.21,4.72v97.58c0,3.21,2.6,5.82,5.82,5.82h51.8c3.21,0,5.82-2.6,5.82-5.82v-97.58c0-1.83-.81-3.56-2.21-4.72l-8.08-6.73c-.5-.42-.79-1.04-.79-1.69Z"/>
      <path class="cls-17" d="M151.53,33.01h-51.1c-1.68,0-3.04,1.36-3.04,3.04v11.93c0,1.68,1.36,3.04,3.04,3.04h51.1c1.68,0,3.04-1.36,3.04-3.04v-11.93c0-1.68-1.36-3.04-3.04-3.04Z"/>
      <rect class="cls-22" x="94.26" y="93.51" width="63.43" height="47.99"/>
      <rect class="cls-15" x="94.26" y="125.19" width="63.43" height="8.83"/>
      <g>
        <line class="cls-9" x1="101.61" y1="71.5" x2="157.69" y2="71.5"/>
        <line class="cls-9" x1="94.26" y1="160.99" x2="157.69" y2="160.99"/>
      </g>
      <g>
        <g>
          <rect class="cls-17" x="108.25" y="33.01" width="5.87" height="18.02"/>
          <rect class="cls-17" x="133.98" y="33.01" width="6.99" height="18.02"/>
        </g>
        <polygon class="cls-6" points="149.67 170.55 149.67 64.82 142.68 51.03 133.98 51.03 140.96 64.82 140.96 170.55 149.67 170.55"/>
      </g>
    </g>
  </g>
</svg>