<?xml version="1.0" encoding="UTF-8"?>
<svg id="_圖層_2" data-name="圖層 2" xmlns="http://www.w3.org/2000/svg" viewBox="0 0 486.74 247.74">
  <defs>
    <style>
      .cls-1 {
        fill: #ef9275;
      }

      .cls-2 {
        fill: #607af1;
      }

      .cls-3 {
        fill: #eac4b0;
      }

      .cls-4 {
        fill: #fff;
      }

      .cls-5 {
        fill: #985545;
      }

      .cls-6 {
        fill: #e07c68;
      }

      .cls-7 {
        fill: #e8d7cf;
      }
    </style>
  </defs>
  <g id="care-img-4">
    <g id="care-img-4-2" data-name="care-img-4">
      <g id="care-img-4-1-3">
        <g>
          <path class="cls-7" d="M116.68,151.06c14.7-37.59,51.22-64.32,93.95-64.31,42.73.01,79.24,26.77,93.91,64.36l82.17.02C369.8,69.43,297.3,7.81,210.65,7.79c-86.64-.02-159.18,61.55-176.14,143.25l82.17.02Z"/>
          <path class="cls-1" d="M107.17,143.27c14.7-37.59,51.22-64.32,93.95-64.31s79.24,26.77,93.91,64.36l82.17.02C360.28,61.64,287.78.02,201.14,0,114.49-.02,41.96,61.55,25,143.25l82.17.02Z"/>
          <path class="cls-5" d="M274.4,15.73l-40.79,68.67c28.11,9.63,50.65,31.33,61.42,58.91l82.17.02c-11.82-57.1-50.83-104.3-102.8-127.61Z"/>
          <path class="cls-3" d="M127.55,15.69l40.75,68.7c-28.11,9.62-50.67,31.3-61.45,58.88l-82.17-.02c11.85-57.09,50.89-104.27,102.87-127.55Z"/>
        </g>
        <path class="cls-4" d="M482.02,200.55l-77.94-32.44c-5.05-2.1-10.62,1.61-10.62,7.08v4.88c0,4.16-3.31,7.56-7.47,7.67L7.47,197.54c-4.16.11-7.47,3.51-7.47,7.67s3.24,7.49,7.35,7.66l378.75,15.65c4.11.17,7.35,3.55,7.35,7.66v3.88c0,5.47,5.57,9.18,10.62,7.08l77.94-32.43c6.3-2.62,6.3-11.54,0-14.16Z"/>
        <g>
          <path class="cls-4" d="M56.8,211.77c-4.47,0-7.61-3.06-7.69-7.46-4.28-.28-7.21-3.41-7.21-7.81,0-2.09.66-3.9,1.82-5.24-.3-.87-.45-1.82-.45-2.81v-11.16c0-1.19.21-2.31.63-3.33-.86-1.26-1.34-2.84-1.34-4.63,0-4.35,2.88-7.45,7.09-7.76,1.11-2.75,3.73-4.5,7.11-4.5,3.15,0,5.64,1.54,6.84,4.01,1.37-1.37,3.31-2.17,5.59-2.17h18.7c4.56,0,7.74,3.18,7.74,7.74,0,1.7-.45,3.22-1.24,4.44.14,1.29-.07,2.89-1.05,4.71-.47.84-.93,1.65-1.39,2.44.89,1.3,1.68,2.54,2.34,3.73.02.05.05.09.07.14,1.53,2.93.85,5.26.24,6.48.24.79.37,1.65.37,2.56,0,2.11-.68,3.93-1.87,5.27,2.01,1.34,3.24,3.63,3.24,6.46,0,4.56-3.18,7.74-7.74,7.74h-20.4c-2.06,0-3.85-.65-5.18-1.79-1.34,1.85-3.54,2.97-6.22,2.97Z"/>
          <path class="cls-4" d="M131.7,211.64c-.47,0-.97-.03-1.46-.1l-.14-.02c-3.98-.63-7.67-1.61-11.02-2.92-3.58,1.24-7.59,2.2-11.95,2.88-.07.01-.15.02-.22.03-.43.05-.85.07-1.24.07-2.12,0-4.03-.69-5.5-1.93-.52.32-1.08.57-1.68.75-.65.19-1.3.29-1.97.29-1.57,0-3.15-.52-4.7-1.55-2.52-1.72-3.38-3.76-3.66-5.17-.35-1.75-.07-3.6.83-5.49,1.6-4.05,2.41-10.32,2.41-18.64v-10.13c0-2.35.84-4.44,2.42-6.02,1.59-1.59,3.67-2.42,6.02-2.42h9.07c1.34-2.59,4-4.19,7.37-4.19s5.99,1.61,7.32,4.19h9.63c4.64,0,7.88,3.24,7.88,7.88,0,1.76-.46,3.31-1.29,4.57.68,1.16,1.06,2.55,1.06,4.1,0,4.11-2.63,7.07-6.52,7.54,1.16.85,1.81,1.86,2.12,2.47,1.13,2.21,1.05,4.75-.21,7.56-.06.14-.13.28-.21.41-.12.22-.25.45-.39.67,1.7.59,2.99,1.56,3.86,2.89.86,1.29,2.2,4.34-.47,8.41-1.63,2.51-4.25,3.9-7.37,3.9Z"/>
          <path class="cls-4" d="M142.11,210.08c-4.7,0-7.98-3.28-7.98-7.97,0-3.69,2.03-6.51,5.17-7.54-.57-1.13-.88-2.45-.88-3.9s.29-2.65.82-3.75c-.86-.55-1.44-1.2-1.8-1.7-1.26-1.68-1.47-3.69-1.51-5.06-.08-2.38.55-4.36,1.87-5.88.14-.17.31-.34.48-.51-1.89-1.4-3.02-3.67-3.02-6.43,0-4.69,3.28-7.97,7.97-7.97h35c4.69,0,7.97,3.28,7.97,7.97,0,3.14-1.47,5.65-3.85,6.96.37.36.72.72,1.06,1.07.06.06.12.13.18.19,2.28,2.6,2.36,5.07,2.02,6.68-.03.14-.07.28-.11.42-.5,1.7-1.64,3.19-3.46,4.54-.01.01-.03.02-.04.03.43,1.01.67,2.16.67,3.42,0,1.45-.31,2.77-.88,3.89,3.17,1.03,5.21,3.85,5.21,7.56,0,4.69-3.28,7.97-7.97,7.97h-36.93Z"/>
          <path class="cls-4" d="M206.12,211.77c-4.89,0-8.3-3.41-8.3-8.3v-6.39h-7.66c-2.35,0-4.44-.84-6.02-2.42-1.59-1.59-2.42-3.67-2.42-6.02v-15.03c0-2.35.84-4.43,2.42-6.02,1.59-1.59,3.67-2.42,6.02-2.42h7.67c.07-4.81,3.47-8.15,8.3-8.15s8.23,3.34,8.3,8.15h7.95c2.35,0,4.44.84,6.02,2.42,1.59,1.59,2.42,3.67,2.42,6.02v15.03c0,2.35-.84,4.44-2.42,6.02-1.59,1.59-3.67,2.42-6.02,2.42h-7.95v6.39c0,4.89-3.41,8.3-8.3,8.3Z"/>
          <path class="cls-4" d="M268.78,211.64c-.47,0-.97-.03-1.46-.1l-.14-.02c-3.98-.63-7.67-1.61-11.02-2.92-3.58,1.24-7.59,2.2-11.95,2.88-.07.01-.15.02-.22.03-.43.05-.85.07-1.24.07-2.12,0-4.03-.69-5.5-1.93-.52.32-1.08.57-1.68.75-.65.19-1.3.29-1.97.29-1.57,0-3.15-.52-4.7-1.55-2.52-1.72-3.38-3.76-3.66-5.17-.35-1.75-.07-3.6.83-5.49,1.6-4.05,2.41-10.32,2.41-18.64v-10.13c0-2.35.84-4.44,2.42-6.02,1.59-1.59,3.67-2.42,6.02-2.42h9.07c1.34-2.59,4-4.19,7.37-4.19s5.99,1.61,7.32,4.19h9.63c4.64,0,7.88,3.24,7.88,7.88,0,1.76-.46,3.31-1.29,4.57.68,1.16,1.06,2.55,1.06,4.1,0,4.11-2.63,7.07-6.52,7.54,1.16.85,1.81,1.86,2.12,2.47,1.13,2.21,1.05,4.75-.21,7.56-.06.14-.13.28-.21.41-.12.22-.25.45-.39.67,1.7.59,2.99,1.56,3.86,2.89.86,1.29,2.2,4.34-.47,8.41-1.63,2.51-4.25,3.9-7.37,3.9Z"/>
          <path class="cls-4" d="M280.74,209.93c-2.35,0-4.43-.84-6.02-2.42-1.59-1.59-2.42-3.67-2.42-6.02v-34.06c0-2.35.84-4.43,2.42-6.02,1.59-1.59,3.67-2.42,6.02-2.42h33.68c2.35,0,4.43.84,6.02,2.42,1.59,1.59,2.42,3.67,2.42,6.02v34.06c0,2.35-.84,4.43-2.42,6.02-1.59,1.59-3.67,2.42-6.02,2.42h-33.68Z"/>
          <path class="cls-4" d="M352.24,211.3c-4.18,0-7.16-1.06-9.13-3.23-1.22-1.31-2.02-3.1-2.41-5.38-2.32,3.25-5.64,5.78-9.88,7.58-.09.04-.19.08-.28.11-1.37.49-2.69.74-3.93.74-2.77,0-5.17-1.21-6.76-3.4-2.11-3.01-1.98-6.55.29-9.31,1.18-1.41,2.81-2.53,4.87-3.35.08-.05.16-.1.24-.15-2.53-.02-4.82-1.16-6.45-3.22-2.38-3.05-2.06-5.78-1.66-7.14.31-1.04.95-2.31,2.27-3.45-1.44-1.4-2.29-3.42-2.29-5.8,0-2.83,1.21-5.15,3.21-6.52-.5-2.76.46-4.66,1.14-5.6.95-1.33,2.84-2.95,6.4-3.11,10.4-.52,18.8-1.4,24.95-2.63.07-.02.15-.03.22-.04.5-.08.99-.12,1.46-.12.99,0,1.93.17,2.8.5.17.07.34.14.5.22.85.43,1.67,1.06,2.6,1.98,2.32,2.4,3.2,4.82,2.69,7.27-.02.09-.04.17-.06.26,3.86.6,6.44,3.63,6.44,7.77,0,2.31-.79,4.27-2.15,5.66.62.59,1.11,1.26,1.48,2,.75,1.59,1.51,4.59-1.22,8.21-.5.65-1.01,1.17-1.53,1.59.98.91,1.94,2.3,2.43,4.38.34,1.5.4,3.06.2,4.68-.02.18-.05.36-.09.53-.68,2.97-1.94,5.23-3.76,6.73-.04.03-.07.06-.11.09-1.81,1.41-4.19,2.13-7.07,2.13h-5.42Z"/>
          <path class="cls-1" d="M56.8,206.39c-1.54,0-2.31-.75-2.31-2.26v-5.18h-4.76c-1.63,0-2.45-.82-2.45-2.45s.82-2.45,2.45-2.45h4.76v-2.83h-3.06c-.85,0-1.52-.25-2.03-.75-.5-.5-.75-1.18-.75-2.03v-11.16c0-.91.28-1.65.85-2.21.57-.57,1.3-.85,2.21-.85h2.73v-2.45h-4.1c-1.6,0-2.4-.82-2.4-2.45s.8-2.4,2.4-2.4h4.1v-2.21c0-1.51.77-2.26,2.31-2.26s2.26.75,2.26,2.26v2.21h4.29c1.6,0,2.4.8,2.4,2.4s-.8,2.45-2.4,2.45h-4.29v2.45h3.25c.91,0,1.63.26,2.14.78.52.52.78,1.23.78,2.14v11.02c0,.91-.28,1.65-.85,2.21-.57.57-1.3.85-2.21.85h-3.06v2.83h4.71c1.63,0,2.45.82,2.45,2.45s-.82,2.45-2.45,2.45h-4.71v5.18c0,1.51-.75,2.26-2.26,2.26ZM52.56,180.9h2.45v-2.78h-1.37c-.72,0-1.08.36-1.08,1.08v1.7ZM53.69,187.36h1.32v-2.78h-2.45v1.65c0,.75.38,1.13,1.13,1.13ZM58.54,180.9h2.64v-1.65c0-.75-.38-1.13-1.13-1.13h-1.51v2.78ZM58.54,187.36h1.51c.75,0,1.13-.38,1.13-1.13v-1.65h-2.64v2.78ZM68.2,205.21c-1.57,0-2.36-.78-2.36-2.36s.78-2.36,2.36-2.36h7.54v-7.02h-5.46c-1.57,0-2.36-.78-2.36-2.36s.78-2.36,2.36-2.36h16.96c1.57,0,2.36.78,2.36,2.36s-.79,2.36-2.36,2.36h-6.03v7.02h7.4c1.57,0,2.36.79,2.36,2.36s-.79,2.36-2.36,2.36h-20.4ZM72.82,187.24c-.75.3-1.37.36-1.84.19-.47-.17-.85-.63-1.13-1.39-.32-.75-.69-1.55-1.13-2.4-.47-.97-1.05-2.06-1.74-3.25-.31-.53-.49-1.15-.52-1.84-.03-.69.09-1.32.38-1.88.69-1.38,1.51-3.14,2.45-5.28.25-.6.6-.99,1.04-1.18.38-.16.91-.16,1.6,0,1.66.38,2.13,1.35,1.41,2.92-.66,1.35-1.57,3.14-2.73,5.37,1.44,2.26,2.61,4.29,3.49,6.08.31.69.37,1.23.17,1.63-.21.39-.68.74-1.44,1.04ZM69.19,168.99c-1.57,0-2.36-.78-2.36-2.36s.78-2.36,2.36-2.36h18.7c1.57,0,2.36.79,2.36,2.36s-.78,2.36-2.36,2.36h-18.7ZM77.48,185.94c-.06-.13-.16-.31-.28-.57-.38-.78-.69-1.4-.94-1.84-.03-.03-.06-.09-.09-.19-.75-1.29-1.34-2.24-1.74-2.87-.88-1.35-.94-2.7-.19-4.05,1-1.82,1.84-3.5,2.5-5.04.25-.6.6-.99,1.04-1.18.38-.16.91-.16,1.6,0,1.63.38,2.1,1.34,1.41,2.87-.63,1.35-1.59,3.14-2.87,5.37,1.6,2.26,2.87,4.26,3.82,5.98.31.69.36,1.22.14,1.6-.19.38-.66.72-1.41,1.04-1.41.6-2.4.22-2.97-1.13ZM85.35,186.13c-.06-.12-.16-.3-.28-.52-.44-.88-.8-1.54-1.08-1.98-.75-1.29-1.41-2.34-1.98-3.16-.91-1.26-.97-2.57-.19-3.96,1.19-2.17,2.1-3.89,2.73-5.18.28-.6.64-.97,1.08-1.13.41-.16.96-.16,1.65,0,1.76.38,2.2,1.38,1.32,3.02-1.04,1.85-2.07,3.61-3.11,5.28,1.7,2.2,3.06,4.22,4.1,6.08.34.66.41,1.19.19,1.6-.19.38-.66.72-1.41,1.04-1.45.6-2.45.24-3.02-1.08Z"/>
          <path class="cls-1" d="M96.96,205.23c-.58.17-1.3-.02-2.14-.59-.79-.53-1.24-1.11-1.37-1.74-.13-.63.03-1.38.47-2.26,1.91-4.71,2.87-11.65,2.87-20.82v-10.13c0-.91.28-1.65.85-2.21.57-.57,1.3-.85,2.21-.85h13.52v-1.32c0-1.92.97-2.87,2.92-2.87s2.87.96,2.87,2.87v1.32h14.08c1.67,0,2.5.83,2.5,2.5s-.83,2.5-2.5,2.5h-30.01c-.75,0-1.13.38-1.13,1.13v7.07c0,10.08-1.19,17.98-3.58,23.69-.47.97-1,1.55-1.58,1.72ZM130.94,206.2c-4.36-.69-8.27-1.82-11.73-3.39-3.74,1.48-8.04,2.59-12.91,3.34-1.67.19-2.78-.33-3.34-1.55-.47-1.04-.5-1.81-.09-2.31.41-.47,1.21-.77,2.4-.9,3.11-.44,5.92-1.02,8.43-1.74-1.51-1.1-2.83-2.26-3.96-3.49-.44-.53-.6-1.02-.47-1.46.12-.44.5-.78,1.13-1.04l.14-.05h-4.81c-1.44,0-2.17-.74-2.17-2.21s.72-2.17,2.17-2.17h23.74c1.13,0,1.87.34,2.21,1.01.34.68.24,1.64-.33,2.9-1.38,2.48-3.44,4.66-6.17,6.55,2.01.6,4.41,1.1,7.21,1.51,1.41.16,2.29.52,2.64,1.08.41.57.25,1.4-.47,2.5-.75,1.16-1.96,1.63-3.63,1.41ZM112.62,187.36c-.91,0-1.65-.28-2.21-.85s-.85-1.3-.85-2.21v-4.29h-4.1c-1.48,0-2.21-.74-2.21-2.21s.74-2.21,2.21-2.21h4.1v-.52c0-1.73.88-2.59,2.64-2.59s2.59.86,2.59,2.59v.52h8.48v-.38c0-1.82.93-2.73,2.78-2.73s2.73.91,2.73,2.73v.38h4.52c1.48,0,2.21.74,2.21,2.21s-.74,2.21-2.21,2.21h-4.52v4.29c0,.91-.28,1.65-.85,2.21-.57.57-1.3.85-2.21.85h-13.09ZM119.4,197.48c2.14-1,4-2.29,5.61-3.86h-11.07c1.38,1.48,3.2,2.76,5.46,3.86ZM115.92,183.12h6.22c.75,0,1.13-.38,1.13-1.13v-1.98h-8.48v1.98c0,.75.38,1.13,1.13,1.13Z"/>
          <path class="cls-1" d="M142.11,204.69c-1.73,0-2.59-.86-2.59-2.59s.86-2.59,2.59-2.59h15.36v-6.26h-11.12c-1.7,0-2.54-.86-2.54-2.59s.85-2.54,2.54-2.54h11.12v-1.88c0-1.88.96-2.83,2.87-2.83s2.83.94,2.83,2.83v1.88h11.59c1.7,0,2.54.85,2.54,2.54s-.85,2.59-2.54,2.59h-11.59v6.26h15.87c1.73,0,2.59.86,2.59,2.59s-.86,2.59-2.59,2.59h-36.93ZM174.56,182.41c-.09-.09-.24-.24-.42-.45-.19-.2-.33-.35-.42-.45-6.38.31-15.56.68-27.56,1.08-1.13.03-1.96.06-2.5.09-.91.03-1.54-.19-1.88-.66-.28-.38-.44-1.06-.47-2.05-.03-.99.16-1.72.57-2.19.41-.47,1.08-.71,2.03-.71.53-.03,1.35-.05,2.45-.05,1.07-.03,1.88-.05,2.45-.05,1.32-2.61,2.37-4.96,3.16-7.07h-8.71c-1.73,0-2.59-.86-2.59-2.59s.86-2.59,2.59-2.59h35c1.73,0,2.59.86,2.59,2.59s-.86,2.59-2.59,2.59h-9.37c4.43,3.33,7.99,6.39,10.69,9.19.66.75.93,1.43.8,2.03-.16.53-.66,1.11-1.51,1.74-1.63,1.16-3.06,1.01-4.29-.47ZM155.3,176.9c4.43-.06,8.87-.16,13.33-.28-.35-.31-.88-.78-1.6-1.41-.31-.28-.55-.49-.71-.61-.63-.5-.93-1.05-.9-1.65s.39-1.13,1.08-1.6l2.07-1.41h-9.56c-1.01,2.14-2.24,4.46-3.72,6.97Z"/>
          <path class="cls-1" d="M206.12,206.39c-1.95,0-2.92-.97-2.92-2.92v-11.78h-13.05c-.91,0-1.65-.28-2.21-.85s-.85-1.3-.85-2.21v-15.03c0-.91.28-1.65.85-2.21s1.3-.85,2.21-.85h13.05v-5.23c0-1.95.97-2.92,2.92-2.92s2.92.97,2.92,2.92v5.23h13.33c.91,0,1.65.28,2.21.85.57.57.85,1.3.85,2.21v15.03c0,.91-.28,1.65-.85,2.21-.57.57-1.3.85-2.21.85h-13.33v11.78c0,1.95-.97,2.92-2.92,2.92ZM193.83,186.18h9.37v-10.13h-9.37c-.75,0-1.13.38-1.13,1.13v7.87c0,.75.38,1.13,1.13,1.13ZM209.04,186.18h9.42c.75,0,1.13-.38,1.13-1.13v-7.87c0-.75-.38-1.13-1.13-1.13h-9.42v10.13Z"/>
          <path class="cls-1" d="M234.03,205.23c-.58.17-1.3-.02-2.14-.59-.79-.53-1.24-1.11-1.37-1.74-.13-.63.03-1.38.47-2.26,1.91-4.71,2.87-11.65,2.87-20.82v-10.13c0-.91.28-1.65.85-2.21.57-.57,1.3-.85,2.21-.85h13.52v-1.32c0-1.92.97-2.87,2.92-2.87s2.87.96,2.87,2.87v1.32h14.08c1.67,0,2.5.83,2.5,2.5s-.83,2.5-2.5,2.5h-30.01c-.75,0-1.13.38-1.13,1.13v7.07c0,10.08-1.19,17.98-3.58,23.69-.47.97-1,1.55-1.58,1.72ZM268.02,206.2c-4.36-.69-8.27-1.82-11.73-3.39-3.74,1.48-8.04,2.59-12.91,3.34-1.67.19-2.78-.33-3.34-1.55-.47-1.04-.5-1.81-.09-2.31.41-.47,1.21-.77,2.4-.9,3.11-.44,5.92-1.02,8.43-1.74-1.51-1.1-2.83-2.26-3.96-3.49-.44-.53-.6-1.02-.47-1.46.12-.44.5-.78,1.13-1.04l.14-.05h-4.81c-1.44,0-2.17-.74-2.17-2.21s.72-2.17,2.17-2.17h23.74c1.13,0,1.87.34,2.21,1.01.34.68.24,1.64-.33,2.9-1.38,2.48-3.44,4.66-6.17,6.55,2.01.6,4.41,1.1,7.21,1.51,1.41.16,2.29.52,2.64,1.08.41.57.25,1.4-.47,2.5-.75,1.16-1.96,1.63-3.63,1.41ZM249.7,187.36c-.91,0-1.65-.28-2.21-.85s-.85-1.3-.85-2.21v-4.29h-4.1c-1.48,0-2.21-.74-2.21-2.21s.74-2.21,2.21-2.21h4.1v-.52c0-1.73.88-2.59,2.64-2.59s2.59.86,2.59,2.59v.52h8.48v-.38c0-1.82.93-2.73,2.78-2.73s2.73.91,2.73,2.73v.38h4.52c1.48,0,2.21.74,2.21,2.21s-.74,2.21-2.21,2.21h-4.52v4.29c0,.91-.28,1.65-.85,2.21-.57.57-1.3.85-2.21.85h-13.09ZM256.48,197.48c2.14-1,4-2.29,5.61-3.86h-11.07c1.38,1.48,3.2,2.76,5.46,3.86ZM252.99,183.12h6.22c.75,0,1.13-.38,1.13-1.13v-1.98h-8.48v1.98c0,.75.38,1.13,1.13,1.13Z"/>
          <path class="cls-1" d="M280.74,204.55c-.91,0-1.65-.28-2.21-.85s-.85-1.3-.85-2.21v-34.06c0-.91.28-1.65.85-2.21s1.3-.85,2.21-.85h33.68c.91,0,1.65.28,2.21.85s.85,1.3.85,2.21v34.06c0,.91-.28,1.65-.85,2.21s-1.3.85-2.21.85h-33.68ZM284.08,199.56h26.76c.75,0,1.13-.38,1.13-1.13v-27.89c0-.75-.38-1.13-1.13-1.13h-26.76c-.75,0-1.13.38-1.13,1.13v27.89c0,.75.38,1.13,1.13,1.13ZM304.81,198.33c-1.16-.78-2.39-1.49-3.67-2.12-.69-.35-1.05-.73-1.08-1.15-.03-.42.27-.83.9-1.2l.14-.09h-7.54l1.37.47c.35.13.54.28.59.47.05.19-.06.38-.31.57-1.82,1.29-3.89,2.37-6.22,3.25-1.01.38-1.88.22-2.64-.47-1.38-1.32-1.02-2.28,1.08-2.87,1.47-.47,2.7-.94,3.67-1.41h-2.45c-.63,0-1.14-.2-1.53-.59-.39-.39-.59-.9-.59-1.53v-9.33c0-.91.28-1.65.85-2.21.57-.57,1.3-.85,2.21-.85h15.73c.91,0,1.65.28,2.21.85.57.57.85,1.3.85,2.21v8.38c0,.91-.28,1.65-.85,2.21s-1.3.85-2.21.85h-1.74c1.66.72,3.06,1.37,4.19,1.93.97.53,1.42,1.02,1.34,1.46-.08.44-.65.88-1.72,1.32-.97.41-1.84.36-2.59-.14ZM291.81,177.98c-2.23,0-3.34-1.13-3.34-3.39s1.11-3.34,3.34-3.34h11.35c2.23,0,3.34,1.12,3.34,3.34s-1.12,3.39-3.34,3.39h-11.35ZM291.15,183.26h12.39v-.85c0-.38-.19-.57-.57-.57h-10.69c-.75,0-1.13.38-1.13,1.13v.28ZM291.15,187.17h12.39v-1.41h-12.39v1.41ZM291.71,191.17h10.69c.75,0,1.13-.38,1.13-1.13v-.33h-12.39v.9c0,.38.19.57.57.57ZM293.6,175.44h7.3c.57,0,.85-.28.85-.85v-.14c0-.44-.22-.66-.66-.66h-7.3c-.57,0-.85.28-.85.85v.14c0,.44.22.66.66.66Z"/>
          <path class="cls-1" d="M323.04,188.35c-1.44-1.85-.9-3.22,1.65-4.1,4.02-1.66,7.38-3.8,10.08-6.41h-9.75c-1.67,0-2.5-.85-2.5-2.54s.83-2.5,2.5-2.5h15.4v-3.49c-3.14.28-7.13.52-11.97.71-.78.03-1.38-.09-1.79-.35-.41-.27-.72-.76-.94-1.48-.5-1.73.3-2.64,2.4-2.73,10.74-.53,19.33-1.44,25.77-2.73.6-.09,1.1-.06,1.51.09.31.16.72.49,1.22.99.94.97,1.35,1.76,1.22,2.36-.13.6-.83,1.02-2.12,1.27-2.58.47-5.87.93-9.89,1.37v4h15.78c1.66,0,2.5.83,2.5,2.5s-.83,2.54-2.5,2.54h-9.99c2.76,2.36,6.08,4.32,9.94,5.89,1.32.47,2.13,1.02,2.45,1.65.31.66.08,1.51-.71,2.54-.53.69-1.11,1.11-1.72,1.25-.61.14-1.36.04-2.24-.31-5.34-2.42-9.84-5.73-13.52-9.94v6.03c0,1.79-.9,2.69-2.69,2.69s-2.73-.9-2.73-2.69v-5.94c-3.61,4.43-8.13,7.82-13.57,10.17-1.6.63-2.87.35-3.82-.85ZM324.21,204.55c-.66-.94-.63-1.85.09-2.73.63-.75,1.63-1.38,3.02-1.88,1.82-1,3.22-2.24,4.19-3.72.78-1.29,1.37-2.9,1.74-4.85.25-1.95,1.32-2.92,3.2-2.92,2.14,0,3.05,1.15,2.73,3.44-.5,3.05-1.41,5.54-2.73,7.49-1.73,2.51-4.3,4.49-7.73,5.94-2.1.75-3.61.5-4.52-.75ZM352.24,205.92c-2.54,0-4.26-.49-5.13-1.46-.85-.91-1.27-2.64-1.27-5.18v-8.05c0-1.85.94-2.78,2.83-2.78s2.78.93,2.78,2.78v8.01c0,.72.09,1.17.28,1.34.19.17.66.26,1.41.26h3.96c.57,0,.94-.17,1.13-.52.19-1.44.55-2.53,1.08-3.25.66-.91,1.52-1.15,2.59-.71.66.28,1.11.96,1.37,2.03.19.85.22,1.77.09,2.78-.41,1.79-1.05,3.05-1.93,3.77-.85.66-2.1.99-3.77.99h-5.42Z"/>
        </g>
      </g>
      <g id="uuid-cda7c725-131c-437c-8d7f-627bf4734019" data-name="care-img-4-2">
        <path class="cls-2" d="M218.89,121.81c-4.07-9-59-92.33-60.97-91.44-2.96,1.34,24.3,97.17,28.37,106.18,4.07,9,14.67,13,23.67,8.93,9-4.07,13-14.67,8.93-23.67Z"/>
        <circle class="cls-4" cx="202.86" cy="128.47" r="11.39"/>
      </g>
      <g id="care-img-4-1">
        <polygon class="cls-6" points="415.69 134.06 434.32 121.94 426.56 107.06 450.84 100.12 436.12 80.53 456.13 74.31 441.86 82.54 457.09 103.55 430.1 107.47 439.46 124.63 415.69 134.06"/>
        <polygon class="cls-6" points="406.86 131.83 415.18 118.88 406.04 111.69 419.39 100.39 404.52 92.22 415.38 82.59 408.72 91.85 424.32 100.79 408.39 110.94 419.19 119.12 406.86 131.83"/>
      </g>
    </g>
  </g>
</svg>