<?xml version="1.0" encoding="UTF-8"?>
<svg id="_圖層_2" data-name="圖層 2" xmlns="http://www.w3.org/2000/svg" viewBox="0 0 486.74 251">
  <defs>
    <style>
      .cls-1 {
        fill: #ef9275;
      }

      .cls-2 {
        fill: #607af1;
      }

      .cls-3 {
        fill: #eac4b0;
      }

      .cls-4 {
        fill: #fff;
      }

      .cls-5 {
        fill: #985545;
      }

      .cls-6 {
        fill: #e8d7cf;
      }
    </style>
  </defs>
  <g id="care-img-5">
    <g id="care-img-5-2" data-name="care-img-5">
      <g id="care-img-5-3">
        <g>
          <path class="cls-6" d="M116.7,151.08c14.68-37.59,51.2-64.33,93.93-64.33s79.25,26.74,93.93,64.33h82.17C369.79,69.38,297.28,7.78,210.63,7.78S51.47,69.38,34.53,151.08h82.17Z"/>
          <path class="cls-1" d="M107.19,143.29c14.68-37.59,51.2-64.33,93.93-64.33s79.25,26.74,93.93,64.33h82.17C360.28,61.6,287.76,0,201.12,0S41.96,61.6,25.02,143.29h82.17Z"/>
          <path class="cls-5" d="M274.38,15.71l-40.77,68.68c28.11,9.62,50.66,31.31,61.44,58.9h82.17c-11.84-57.09-50.86-104.28-102.84-127.58Z"/>
          <path class="cls-3" d="M127.54,15.71l40.77,68.68c-28.11,9.62-50.66,31.31-61.44,58.9H24.7c11.84-57.09,50.86-104.28,102.84-127.58Z"/>
        </g>
        <path class="cls-4" d="M482.02,203.8l-77.94-32.44c-5.05-2.1-10.62,1.61-10.62,7.08v4.88c0,4.16-3.31,7.56-7.47,7.67L7.47,200.8c-4.16.11-7.47,3.51-7.47,7.67s3.24,7.49,7.35,7.66l378.75,15.65c4.11.17,7.35,3.55,7.35,7.66v3.88c0,5.47,5.57,9.18,10.62,7.08l77.94-32.43c6.3-2.62,6.3-11.54,0-14.16Z"/>
        <g>
          <path class="cls-4" d="M118.44,212.37c-4.47,0-7.6-3.12-7.6-7.6,0-2.87,1.29-5.19,3.4-6.48,0-.12,0-.23,0-.35,0-1.98.66-3.71,1.78-5-.18-.71-.28-1.47-.28-2.25v-8.77c-2.85-1.05-4.66-3.68-4.66-7.1,0-3.13,1.54-5.6,4-6.78.06-1.89.81-3.21,1.35-3.94.95-1.26,2.79-2.79,6.16-2.91,11.03-.34,19.92-1,26.43-1.97.39-.06.83-.1,1.26-.1,1.37,0,2.67.36,3.78,1.05,1.15.68,2.1,1.69,2.91,3.09.86,1.47,1.31,2.91,1.33,4.3,3.2.87,5.28,3.61,5.28,7.26,0,3.35-1.74,5.94-4.48,7.03v8.84c0,.71-.08,1.39-.23,2.05,1.24,1.31,1.97,3.12,1.97,5.2,0,.2,0,.4-.02.59,1.89,1.33,3.03,3.54,3.03,6.24,0,4.47-3.12,7.6-7.6,7.6h-37.83Z"/>
          <path class="cls-4" d="M199.84,213.55c-.47,0-.97-.03-1.46-.1l-.14-.02c-3.98-.63-7.67-1.61-11.02-2.92-3.58,1.24-7.59,2.2-11.95,2.88-.07.01-.15.02-.22.03-.43.05-.85.07-1.24.07-2.12,0-4.03-.69-5.5-1.93-.52.32-1.08.57-1.68.75-.65.19-1.3.29-1.97.29-1.57,0-3.15-.52-4.7-1.55-2.52-1.72-3.38-3.76-3.66-5.17-.35-1.75-.07-3.6.83-5.49,1.6-4.05,2.41-10.32,2.41-18.64v-10.13c0-2.35.84-4.44,2.42-6.02,1.59-1.59,3.67-2.42,6.02-2.42h9.07c1.34-2.59,4-4.19,7.37-4.19s5.99,1.61,7.32,4.19h9.63c4.64,0,7.88,3.24,7.88,7.88,0,1.76-.46,3.31-1.29,4.57.68,1.16,1.06,2.55,1.06,4.1,0,4.11-2.63,7.07-6.52,7.54,1.16.85,1.81,1.86,2.12,2.47,1.13,2.21,1.05,4.75-.21,7.56-.06.14-.13.28-.21.41-.12.22-.25.45-.39.67,1.7.59,2.99,1.56,3.86,2.89.86,1.29,2.2,4.34-.47,8.41-1.63,2.51-4.25,3.9-7.37,3.9Z"/>
          <path class="cls-4" d="M211.8,211.85c-2.35,0-4.43-.84-6.02-2.42-1.59-1.59-2.42-3.67-2.42-6.02v-34.06c0-2.35.84-4.43,2.42-6.02,1.59-1.59,3.67-2.42,6.02-2.42h33.68c2.35,0,4.43.84,6.02,2.42,1.59,1.59,2.42,3.67,2.42,6.02v34.06c0,2.35-.84,4.43-2.42,6.02-1.59,1.59-3.67,2.42-6.02,2.42h-33.68Z"/>
          <path class="cls-4" d="M283.3,213.21c-4.18,0-7.16-1.06-9.13-3.23-1.22-1.31-2.02-3.1-2.41-5.38-2.32,3.25-5.64,5.78-9.88,7.58-.09.04-.19.08-.28.11-1.37.49-2.69.74-3.93.74-2.77,0-5.17-1.21-6.76-3.4-2.11-3.01-1.98-6.55.29-9.31,1.18-1.41,2.81-2.53,4.87-3.35.08-.05.16-.1.24-.15-2.53-.02-4.82-1.16-6.45-3.22-2.38-3.05-2.06-5.78-1.66-7.14.31-1.04.95-2.31,2.27-3.45-1.44-1.4-2.29-3.42-2.29-5.8,0-2.83,1.21-5.15,3.21-6.52-.5-2.76.46-4.66,1.14-5.6.95-1.33,2.84-2.95,6.4-3.11,10.4-.52,18.8-1.4,24.95-2.63.07-.02.15-.03.22-.04.5-.08.99-.12,1.46-.12.99,0,1.93.17,2.8.5.17.07.34.14.5.22.85.43,1.67,1.06,2.6,1.98,2.32,2.4,3.2,4.82,2.69,7.27-.02.09-.04.17-.06.26,3.86.6,6.44,3.63,6.44,7.77,0,2.31-.79,4.27-2.15,5.66.62.59,1.11,1.26,1.48,2,.75,1.59,1.51,4.59-1.22,8.21-.5.65-1.01,1.17-1.53,1.59.98.91,1.94,2.3,2.43,4.38.34,1.5.4,3.06.2,4.68-.02.18-.05.36-.09.53-.68,2.97-1.94,5.23-3.76,6.73-.04.03-.07.06-.11.09-1.81,1.41-4.19,2.13-7.07,2.13h-5.42Z"/>
          <path class="cls-5" d="M118.44,206.98c-1.48,0-2.21-.74-2.21-2.21s.74-2.21,2.21-2.21h15.87v-2.5h-12.62c-1.38,0-2.07-.71-2.07-2.12s.69-2.07,2.07-2.07h12.62v-2.12h-10.13c-.91,0-1.65-.28-2.21-.85s-.85-1.3-.85-2.21v-8.81c0-.91.28-1.65.85-2.21.57-.57,1.3-.85,2.21-.85h10.13v-1.79h-15.69c-1.44,0-2.17-.74-2.17-2.21s.72-2.17,2.17-2.17h15.69v-2.07c-4.93.19-8.65.3-11.16.33-.75.03-1.33-.09-1.72-.38-.39-.28-.68-.77-.87-1.46-.41-1.6.33-2.43,2.21-2.5,11.27-.35,20.29-1.02,27.04-2.03.6-.09,1.08-.02,1.46.24.35.19.69.58,1.04,1.18.53.91.71,1.62.54,2.12s-.76.83-1.77.99c-3.27.44-7,.82-11.21,1.13v2.45h16.16c1.44,0,2.17.72,2.17,2.17s-.72,2.21-2.17,2.21h-16.16v1.79h10.79c.91,0,1.65.28,2.21.85s.85,1.3.85,2.21v8.81c0,.91-.28,1.65-.85,2.21s-1.3.85-2.21.85h-10.79v2.12h13.52c1.38,0,2.07.69,2.07,2.07s-.69,2.12-2.07,2.12h-13.52v2.5h16.39c1.47,0,2.21.74,2.21,2.21s-.74,2.21-2.21,2.21h-37.83ZM126.54,184.61h7.77v-2.12h-6.64c-.75,0-1.13.38-1.13,1.13v.99ZM127.43,190.07h6.88v-2.12h-7.77v1.22c0,.6.3.9.9.9ZM139.87,184.61h8.2v-1.22c0-.6-.3-.9-.9-.9h-7.3v2.12ZM139.87,190.07h7.07c.75,0,1.13-.38,1.13-1.13v-.99h-8.2v2.12Z"/>
          <path class="cls-5" d="M165.1,207.15c-.58.17-1.3-.02-2.14-.59-.79-.53-1.24-1.11-1.37-1.74-.13-.63.03-1.38.47-2.26,1.91-4.71,2.87-11.65,2.87-20.82v-10.13c0-.91.28-1.65.85-2.21.57-.57,1.3-.85,2.21-.85h13.52v-1.32c0-1.92.97-2.87,2.92-2.87s2.87.96,2.87,2.87v1.32h14.08c1.67,0,2.5.83,2.5,2.5s-.83,2.5-2.5,2.5h-30.01c-.75,0-1.13.38-1.13,1.13v7.07c0,10.08-1.19,17.98-3.58,23.69-.47.97-1,1.55-1.58,1.72ZM199.08,208.11c-4.36-.69-8.27-1.82-11.73-3.39-3.74,1.48-8.04,2.59-12.91,3.34-1.67.19-2.78-.33-3.34-1.55-.47-1.04-.5-1.81-.09-2.31.41-.47,1.21-.77,2.4-.9,3.11-.44,5.92-1.02,8.43-1.74-1.51-1.1-2.83-2.26-3.96-3.49-.44-.53-.6-1.02-.47-1.46.12-.44.5-.78,1.13-1.04l.14-.05h-4.81c-1.44,0-2.17-.74-2.17-2.21s.72-2.17,2.17-2.17h23.74c1.13,0,1.87.34,2.21,1.01.34.68.24,1.64-.33,2.9-1.38,2.48-3.44,4.66-6.17,6.55,2.01.6,4.41,1.1,7.21,1.51,1.41.16,2.29.52,2.64,1.08.41.57.25,1.4-.47,2.5-.75,1.16-1.96,1.63-3.63,1.41ZM180.76,189.27c-.91,0-1.65-.28-2.21-.85s-.85-1.3-.85-2.21v-4.29h-4.1c-1.48,0-2.21-.74-2.21-2.21s.74-2.21,2.21-2.21h4.1v-.52c0-1.73.88-2.59,2.64-2.59s2.59.86,2.59,2.59v.52h8.48v-.38c0-1.82.93-2.73,2.78-2.73s2.73.91,2.73,2.73v.38h4.52c1.48,0,2.21.74,2.21,2.21s-.74,2.21-2.21,2.21h-4.52v4.29c0,.91-.28,1.65-.85,2.21-.57.57-1.3.85-2.21.85h-13.09ZM187.54,199.4c2.14-1,4-2.29,5.61-3.86h-11.07c1.38,1.48,3.2,2.76,5.46,3.86ZM184.05,185.03h6.22c.75,0,1.13-.38,1.13-1.13v-1.98h-8.48v1.98c0,.75.38,1.13,1.13,1.13Z"/>
          <path class="cls-5" d="M211.8,206.46c-.91,0-1.65-.28-2.21-.85s-.85-1.3-.85-2.21v-34.06c0-.91.28-1.65.85-2.21s1.3-.85,2.21-.85h33.68c.91,0,1.65.28,2.21.85s.85,1.3.85,2.21v34.06c0,.91-.28,1.65-.85,2.21s-1.3.85-2.21.85h-33.68ZM215.14,201.47h26.76c.75,0,1.13-.38,1.13-1.13v-27.89c0-.75-.38-1.13-1.13-1.13h-26.76c-.75,0-1.13.38-1.13,1.13v27.89c0,.75.38,1.13,1.13,1.13ZM235.87,200.24c-1.16-.78-2.39-1.49-3.67-2.12-.69-.35-1.05-.73-1.08-1.15-.03-.42.27-.83.9-1.2l.14-.09h-7.54l1.37.47c.35.13.54.28.59.47.05.19-.06.38-.31.57-1.82,1.29-3.89,2.37-6.22,3.25-1.01.38-1.88.22-2.64-.47-1.38-1.32-1.02-2.28,1.08-2.87,1.47-.47,2.7-.94,3.67-1.41h-2.45c-.63,0-1.14-.2-1.53-.59-.39-.39-.59-.9-.59-1.53v-9.33c0-.91.28-1.65.85-2.21s1.3-.85,2.21-.85h15.73c.91,0,1.65.28,2.21.85s.85,1.3.85,2.21v8.38c0,.91-.28,1.65-.85,2.21-.57.57-1.3.85-2.21.85h-1.74c1.66.72,3.06,1.37,4.19,1.93.97.53,1.42,1.02,1.34,1.46-.08.44-.65.88-1.72,1.32-.97.41-1.84.36-2.59-.14ZM222.87,179.9c-2.23,0-3.34-1.13-3.34-3.39s1.11-3.34,3.34-3.34h11.35c2.23,0,3.34,1.12,3.34,3.34s-1.12,3.39-3.34,3.39h-11.35ZM222.21,185.17h12.39v-.85c0-.38-.19-.57-.57-.57h-10.69c-.75,0-1.13.38-1.13,1.13v.28ZM222.21,189.08h12.39v-1.41h-12.39v1.41ZM222.77,193.09h10.69c.75,0,1.13-.38,1.13-1.13v-.33h-12.39v.9c0,.38.19.57.57.57ZM224.66,177.35h7.3c.57,0,.85-.28.85-.85v-.14c0-.44-.22-.66-.66-.66h-7.3c-.57,0-.85.28-.85.85v.14c0,.44.22.66.66.66Z"/>
          <path class="cls-5" d="M254.1,190.26c-1.44-1.85-.9-3.22,1.65-4.1,4.02-1.66,7.38-3.8,10.08-6.41h-9.75c-1.67,0-2.5-.85-2.5-2.54s.83-2.5,2.5-2.5h15.4v-3.49c-3.14.28-7.13.52-11.97.71-.78.03-1.38-.09-1.79-.35-.41-.27-.72-.76-.94-1.48-.5-1.73.3-2.64,2.4-2.73,10.74-.53,19.33-1.44,25.77-2.73.6-.09,1.1-.06,1.51.09.31.16.72.49,1.22.99.94.97,1.35,1.76,1.22,2.36-.13.6-.83,1.02-2.12,1.27-2.58.47-5.87.93-9.89,1.37v4h15.78c1.66,0,2.5.83,2.5,2.5s-.83,2.54-2.5,2.54h-9.99c2.76,2.36,6.08,4.32,9.94,5.89,1.32.47,2.13,1.02,2.45,1.65.31.66.08,1.51-.71,2.54-.53.69-1.11,1.11-1.72,1.25-.61.14-1.36.04-2.24-.31-5.34-2.42-9.84-5.73-13.52-9.94v6.03c0,1.79-.9,2.69-2.69,2.69s-2.73-.9-2.73-2.69v-5.94c-3.61,4.43-8.13,7.82-13.57,10.17-1.6.63-2.87.35-3.82-.85ZM255.28,206.46c-.66-.94-.63-1.85.09-2.73.63-.75,1.63-1.38,3.02-1.88,1.82-1,3.22-2.24,4.19-3.72.78-1.29,1.37-2.9,1.74-4.85.25-1.95,1.32-2.92,3.2-2.92,2.14,0,3.05,1.15,2.73,3.44-.5,3.05-1.41,5.54-2.73,7.49-1.73,2.51-4.3,4.49-7.73,5.94-2.1.75-3.61.5-4.52-.75ZM283.3,207.83c-2.54,0-4.26-.49-5.13-1.46-.85-.91-1.27-2.64-1.27-5.18v-8.05c0-1.85.94-2.78,2.83-2.78s2.78.93,2.78,2.78v8.01c0,.72.09,1.17.28,1.34.19.17.66.26,1.41.26h3.96c.57,0,.94-.17,1.13-.52.19-1.44.55-2.53,1.08-3.25.66-.91,1.52-1.15,2.59-.71.66.28,1.11.96,1.37,2.03.19.85.22,1.77.09,2.78-.41,1.79-1.05,3.05-1.93,3.77-.85.66-2.1.99-3.77.99h-5.42Z"/>
        </g>
      </g>
      <g id="uuid-89565a26-9a71-4efe-b78d-621809227e19" data-name="care-img-5-2">
        <path class="cls-2" d="M206.37,145.47c9.61-2.29,101.83-40.45,101.33-42.56-.75-3.16-100.02,5.46-109.63,7.75-9.61,2.29-15.55,11.94-13.25,21.55,2.29,9.61,11.94,15.55,21.55,13.25Z"/>
        <circle class="cls-4" cx="202.87" cy="128.47" r="11.39"/>
      </g>
      <g id="care-img-5-1">
        <polygon class="cls-5" points="415.69 138.99 434.32 126.87 426.56 111.99 450.84 105.05 436.12 85.46 456.13 79.23 441.86 87.47 457.09 108.48 430.1 112.4 439.46 129.56 415.69 138.99"/>
        <polygon class="cls-5" points="406.86 136.76 415.18 123.81 406.04 116.62 419.39 105.32 404.52 97.15 415.38 87.52 408.72 96.78 424.32 105.72 408.39 115.87 419.19 124.04 406.86 136.76"/>
      </g>
    </g>
  </g>
</svg>