<?xml version="1.0" encoding="UTF-8"?>
<svg id="_圖層_2" data-name="圖層 2" xmlns="http://www.w3.org/2000/svg" viewBox="0 0 191.27 147.99">
  <defs>
    <style>
      .cls-1 {
        fill: #7d87bd;
      }

      .cls-2 {
        fill: #6b8dc9;
      }

      .cls-3 {
        fill: #d8d8d8;
      }

      .cls-4 {
        fill: #587fb7;
      }

      .cls-5 {
        fill: #e2883f;
      }

      .cls-6 {
        fill: #fff;
      }

      .cls-7 {
        fill: #eaa863;
      }

      .cls-8 {
        fill: #7998d8;
      }

      .cls-9 {
        fill: #e8eff9;
      }

      .cls-10 {
        fill: #efbd8f;
      }
    </style>
  </defs>
  <g id="_圖層_1-2" data-name="圖層 1">
    <g>
      <g>
        <path class="cls-9" d="M127.55,6.39c-7.91-5.52-19.17.71-19.46,10.35-.09,2.87.36,5.93,1.02,8.1,2.39,7.79,8.5,14.71,15.77,19.23,9.93,6.17,22.33,5.02,29.12,1.75,4.63-2.23,9.12-6.53,10.85-11.18,0,0,6.07-12.51-5.09-21.45-11.16-8.95-17.25.59-32.01-6.66-.07-.03-.12-.09-.19-.13Z"/>
        <path class="cls-9" d="M85.24,7.43C75.32-.89,60.92-1.94,48.86,2.87c-12.06,4.82-22.65,14.4-29.23,26.14-12.07,21.56-16.02,55.68.74,81.3,12.27,18.75,33.6,32.58,55.1,36.11,17.2,2.83,35.6,1.9,52.45-3.5,8.95-2.87,18-8.19,24.95-13.63,9.28-7.26,19.25-21.37,20.59-35.11.84-8.61-1.77-16-6.91-20.64-2.44-2.2-5.52-3.44-8.54-4.63-13.99-5.54-33.49-9.23-44.37-20.64-11.4-11.95-15.72-30.34-28.4-40.83Z"/>
      </g>
      <g>
        <path class="cls-2" d="M182.5,63.46l-100.38-20.37h0s-2.94-.6-2.94-.6h0l-20.98-4.26c-5.57-1.13-11.09,2.16-12.75,7.6l-.24.78-4.18-1.27.37-1.22c.4-1.31-.34-2.7-1.66-3.11l-24.51-7.47c-3.72-1.13-7.66.97-8.8,4.69L.31,58.4c-1.13,3.72.97,7.66,4.69,8.8l24.51,7.47c1.31.4,2.7-.34,3.11-1.66l.37-1.22,4.18,1.27-.24.78c-.7,2.3-.61,4.67.13,6.8.11.32.23.63.37.94.16.36.34.72.55,1.07,1.18,2.01,3,3.65,5.3,4.6l19.79,8.16h0l2.77,1.14h0l94.69,39.05-.52,1.69,8.25,2.51,1.06-3.49.52-1.7,1.51-4.94.52-1.7,1.51-4.94.52-1.7,1.51-4.94.52-1.7,1.51-4.94.52-1.7,1.51-4.94.52-1.7,1.51-4.94.52-1.7,1.51-4.94.52-1.7,1.51-4.94.52-1.7,1.51-4.94.52-1.7,1.51-4.94.52-1.7,1.18-3.88-8.25-2.51-.52,1.69h0Z"/>
        <polygon class="cls-2" points="38.86 67.51 41.7 58.16 41.7 58.16 45.22 46.62 41.04 45.34 32.99 71.79 37.17 73.06 38.86 67.51"/>
        <path class="cls-3" d="M6.45,38.24L.31,58.4c-1.13,3.72.97,7.66,4.69,8.8l24.51,7.47c1.31.4,2.7-.34,3.11-1.66l.37-1.22,8.05-26.45.37-1.22c.4-1.31-.34-2.7-1.66-3.11l-24.51-7.47c-3.72-1.13-7.66.97-8.8,4.69Z"/>
        <path class="cls-8" d="M58.16,38.23c-5.58-1.11-11.08,2.21-12.71,7.65l-3.7,12.34h0c1.63-5.45,7.14-8.76,12.71-7.65l11.52,2.29,3.7-12.34-11.52-2.29Z"/>
        <polygon class="cls-1" points="75.6 41.77 71.84 54.09 75.43 54.82 79.19 42.5 75.6 41.77"/>
        <polygon class="cls-8" points="168.98 73.8 172.73 61.48 182.5 63.46 82.13 43.1 78.37 55.42 168.98 73.8"/>
        <polygon class="cls-8" points="63.07 95.41 67.92 79.5 64.53 78.11 59.68 94.02 63.07 95.41"/>
        <path class="cls-8" d="M36.93,73.84c-.52,1.7-.61,3.44-.32,5.08.01.07.03.14.05.22.24,1.24.68,2.43,1.32,3.51.03.05.06.09.09.13.27.44.56.85.89,1.25.28.34.56.67.88.97.24.23.5.46.76.67.2.16.4.31.62.46.42.29.87.56,1.34.79.24.12.48.23.72.33l10.86,4.48,4.85-15.91-20.08-8.28-.05-.03h0l-1.93,6.32h0Z"/>
        <polygon class="cls-8" points="161.59 132.11 163.1 127.16 163.62 125.46 165.13 120.52 165.64 118.81 167.15 113.87 167.67 112.17 169.17 107.22 169.69 105.52 171.2 100.58 171.72 98.88 173.22 93.93 173.74 92.23 175.25 87.28 175.76 85.58 177.27 80.64 177.79 78.94 179.3 73.99 179.81 72.29 181.32 67.35 181.84 65.64 182.5 63.46 182.5 63.46 172.73 61.48 168.98 73.8 156.16 115.89 70.69 80.65 65.84 96.56 160.53 135.6 161.08 133.81 161.59 132.11"/>
        <path class="cls-6" d="M79.76,69.1h0c-1.98,6.52,1.72,13.47,8.24,15.46l42.52,12.95c6.52,1.98,13.47-1.72,15.46-8.24h0c1.98-6.52-1.72-13.47-8.24-15.46l-42.52-12.95c-6.52-1.98-13.47,1.72-15.46,8.24Z"/>
        <g>
          <polygon class="cls-7" points="79.19 42.5 79.19 42.5 75.43 54.82 75.43 54.82 67.92 79.5 67.92 79.5 63.07 95.41 63.07 95.41 63.07 95.41 65.84 96.56 65.84 96.56 70.69 80.65 70.69 80.65 78.37 55.42 78.37 55.42 82.13 43.1 82.13 43.1 79.19 42.5"/>
          <polygon class="cls-7" points="64.53 78.11 71.84 54.09 75.6 41.77 69.72 40.58 65.96 52.9 58.98 75.82 54.14 91.73 59.68 94.02 64.53 78.11 64.53 78.11"/>
        </g>
        <polygon class="cls-2" points="182.5 63.46 182.5 63.46 181.84 65.64 181.32 67.35 179.81 72.29 179.3 73.99 177.79 78.94 177.27 80.64 175.76 85.58 175.25 87.28 173.74 92.23 173.22 93.93 171.72 98.88 171.2 100.58 169.69 105.52 169.17 107.22 167.67 112.17 167.15 113.87 165.64 118.81 165.13 120.52 163.62 125.46 163.1 127.16 161.59 132.11 161.08 133.81 160.53 135.6 160.01 137.3 168.26 139.81 169.33 136.32 169.85 134.62 171.35 129.68 171.87 127.97 173.38 123.03 173.89 121.33 175.4 116.38 175.92 114.68 177.42 109.74 177.94 108.04 179.45 103.09 179.97 101.39 181.47 96.44 181.99 94.74 183.5 89.8 184.02 88.1 185.52 83.15 186.04 81.45 187.55 76.51 188.06 74.8 189.57 69.86 190.09 68.16 191.27 64.28 183.02 61.77 182.5 63.46"/>
        <path class="cls-6" d="M2.64,54.39c-.18.77-.2,1.54-.07,2.28l24.59,7.49.64-2.1-25.16-7.66Z"/>
        <rect class="cls-6" x="18.43" y="30.89" width="2.2" height="26.32" transform="translate(-28.3 49.9) rotate(-73.06)"/>
        <path class="cls-6" d="M8.82,36.31c-.53.54-.96,1.18-1.25,1.92l25.15,7.66.64-2.1-24.55-7.48Z"/>
        <rect class="cls-6" x="16.58" y="36.98" width="2.2" height="26.32" transform="translate(-35.44 52.44) rotate(-73.06)"/>
        <path class="cls-6" d="M33.64,42.84c.26-1.14-.39-2.3-1.52-2.65l-17.54-5.34c-1.7-.52-3.46-.21-4.84.71l23.91,7.28Z"/>
        <rect class="cls-6" x="17.5" y="33.94" width="2.2" height="26.32" transform="translate(-31.87 51.17) rotate(-73.06)"/>
        <path class="cls-6" d="M2.88,57.79c.62,1.58,1.92,2.87,3.67,3.4l17.54,5.34c1.17.36,2.39-.29,2.78-1.44l-23.99-7.31Z"/>
        <rect class="cls-6" x="15.65" y="40.02" width="2.2" height="26.32" transform="translate(-39.01 53.71) rotate(-73.06)"/>
        <rect class="cls-6" x="14.72" y="43.07" width="2.2" height="26.32" transform="translate(-42.58 54.98) rotate(-73.06)"/>
        <polygon class="cls-10" points="75.6 41.77 69.72 40.58 65.96 52.9 71.84 54.09 75.6 41.77"/>
        <polygon class="cls-10" points="75.43 54.82 78.37 55.42 78.37 55.42 82.13 43.1 82.13 43.1 79.19 42.5 79.19 42.5 75.43 54.82 75.43 54.82"/>
        <polygon class="cls-5" points="58.98 75.82 54.14 91.73 59.68 94.02 64.53 78.11 64.53 78.11 58.98 75.82"/>
        <polygon class="cls-5" points="70.69 80.65 67.92 79.5 67.92 79.5 63.07 95.41 63.07 95.41 63.07 95.41 65.84 96.56 65.84 96.56 70.69 80.65 70.69 80.65"/>
        <rect class="cls-4" x="164.57" y="129.9" width="1.78" height="8.63" transform="translate(-11.14 253.39) rotate(-73.06)"/>
        <rect class="cls-4" x="166.6" y="123.26" width="1.78" height="8.63" transform="translate(-3.35 250.62) rotate(-73.06)"/>
        <rect class="cls-4" x="168.62" y="116.61" width="1.78" height="8.63" transform="translate(4.44 247.84) rotate(-73.06)"/>
        <rect class="cls-4" x="170.64" y="109.96" width="1.78" height="8.63" transform="translate(12.24 245.07) rotate(-73.06)"/>
        <rect class="cls-4" x="172.67" y="103.32" width="1.78" height="8.63" transform="translate(20.03 242.3) rotate(-73.06)"/>
        <rect class="cls-4" x="174.69" y="96.67" width="1.78" height="8.63" transform="translate(27.82 239.52) rotate(-73.06)"/>
        <rect class="cls-4" x="176.72" y="90.02" width="1.78" height="8.63" transform="translate(35.61 236.75) rotate(-73.06)"/>
        <rect class="cls-4" x="178.74" y="83.38" width="1.78" height="8.63" transform="translate(43.41 233.98) rotate(-73.06)"/>
        <rect class="cls-4" x="180.77" y="76.73" width="1.78" height="8.63" transform="translate(51.2 231.2) rotate(-73.06)"/>
        <rect class="cls-4" x="182.79" y="70.09" width="1.78" height="8.63" transform="translate(58.99 228.43) rotate(-73.06)"/>
        <rect class="cls-4" x="184.82" y="63.44" width="1.78" height="8.63" transform="translate(66.78 225.66) rotate(-73.06)"/>
      </g>
    </g>
  </g>
</svg>