<?xml version="1.0" encoding="UTF-8"?>
<svg id="_圖層_2" data-name="圖層 2" xmlns="http://www.w3.org/2000/svg" viewBox="0 0 780.95 494.28">
  <defs>
    <style>
      .cls-1 {
        fill: #e6a692;
      }

      .cls-2 {
        fill: #644b30;
      }

      .cls-3 {
        fill: #f4d0b8;
      }

      .cls-4 {
        fill: #52437b;
      }

      .cls-5 {
        fill: #775c42;
      }

      .cls-6 {
        fill: #fff;
      }

      .cls-7 {
        fill: #7794e5;
      }

      .cls-8 {
        fill: #d49680;
      }
    </style>
  </defs>
  <g id="_圖層_1-2" data-name="圖層 1">
    <g>
      <path class="cls-6" d="M633.1,253.74c0,2.48-2.01,4.48-4.48,4.48s-4.48-2.01-4.48-4.48,2.54-8,4.48-8,4.48,5.53,4.48,8Z"/>
      <g>
        <circle class="cls-7" cx="191.95" cy="255.42" r="191.95"/>
        <g>
          <g>
            <path class="cls-6" d="M733.98,191.24c1.33-38.93-.14-81.7-3.82-127.5,3.99-13.21,8.52-30.57,4.34-37.45-4.59-7.55-18.82-3.92-35.32-2.26-98.96-33.7-204.18-30.33-296.17,0-16.5-1.67-30.73-5.29-35.32,2.26-4.19,6.88.34,24.24,4.34,37.45-3.69,45.81-5.15,88.57-3.82,127.5-1.33,38.93.14,81.7,3.82,127.5-3.99,13.21-8.52,30.57-4.34,37.45,4.59,7.55,18.82,3.92,35.32,2.26,98.96,33.7,204.18,30.33,296.17,0,16.51,1.67,30.73,5.29,35.32-2.26,4.19-6.88-.34-24.24-4.34-37.45,3.68-45.81,5.15-88.57,3.82-127.5Z"/>
            <polygon class="cls-4" points="699.08 359.23 684.34 357.46 684.53 355.9 699.27 357.67 699.08 359.23"/>
            <polygon class="cls-4" points="403.08 359.23 402.89 357.67 417.62 355.9 417.82 357.46 403.08 359.23"/>
            <rect class="cls-4" x="722.34" y="324.11" width="12.72" height="1.57" transform="translate(244.58 959.09) rotate(-76.67)"/>
            <rect class="cls-4" x="373.35" y="318.56" width="1.57" height="12.72" transform="translate(-64.91 95.17) rotate(-13.35)"/>
            <polygon class="cls-4" points="417.65 26.58 402.91 24.8 403.1 23.24 417.84 25.02 417.65 26.58"/>
            <polygon class="cls-4" points="684.55 26.58 684.36 25.02 699.1 23.24 699.29 24.8 684.55 26.58"/>
            <rect class="cls-4" x="367.12" y="56.77" width="12.72" height="1.57" transform="translate(231.32 407.68) rotate(-76.66)"/>
            <rect class="cls-4" x="727.3" y="51.18" width="1.57" height="12.72" transform="translate(6.39 169.67) rotate(-13.35)"/>
          </g>
          <g>
            <path class="cls-5" d="M430.14,266.9c-.99-3.67-1.73-7.44-2.21-11.2l2.34-.3c.47,3.65,1.19,7.31,2.15,10.88l-2.28.61Z"/>
            <path class="cls-5" d="M680.58,251.88c-1.54-15.2-8.42-24.1-14.49-31.96-3.76-4.87-7.01-9.07-8.43-14.02l2.27-.65c1.29,4.51,4.41,8.55,8.03,13.22,5.96,7.71,13.37,17.3,14.98,33.17l-2.35.24Z"/>
            <g>
              <rect class="cls-3" x="516.39" y="216.43" width="67.36" height="78.23"/>
              <path class="cls-3" d="M758.74,349.68c-10.84-30.02-32.56-55.02-68.89-64.35l-106.21-23.47h-67.25l-105.91,23.47c-36.34,9.34-58.05,34.33-68.89,64.35-11.85,46.57-18.56,95.02-22.21,144.6h461.58c-3.65-49.58-10.36-98.03-22.21-144.6Z"/>
              <path class="cls-2" d="M533.76,277.27c-13.99-2.33-24.48-8.62-24.59-8.68l.82-1.35c.1.06,10.35,6.2,24.03,8.48l-.26,1.55Z"/>
              <path class="cls-2" d="M565.37,277.28l-.2-1.56c14.54-1.91,23.87-8.38,23.96-8.44l.9,1.29c-.39.28-9.74,6.76-24.66,8.72Z"/>
              <path class="cls-2" d="M548.53,396.43c-.46-17.2-13.73-21.94-14.3-22.13l.5-1.49c.15.05,14.87,5.25,15.37,23.58l-1.57.04Z"/>
              <path class="cls-2" d="M553.65,396.43l-1.57-.04c.5-18.33,15.22-23.52,15.37-23.58l.51,1.49c-.56.19-13.83,4.93-14.3,22.13Z"/>
              <path class="cls-6" d="M677.9,281.98l-31.6-7.71s-7.25,75.01-15.9,86.67c-8.25,11.12-73.67,26.91-79.81,28.37-6.14-1.46-71.57-17.26-79.81-28.37-8.65-11.66-15.9-86.67-15.9-86.67l-31.6,7.71-20.28,152.64c.76,21.67,4.67,41.71,12.62,59.67h269.95c7.95-17.96,11.87-38,12.62-59.67l-20.28-152.64Z"/>
            </g>
            <g>
              <path class="cls-3" d="M470.77,142.6s-20.67-22.11-33.18-7.12c-12.51,14.99,3.81,61.52,33.18,50.99v-43.87"/>
              <path class="cls-2" d="M457.71,175.48c-9.27-4.64-18.09-21.04-14.02-30.2.92-2.06,2.41-3.47,4.45-4.18,5.54-1.93,13.16,1.98,13.47,2.15l-.72,1.39c-.08-.04-7.35-3.77-12.23-2.06-1.63.57-2.79,1.66-3.53,3.33-3.43,7.73,4.01,23.52,13.28,28.15l-.7,1.41Z"/>
              <path class="cls-2" d="M459.57,162.92c-6.51-5.32-12.74-1.21-13-1.04l-.88-1.3c.07-.05,7.45-4.94,14.88,1.12l-1,1.22Z"/>
            </g>
            <g>
              <path class="cls-3" d="M629.37,142.6s20.67-22.11,33.18-7.12c12.51,14.99-3.81,61.52-33.18,50.99v-43.87"/>
              <path class="cls-2" d="M642.43,175.48l-.7-1.41c9.27-4.64,16.72-20.42,13.28-28.15-.74-1.67-1.9-2.76-3.53-3.33-4.9-1.72-12.16,2.02-12.23,2.06l-.72-1.39c.32-.17,7.95-4.08,13.47-2.15,2.04.71,3.53,2.12,4.45,4.18,4.07,9.16-4.74,25.56-14.02,30.2Z"/>
              <path class="cls-2" d="M640.58,162.92l-.99-1.22c7.43-6.07,14.8-1.17,14.88-1.12l-.88,1.3c-.27-.18-6.51-4.27-13,1.04Z"/>
            </g>
            <ellipse class="cls-3" cx="551.11" cy="142.04" rx="96.03" ry="94.55" transform="translate(60.98 431.3) rotate(-45)"/>
            <path class="cls-2" d="M468.51,187.58c-.08-.2-2.11-4.98-3.22-9.24l1.52-.4c1.09,4.15,3.13,8.98,3.15,9.03l-1.45.61Z"/>
            <path class="cls-2" d="M631.95,187.72l-1.45-.61s2.06-4.88,3.15-9.03l1.52.4c-1.12,4.26-3.14,9.04-3.23,9.24Z"/>
            <path class="cls-2" d="M549.52,238.43c-12.23,0-24.25-2.25-33.8-6.76l.67-1.42c18.73,8.84,47.14,8.84,67.57,0l.63,1.44c-10.4,4.5-22.84,6.75-35.06,6.75Z"/>
            <g>
              <path class="cls-2" d="M550.89,170.77h-8.49v-1.57h8.49c1.69,0,2.82-.33,3.53-1.05.81-.81,1.2-2.24,1.2-4.37v-19.81h1.57v19.81c0,2.6-.52,4.35-1.66,5.49-1.03,1.04-2.51,1.52-4.65,1.52Z"/>
              <path class="cls-2" d="M524.31,191.73l-.31-1.54c.3-.06,29.91-5.85,47.76-3.35l-.22,1.56c-17.58-2.47-46.94,3.28-47.24,3.34Z"/>
              <path class="cls-2" d="M549.41,201.07c-2.61,0-5.22-.43-7.82-1.3l.5-1.5c4.86,1.62,9.78,1.62,14.64,0l.5,1.5c-2.59.86-5.21,1.3-7.82,1.3Z"/>
              <path class="cls-2" d="M516.49,134.92c-.19.86-.81,1.67-1.73,2.2-2.46,1.42-5.46,2.03-8.25,2.41-5.8.78-10.59.75-10.83-1-.24-1.76,8.29-6.78,14.09-7.56,1.8-.24,4.01-.06,5.51,1.07,1.09.82,1.43,1.89,1.21,2.88Z"/>
              <path class="cls-2" d="M583.74,134.47c.15.87.73,1.7,1.64,2.28,2.4,1.52,5.37,2.27,8.14,2.76,5.76,1.03,10.55,1.21,10.86-.54s-7.99-7.13-13.75-8.16c-1.79-.32-4-.23-5.55.83-1.12.77-1.51,1.82-1.33,2.83Z"/>
              <path class="cls-8" d="M512.11,179.03l-.44-1.51c14.84-4.28,17.46-16.12,17.48-16.24l1.54.31c-.11.52-2.8,12.89-18.59,17.44Z"/>
              <path class="cls-8" d="M588.2,179.03c-15.79-4.55-18.48-16.92-18.59-17.44l1.54-.31c.03.12,2.65,11.96,17.48,16.24l-.44,1.51Z"/>
              <path class="cls-1" d="M520.27,163.68c.27,2.13-3.73,3.8-12.18,4.14-8.45.35-15.33-.61-15.6-2.74-.27-2.13,6.18-3.76,14.63-4.11,8.45-.35,12.88.58,13.15,2.71Z"/>
              <path class="cls-1" d="M580.16,163.68c-.27,2.13,3.73,3.8,12.18,4.14,8.45.35,15.33-.61,15.6-2.74.27-2.13-6.18-3.76-14.63-4.11-8.45-.35-12.87.58-13.15,2.71Z"/>
              <g>
                <path class="cls-2" d="M512.58,155.89c.49,2.52-1.16,4.97-3.69,5.46-2.52.49-4.97-1.16-5.46-3.69-.49-2.52,1.16-4.97,3.69-5.46,2.53-.49,4.97,1.16,5.46,3.69Z"/>
                <path class="cls-2" d="M519.39,156.02s-3.11-3.2-10.43-2.98c-6.23.32-12.66,2.45-12.73,2.47l-.5-1.5c.27-.09,6.69-2.21,13.16-2.55,8.17-.25,11.52,3.33,11.66,3.48l-1.16,1.06.58-.53-.58.54Z"/>
                <path class="cls-2" d="M507.48,162.61c-1.97,0-3.84-.2-5.57-.62l.36-1.53c3.46.82,7.46.76,11.91-.16l.32,1.54c-2.47.51-4.81.77-7.02.77Z"/>
              </g>
              <g>
                <path class="cls-2" d="M587.56,155.89c-.49,2.52,1.16,4.97,3.69,5.46,2.52.49,4.97-1.16,5.46-3.69.49-2.52-1.16-4.97-3.69-5.46-2.52-.49-4.97,1.16-5.46,3.69Z"/>
                <path class="cls-2" d="M580.75,156.02l-1.16-1.06c.14-.15,3.55-3.71,11.64-3.49,6.47.34,12.9,2.46,13.17,2.55l-.5,1.5c-.06-.02-6.5-2.14-12.74-2.47-7.35-.25-10.39,2.95-10.42,2.98Z"/>
                <path class="cls-2" d="M592.65,162.61c-2.2,0-4.55-.25-7.02-.77l.32-1.54c4.44.92,8.45.98,11.91.16l.36,1.53c-1.73.41-3.6.62-5.57.62Z"/>
              </g>
            </g>
          </g>
        </g>
        <g>
          <path class="cls-6" d="M110,288.29h-25.29c-2.39,0-3.62-1.23-3.62-3.62s1.23-3.69,3.62-3.69h20.64v-8.34h-14.01c-2.39,0-3.55-1.16-3.55-3.55s1.16-3.55,3.55-3.55h14.01v-7.86h-9.84c-2.67,0-4.44-1.78-4.44-4.44v-1.37c-1.78,1.16-3.49,2.26-5.26,3.21-2.32,1.3-3.96,1.09-5.54-1.03-2.05-2.73-1.5-4.38,1.64-5.81,6.29-3.21,12.78-7.86,17.91-12.85h-5.26c-2.53,0-3.76-1.3-3.76-3.83s1.23-3.76,3.76-3.76h16.68c1.78,0,3.49.89,4.38,2.12,5.06,6.49,12.71,12.85,21.19,17.02,3.55,1.57,4.79,3.55,2.53,6.7-1.78,2.39-3.69,2.6-6.36,1.23-1.57-.82-3.14-1.78-4.65-2.8v3.01c0,1.57-1.03,2.6-2.6,2.6h-11.89v7.86h14.29c2.39,0,3.55,1.16,3.55,3.55s-1.16,3.55-3.55,3.55h-14.29v8.34h21.53c2.39,0,3.62,1.3,3.62,3.69s-1.23,3.62-3.62,3.62h-25.36ZM109.52,250.42h16.47c-6.29-4.44-11.96-9.78-16.34-15.04-4.38,5.33-10.39,10.66-16.61,15.04h16.47Z"/>
          <path class="cls-6" d="M170.43,275.78l-1.03-.27c-.41-.07-.55-.34-.48-.62.62-2.67,1.23-6.08,1.71-9.3.34-2.8,1.78-3.9,4.51-3.35,2.67.55,3.49,2.32,2.73,4.92-.68,2.67-1.44,5.33-2.19,7.52l2.6-.55c2.46-.48,3.76.48,4.03,2.94.21,2.12-.68,3.49-2.73,3.96-3.83.96-7.72,1.85-11.48,2.73-3.42.82-6.7,1.57-9.71,2.26-2.53.62-3.76-.34-4.38-2.87-.62-2.67.14-4.1,2.8-4.58,1.37-.27,2.8-.62,4.24-.89,2.94-.55,6.08-1.23,9.37-1.91ZM177.81,228.89c2.53,0,3.76,1.23,3.76,3.76s-1.23,3.76-3.76,3.76h-19.82c-2.53,0-3.76-1.23-3.76-3.76s1.23-3.76,3.76-3.76h19.82ZM175.69,241.19c2.67,0,4.44,1.78,4.44,4.44v10.32c0,2.67-1.78,4.44-4.44,4.44h-15.24c-2.67,0-4.44-1.78-4.44-4.44v-10.32c0-2.67,1.78-4.44,4.44-4.44h15.24ZM165.71,271.27c.21,1.98-.68,3.08-2.67,3.55-2.6.68-3.96-.07-4.24-2.8-.07-.68-.21-1.37-.34-2.05-.21-1.03-.41-2.05-.68-3.08-.62-2.19.34-3.55,2.53-4.1,1.91-.48,3.28.07,3.96,1.98.34,1.09.62,2.32.89,3.49.21,1.03.41,2.05.55,3.01ZM170.77,254.05c1.37,0,2.05-.68,2.05-2.05v-2.32c0-1.37-.68-2.05-2.05-2.05h-5.88c-1.37,0-2.05.68-2.05,2.05v2.32c0,1.37.68,2.05,2.05,2.05h5.88ZM188.96,278.52c1.71-1.44,3.21-1.37,5.13-.14,2.53,1.64,2.8,3.28.48,5.2-1.16.82-2.39,1.64-3.69,2.39-1.78,1.09-3.62,2.12-5.47,2.94-1.85.75-3.14.55-4.58-.82-2.39-2.39-1.85-4.03,1.3-5.33,1.03-.55,2.05-1.16,3.08-1.71,1.37-.82,2.67-1.71,3.76-2.53ZM184.85,244.41c0-2.67,1.78-4.44,4.44-4.44h4.44l.68-4.65h-7.79c-2.26,0-3.42-1.16-3.42-3.42s1.16-3.42,3.42-3.42h25.98c2.26,0,3.42,1.16,3.42,3.42s-1.16,3.42-3.42,3.42h-9.3l-1.37,4.65h8.2c2.67,0,4.44,1.78,4.44,4.44v27.41c0,2.67-1.78,4.44-4.44,4.44h-20.85c-2.67,0-4.44-1.78-4.44-4.44v-27.41ZM206.8,250.29v-2.39c0-1.3-.62-1.91-1.91-1.91h-10.6c-1.37,0-2.05.68-2.05,2.05v2.26h14.56ZM206.8,260.27v-4.38h-14.56v4.38h14.56ZM204.75,270.25c1.37,0,2.05-.68,2.05-2.05v-2.32h-14.56v2.39c0,1.37.62,1.98,1.98,1.98h10.53ZM214.93,282.96c2.26,1.91,2.05,3.49-.41,5.13-1.91,1.3-3.49,1.3-5.2-.27-.75-.75-1.64-1.5-2.6-2.26-.82-.62-1.71-1.3-2.53-1.91-2.39-1.78-2.26-3.49.27-5.13,1.5-.96,2.94-1.03,4.38,0,1.3.89,2.67,1.85,3.96,2.8.68.55,1.44,1.09,2.12,1.64Z"/>
          <path class="cls-6" d="M255.95,240.92v-5.13c-5.88.55-11.83.82-17.43,1.03-2.12.07-3.35-.62-3.96-2.67-.82-2.8.62-3.9,3.49-4.03,13.54-.62,27.82-1.98,37.53-3.9,1.85-.41,2.8.21,4.1,1.57,2.73,2.87,2.53,4.51-1.37,5.26-4.51.82-9.37,1.44-14.36,1.98v5.88h22.97c2.46,0,3.69,1.23,3.69,3.69s-1.23,3.69-3.69,3.69h-14.49c3.96,3.42,9.09,6.36,14.49,8.54,3.76,1.3,4.85,3.08,2.46,6.22-1.57,2.05-3.35,2.26-5.74,1.3-7.45-3.35-14.36-8.41-19.69-14.49v8.68c0,2.67-1.3,3.96-3.96,3.96s-4.03-1.3-4.03-3.96v-8.54c-5.13,6.36-11.96,11.48-19.76,14.83-2.26.89-4.03.62-5.54-1.3-2.32-3.01-1.23-4.79,2.39-6.02,5.61-2.26,10.73-5.54,14.63-9.23h-14.08c-2.46,0-3.69-1.23-3.69-3.69s1.23-3.69,3.69-3.69h22.35ZM245.49,268.13c.41-2.67,1.98-4.38,4.72-4.38,3.14,0,4.44,1.91,4.03,4.99-.75,4.1-1.91,7.72-4.1,10.94-2.26,3.49-5.81,6.36-11.14,8.68-2.46.89-5.13,1.03-6.63-1.16-2.05-3.08.21-5.06,3.69-6.29,3.08-1.57,5.13-3.35,6.63-5.4,1.5-2.12,2.32-4.65,2.8-7.38ZM272.08,279.41c0,2.19.34,2.46,2.46,2.46h5.81c.75,0,1.3-.21,1.64-.82.48-3.62,1.98-7.25,5.33-5.81,2.19.96,2.39,4.72,2.12,7.04-1.16,5.4-3.55,6.97-8.34,6.97h-7.86c-7.52,0-9.37-2.46-9.37-9.78v-11.69c0-2.73,1.37-4.1,4.1-4.1s4.1,1.37,4.1,4.1v11.62Z"/>
        </g>
      </g>
      <path class="cls-2" d="M518.55,61.28c-.01-.1-.02-.2-.02-.31,0-.92.57-1.66,1.28-1.66s1.28.74,1.28,1.66c0,.11,0,.21-.02.31h-2.5Z"/>
      <path class="cls-2" d="M531.22,56.28c-.01-.1-.02-.2-.02-.31,0-.92.57-1.66,1.28-1.66s1.28.74,1.28,1.66c0,.11,0,.21-.02.31h-2.5Z"/>
      <path class="cls-2" d="M501.78,76.62c-.01-.1-.02-.2-.02-.31,0-.92.57-1.66,1.28-1.66s1.28.74,1.28,1.66c0,.11,0,.21-.02.31h-2.5Z"/>
      <path class="cls-2" d="M497.48,84.71c-.01-.1-.02-.2-.02-.31,0-.92.57-1.66,1.28-1.66s1.28.74,1.28,1.66c0,.11,0,.21-.02.31h-2.5Z"/>
      <path class="cls-2" d="M511.82,84.71c-.01-.1-.02-.2-.02-.31,0-.92.57-1.66,1.28-1.66s1.28.74,1.28,1.66c0,.11,0,.21-.02.31h-2.5Z"/>
      <path class="cls-2" d="M516.12,74.6c-.01-.1-.02-.2-.02-.31,0-.92.57-1.66,1.28-1.66s1.28.74,1.28,1.66c0,.11,0,.21-.02.31h-2.5Z"/>
      <path class="cls-2" d="M507.52,66.51c-.01-.1-.02-.2-.02-.31,0-.92.57-1.66,1.28-1.66s1.28.74,1.28,1.66c0,.11,0,.21-.02.31h-2.5Z"/>
      <path class="cls-2" d="M524.72,72.58c-.01-.1-.02-.2-.02-.31,0-.92.57-1.66,1.28-1.66s1.28.74,1.28,1.66c0,.11,0,.21-.02.31h-2.5Z"/>
      <path class="cls-2" d="M526.15,84.71c-.01-.1-.02-.2-.02-.31,0-.92.57-1.66,1.28-1.66s1.28.74,1.28,1.66c0,.11,0,.21-.02.31h-2.5Z"/>
      <g>
        <path class="cls-2" d="M565.55,86.8c-.01-.1-.02-.2-.02-.31,0-.92.57-1.66,1.28-1.66s1.28.74,1.28,1.66c0,.11,0,.21-.02.31h-2.5Z"/>
        <path class="cls-2" d="M551.22,88.82c-.01-.1-.02-.2-.02-.31,0-.92.57-1.66,1.28-1.66s1.28.74,1.28,1.66c0,.11,0,.21-.02.31h-2.5Z"/>
        <path class="cls-2" d="M549.78,70.62c-.01-.1-.02-.2-.02-.31,0-.92.57-1.66,1.28-1.66s1.28.74,1.28,1.66c0,.11,0,.21-.02.31h-2.5Z"/>
        <path class="cls-2" d="M545.48,78.71c-.01-.1-.02-.2-.02-.31,0-.92.57-1.66,1.28-1.66s1.28.74,1.28,1.66c0,.11,0,.21-.02.31h-2.5Z"/>
        <path class="cls-2" d="M559.82,78.71c-.01-.1-.02-.2-.02-.31,0-.92.57-1.66,1.28-1.66s1.28.74,1.28,1.66c0,.11,0,.21-.02.31h-2.5Z"/>
        <path class="cls-2" d="M564.12,68.6c-.01-.1-.02-.2-.02-.31,0-.92.57-1.66,1.28-1.66s1.28.74,1.28,1.66c0,.11,0,.21-.02.31h-2.5Z"/>
        <path class="cls-2" d="M555.52,60.51c-.01-.1-.02-.2-.02-.31,0-.92.57-1.66,1.28-1.66s1.28.74,1.28,1.66c0,.11,0,.21-.02.31h-2.5Z"/>
        <path class="cls-2" d="M572.72,66.58c-.01-.1-.02-.2-.02-.31,0-.92.57-1.66,1.28-1.66s1.28.74,1.28,1.66c0,.11,0,.21-.02.31h-2.5Z"/>
        <path class="cls-2" d="M574.15,78.71c-.01-.1-.02-.2-.02-.31,0-.92.57-1.66,1.28-1.66s1.28.74,1.28,1.66c0,.11,0,.21-.02.31h-2.5Z"/>
      </g>
      <path class="cls-2" d="M539.55,66.28c-.01-.1-.02-.2-.02-.31,0-.92.57-1.66,1.28-1.66s1.28.74,1.28,1.66c0,.11,0,.21-.02.31h-2.5Z"/>
      <path class="cls-2" d="M584.22,62.28c-.01-.1-.02-.2-.02-.31,0-.92.57-1.66,1.28-1.66s1.28.74,1.28,1.66c0,.11,0,.21-.02.31h-2.5Z"/>
      <path class="cls-2" d="M588.78,85.62c-.01-.1-.02-.2-.02-.31,0-.92.57-1.66,1.28-1.66s1.28.74,1.28,1.66c0,.11,0,.21-.02.31h-2.5Z"/>
      <path class="cls-2" d="M518.48,92.28c-.01-.1-.02-.2-.02-.31,0-.92.57-1.66,1.28-1.66s1.28.74,1.28,1.66c0,.11,0,.21-.02.31h-2.5Z"/>
      <path class="cls-2" d="M484.82,83.28c-.01-.1-.02-.2-.02-.31,0-.92.57-1.66,1.28-1.66s1.28.74,1.28,1.66c0,.11,0,.21-.02.31h-2.5Z"/>
      <path class="cls-2" d="M603.12,83.6c-.01-.1-.02-.2-.02-.31,0-.92.57-1.66,1.28-1.66s1.28.74,1.28,1.66c0,.11,0,.21-.02.31h-2.5Z"/>
      <path class="cls-2" d="M594.52,75.51c-.01-.1-.02-.2-.02-.31,0-.92.57-1.66,1.28-1.66s1.28.74,1.28,1.66c0,.11,0,.21-.02.31h-2.5Z"/>
      <path class="cls-2" d="M611.72,81.58c-.01-.1-.02-.2-.02-.31,0-.92.57-1.66,1.28-1.66s1.28.74,1.28,1.66c0,.11,0,.21-.02.31h-2.5Z"/>
      <path class="cls-2" d="M623.15,91.28c-.01-.1-.02-.2-.02-.31,0-.92.57-1.66,1.28-1.66s1.28.74,1.28,1.66c0,.11,0,.21-.02.31h-2.5Z"/>
    </g>
  </g>
</svg>