<?xml version="1.0" encoding="UTF-8"?>
<svg id="_圖層_2" data-name="圖層 2" xmlns="http://www.w3.org/2000/svg" viewBox="0 0 698.23 454.02">
  <defs>
    <style>
      .cls-1 {
        fill: #644b30;
      }

      .cls-2 {
        fill: #de9a7e;
      }

      .cls-3 {
        fill: #607af1;
      }

      .cls-4 {
        fill: #f4d0b8;
      }

      .cls-5 {
        fill: #775c42;
      }

      .cls-6 {
        fill: #fff;
      }

      .cls-7 {
        fill: #eabfa7;
      }

      .cls-8 {
        fill: #fbedec;
      }
    </style>
  </defs>
  <g id="_圖層_1-2" data-name="圖層 1">
    <circle class="cls-3" cx="191.95" cy="211.25" r="191.95"/>
    <g>
      <path class="cls-1" d="M631.8,235.34c-.76-3.74-2.02-7.38-3.53-10.88-2.61-6.03-5.99-11.7-9.94-16.92-3.8-5.04-7.23-10.38-9.7-16.2-1.83-4.29-3.49-8.66-5.07-13.05-3.35-9.31-6.35-18.76-9.18-28.25-7.57-29.39-20.34-61.93-41.28-93.97,16.75,13.55,29.16,33.09,29.16,33.09-19.46-37.91-53.69-64.99-61.76-71.05-.27-.2-.55-.41-.82-.61-.59-.44-.93-.67-.93-.67l.03.05c-8.79-6.25-18.56-11.04-29.21-13.84-7.7-2.02-15.66-3.04-23.62-3.04-17.2,0-34.26,4.82-48.85,13.95-5.7,3.57-11.03,7.83-15.94,12.62h0c-1.8,1.32-16.78,20.84-36.95,15.79,0,0,9.98,4.66,22.03,1.52-6.64,7.17-23.9,22.45-45.92,16.94,0,0,17.09,8.02,36.12.11-15.37,26.39-26.26,51.28-33.83,73.89-4.16,6.6-27.67,45.53-32.13,89.52,0,0,6.26-32.11,21.8-51.43-10.94,52.6-3.78,85.94-2.35,85.94h272.03c1.1,0,4.8-24,1.17-59.9,2.53,2.65,5.33,4.6,7.93,7.17,3.99,3.94,7.8,8.38,11.18,13.28,2.52,3.66,4.85,7.61,6.85,11.88,1.22,2.6,2.32,5.32,3.19,8.2.25-1.27-.23-2.91-.48-4.16Z"/>
      <path class="cls-5" d="M351.79,236.55c-.94-3.51-1.65-7.11-2.11-10.7l2.24-.29c.45,3.5,1.14,6.99,2.06,10.4l-2.18.59Z"/>
      <path class="cls-5" d="M349.02,215.81c-.06-17.86,5.67-30.01,5.92-30.52l2.03.97c-.05.12-5.75,12.22-5.69,29.54h-2.26Z"/>
      <path class="cls-5" d="M369.99,214.61c-2.06-9.19,1.18-17.26,4.6-25.81,2.26-5.64,4.59-11.47,5.83-18.29l2.22.41c-1.28,7.05-3.66,12.98-5.96,18.73-3.44,8.58-6.4,15.98-4.49,24.48l-2.21.49Z"/>
      <path class="cls-5" d="M379.59,231.6c-6.27-19.2-2.61-29.84-2.45-30.28l2.13.76c-.04.1-3.53,10.43,2.47,28.82l-2.14.7Z"/>
      <path class="cls-5" d="M539.04,231.87c-3.06-25.23-10.86-38.62-10.94-38.75l1.94-1.15c.33.56,8.12,13.88,11.24,39.63l-2.24.27Z"/>
      <path class="cls-5" d="M591.14,222.2c-1.47-14.53-8.05-23.04-13.85-30.55-3.59-4.65-6.7-8.67-8.06-13.4l2.17-.62c1.23,4.31,4.22,8.17,7.67,12.64,5.69,7.36,12.78,16.53,14.31,31.7l-2.25.23Z"/>
      <path class="cls-5" d="M589.17,242.4h-2.26c0-2.72-.15-5.47-.45-8.18l2.24-.25c.3,2.79.46,5.63.46,8.43Z"/>
      <path class="cls-5" d="M585.55,228.14c-3.32-17.2-11.62-29.24-16.28-34.89l1.74-1.43c4.8,5.81,13.35,18.2,16.76,35.89l-2.21.43Z"/>
      <rect class="cls-4" x="434.22" y="188.32" width="64.38" height="74.77"/>
      <path class="cls-4" d="M665.84,315.67c-10.36-28.69-31.11-52.58-65.85-61.5l-101.51-22.43h-64.28l-101.22,22.43c-34.73,8.92-55.48,32.81-65.85,61.5-11.32,44.51-17.74,90.82-21.23,138.2h441.16c-3.48-47.39-9.9-93.7-21.23-138.2Z"/>
      <path class="cls-1" d="M450.76,246.84c-13.44-2.24-23.23-8.1-23.64-8.35l1.17-1.93c.1.06,9.84,5.88,22.84,8.05l-.37,2.23Z"/>
      <path class="cls-1" d="M481.08,246.84l-.29-2.24c13.77-1.81,22.65-7.94,22.74-8.01l1.3,1.84c-.38.26-9.39,6.52-23.74,8.4Z"/>
      <path class="cls-6" d="M698.23,453.87l-8.53-55.81s-11.76-53.45-21.1-83.12c-9.55-26.43-30.67-48.05-60.65-58.39-94.3,29.93-188.61,29.93-282.91,0-29.98,10.34-50.31,31.07-60.62,59.59-9.59,28.65-19.36,82.01-19.36,82.01l-7.67,55.72h357.38l4-43.25-4,43.25h103.46Z"/>
      <rect class="cls-1" x="331.22" y="339.48" width="2.25" height="101.97" transform="translate(-34.59 32.31) rotate(-5.29)"/>
      <rect class="cls-1" x="550.15" y="389.15" width="101.32" height="2.25" transform="translate(157.31 952.94) rotate(-84.76)"/>
      <g>
        <path class="cls-4" d="M390.61,117.75s-19.75-21.13-31.71-6.8c-11.96,14.33,3.64,58.79,31.71,48.74v-41.93"/>
        <path class="cls-1" d="M377.97,149.51c-9.11-4.55-17.64-20.19-13.57-29.35.92-2.07,2.43-3.48,4.47-4.2,5.44-1.91,12.86,1.92,13.18,2.08l-1.04,2c-.07-.04-6.87-3.53-11.4-1.95-1.46.51-2.49,1.48-3.15,2.98-3.22,7.24,3.8,22.06,12.52,26.42l-1.01,2.02Z"/>
        <path class="cls-1" d="M379.67,137.46c-5.98-4.88-11.73-1.13-11.97-.97l-1.27-1.87c.07-.06,7.35-4.88,14.67,1.09l-1.43,1.74Z"/>
      </g>
      <g>
        <path class="cls-4" d="M542.2,117.61s19.75-20.88,31.71-6.72c11.96,14.16-3.64,58.09-31.71,48.15v-41.43"/>
        <path class="cls-1" d="M554.85,149l-1-2.02c8.71-4.3,15.73-18.93,12.51-26.08-.66-1.47-1.68-2.42-3.13-2.93-4.53-1.58-11.36,1.88-11.43,1.92l-1.03-2c.32-.16,7.76-3.94,13.21-2.05,2.03.71,3.53,2.1,4.44,4.14,4.07,9.06-4.46,24.52-13.57,29.03Z"/>
        <path class="cls-1" d="M553.14,137.1l-1.42-1.76c7.31-5.9,14.59-1.13,14.66-1.08l-1.25,1.87c-.24-.16-5.99-3.87-11.99.96Z"/>
      </g>
      <circle class="cls-4" cx="466.39" cy="122.83" r="85.75"/>
      <path class="cls-1" d="M381.83,99.15s43.46-15.33,58.65-64.14c-36.54,0-50.95,20.63-58.65,64.14Z"/>
      <path class="cls-1" d="M433,47.37c20.49,34.94,66.59,50.03,117.49,52.43-8.29-43-44.02-65.06-85.89-64.79-20.6-4.11-31.82-.54-31.6,12.36Z"/>
      <path class="cls-1" d="M388.12,160.88c-.08-.19-2.03-4.79-3.1-8.88l2.18-.57c1.04,3.94,2.98,8.53,3,8.58l-2.08.88Z"/>
      <path class="cls-1" d="M545.01,161.02l-2.07-.88s1.96-4.64,2.99-8.58l2.18.57c-1.07,4.1-3.02,8.69-3.1,8.89Z"/>
      <path class="cls-1" d="M465.88,209.71c-11.75,0-23.29-2.17-32.47-6.5l.96-2.04c17.81,8.41,44.83,8.4,64.26-.02l.9,2.07c-9.98,4.32-21.92,6.48-33.65,6.48Z"/>
      <g>
        <path class="cls-8" d="M385.41,156.59c-.16-.48-.6-.81-1.11-.81h-4.42l-1.37-4.2c-.16-.48-.6-.81-1.11-.81s-.95.32-1.11.81l-1.36,4.2h-4.42c-.51,0-.95.32-1.11.81s.02,1.01.42,1.31l3.57,2.6-1.37,4.2c-.16.48.02,1.01.42,1.31.41.3.96.3,1.37,0l3.57-2.6,3.57,2.6c.2.15.45.22.69.22s.48-.08.69-.22c.41-.3.58-.82.42-1.31l-1.36-4.2,3.57-2.6c.4-.3.57-.82.42-1.31Z"/>
        <path class="cls-8" d="M563.84,156.59c-.16-.48-.6-.81-1.11-.81h-4.42l-1.37-4.2c-.16-.48-.6-.81-1.11-.81s-.95.32-1.11.81l-1.37,4.2h-4.42c-.51,0-.95.32-1.11.81s.02,1.01.42,1.31l3.57,2.6-1.37,4.2c-.16.48.02,1.01.42,1.31.41.3.96.3,1.37,0l3.57-2.6,3.57,2.6c.2.15.45.22.69.22s.48-.08.69-.22c.41-.3.58-.82.42-1.31l-1.37-4.2,3.57-2.6c.41-.3.58-.82.42-1.31Z"/>
      </g>
      <path class="cls-5" d="M548.98,95.28c-63.87-2.31-91.06-36.06-91.32-36.4l1.77-1.39c.26.33,26.88,33.27,89.63,35.54l-.08,2.26Z"/>
      <path class="cls-5" d="M534.96,85.89c-51.66-8.61-65.49-41.91-65.63-42.24l2.1-.84c.03.08,3.35,8.2,12.85,17.24,8.76,8.35,24.74,19.23,51.05,23.61l-.37,2.22Z"/>
      <path class="cls-5" d="M433.53,50.89c-7.64-10.97-13.89-23.03-18.57-35.87l2.12-.78c4.61,12.65,10.77,24.54,18.3,35.35l-1.85,1.29Z"/>
      <path class="cls-5" d="M373.23,102.89l-.42-2.21c5.18-.99,10.94-3.52,11-3.54l.91,2.06c-.24.11-6.05,2.66-11.49,3.69Z"/>
      <path class="cls-5" d="M550.06,100.91c-.62,0-1,0-1.06,0l.04-2.26c.07,0,6.45.11,11.99-.62l.29,2.24c-4.4.57-9.18.64-11.26.64Z"/>
      <g>
        <path class="cls-1" d="M467.19,145.05h-8.11v-2.26h8.11c1.51,0,2.5-.29,3.11-.9.7-.7,1.04-1.98,1.04-3.91v-18.94h2.26v18.93c0,2.59-.54,4.34-1.7,5.51-1.06,1.07-2.56,1.56-4.71,1.56Z"/>
        <path class="cls-7" d="M472.66,171.51c-4.57-1.52-9.2-1.52-13.76,0l-.71-2.14c5.04-1.68,10.15-1.68,15.18,0l-.71,2.14Z"/>
        <path class="cls-1" d="M434.32,105.63c-.2.82-.81,1.58-1.71,2.06-2.39,1.29-5.27,1.81-7.94,2.1-5.56.6-10.14.46-10.32-1.22-.18-1.68,8.09-6.28,13.65-6.88,1.73-.19,3.83.04,5.24,1.16,1.02.8,1.32,1.84,1.09,2.78Z"/>
        <path class="cls-1" d="M498.55,105.45c.19.82.78,1.59,1.67,2.09,2.37,1.34,5.23,1.9,7.9,2.24,5.55.7,10.13.64,10.34-1.03.21-1.68-7.97-6.42-13.52-7.12-1.73-.22-3.83-.03-5.26,1.06-1.03.79-1.35,1.81-1.14,2.76Z"/>
        <path class="cls-2" d="M417.12,138.07c0,1.87-4.17,3.38-9.31,3.38s-9.31-1.52-9.31-3.38,4.17-3.38,9.31-3.38,9.31,1.51,9.31,3.38Z"/>
        <path class="cls-2" d="M533.05,138.07c0,1.87-4.17,3.38-9.31,3.38s-9.31-1.52-9.31-3.38,4.17-3.38,9.31-3.38c5.14,0,9.31,1.51,9.31,3.38Z"/>
        <g>
          <path class="cls-6" d="M402.51,98.25l1.34,1.81c1.05-.78,2.17-1.5,3.32-2.12l-1.07-1.98c-1.25.67-2.45,1.44-3.59,2.29Z"/>
          <path class="cls-6" d="M390.43,122.29h2.26c0-7.11,2.7-13.88,7.58-19.04l-1.64-1.55c-5.29,5.58-8.2,12.9-8.2,20.59Z"/>
          <path class="cls-6" d="M494.48,98.25l1.34,1.81c1.06-.79,2.17-1.5,3.32-2.12l-1.07-1.98c-1.24.67-2.45,1.44-3.59,2.29Z"/>
          <path class="cls-6" d="M482.39,122.29h2.26c0-7.11,2.7-13.88,7.58-19.04l-1.64-1.55c-5.29,5.58-8.2,12.9-8.2,20.59Z"/>
          <path class="cls-6" d="M551.96,111.26l-1.34-1.81-4.81,3.57c-4.06-14.39-17.27-24.98-32.94-24.98s-29.98,11.48-33.4,26.78c-8.38-4.59-18.64-4.61-25.7-.08-3.45-15.26-17.1-26.7-33.39-26.7s-29.02,10.71-33,25.22l-5.14-3.81-1.34,1.81,5.89,4.37c-.43,2.16-.66,4.38-.66,6.66,0,18.88,15.36,34.25,34.25,34.25s34.25-15.36,34.25-34.25c0-1.76-.17-3.47-.43-5.16,6.55-4.77,16.75-4.76,24.85.01-.26,1.68-.43,3.39-.43,5.15,0,18.88,15.37,34.25,34.25,34.25s34.25-15.36,34.25-34.25c0-2.37-.24-4.68-.7-6.92l5.55-4.12ZM420.38,154.28c-17.64,0-31.99-14.35-31.99-31.99s14.35-32,31.99-32,32,14.35,32,32c0,17.64-14.36,31.99-32,31.99ZM512.87,154.28c-17.64,0-31.99-14.35-31.99-31.99s14.35-32,31.99-32,31.99,14.35,31.99,32-14.35,31.99-31.99,31.99Z"/>
        </g>
        <path class="cls-6" d="M447.27,161.7h41.28c-16.49-11.67-30.1-11.03-41.28,0Z"/>
        <path class="cls-1" d="M430.33,124.58c0,3.05-2.48,5.53-5.53,5.53s-5.53-2.48-5.53-5.53,2.48-5.53,5.53-5.53,5.53,2.48,5.53,5.53Z"/>
        <path class="cls-1" d="M514.01,124.58c0,3.05-2.48,5.53-5.53,5.53s-5.53-2.48-5.53-5.53,2.48-5.53,5.53-5.53,5.53,2.48,5.53,5.53Z"/>
      </g>
      <rect class="cls-1" x="541.64" y="395.74" width="114.57" height="2.25" transform="translate(149.03 957.05) rotate(-84.76)"/>
      <g>
        <ellipse class="cls-4" cx="480.01" cy="14.13" rx="7.4" ry="4.76"/>
        <g>
          <ellipse class="cls-4" cx="433.43" cy="32.01" rx="12.19" ry="7.84"/>
          <g>
            <path class="cls-1" d="M436.06,37.23s-.01-.09-.01-.13c0-.39.35-.71.77-.71s.77.32.77.71c0,.05,0,.09-.01.13h-1.52Z"/>
            <path class="cls-1" d="M427.35,38.1s-.01-.09-.01-.13c0-.39.35-.71.77-.71s.77.32.77.71c0,.05,0,.09-.01.13h-1.52Z"/>
            <path class="cls-1" d="M426.48,30.27s-.01-.09-.01-.13c0-.39.35-.71.77-.71s.77.32.77.71c0,.05,0,.09-.01.13h-1.52Z"/>
            <path class="cls-1" d="M423.87,33.75s-.01-.09-.01-.13.35-.71.77-.71.77.32.77.71c0,.05,0,.09-.01.13h-1.52Z"/>
            <path class="cls-1" d="M432.58,33.75s-.01-.09-.01-.13c0-.39.35-.71.77-.71s.77.32.77.71c0,.05,0,.09-.01.13h-1.52Z"/>
            <path class="cls-1" d="M435.19,29.4s-.01-.09-.01-.13c0-.39.35-.71.77-.71s.77.32.77.71c0,.05,0,.09-.01.13h-1.52Z"/>
            <path class="cls-1" d="M429.97,25.91s-.01-.09-.01-.13c0-.39.35-.71.77-.71s.77.32.77.71c0,.05,0,.09-.01.13h-1.52Z"/>
            <path class="cls-1" d="M440.41,28.52s-.01-.09-.01-.13c0-.39.35-.71.77-.71s.77.32.77.71c0,.05,0,.09-.01.13h-1.52Z"/>
            <path class="cls-1" d="M441.28,33.75s-.01-.09-.01-.13c0-.39.35-.71.77-.71s.77.32.77.71,0,.09-.01.13h-1.52Z"/>
          </g>
        </g>
        <g>
          <ellipse class="cls-4" cx="490.59" cy="52.05" rx="18.09" ry="16.4"/>
          <g>
            <path class="cls-1" d="M494.49,62.99c-.01-.09-.02-.18-.02-.28,0-.83.51-1.5,1.15-1.5s1.15.67,1.15,1.5c0,.1,0,.19-.02.28h-2.26Z"/>
            <path class="cls-1" d="M481.57,64.81c-.01-.09-.02-.18-.02-.28,0-.83.51-1.5,1.15-1.5s1.15.67,1.15,1.5c0,.1,0,.19-.02.28h-2.26Z"/>
            <path class="cls-1" d="M480.27,48.4c-.01-.09-.02-.18-.02-.28,0-.83.51-1.5,1.15-1.5s1.15.67,1.15,1.5c0,.1,0,.19-.02.28h-2.26Z"/>
            <path class="cls-1" d="M476.4,55.7c-.01-.09-.02-.18-.02-.28,0-.83.51-1.5,1.15-1.5s1.15.67,1.15,1.5c0,.1,0,.19-.02.28h-2.26Z"/>
            <path class="cls-1" d="M489.32,55.7c-.01-.09-.02-.18-.02-.28,0-.83.51-1.5,1.15-1.5s1.15.67,1.15,1.5c0,.1,0,.19-.02.28h-2.26Z"/>
            <path class="cls-1" d="M493.2,46.58c-.01-.09-.02-.18-.02-.28,0-.83.51-1.5,1.15-1.5s1.15.67,1.15,1.5c0,.1,0,.19-.02.28h-2.26Z"/>
            <path class="cls-1" d="M485.44,39.29c-.01-.09-.02-.18-.02-.28,0-.83.51-1.5,1.15-1.5s1.15.67,1.15,1.5c0,.1,0,.19-.02.28h-2.26Z"/>
            <path class="cls-1" d="M500.95,44.76c-.01-.09-.02-.18-.02-.28,0-.83.51-1.5,1.15-1.5s1.15.67,1.15,1.5c0,.1,0,.19-.02.28h-2.26Z"/>
            <path class="cls-1" d="M502.24,55.7c-.01-.09-.02-.18-.02-.28,0-.83.51-1.5,1.15-1.5s1.15.67,1.15,1.5c0,.1,0,.19-.02.28h-2.26Z"/>
          </g>
        </g>
        <g>
          <path class="cls-1" d="M481.43,17.56s0-.05,0-.08c0-.24.21-.43.46-.43s.46.19.46.43c0,.03,0,.05,0,.08h-.91Z"/>
          <path class="cls-1" d="M476.21,18.08s0-.05,0-.08c0-.24.21-.43.46-.43s.46.19.46.43c0,.03,0,.05,0,.08h-.91Z"/>
          <path class="cls-1" d="M475.69,13.38s0-.05,0-.08c0-.24.21-.43.46-.43s.46.19.46.43c0,.03,0,.05,0,.08h-.91Z"/>
          <path class="cls-1" d="M474.13,15.47s0-.05,0-.08.21-.43.46-.43.46.19.46.43c0,.03,0,.05,0,.08h-.91Z"/>
          <path class="cls-1" d="M479.34,15.47s0-.05,0-.08c0-.24.21-.43.46-.43s.46.19.46.43c0,.03,0,.05,0,.08h-.91Z"/>
          <path class="cls-1" d="M480.91,12.86s0-.05,0-.08c0-.24.21-.43.46-.43s.46.19.46.43c0,.03,0,.05,0,.08h-.91Z"/>
          <path class="cls-1" d="M477.78,10.77s0-.05,0-.08c0-.24.21-.43.46-.43s.46.19.46.43c0,.03,0,.05,0,.08h-.91Z"/>
          <path class="cls-1" d="M484.04,12.34s0-.05,0-.08c0-.24.21-.43.46-.43s.46.19.46.43c0,.03,0,.05,0,.08h-.91Z"/>
          <path class="cls-1" d="M484.56,15.47s0-.05,0-.08c0-.24.21-.43.46-.43s.46.19.46.43c0,.03,0,.05,0,.08h-.91Z"/>
        </g>
      </g>
    </g>
    <g>
      <path class="cls-6" d="M84.64,176.14h-1.91c-2.39,0-3.62-1.3-3.62-3.69s1.23-3.62,3.62-3.62h1.91v-14.49h-2.53c-2.46,0-3.69-1.3-3.69-3.76s1.23-3.69,3.69-3.69h12.24c2.46,0,3.69,1.23,3.69,3.69s-1.23,3.76-3.69,3.76h-2.32v14.49h1.64c2.39,0,3.62,1.23,3.62,3.62s-1.23,3.69-3.62,3.69h-1.64v13.54l2.05-.55c2.46-.68,3.96.27,4.38,2.8.34,2.19-.68,3.69-2.8,4.31-4.58,1.3-9.16,2.6-13.33,3.83-2.6.68-3.83-.34-4.38-2.94-.48-2.46.48-3.96,2.87-4.58l3.83-.96v-15.45ZM112.18,155.36h4.44c2.39,0,3.62,1.71,3.62,4.1,0,1.78-.96,3.14-2.73,3.14h-.14c-.89,6.7-2.12,12.92-3.76,18.59,1.78,2.6,3.35,5.06,4.65,7.31,1.03,1.98.55,3.28-1.16,4.72-2.39,1.98-4.24,1.78-5.61-1.03-.34-.62-.68-1.3-1.09-1.91-2.26,5.2-4.99,9.84-8.41,13.67-1.98,2.05-3.62,2.26-5.54.14-1.98-2.12-1.78-3.83.27-5.88,3.83-4.17,6.7-9.5,8.89-15.65-1.91-2.94-4.03-5.88-6.02-8.61-1.37-1.85-.96-3.28.82-4.72,1.85-1.44,3.42-1.23,4.85.62l2.8,3.62c.75-3.42,1.37-7.11,1.85-10.87h-9.16c-2.39,0-3.62-1.23-3.62-3.62s1.23-3.62,3.62-3.62h3.9v-9.09c0-2.53,1.23-3.76,3.76-3.76s3.76,1.23,3.76,3.76v9.09ZM136.93,146.75c2.46,0,3.69,1.23,3.69,3.69s-1.23,3.69-3.69,3.69h-4.38v16.95h3.55c2.39,0,3.62,1.23,3.62,3.62s-1.23,3.69-3.62,3.69h-3.55v18.53h5.26c2.53,0,3.76,1.3,3.76,3.83s-1.23,3.76-3.76,3.76h-18.94c-2.53,0-3.76-1.23-3.76-3.76s1.23-3.83,3.76-3.83h6.02v-18.53h-2.46c-2.39,0-3.62-1.3-3.62-3.69s1.23-3.62,3.62-3.62h2.46v-16.95h-3.42c-2.46,0-3.69-1.23-3.69-3.69s1.23-3.69,3.69-3.69h15.45Z"/>
      <path class="cls-6" d="M168.79,180.17l2.12-.82c2.67-1.03,4.31-.07,4.92,2.67.48,2.26-.27,3.9-2.39,4.79-4.85,2.12-9.78,4.17-14.29,6.02-2.87,1.16-4.38.27-5.26-2.73-.82-2.73-.21-4.38,2.46-5.33,1.57-.55,3.21-1.09,4.92-1.71v-18.46h-3.21c-2.6,0-3.9-1.3-3.9-3.9s1.3-3.9,3.9-3.9h3.21v-9.84c0-2.53,1.23-3.76,3.76-3.76s3.76,1.23,3.76,3.76v9.84h1.98c2.6,0,3.9,1.3,3.9,3.9s-1.3,3.9-3.9,3.9h-1.98v15.59ZM176.24,153.38c0-2.67,1.78-4.44,4.44-4.44h7.38c.27-.82.55-1.64.82-2.39.75-2.8,2.32-4.03,5.2-3.83,3.9.27,4.65,2.12,2.87,5.61-.07.21-.21.41-.34.62h13.19c2.46,0,4.1,1.64,4.1,4.1v20.78c0,2.67-1.78,4.44-4.44,4.44h-9.57v18.25c0,2.05.27,2.39,2.39,2.39h6.36c1.37-3.08,2.94-4.31,6.02-3.01,2.05.89,2.19,3.76,1.71,5.95-1.23,3.14-3.42,4.17-7.25,4.17h-7.86c-7.25,0-8.89-2.19-8.89-9.43v-18.32h-2.87c-.55,12.71-2.32,21.33-12.85,26.73-2.53,1.03-5.33,1.3-6.84-.96-1.98-3.01.55-5.33,3.9-6.77,6.56-3.96,7.52-9.98,7.93-19h-2.94c-1.5,0-2.46-.96-2.46-2.46v-22.42ZM190.94,160.42v-4.79h-5.54c-1.09,0-1.57.48-1.57,1.57v3.21h7.11ZM190.94,171.56v-4.92h-7.11v2.87c0,1.37.68,2.05,2.05,2.05h5.06ZM205.98,160.42v-2.73c0-1.37-.68-2.05-2.05-2.05h-5.54v4.79h7.59ZM204.27,171.56c1.16,0,1.71-.55,1.71-1.71v-3.21h-7.59v4.92h5.88ZM216.57,190.43c.27,1.37-.68,2.39-1.98,2.94-1.23.55-2.46.34-2.73-1.03v-.14l-5.26.96-2.46.48c-1.78.34-3.14-1.37-3.55-3.14-.21-.96.07-1.98,1.03-2.05h.14c.34-1.98.82-4.38,1.09-6.56.27-1.98,1.16-2.67,3.14-2.46,2.12.27,2.73,1.37,2.19,3.42l-1.37,5.06,3.62-.48c-.14-.48-.34-.96-.55-1.44-.62-1.5,0-2.6,1.5-3.14,1.37-.48,2.39-.14,3.01,1.23.48,1.09.89,2.26,1.3,3.35.34,1.09.68,2.12.89,3.01Z"/>
      <path class="cls-6" d="M259.85,144.97c2.39,0,3.55,1.16,3.55,3.55s-1.16,3.62-3.55,3.62h-1.3v7.18h2.67c2.39,0,3.62,1.23,3.62,3.62s-1.23,3.62-3.62,3.62h-2.67v12.03h3.08c1.64,0,2.67,1.03,2.67,2.67v2.73h15.93c2.46,0,3.69,1.23,3.69,3.69s-1.23,3.76-3.69,3.76h-15.93v5.47h22.63c2.53,0,3.76,1.3,3.76,3.83s-1.23,3.76-3.76,3.76h-53.66c-2.53,0-3.76-1.23-3.76-3.76s1.23-3.83,3.76-3.83h22.76v-5.47h-15.93c-2.46,0-3.69-1.3-3.69-3.76s1.23-3.69,3.69-3.69h15.93v-4.24h-2.73c-1.44,0-2.32-.89-2.32-2.32v-10.87h-6.29c-.89,4.58-2.87,9.09-7.11,12.65-1.98,1.37-4.17,1.71-5.81-.07-2.19-2.39-.96-4.72,1.64-6.63,1.91-1.85,2.94-3.9,3.55-5.95h-3.21c-2.39,0-3.62-1.23-3.62-3.62s1.23-3.62,3.62-3.62h4.03v-7.18h-1.78c-2.39,0-3.55-1.23-3.55-3.62s1.16-3.55,3.55-3.55h23.86ZM245.22,159.32h5.74v-7.18h-5.74v7.18ZM275.16,166.02c0,2.46-1.23,3.69-3.69,3.69s-3.76-1.23-3.76-3.69v-15.86c0-2.46,1.3-3.69,3.76-3.69s3.69,1.23,3.69,3.69v15.86ZM280.08,147.16c0-2.53,1.37-3.83,3.9-3.83s3.83,1.3,3.83,3.83v25.5c0,3.76-.68,5.67-3.21,6.9-1.71.75-3.9,1.03-6.63,1.16-2.26.07-4.38-.68-5.13-2.8-1.09-3.14,1.03-4.31,4.38-4.24.75,0,1.3,0,1.57-.07,1.03,0,1.3-.21,1.3-1.09v-25.36Z"/>
      <path class="cls-6" d="M118.34,231.93c0-2.67,1.78-4.44,4.44-4.44h49.15c2.67,0,4.44,1.78,4.44,4.44v49.77c0,2.67-1.78,4.44-4.44,4.44h-49.15c-2.67,0-4.44-1.78-4.44-4.44v-49.77ZM168.31,236.92c0-1.37-.68-2.05-2.05-2.05h-38.14c-1.37,0-2.05.68-2.05,2.05v39.79c0,1.37.68,2.05,2.05,2.05h38.14c1.37,0,2.05-.68,2.05-2.05v-39.79ZM131.26,253.6c0-2.67,1.78-4.44,4.44-4.44h22.9c2.67,0,4.44,1.78,4.44,4.44v12.3c0,2.67-1.78,4.44-4.44,4.44h-2.46c2.05.89,4.24,1.85,6.15,2.87,2.8,1.64,2.32,2.73-.68,3.96-1.44.62-2.46.68-3.76-.21-1.44-.96-3.28-1.98-5.2-3.01-2.12-1.03-2.19-2.39-.34-3.49l.21-.14h-11.07l2.05.68c1.03.34,1.09.96.41,1.5-2.53,1.78-5.95,3.49-9.23,4.79-1.44.48-2.6.34-3.69-.68-2.26-2.05-1.3-3.35,1.64-4.17,1.91-.62,3.76-1.37,5.2-2.12h-3.49c-1.85,0-3.08-1.23-3.08-3.08v-13.67ZM155.46,237.46c3.28,0,4.92,1.64,4.92,4.92s-1.64,4.99-4.92,4.99h-16.47c-3.28,0-4.92-1.71-4.92-4.99s1.64-4.92,4.92-4.92h16.47ZM156,255.03v-1.23c0-.55-.27-.82-.82-.82h-15.31c-1.23,0-1.85.62-1.85,1.85v.21h17.98ZM156,260.77v-2.12h-17.98v2.12h17.98ZM154.02,266.58c1.37,0,1.98-.62,1.98-1.98v-.21h-17.98v1.3c0,.62.27.89.89.89h15.11ZM152.18,243.61c.82,0,1.23-.41,1.23-1.23v-.21c0-.68-.27-.96-.96-.96h-10.6c-.82,0-1.23.41-1.23,1.23v.21c0,.68.27.96.96.96h10.6Z"/>
      <path class="cls-6" d="M218.35,239.79v-5.13c-5.88.55-11.83.82-17.43,1.03-2.12.07-3.35-.62-3.96-2.67-.82-2.8.62-3.9,3.49-4.03,13.54-.62,27.82-1.98,37.53-3.9,1.85-.41,2.8.21,4.1,1.57,2.73,2.87,2.53,4.51-1.37,5.26-4.51.82-9.37,1.44-14.36,1.98v5.88h22.97c2.46,0,3.69,1.23,3.69,3.69s-1.23,3.69-3.69,3.69h-14.49c3.96,3.42,9.09,6.36,14.49,8.54,3.76,1.3,4.85,3.08,2.46,6.22-1.57,2.05-3.35,2.26-5.74,1.3-7.45-3.35-14.36-8.41-19.69-14.49v8.68c0,2.67-1.3,3.96-3.96,3.96s-4.03-1.3-4.03-3.96v-8.54c-5.13,6.36-11.96,11.48-19.76,14.83-2.26.89-4.03.62-5.54-1.3-2.32-3.01-1.23-4.79,2.39-6.02,5.61-2.26,10.73-5.54,14.63-9.23h-14.08c-2.46,0-3.69-1.23-3.69-3.69s1.23-3.69,3.69-3.69h22.35ZM207.89,266.99c.41-2.67,1.98-4.38,4.72-4.38,3.14,0,4.44,1.91,4.03,4.99-.75,4.1-1.91,7.72-4.1,10.94-2.26,3.49-5.81,6.36-11.14,8.68-2.46.89-5.13,1.03-6.63-1.16-2.05-3.08.21-5.06,3.69-6.29,3.08-1.57,5.13-3.35,6.63-5.4,1.5-2.12,2.32-4.65,2.8-7.38ZM234.49,278.27c0,2.19.34,2.46,2.46,2.46h5.81c.75,0,1.3-.21,1.64-.82.48-3.62,1.98-7.25,5.33-5.81,2.19.96,2.39,4.72,2.12,7.04-1.16,5.4-3.55,6.97-8.34,6.97h-7.86c-7.52,0-9.37-2.46-9.37-9.78v-11.69c0-2.73,1.37-4.1,4.1-4.1s4.1,1.37,4.1,4.1v11.62Z"/>
    </g>
  </g>
</svg>