<?xml version="1.0" encoding="UTF-8"?>
<svg id="_圖層_2" data-name="圖層 2" xmlns="http://www.w3.org/2000/svg" viewBox="0 0 803.12 510.74">
  <defs>
    <style>
      .cls-1 {
        fill: #644b30;
      }

      .cls-2 {
        fill: #a4b3dd;
      }

      .cls-3 {
        fill: #de9a7e;
      }

      .cls-4 {
        fill: #f4d0b8;
      }

      .cls-5 {
        fill: #99a5b4;
      }

      .cls-6 {
        fill: #6e90b5;
      }

      .cls-7 {
        fill: #fff;
      }

      .cls-8 {
        fill: #e2b762;
      }

      .cls-9 {
        fill: #eabfa7;
      }

      .cls-10 {
        fill: #fbedec;
      }
    </style>
  </defs>
  <g id="_圖層_1-2" data-name="圖層 1">
    <circle class="cls-2" cx="191.95" cy="273.06" r="191.95"/>
    <g>
      <path class="cls-7" d="M110,305.93h-25.29c-2.39,0-3.62-1.23-3.62-3.62s1.23-3.69,3.62-3.69h20.64v-8.34h-14.01c-2.39,0-3.55-1.16-3.55-3.55s1.16-3.55,3.55-3.55h14.01v-7.86h-9.84c-2.67,0-4.44-1.78-4.44-4.44v-1.37c-1.78,1.16-3.49,2.26-5.26,3.21-2.32,1.3-3.96,1.09-5.54-1.03-2.05-2.73-1.5-4.38,1.64-5.81,6.29-3.21,12.78-7.86,17.91-12.85h-5.26c-2.53,0-3.76-1.3-3.76-3.83s1.23-3.76,3.76-3.76h16.68c1.78,0,3.49.89,4.38,2.12,5.06,6.49,12.71,12.85,21.19,17.02,3.55,1.57,4.79,3.55,2.53,6.7-1.78,2.39-3.69,2.6-6.36,1.23-1.57-.82-3.14-1.78-4.65-2.8v3.01c0,1.57-1.03,2.6-2.6,2.6h-11.89v7.86h14.29c2.39,0,3.55,1.16,3.55,3.55s-1.16,3.55-3.55,3.55h-14.29v8.34h21.53c2.39,0,3.62,1.3,3.62,3.69s-1.23,3.62-3.62,3.62h-25.36ZM109.52,268.06h16.47c-6.29-4.44-11.96-9.78-16.34-15.04-4.38,5.33-10.39,10.66-16.61,15.04h16.47Z"/>
      <path class="cls-7" d="M164.55,254.32c0-2.67,1.78-4.44,4.44-4.44h9.64c.34-.82.62-1.64.89-2.46.89-2.87,2.53-4.17,5.54-3.83,4.1.41,4.72,2.46,2.8,6.08-.07.07-.07.14-.14.21h12.92c2.46,0,4.03,1.57,4.03,4.03v14.97c.41-.55.75-1.03,1.16-1.57,1.5-2.32,3.49-2.8,5.95-1.57,2.8,1.37,3.28,3.35,1.5,5.95-2.6,3.55-5.47,6.84-8.61,9.84v16c0,4.72-.89,7.18-3.9,8.54-2.12.96-4.92,1.3-8.68,1.44-2.73.07-5.47-.82-6.36-3.42-1.3-3.83,1.37-5.06,5.4-4.92,1.5,0,2.73-.07,3.35-.07,1.23,0,1.71-.41,1.71-1.64v-8.61c-9.71,7.38-21.12,12.92-33.29,16.95-2.46.82-4.44.34-6.02-1.78-2.32-3.21-1.16-5.13,2.67-6.22,8.07-2.46,15.65-5.61,22.42-9.5l-22.42,1.71c-2.6.21-4.1-.96-4.44-3.55-.41-2.8.89-4.31,3.69-4.44l5.74-.21v-27.48ZM174.81,256.92c-1.37,0-2.05.68-2.05,2.05v1.91h23.45v-2.19c0-1.23-.55-1.78-1.78-1.78h-19.62ZM172.75,266.76v4.1h23.45v-4.1h-23.45ZM193.81,280.16l2.39-2.12v-1.23h-23.45v4.51l10.53-.55,10.53-.62Z"/>
      <path class="cls-7" d="M255.95,258.56v-5.13c-5.88.55-11.83.82-17.43,1.03-2.12.07-3.35-.62-3.96-2.67-.82-2.8.62-3.9,3.49-4.03,13.54-.62,27.82-1.98,37.53-3.9,1.85-.41,2.8.21,4.1,1.57,2.73,2.87,2.53,4.51-1.37,5.26-4.51.82-9.37,1.44-14.36,1.98v5.88h22.97c2.46,0,3.69,1.23,3.69,3.69s-1.23,3.69-3.69,3.69h-14.49c3.96,3.42,9.09,6.36,14.49,8.54,3.76,1.3,4.85,3.08,2.46,6.22-1.57,2.05-3.35,2.26-5.74,1.3-7.45-3.35-14.36-8.41-19.69-14.49v8.68c0,2.67-1.3,3.96-3.96,3.96s-4.03-1.3-4.03-3.96v-8.54c-5.13,6.36-11.96,11.48-19.76,14.83-2.26.89-4.03.62-5.54-1.3-2.32-3.01-1.23-4.79,2.39-6.02,5.61-2.26,10.73-5.54,14.63-9.23h-14.08c-2.46,0-3.69-1.23-3.69-3.69s1.23-3.69,3.69-3.69h22.35ZM245.49,285.77c.41-2.67,1.98-4.38,4.72-4.38,3.14,0,4.44,1.91,4.03,4.99-.75,4.1-1.91,7.72-4.1,10.94-2.26,3.49-5.81,6.36-11.14,8.68-2.46.89-5.13,1.03-6.63-1.16-2.05-3.08.21-5.06,3.69-6.29,3.08-1.57,5.13-3.35,6.63-5.4,1.5-2.12,2.32-4.65,2.8-7.38ZM272.08,297.04c0,2.19.34,2.46,2.46,2.46h5.81c.75,0,1.3-.21,1.64-.82.48-3.62,1.98-7.25,5.33-5.81,2.19.96,2.39,4.72,2.12,7.04-1.16,5.4-3.55,6.97-8.34,6.97h-7.86c-7.52,0-9.37-2.46-9.37-9.78v-11.69c0-2.73,1.37-4.1,4.1-4.1s4.1,1.37,4.1,4.1v11.62Z"/>
    </g>
    <g>
      <g>
        <g>
          <rect class="cls-4" x="513.39" y="234.75" width="66.67" height="77.44"/>
          <path class="cls-4" d="M753.26,366.64c-10.73-29.71-32.22-54.46-68.19-63.7l-105.13-23.23h-66.57l-104.83,23.23c-35.97,9.24-57.46,33.98-68.19,63.7-11.73,46.09-18.38,94.05-21.98,143.13h456.87c-3.61-49.07-10.26-97.03-21.98-143.13Z"/>
          <path class="cls-1" d="M530.51,295.35c-13.92-2.32-24.05-8.39-24.48-8.65l1.21-2c.1.06,10.19,6.09,23.65,8.34l-.38,2.31Z"/>
          <path class="cls-1" d="M561.92,295.36l-.31-2.31c14.29-1.88,23.45-8.23,23.55-8.29l1.35,1.91c-.39.27-9.73,6.74-24.59,8.7Z"/>
          <rect class="cls-1" x="624.66" y="449.55" width="118.65" height="2.33" transform="translate(171.94 1090.08) rotate(-84.69)"/>
          <polygon class="cls-4" points="324.06 453.21 409.81 464.98 413.96 509.77 318.37 509.77 324.06 453.21"/>
          <polygon class="cls-4" points="769.56 453.21 683.8 464.98 679.66 509.77 775.24 509.77 769.56 453.21"/>
          <path class="cls-7" d="M777.97,451.97s-12.18-55.36-21.86-86.08c-9.89-27.37-31.76-49.76-62.81-60.47-97.66,31-195.33,31-292.99,0-31.05,10.7-52.1,32.18-62.78,61.71-9.93,29.67-20.04,84.93-20.04,84.93l92.32,12.91,4.15,44.79h265.7l4.15-44.79,94.16-13.01Z"/>
          <path class="cls-6" d="M645.94,493.84l-15.14-122.71c-55.59-5.51-111.92-5.16-169.11,0l-15.14,122.71c-.47,8.9-7.46,14.06-14.86,15.92h229.13c-7.41-1.86-14.4-7.03-14.87-15.92Z"/>
          <polygon class="cls-6" points="443.41 293.24 473.74 286.08 492.22 389.96 467.81 394.74 443.41 293.24"/>
          <polygon class="cls-1" points="466.96 396.09 460.55 371.43 462.81 370.84 468.67 393.38 490.86 389.04 487.35 369.27 489.65 368.86 493.57 390.89 466.96 396.09"/>
          <path class="cls-8" d="M482.28,380.38c0,2.66-2.15,4.81-4.81,4.81s-4.81-2.16-4.81-4.81,2.15-4.81,4.81-4.81c2.65,0,4.81,2.15,4.81,4.81Z"/>
          <path class="cls-1" d="M477.47,386.36c-3.3,0-5.98-2.68-5.98-5.98s2.68-5.98,5.98-5.98v2.34c-2.01,0-3.64,1.64-3.64,3.65s1.63,3.64,3.64,3.64,3.65-1.63,3.65-3.64h2.34c0,3.3-2.69,5.98-5.98,5.98Z"/>
          <polygon class="cls-6" points="649.06 293.24 618.73 286.08 600.26 389.96 624.66 394.74 649.06 293.24"/>
          <polygon class="cls-1" points="625.51 396.09 598.9 390.89 602.82 368.86 605.12 369.27 601.61 389.04 623.8 393.38 629.66 370.84 631.92 371.43 625.51 396.09"/>
          <path class="cls-8" d="M610.19,380.38c0,2.66,2.15,4.81,4.81,4.81s4.81-2.16,4.81-4.81-2.15-4.81-4.81-4.81c-2.66,0-4.81,2.15-4.81,4.81Z"/>
          <rect class="cls-1" x="405.22" y="391.41" width="2.33" height="73.67" transform="translate(-37.75 39.29) rotate(-5.29)"/>
          <rect class="cls-1" x="650.55" y="427.16" width="73.67" height="2.33" transform="translate(197.32 1073.14) rotate(-84.69)"/>
          <polygon class="cls-1" points="685.07 456.42 684.68 454.12 775.05 438.74 775.44 441.04 685.07 456.42"/>
          <polygon class="cls-1" points="408.54 456.42 319.27 441.23 319.66 438.93 408.93 454.12 408.54 456.42"/>
          <path class="cls-1" d="M458.35,352.85c-1.98,0-3.75-1.41-4.14-3.43-.27-1.4.17-2.81,1.17-3.8l1.65,1.65c-.45.44-.64,1.07-.53,1.68.2,1.04,1.16,1.72,2.2,1.52l23.97-4.55c.49-.09.92-.37,1.2-.79.28-.42.39-.92.3-1.41-.12-.64-.54-1.15-1.11-1.4l.93-2.15c1.29.56,2.22,1.71,2.48,3.08.21,1.13-.02,2.25-.65,3.18-.64.93-1.59,1.56-2.69,1.77l-23.97,4.55c-.27.06-.53.08-.79.08Z"/>
          <path class="cls-1" d="M634.05,352.85c-.26,0-.52-.02-.79-.07l-23.97-4.56c-2.28-.43-3.79-2.64-3.35-4.92.26-1.41,1.19-2.55,2.49-3.11l.93,2.15c-.58.25-.99.76-1.11,1.37-.2,1.05.47,2.03,1.49,2.22l23.97,4.56c.99.19,2-.48,2.19-1.5.12-.64-.07-1.26-.52-1.71l1.65-1.65c.99.99,1.43,2.4,1.17,3.77-.39,2.04-2.17,3.45-4.14,3.45Z"/>
          <g>
            <polygon class="cls-1" points="489.57 375.68 489.37 373.35 492.48 373.1 492.67 375.43 489.57 375.68"/>
            <path class="cls-1" d="M593.51,374.96c-2.1-.15-4.2-.28-6.3-.41l.14-2.33c2.1.13,4.21.27,6.32.41l-.16,2.33ZM498.96,374.95l-.17-2.33c2.1-.15,4.21-.29,6.32-.41l.14,2.33c-2.1.12-4.2.26-6.29.41ZM580.91,374.2c-2.1-.11-4.2-.21-6.3-.3l.1-2.33c2.11.09,4.22.19,6.32.3l-.12,2.33ZM511.55,374.18l-.12-2.33c2.11-.11,4.22-.21,6.32-.3l.1,2.33c-2.1.09-4.2.19-6.3.3ZM568.31,373.67c-2.11-.07-4.21-.13-6.31-.18l.06-2.34c2.11.05,4.22.11,6.33.18l-.07,2.34ZM524.15,373.66l-.07-2.34c2.11-.07,4.22-.13,6.33-.17l.06,2.34c-2.11.04-4.21.1-6.31.17ZM555.69,373.37c-2.11-.03-4.21-.05-6.31-.06v-2.34c2.12,0,4.23.03,6.34.06l-.03,2.34ZM536.77,373.36l-.03-2.34c2.11-.03,4.22-.05,6.32-.06v2.34c-2.09.01-4.19.03-6.29.06Z"/>
            <polygon class="cls-1" points="602.91 375.68 599.8 375.43 599.99 373.1 603.1 373.35 602.91 375.68"/>
          </g>
          <path class="cls-1" d="M444.05,510.74l-1.28-1.95c1.6-1.05,3-2.21,4.15-3.44l1.7,1.6c-1.28,1.36-2.82,2.64-4.57,3.79ZM452.29,501.47l-2.14-.94c.49-1.12.86-2.31,1.09-3.53l.23-2.16,2.32.26-.25,2.25c-.28,1.49-.7,2.84-1.26,4.12ZM454.49,488.9l-2.32-.26.69-6.19,2.32.26-.69,6.19ZM455.87,476.52l-2.32-.26.69-6.19,2.32.26-.69,6.19ZM457.25,464.13l-2.32-.26.69-6.19,2.32.26-.69,6.19ZM458.63,451.75l-2.32-.26.69-6.19,2.32.26-.69,6.19ZM460.01,439.36l-2.32-.26.69-6.19,2.32.26-.69,6.19ZM461.39,426.98l-2.32-.26.69-6.19,2.32.26-.69,6.19ZM462.77,414.59l-2.32-.26.69-6.19,2.32.26-.69,6.19ZM464.15,402.2l-2.32-.26.69-6.19,2.32.26-.69,6.19ZM465.53,389.82l-2.32-.26.69-6.19,2.32.26-.69,6.19Z"/>
          <path class="cls-1" d="M649.07,510.74c-1.75-1.15-3.29-2.43-4.57-3.79l1.7-1.6c1.15,1.23,2.55,2.39,4.15,3.44l-1.28,1.95ZM640.84,501.47c-.56-1.28-.98-2.63-1.24-4.03l-.26-2.34,2.32-.26.25,2.25c.22,1.14.59,2.33,1.08,3.44l-2.14.94ZM638.64,488.9l-.69-6.19,2.32-.26.69,6.19-2.32.26ZM637.26,476.52l-.69-6.19,2.32-.26.69,6.19-2.32.26ZM635.88,464.13l-.69-6.19,2.32-.26.69,6.19-2.32.26ZM634.49,451.75l-.69-6.19,2.32-.26.69,6.19-2.32.26ZM633.11,439.36l-.69-6.19,2.32-.26.69,6.19-2.32.26ZM631.73,426.98l-.69-6.19,2.32-.26.69,6.19-2.32.26ZM630.35,414.59l-.69-6.19,2.32-.26.69,6.19-2.32.26ZM628.97,402.2l-.69-6.19,2.32-.26.69,6.19-2.32.26ZM627.59,389.82l-.69-6.19,2.32-.26.69,6.19-2.32.26Z"/>
          <path class="cls-1" d="M615,386.36c-3.3,0-5.98-2.68-5.98-5.98s2.68-5.98,5.98-5.98v2.34c-2.01,0-3.65,1.64-3.65,3.65s1.63,3.64,3.65,3.64,3.64-1.63,3.64-3.64h2.34c0,3.3-2.68,5.98-5.98,5.98Z"/>
        </g>
        <g>
          <path class="cls-4" d="M468.23,161.67s-20.46-21.89-32.84-7.05c-12.38,14.84,3.77,60.89,32.84,50.47v-43.43"/>
          <path class="cls-1" d="M455.13,194.56c-9.43-4.72-18.27-20.91-14.05-30.4.95-2.14,2.51-3.6,4.63-4.35,5.64-1.97,13.32,1.98,13.65,2.15l-1.08,2.07c-.07-.04-7.13-3.65-11.8-2.02-1.51.53-2.58,1.54-3.27,3.09-3.33,7.5,3.93,22.84,12.96,27.36l-1.04,2.09Z"/>
          <path class="cls-1" d="M456.89,182.08c-6.19-5.06-12.15-1.17-12.4-1.01l-1.31-1.93c.07-.05,7.61-5.06,15.19,1.13l-1.48,1.81Z"/>
        </g>
        <g>
          <path class="cls-4" d="M625.22,161.52s20.46-21.62,32.84-6.96c12.38,14.66-3.77,60.16-32.84,49.87v-42.91"/>
          <path class="cls-1" d="M638.31,194.04l-1.03-2.1c9.02-4.46,16.29-19.6,12.96-27-.69-1.52-1.74-2.51-3.24-3.04-4.68-1.64-11.76,1.95-11.84,1.99l-1.07-2.08c.33-.17,8.05-4.09,13.67-2.12,2.11.74,3.65,2.18,4.6,4.29,4.22,9.38-4.62,25.4-14.06,30.06Z"/>
          <path class="cls-1" d="M636.54,181.7l-1.47-1.82c7.57-6.11,15.11-1.17,15.18-1.12l-1.3,1.94c-.25-.17-6.21-4.01-12.42.99Z"/>
        </g>
        <circle class="cls-4" cx="546.72" cy="158.82" r="96.91"/>
        <path class="cls-1" d="M546.18,256.91c-12.17,0-24.12-2.24-33.63-6.73l1-2.11c18.43,8.7,46.43,8.7,66.55-.02l.93,2.14c-10.34,4.48-22.7,6.72-34.85,6.72Z"/>
        <path class="cls-10" d="M462.83,201.89c-.16-.5-.63-.83-1.15-.83h-4.57l-1.41-4.35c-.16-.5-.63-.83-1.15-.83s-.99.34-1.15.83l-1.41,4.35h-4.57c-.52,0-.99.34-1.15.83-.16.5.02,1.04.44,1.35l3.7,2.69-1.41,4.35c-.16.5.02,1.04.44,1.35.43.31,1,.31,1.42,0l3.7-2.69,3.7,2.69c.21.15.46.23.71.23s.5-.08.71-.23c.42-.31.6-.85.44-1.35l-1.41-4.35,3.7-2.69c.41-.31.59-.85.43-1.35Z"/>
        <path class="cls-10" d="M647.63,201.89c-.16-.5-.63-.83-1.15-.83h-4.57l-1.41-4.35c-.16-.5-.63-.83-1.15-.83s-.99.34-1.15.83l-1.41,4.35h-4.57c-.52,0-.99.34-1.15.83-.16.5.02,1.04.44,1.35l3.7,2.69-1.41,4.35c-.16.5.02,1.04.44,1.35.43.31,1,.31,1.42,0l3.7-2.69,3.7,2.69c.21.15.46.23.71.23s.5-.08.71-.23c.42-.31.6-.85.44-1.35l-1.41-4.35,3.7-2.69c.42-.31.6-.85.44-1.35Z"/>
        <path class="cls-1" d="M547.54,189.94h-8.4v-2.34h8.4c1.57,0,2.59-.3,3.22-.93.73-.73,1.08-2.05,1.07-4.05v-19.61h2.34v19.61c0,2.69-.55,4.5-1.76,5.7-1.1,1.1-2.65,1.61-4.88,1.61Z"/>
        <path class="cls-9" d="M553.19,227.34c-4.73-1.58-9.52-1.58-14.25,0l-.74-2.22c5.22-1.74,10.51-1.74,15.72,0l-.74,2.22Z"/>
        <path class="cls-3" d="M495.68,182.71c0,1.93-4.31,3.5-9.64,3.5s-9.64-1.57-9.64-3.5,4.31-3.5,9.64-3.5,9.64,1.57,9.64,3.5Z"/>
        <path class="cls-3" d="M615.74,182.71c0,1.93-4.31,3.5-9.64,3.5s-9.64-1.57-9.64-3.5,4.31-3.5,9.64-3.5,9.64,1.57,9.64,3.5Z"/>
        <g>
          <path class="cls-7" d="M480.55,141.47l1.39,1.88c1.1-.82,2.25-1.55,3.43-2.19l-1.11-2.05c-1.28.69-2.53,1.49-3.71,2.37Z"/>
          <path class="cls-7" d="M468.03,166.37h2.34c0-7.37,2.79-14.37,7.85-19.72l-1.7-1.61c-5.48,5.79-8.49,13.36-8.49,21.33Z"/>
          <path class="cls-7" d="M575.79,141.47l1.39,1.88c1.1-.82,2.26-1.56,3.44-2.2l-1.11-2.05c-1.28.69-2.53,1.49-3.72,2.37Z"/>
          <path class="cls-7" d="M563.27,166.37h2.34c0-7.37,2.79-14.37,7.85-19.72l-1.7-1.61c-5.48,5.79-8.49,13.36-8.49,21.33Z"/>
          <path class="cls-7" d="M635.32,154.94l-1.39-1.88-4.98,3.7c-4.2-14.9-17.89-25.86-34.11-25.86s-31.05,11.89-34.59,27.73c-8.68-4.76-19.3-4.78-26.62-.08-3.57-15.8-17.71-27.65-34.58-27.65s-30.05,11.09-34.18,26.11l-5.32-3.94-1.39,1.88,6.1,4.53c-.44,2.23-.69,4.54-.69,6.9,0,19.56,15.91,35.47,35.47,35.47s35.47-15.91,35.47-35.47c0-1.82-.18-3.6-.45-5.34,6.79-4.93,17.35-4.92,25.74.01-.26,1.74-.45,3.51-.45,5.33,0,19.56,15.91,35.47,35.47,35.47s35.47-15.91,35.47-35.47c0-2.45-.25-4.85-.73-7.16l5.74-4.26ZM499.05,199.5c-18.27,0-33.13-14.86-33.13-33.13s14.86-33.13,33.13-33.13,33.14,14.86,33.14,33.13c0,18.27-14.87,33.13-33.14,33.13ZM594.83,199.5c-18.27,0-33.13-14.86-33.13-33.13s14.86-33.13,33.13-33.13,33.13,14.86,33.13,33.13-14.86,33.13-33.13,33.13Z"/>
        </g>
        <path class="cls-1" d="M495.28,177.65l-1.02-2.1c4.58-2.22,9.65-3.49,15.09-3.78-4.54-3.47-9.22-6.05-13.93-7.69l.77-2.21c5.85,2.03,11.62,5.43,17.15,10.11l2.5,2.11-3.27-.05c-6.44-.1-12.06,1.08-17.29,3.61Z"/>
        <path class="cls-1" d="M598.79,177.65c-5.23-2.53-10.76-3.72-17.29-3.61l-3.27.05,2.5-2.11c5.53-4.68,11.3-8.08,17.15-10.11l.77,2.21c-4.71,1.63-9.38,4.21-13.92,7.68,5.47.28,10.43,1.53,15.09,3.79l-1.02,2.1Z"/>
      </g>
      <g>
        <polygon class="cls-5" points="803.12 140.89 793.91 122.27 753.72 125.61 763.17 144.73 719.72 147.26 779.36 159.71 770.06 140.92 803.12 140.89"/>
        <polygon class="cls-5" points="750.16 227.65 753.19 212.05 727.18 195.44 724.06 211.46 696.45 192.85 726.96 228.09 730.02 212.34 750.16 227.65"/>
        <polygon class="cls-5" points="688.39 5.44 668.35 0 644.22 32.32 664.8 37.9 637.91 72.12 686.75 35.71 666.51 30.22 688.39 5.44"/>
      </g>
    </g>
    <path class="cls-7" d="M593.1,198.04c0,3.77-2.01,6.82-4.48,6.82s-4.48-3.05-4.48-6.82,2.54-12.18,4.48-12.18,4.48,8.41,4.48,12.18Z"/>
    <path class="cls-1" d="M533.24,209.16c-1.98,1.2-3.22,2.91-3.69,5.1-.25,1.17-.26,2.39-.11,3.6.81.04,1.61.13,2.4.26-.19-1.15-.24-2.3,0-3.37.34-1.55,1.19-2.72,2.62-3.59,6.94-4.21,22.86,1.15,28.39,9.55l1.95-1.28c-5.78-8.79-22.76-15.61-31.55-10.27Z"/>
  </g>
</svg>