<?xml version="1.0" encoding="UTF-8"?>
<svg id="_圖層_2" data-name="圖層 2" xmlns="http://www.w3.org/2000/svg" viewBox="0 0 92.29 90.19">
  <defs>
    <style>
      .cls-1 {
        fill: #ef9275;
      }

      .cls-2 {
        fill: none;
        stroke: #fff;
        stroke-miterlimit: 10;
        stroke-width: 3.17px;
      }

      .cls-3 {
        fill: #e8d7cf;
      }
    </style>
  </defs>
  <g id="_圖層_1-2" data-name="圖層 1">
    <g>
      <g>
        <path class="cls-1" d="M72.34.7c-11.67-3.03-22.9,4.42-26.19,9.41C42.85,5.12,31.62-2.32,19.95.7,6.51,4.19,6.29,17.85,6.21,20.17c-.73,20.63,39.34,47.84,39.82,47.62h.22c.48.23,40.54-26.99,39.82-47.62-.07-2.33-.29-15.98-13.74-19.47Z"/>
        <polyline class="cls-2" points="19.74 40.45 28.46 27.76 35.99 38.47 47.9 22.21 51.45 37.28 58.19 33.9 61.76 38.07 76.06 12.35 74.44 37.41"/>
      </g>
      <path class="cls-3" d="M92.29,83.23c0,3.84-20.66,6.96-46.14,6.96S0,87.07,0,83.23s20.66-6.96,46.14-6.96c25.49,0,46.14,3.12,46.14,6.96Z"/>
    </g>
  </g>
</svg>