<?xml version="1.0" encoding="UTF-8"?>
<svg id="_圖層_2" data-name="圖層 2" xmlns="http://www.w3.org/2000/svg" viewBox="0 0 91 116.66">
  <defs>
    <style>
      .cls-1 {
        fill: #c5c5c4;
      }

      .cls-2 {
        fill: #ef9275;
      }

      .cls-3 {
        fill: #607af1;
      }

      .cls-4 {
        fill: #fff;
      }

      .cls-5 {
        fill: #676767;
      }

      .cls-6 {
        fill: none;
        stroke: #686868;
        stroke-miterlimit: 10;
        stroke-width: 1.56px;
      }

      .cls-7 {
        fill: #e8d7cf;
      }
    </style>
  </defs>
  <g id="_圖層_1-2" data-name="圖層 1">
    <g>
      <path class="cls-7" d="M91,109.79c0,3.79-20.37,6.87-45.5,6.87S0,113.58,0,109.79s20.37-6.87,45.5-6.87,45.5,3.07,45.5,6.87Z"/>
      <g>
        <g>
          <path class="cls-5" d="M82.13,92.91c0,1.27-1.03,2.3-2.3,2.3H11.17c-1.27,0-2.3-1.03-2.3-2.3V7.77c0-1.27,1.03-2.3,2.3-2.3h68.65c1.27,0,2.3,1.03,2.3,2.3v85.14Z"/>
          <rect class="cls-4" x="15.85" y="11.79" width="59.3" height="73.64"/>
          <path class="cls-1" d="M63.01,13.23c0,1.27-1.03,2.3-2.3,2.3h-31.93c-1.27,0-2.3-1.03-2.3-2.3V2.3c0-1.27,1.03-2.3,2.3-2.3h31.93c1.27,0,2.3,1.03,2.3,2.3v10.93Z"/>
          <line class="cls-6" x1="23.79" y1="36.91" x2="67.13" y2="36.91"/>
          <line class="cls-6" x1="23.79" y1="48.61" x2="67.13" y2="48.61"/>
          <line class="cls-6" x1="23.79" y1="62.61" x2="67.13" y2="62.61"/>
          <g>
            <path class="cls-3" d="M47.51,72.01c-.3.52-.96.69-1.47.4h0c-.52-.3-.69-.96-.4-1.47l1.43-2.5c.29-.52.96-.69,1.47-.4h0c.52.3.69.96.4,1.47l-1.43,2.5Z"/>
            <path class="cls-3" d="M50.69,69.52c-.63,1.1-2.04,1.48-3.14.85l-.5-.29c-1.1-.63-1.48-2.04-.85-3.14l21.63-37.66c.63-1.1,2.04-1.48,3.14-.85l.5.29c1.1.63,1.48,2.04.85,3.14l-21.64,37.66Z"/>
          </g>
        </g>
        <path class="cls-2" d="M36.91,81.02c0,7.25-5.88,13.12-13.12,13.12s-13.12-5.87-13.12-13.12,5.88-13.12,13.12-13.12,13.12,5.87,13.12,13.12Z"/>
        <g>
          <path class="cls-4" d="M25.9,86.3c0,1.16-.94,2.11-2.11,2.11h0c-1.17,0-2.11-.94-2.11-2.11v-10.55c0-1.17.94-2.11,2.11-2.11h0c1.16,0,2.11.94,2.11,2.11v10.55Z"/>
          <path class="cls-4" d="M29.07,78.91c1.16,0,2.11.94,2.11,2.11h0c0,1.16-.94,2.11-2.11,2.11h-10.55c-1.16,0-2.11-.94-2.11-2.11h0c0-1.16.94-2.11,2.11-2.11h10.55Z"/>
        </g>
      </g>
    </g>
  </g>
</svg>