<?xml version="1.0" encoding="UTF-8"?>
<svg id="_圖層_2" data-name="圖層 2" xmlns="http://www.w3.org/2000/svg" viewBox="0 0 115.42 92.72">
  <defs>
    <style>
      .cls-1 {
        fill: #ef9275;
      }

      .cls-2 {
        fill: #d7e4f9;
      }

      .cls-3 {
        fill: #fff;
      }

      .cls-4 {
        fill: #666;
      }

      .cls-5 {
        fill: none;
        isolation: isolate;
        opacity: .6;
        stroke: #fff;
        stroke-linecap: round;
        stroke-miterlimit: 10;
        stroke-width: 3.42px;
      }

      .cls-6 {
        fill: #e8d7cf;
      }
    </style>
  </defs>
  <g id="_圖層_1-2" data-name="圖層 1">
    <g>
      <path class="cls-6" d="M109.25,85.73c0,3.86-22.42,6.99-50.07,6.99s-50.07-3.13-50.07-6.99,22.42-6.99,50.07-6.99c27.66,0,50.07,3.13,50.07,6.99Z"/>
      <g>
        <path class="cls-3" d="M115.42,47.84c0,6.85-6,14.04-13.41,14.04H13.41C6,61.88,0,54.69,0,47.84H0C0,40.99,6,35.44,13.41,35.44h88.61c7.4,0,13.41,5.55,13.41,12.4h0Z"/>
        <path class="cls-3" d="M111.87,0H23.56c-1.96,0-3.55,1.47-3.55,3.29l-11.55,33.04c-4.95,1.82-8.45,6.29-8.45,11.51,0,6.85,6,14.04,13.41,14.04h88.61c7.04,0,12.79-6.5,13.35-13.02.03-.16.06-.32.06-.49V3.21c0-1.77-1.59-3.21-3.55-3.21Z"/>
        <path class="cls-1" d="M115.42,45.54v-9.16H8.33c-4.14,1.57-7.22,5-8.07,9.16h115.16Z"/>
        <path class="cls-2" d="M36.42,29.9c0,1.14-1,2.07-2.23,2.07h-14.01c-1.23,0-2.23-.92-2.23-2.07l7.82-22.36c0-1.14,1-2.07,2.23-2.07h6.19c1.23,0,2.23.93,2.23,2.07v22.36h0Z"/>
        <path class="cls-2" d="M106.72,28.68c0,1.81-1.59,3.29-3.55,3.29h-55.17c-1.96,0-3.55-1.47-3.55-3.29V8.76c0-1.81,1.59-3.29,3.55-3.29h55.17c1.96,0,3.55,1.47,3.55,3.29v19.92Z"/>
        <g>
          <path class="cls-1" d="M70.62,39.99c0,4.43-3.89,8.03-8.68,8.03s-8.68-3.59-8.68-8.03,3.89-8.03,8.68-8.03c4.79,0,8.68,3.59,8.68,8.03Z"/>
          <g>
            <path class="cls-3" d="M64.21,43.45c0,1.16-1.01,2.09-2.27,2.09h0c-1.25,0-2.26-.94-2.26-2.09v-6.91c0-1.16,1.01-2.1,2.26-2.1h0c1.25,0,2.27.94,2.27,2.1v6.91Z"/>
            <path class="cls-3" d="M65.68,37.89c1.25,0,2.27.94,2.27,2.1h0c0,1.16-1.01,2.09-2.27,2.09h-7.47c-1.25,0-2.27-.94-2.27-2.09h0c0-1.16,1.02-2.1,2.27-2.1h7.47Z"/>
          </g>
        </g>
        <ellipse class="cls-4" cx="27.18" cy="61.88" rx="9.77" ry="9.04"/>
        <ellipse class="cls-4" cx="89.91" cy="61.88" rx="9.77" ry="9.04"/>
        <line class="cls-5" x1="54.72" y1="25.43" x2="91.72" y2="13.11"/>
        <line class="cls-5" x1="54.14" y1="16.46" x2="74.27" y2="9.76"/>
        <line class="cls-5" x1="76.73" y1="27.52" x2="96.87" y2="20.82"/>
      </g>
    </g>
  </g>
</svg>