<?xml version="1.0" encoding="UTF-8"?>
<svg id="_圖層_2" data-name="圖層 2" xmlns="http://www.w3.org/2000/svg" viewBox="0 0 91.15 99.37">
  <defs>
    <style>
      .cls-1 {
        fill: #ef9275;
      }

      .cls-2 {
        fill: #607af1;
      }

      .cls-3 {
        fill: #fff;
      }

      .cls-4 {
        fill: #e8d7cf;
      }
    </style>
  </defs>
  <g id="_圖層_1-2" data-name="圖層 1">
    <g>
      <path class="cls-4" d="M91.15,92.49c0,3.8-20.4,6.88-45.58,6.88S0,96.29,0,92.49s20.4-6.88,45.58-6.88,45.58,3.08,45.58,6.88Z"/>
      <g>
        <g>
          <path class="cls-3" d="M59.93,21.94c6.99-4.8,16.55-3.03,21.35,3.96h0c4.8,6.99,3.03,16.55-3.96,21.35l-36.56,25.12c-6.99,4.8-16.55,3.03-21.35-3.96h0c-4.8-6.99-3.03-16.55,3.96-21.35l36.56-25.12Z"/>
          <path class="cls-2" d="M59.04,59.8l18.28-12.56c6.99-4.8,8.76-14.36,3.96-21.35-4.8-6.99-14.36-8.76-21.35-3.96l-18.28,12.56,17.39,25.31Z"/>
        </g>
        <g>
          <path class="cls-3" d="M37.88,59.71c0,8.48-6.88,15.36-15.35,15.36h0c-8.48,0-15.35-6.87-15.35-15.36V15.35C7.17,6.88,14.05,0,22.53,0h0c8.48,0,15.35,6.88,15.35,15.35v44.36Z"/>
          <path class="cls-1" d="M7.17,37.53v22.17c0,8.48,6.88,15.36,15.35,15.36s15.35-6.87,15.35-15.36v-22.17H7.17Z"/>
        </g>
      </g>
    </g>
  </g>
</svg>