<?xml version="1.0" encoding="UTF-8"?>
<svg id="_圖層_2" data-name="圖層 2" xmlns="http://www.w3.org/2000/svg" viewBox="0 0 1167.8 603.81">
  <defs>
    <style>
      .cls-1 {
        fill: #f6cab8;
      }

      .cls-2 {
        fill: #4e5d91;
      }

      .cls-3 {
        fill: #86a5ea;
      }

      .cls-4 {
        fill: #644b30;
      }

      .cls-5 {
        fill: #f4bba7;
      }

      .cls-6 {
        fill: #d7e4f9;
      }

      .cls-7 {
        fill: #607af1;
      }

      .cls-8 {
        fill: #f4d0b8;
      }

      .cls-9 {
        fill: #fff;
      }

      .cls-10 {
        fill: #778bb7;
      }

      .cls-11 {
        fill: #7794e5;
      }

      .cls-12 {
        fill: #aac4e8;
      }

      .cls-13 {
        fill: #f4baa6;
      }

      .cls-14 {
        fill: #285380;
      }
    </style>
  </defs>
  <g id="img">
    <g id="deep">
      <rect class="cls-10" x="11.4" y="22.31" width="1145" height="560"/>
      <g>
        <path id="ghost-2-bg" class="cls-2" d="M385.79,338.82c6.66,23.63,6.96,49.52,1.65,62.88-5.3,13.36-19.92,37.39,7.98,47.29,27.89,9.91,65.1-2.38,79.71,12.39,14.6,14.78,20.72,32.47,50.21,42.22,29.49,9.75,36.89-17.82,53.78-21.3,16.88-3.48,47.63,12.17,68.78,8.32,21.16-3.84,5.22-24.98,21.16-41.64s39.85-30.26,35.86-48.7c-3.98-18.44-37.19-18.95-49.15-46.59-11.96-27.64,23.09-172.09-20.71-240.25-50.51-78.61-153.48-84.72-209.26-9.9-35.74,47.95-57.81,172.12-40,235.28Z"/>
        <g id="ghost-2">
          <polygon class="cls-9" points="460.09 231.31 500.43 228.42 471.13 207.64 460.09 231.31"/>
          <polygon class="cls-9" points="473.59 188.57 509.77 199.02 493.16 162.63 473.59 188.57"/>
          <polygon class="cls-9" points="503.67 148.37 533.83 162.63 521.97 127.48 503.67 148.37"/>
          <polygon class="cls-9" points="561.03 242.43 594.66 260.73 600.86 238.02 561.03 242.43"/>
          <polygon class="cls-9" points="603.96 218.98 568.72 207.64 603.96 195.67 603.96 218.98"/>
          <polygon class="cls-9" points="603.96 174.69 571.54 175.02 597.33 148.37 603.96 174.69"/>
          <path class="cls-6" d="M421.98,229.12c23.8,18.7,51.27,22.65,51.27,22.65,0,0-2.13-50.86,29.09-93.22,31.22-42.36,64.42-43.28,64.42-43.28,0,0,30.57,19.94,30.57,77.78,0,44.37-12.8,79.76-12.8,79.76,0,0,72.82,3.18,91.59-61.44,9.18-31.61-4.57-103.24-53.92-131.57-7.64-4.39-14.32-12.57-8.49-17.54,5.24-4.47,19.52-2.13,27.39-2.39,30.87-1.04-.02-37.73-84.02-42.84-55.83-3.4-139.23,16.97-108.05,20.45,33.37,3.73,20.52,26.93,11.23,33.26-60.15,40.96-91.45,116.63-38.3,158.39Z"/>
          <path class="cls-9" d="M455.6,148.37s-17.66,2.52-23.8,19.95c-7.83,22.22,21.23,29.07,21.23,29.07,0,0-5.36-13.78-3.99-24.51,1.36-10.73,6.56-24.51,6.56-24.51Z"/>
          <path class="cls-14" d="M449.04,172.88s-11.76.83-10.43,9.73c1.33,8.89,11.6,5.18,11.6,5.18,0,0-1.15-6.97-1.17-14.91Z"/>
          <path class="cls-6" d="M403.1,168.24s-14.65,11.45-27.94,38.79c-13.28,27.35-16.5,59.31-7.65,75.17,8.86,15.86,27.23,24.11,32.32,17.29,3.98-5.34-18.48-26.02-18.48-26.02,0,0,29.1,14.48,31.24,6.93,3.05-10.75-21.57-23.64-21.57-23.64,0,0,28.88,8.81,29.69,0,.95-10.4-29.69-14.33-29.69-14.33,0,0,24.95-29.73,29.61-43.41,6.2-18.19-17.55-30.78-17.55-30.78Z"/>
          <path class="cls-6" d="M641.39,206.06s12.62,13.66,21.34,42.78c8.72,29.12,6.76,61.19-4.53,75.43-11.29,14.23-30.75,19.42-34.68,11.87-3.07-5.91,22.42-22.72,22.42-22.72,0,0-31.05,9.62-31.95,1.82-1.28-11.1,25.08-19.87,25.08-19.87,0,0-29.92,4.05-29.31-4.77.73-10.42,31.61-9.38,31.61-9.38,0,0-19.85-33.35-22.25-47.6-3.2-18.95,22.26-27.56,22.26-27.56Z"/>
        </g>
        <g id="ghost-1">
          <g>
            <path class="cls-9" d="M865.26,136.67c-25.03-9.4-42.25-12.57-69,22.35-26.75,34.91-37.35,67.51-15.19,85.77,22.15,18.26,51.88,38.61,70.25,23.37,18.37-15.24,46.22-52.91,55.4-72.06,9.18-19.15-1.45-44.4-41.47-59.43Z"/>
            <g id="eye">
              <path class="cls-14" d="M843.09,161.34c-2.37,3.35-5.76,5.03-7.57,3.75-1.81-1.28-1.35-5.03,1.02-8.39,2.37-3.35,5.76-5.03,7.57-3.75,1.81,1.28,1.35,5.03-1.02,8.39Z"/>
              <path class="cls-14" d="M889.67,187.27c-2.37,3.35-5.76,5.03-7.57,3.75-1.81-1.28-1.35-5.03,1.02-8.39,2.37-3.35,5.76-5.03,7.57-3.75,1.81,1.28,1.35,5.03-1.02,8.39Z"/>
            </g>
          </g>
          <path class="cls-6" d="M862.8,289.78c30.75,4,56.54-9.42,76-24.09,22.76-17.15,40.6-48.83,43.72-64.64,1.5-7.56-.29-12.36-4.05-10.42-2.89,1.49-10.49,9.7-10.49,9.7,0,0,6.91-11.84,4.06-23.64-2.86-11.84-15.63,9.08-15.63,9.08,0,0,1.47-8.19,2.17-18.96.59-9.16-8.21-14.43-13.29-.76-5.08,13.67-13.13,35.29-40.99,69.91-9.44,11.73-18.88,18.42-27.24,22.15,5.91-10.06,12.67-19.71,19.7-29.48,12.2-16.95,27.45-35.8,27.34-57.09-.11-22.45-4.89-43.26-34.32-56.34-22.19-9.86-47.93-4.03-68.11,8.56-34.98,21.81-53.2,63.15-61.67,104.01-3.13-10.1-4.12-25.04,3.86-45.03,16.48-41.27,31.35-58.9,40.76-70.04,9.41-11.14.5-16.22-7.19-11.2-9.04,5.89-15.45,11.2-15.45,11.2,0,0,11.95-21.4.24-18.07-11.68,3.31-18.59,15.14-18.59,15.14,0,0,3.41-10.65,3.3-13.9-.15-4.23-5.21-3.42-11.06,1.59-12.24,10.49-31.07,41.59-34.83,69.84-3.77,28.24-1.88,63.21,27.3,90.24,2.45,2.27,4.62,4.03,6.57,5.41-.05.61-.13,1.23-.17,1.84-4.33,53.98,8.77,109.88,43.48,152.29,29.88,36.52,77.99,61.94,126.69,62.52,16.92.2,44.59-4.37,53.99-22.26,10.54-20.05-9.4-36.91-26.3-30.35-18.54,7.2-27.36,12.36-55.21,6.16-39.46-8.78-47.42-91.54-36.55-136.47.56-2.36,1.27-4.63,1.97-6.91ZM892.88,168.45c15.48,5.88,4.14,25.71-4.27,34.15-1.41-14.23-19.6-18.3-27.2-14.87,4.91-11.93,18.23-24.3,31.46-19.28ZM847.69,142.52c15.48,5.88,4.14,25.71-4.27,34.15-1.41-14.23-19.6-18.3-27.2-14.88,4.91-11.93,18.23-24.3,31.46-19.28ZM853.86,256.8s-5.46-27.2-21.65-33.4c-16.19-6.21-40.49,3.52-40.49,3.52,0,0,18.83-45.53,51.78-33.38,32.95,12.15,10.36,63.26,10.36,63.26Z"/>
        </g>
        <g id="people-1">
          <path class="cls-14" d="M967.06,392.75s1.89-1.69,8.57-5.09c6.67-3.4,8.28-.97,11.34,1.29,4.41,3.27,3.7,8.26,3.7,8.26l-2.9,2.73s4.13,10.71.9,19.7c-3.23,8.99-9.67,10.1-14.1,9.52-5.15-.67-5.49-7.1-3.34-16.7,2.15-9.6-4.15-19.71-4.15-19.71Z"/>
          <path class="cls-11" d="M923.02,409.13c-7.59,3.83-20.66,15.54-18.85,27.4,1.5,9.82,10.1,12.84,18.81,8.78,26.41-12.34,52.52-35.19,53.88-36.04.19-2.05,1.08-4.12.64-6.2-1.28-6.05-4.51-8.01-7.9-10.85-14.97,1.83-33.56,10.34-46.59,16.91Z"/>
          <path class="cls-1" d="M941.56,233.08s10.68-3.8,13.48-3.69,5.75,6.33,5.75,6.33l-2.96,7.62-12.07.46-4.21-10.72Z"/>
          <path class="cls-14" d="M1010.41,418.27s1.89-1.69,8.57-5.09c6.67-3.4,8.28-.97,11.34,1.29,4.41,3.27,3.7,8.26,3.7,8.26l-2.9,2.73s4.13,10.71.9,19.7c-3.23,8.99-9.67,10.1-14.1,9.52-5.15-.67-5.49-7.1-3.34-16.7,2.15-9.6-4.16-19.71-4.16-19.71Z"/>
          <path class="cls-11" d="M955.14,364.94c-3.43-2.14-38.63-10.78-36.49-9.18.01.01-9.29,30.11-11.87,45.64-1.46,8.81-2.68,31.48-2.74,31.75,3.22,4.85,9.34,4.69,14.68,7.99.28-.4.71-.72,1.33-.82,3.25-.55,6.46-1.2,9.65-1.98,0-.02,0-.03,0-.05,5.87-4.32,14.18-19.6,16.13-26.79,3.62-13.29,15.52-42.7,9.31-46.57Z"/>
          <path class="cls-3" d="M966.37,434.65c-7.59,3.83-20.66,15.54-18.85,27.4,1.5,9.82,10.11,12.84,18.81,8.78,26.41-12.34,52.52-35.19,53.88-36.04.19-2.05,1.08-4.12.64-6.2-1.28-6.05-4.51-8.01-7.9-10.85-14.97,1.82-33.55,10.33-46.59,16.91Z"/>
          <path class="cls-3" d="M947.71,462.82c.28-.09.6-.12.98-.05,9.62,1.89,20.07-2.63,27.38-9.64,1.86-5.7,3.13-14.1,3.35-16.98.71-9.15.47-24.11-2.68-33.31,1.36-2.81,2.45-5.71,3.38-7.95,3.96-9.55.74-22.17-5.68-31.31-1.47-2.09-13.87,4.45-20.94,6.78-6.19,2.04-14.32,5.11-21.05,3.35-.9,4.92-.58,9.99,1.09,14.89,1.07,3.15,2.23,11.85,4.12,14.57,2.21,12.57,5.67,41.58,9.86,58.89.06.24.13.52.19.77Z"/>
          <path class="cls-3" d="M906.87,261.05c5.45,3.3,11.56-1.26,14.87-3.11,5.12-2.86,14.69-6.57,19.54-13,3.86-5.12.87-12.37-4.74-11.17-4.98,1.07-14.94,2.53-19.14,4.92-1.85,1.05-8.02,5.12-10.68,8.17-3.01,3.46-1.55,10.09.15,14.18Z"/>
          <path class="cls-9" d="M940.68,233.16c-1.03.19-4.14.61-4.14.61,0,0,1.83,1.95,2.77,6.69.49,2.49.22,6.4.22,6.4,0,0,7.71-1.98,7.56-6.6-.16-4.62-1.71-7.97-6.41-7.11Z"/>
          <path class="cls-3" d="M939.24,265.3c-5.85-8.27-11.81-13.19-18.79-15.59-6.35,2.79-7.11,7.6-13.74,9.87-.13,6.78,16.52,41.76,21.53,43.5,4.27,1.48,8.29,1.16,10.4-1.75,3.94-5.43,11.13-14.26,11.61-21.17.06-.8-1.28-10.58-11.02-14.86Z"/>
          <path class="cls-9" d="M955.47,277.79c-5.85-2.02-9.66-3.38-20.61,8.61-7.7,8.43-12.26,32.6-11.63,36.47.5,3.07.27,27.34-10.61,42.05,5.86,9.02,20.46,19.23,31.86,20.56,16.56,1.92,27.25-1.89,36.07-8.95-.6-3.65-6.05-16.25-3.1-23.69,5.09-12.84,9.5-21.1,12.18-35.09,4.28-22.3-21.18-35.48-34.17-39.96Z"/>
          <path class="cls-5" d="M952.37,275.23s-.59,7.32-5.17,18.1c-.75,7.82,2.27,13.19,10.62,7.21,8.35-5.98,16.68-14.44,16.68-14.44l-1.78-13.96-20.34,3.09Z"/>
          <path class="cls-3" d="M973.9,281.46c-1.39,4.2-3.26,6.69-7.42,9.65-5.65,4.01-8.36,3.01-13.47,3.81-5.32.83-7.64,3.07-8.88,8.2,2.09-.42,2.41-1.47,4.05.49,1.09,1.29.77,2.87.92,4.29.22,2.01,2.4,3.58,5.27,2.93-1.23-5.71,11.07-9.27,14.17-10.42,2.83-1.05,6.95-4.59,7.71-8.02,1.08-4.85.49-9.22-2.35-10.94Z"/>
          <path class="cls-3" d="M950.02,279s-4.93,5.16-7.26,8.23-2,6.53-3.98,8.05c-1.99,1.52-3.91,2.07-3.91,2.07,0,0,3.88.93,5.22.24s3.04-1.07,3.39-.67c.36.41,3.03,3.34,3.23,2.97.19-.37,4.26-2.33,4.26-2.33,0,0-2.17-3.58-1.13-7.85,1.04-4.28,3.43-8.25,3.43-8.25l-3.25-2.45Z"/>
          <path class="cls-1" d="M982.13,256.97c-.03-6.11-15.54-14.01-21.69-13.1-9.27,1.37-12.84,12.73-14.33,21.21-1.57,8.93,2.13,21.21,15.75,17.02,11.06-3.4,20.34-13.24,20.27-25.14Z"/>
          <path class="cls-14" d="M984.07,254.48c1.41-3.27.27-7.15-2.44-9.84-2.49-2.47-5.92-3.5-9.26-4.18-2.97-.61-4.23-.3-6.62-2.34-2.56-2.18-2.28-3.25-3.7-5.94-2.83-5.36-8.78-6.96-6.61.83-4.06-4.32-8.34-.83-4.06,5.92-.93-.4-3.22-.7-4.3-.02-2.52,1.59-1.94,4.94-.57,7.04,2.29,3.49,6.31,6,10.49,6.73,1.49,7.2,9.61,7.72,12.56,6.58-1.18,5.19,2.97,11.92,3.85,18.26,2.44-2.75,12.35-6.36,13.8-14.04.55-2.91-.53-7.16-3.14-9Z"/>
          <g>
            <ellipse class="cls-8" cx="976.03" cy="245.64" rx="1.65" ry="2.56" transform="translate(568.98 1166.12) rotate(-80.27)"/>
            <g>
              <ellipse class="cls-8" cx="959.1" cy="249.01" rx="2.71" ry="4.22" transform="translate(551.59 1152.24) rotate(-80.27)"/>
              <g>
                <path class="cls-4" d="M959.69,250.95s0-.03,0-.05c.02-.13.16-.22.31-.2s.25.15.22.29c0,.02,0,.03-.01.04l-.52-.09Z"/>
                <path class="cls-4" d="M956.67,250.74s0-.03,0-.05c.02-.13.16-.22.31-.2s.25.15.22.29c0,.02,0,.03-.01.04l-.52-.09Z"/>
                <path class="cls-4" d="M956.84,248.01s0-.03,0-.05c.02-.13.16-.22.31-.2s.25.15.22.29c0,.02,0,.03-.01.04l-.52-.09Z"/>
                <path class="cls-4" d="M955.74,249.05s0-.03,0-.05c.02-.13.16-.22.31-.2s.25.15.22.29c0,.02,0,.03-.01.04l-.52-.09Z"/>
                <path class="cls-4" d="M958.71,249.56s0-.03,0-.05c.02-.13.16-.22.31-.2s.25.15.22.29c0,.02,0,.03-.01.04l-.52-.09Z"/>
                <path class="cls-4" d="M959.86,248.23s0-.03,0-.05c.02-.13.16-.22.31-.2s.25.15.22.29c0,.02,0,.03-.01.04l-.52-.09Z"/>
                <path class="cls-4" d="M958.28,246.73s0-.03,0-.05c.02-.13.16-.22.31-.2s.25.15.22.29c0,.02,0,.03-.01.04l-.52-.09Z"/>
                <path class="cls-4" d="M961.69,248.23s0-.03,0-.05c.02-.13.16-.22.31-.2s.25.15.22.29c0,.02,0,.03-.01.04l-.52-.09Z"/>
                <path class="cls-4" d="M961.68,250.07s0-.03,0-.05c.02-.13.16-.22.31-.2s.25.15.22.29c0,.02,0,.03-.01.04l-.52-.09Z"/>
              </g>
            </g>
            <g>
              <ellipse class="cls-8" cx="977.42" cy="259.19" rx="5.67" ry="6.26" transform="translate(556.78 1178.75) rotate(-80.27)"/>
              <g>
                <path class="cls-4" d="M978.11,263.15s0-.06,0-.1c.05-.28.26-.48.48-.44s.35.3.3.58c0,.03-.01.06-.02.09l-.77-.13Z"/>
                <path class="cls-4" d="M973.6,263.01s0-.06,0-.1c.05-.28.26-.48.48-.44s.35.3.3.58c0,.03-.01.06-.02.09l-.77-.13Z"/>
                <path class="cls-4" d="M974.12,257.34s0-.06,0-.1c.05-.28.26-.48.48-.44s.35.3.3.58c0,.03-.01.06-.02.09l-.77-.13Z"/>
                <path class="cls-4" d="M972.37,259.6s0-.06,0-.1c.05-.28.26-.48.48-.44s.35.3.3.58c0,.03-.01.06-.02.09l-.77-.13Z"/>
                <path class="cls-4" d="M976.77,260.36s0-.06,0-.1c.05-.28.26-.48.48-.44s.35.3.3.58c0,.03-.01.06-.02.09l-.77-.13Z"/>
                <path class="cls-4" d="M978.63,257.48s0-.06,0-.1c.05-.28.26-.48.48-.44s.35.3.3.58c0,.03-.01.06-.02.09l-.77-.13Z"/>
                <path class="cls-4" d="M976.41,254.54s0-.06,0-.1c.05-.28.26-.48.48-.44s.35.3.3.58c0,.03-.01.06-.02.09l-.77-.13Z"/>
                <path class="cls-4" d="M981.38,257.31s0-.06,0-.1c.05-.28.26-.48.48-.44s.35.3.3.58c0,.03-.01.06-.02.09l-.77-.13Z"/>
                <path class="cls-4" d="M981.18,261.11s0-.06,0-.1c.05-.28.26-.48.48-.44s.35.3.3.58c0,.03-.01.06-.02.09l-.77-.13Z"/>
              </g>
            </g>
            <g>
              <path class="cls-4" d="M976.31,246.89s0-.02,0-.03c.01-.08.1-.13.18-.12s.15.09.13.17c0,0,0,.02,0,.03l-.31-.05Z"/>
              <path class="cls-4" d="M974.5,246.77s0-.02,0-.03c.01-.08.1-.13.18-.12s.15.09.13.17c0,0,0,.02,0,.03l-.31-.05Z"/>
              <path class="cls-4" d="M974.6,245.13s0-.02,0-.03c.01-.08.1-.13.18-.12s.15.09.13.17c0,0,0,.02,0,.03l-.31-.05Z"/>
              <path class="cls-4" d="M973.95,245.75s0-.02,0-.03c.01-.08.1-.13.18-.12s.15.09.13.17c0,0,0,.02,0,.03l-.31-.05Z"/>
              <path class="cls-4" d="M975.72,246.06s0-.02,0-.03c.01-.08.1-.13.18-.12s.15.09.13.17c0,0,0,.02,0,.03l-.31-.05Z"/>
              <path class="cls-4" d="M976.41,245.26s0-.02,0-.03c.01-.08.1-.13.18-.12s.15.09.13.17c0,0,0,.02,0,.03l-.31-.05Z"/>
              <path class="cls-4" d="M975.47,244.37s0-.02,0-.03c.01-.08.1-.13.18-.12s.15.09.13.17c0,0,0,.02,0,.03l-.31-.05Z"/>
              <path class="cls-4" d="M977.51,245.27s0-.02,0-.03c.01-.08.1-.13.18-.12s.15.09.13.17c0,0,0,.02,0,.03l-.31-.05Z"/>
              <path class="cls-4" d="M977.5,246.36s0-.02,0-.03c.01-.08.1-.13.18-.12s.15.09.13.17c0,0,0,.02,0,.03l-.31-.05Z"/>
            </g>
          </g>
          <path class="cls-1" d="M969,266.19s4.14-3.33,5.56.53c1.25,3.39-.33,7.06-4.65,6.76-3.8-.27-.92-7.28-.92-7.28Z"/>
          <path class="cls-3" d="M1014.71,279.06c-6.15-5.86-6.5-5.97-19.99-16.85-5.09,3.6-8.03,5.34-10.53,6.99,3.15,10.82,8.52,16.43,13.49,22.65-5.44-.03-11.98.59-15.55,2.29-5.2,2.47-8.43,12.11-11.31,20.1-2.92,8.08,1.21,20.56,8.66,21.53,2.49.32,9.87-4.14,10.63-8.63,9.2-3.61,31.26-21.65,34.75-33.68.92-5.83-6.08-10.51-10.16-14.4Z"/>
          <path class="cls-9" d="M984.19,269.2s3.36,0,6.34-2.14c2.98-2.14,4.19-4.86,4.19-4.86l-4.43-4.67-8.16,5.83s1.04,3.37,2.06,5.83Z"/>
          <path class="cls-3" d="M940.61,303.19c-1.43-2.22.09-5.88.09-5.88,0,0,.89-.19,2.04-.54.9-.27,1.33.8,1.33.8,0,0-.97,3.66-.95,5.33,0,0,2.33-.55,3.36-.75,2.8-.54,2.34,2.65,2.34,2.65,0,0-2.41.49-4.37.7-.37,1.17-.94,2.44-1.66,3.74-.63,1.14-1.91,1.58-2.9,1-1.53-.9-1.7-2.31-1.21-3.86.24-.79,1.21-2.05,1.94-3.19Z"/>
          <path class="cls-3" d="M933.37,319.53c2.76-7.67,4.21-9.51,5.99-11.45.55-.6,2.33.27,2.2,1.08-1.37,7.97-2.09,13.41-3.01,26.36-.94,13.27-2.45,22.66-2.45,22.66,0,0-5.56,4.74-8.29,5.46-3.05-6.32-2.55-12.72-2.55-12.72,0,0,5.2-23.28,8.12-31.39Z"/>
          <path class="cls-14" d="M967.12,237.78s3.47-3.33,5.61-3.07c2.14.27-1.27,3.55-1.27,3.55,0,0,3.47-1.39,3.03.59s-5.01,2.94-5.01,2.94l-2.35-4.02Z"/>
          <path class="cls-5" d="M963.15,232.42c2.64,1.4,2.55,3.38,2.55,3.38,0,0,3.05-.11,3.63,3.24.58,3.35-.58,5-1.73,4.01s-1.9-3.88-1.9-3.88c0,0,.88,3.89-1.33,3.31-2.21-.59-1.96-4.7-1.96-4.7,0,0-1.42,3.91-2.31,2.8-2.22-2.78.42-9.56,3.05-8.16Z"/>
          <path class="cls-14" d="M978.29,245.14s-2.6-5.34,0-6.68c2.6-1.34,2.73,4.87,2.73,4.87,0,0,2.54-4.05,4.14-3.4s-1.28,7.99-1.28,7.99l-5.6-2.78Z"/>
          <path class="cls-5" d="M990.3,257.54s-2.99-7.96-5.19-10.68c-2.21-2.72-5.86-2.81-8.34-3.06-2.48-.26-5.65-1.34-6.87,0-1.22,1.34,4.61,3.06,4.61,3.06,0,0-7.67-.36-8.15,1.07-.49,1.43,2.76,2,3.54,2.42.78.41,2.67,0,2.67,0,0,0-5.71-.12-4.6,2.25,1.11,2.37,8.8,1.57,8.8,1.57,0,0,2.21,8,5.37,9.21,3.17,1.21,8.16-5.83,8.16-5.83Z"/>
          <g id="line">
            <path class="cls-14" d="M1027.58,190.33c-4.58-.94-8.75-1.53-12.79,1.08-4.35,2.82-5.92,7.34-7.76,13.62-.74,2.52-2.14,5.06-6.17,6.39-8.41,2.79-17.96,4.36-15.52,16.56.05.25.44.21.43-.02-.38-8.56,6.04-11.86,13.89-13.86,2.74-.7,4.63-1.14,6.67-3.29,2.01-2.11,3.36-6.64,4.14-9.31,2.45-8.38,7.73-11.94,16.99-9.97,1.41.3,1.51-.9.11-1.19Z"/>
            <path class="cls-14" d="M1040.9,209.49c-4.21-2.05-8.1-3.66-12.65-2.13-4.92,1.65-7.55,5.65-10.89,11.27-1.34,2.26-3.33,4.37-7.56,4.67-8.84.62-18.48-.22-19.14,12.2-.01.25.37.32.42.08,1.76-8.38,8.79-9.99,16.89-9.99,2.83,0,4.77.04,7.27-1.53,2.47-1.55,4.9-5.6,6.32-7.99,4.45-7.51,10.45-9.65,18.93-5.45,1.29.64,1.69-.5.4-1.13Z"/>
            <path class="cls-14" d="M1053.65,233.9c-3.37-3.25-6.58-5.98-11.38-5.93-5.19.05-8.93,3.04-13.84,7.35-1.98,1.74-4.52,3.13-8.63,2.1-8.6-2.14-17.51-5.92-21.97,5.69-.09.23.26.42.37.21,4.26-7.43,11.45-6.79,19.15-4.28,2.69.88,4.52,1.51,7.39.79,2.83-.71,6.39-3.81,8.48-5.65,6.55-5.77,12.92-5.95,19.69.67,1.03,1.01,1.77.05.74-.95Z"/>
          </g>
        </g>
        <path class="cls-13" d="M169.59,291.19s.9,3.48,1.59,5.35c.69,1.87.15,3.75.15,3.75l-.42-.25s-.93-4.81-1.32-6.22c-.54-1.95,0-2.63,0-2.63Z"/>
        <g id="ghost-3">
          <path class="cls-6" d="M310.83,153.07c-27.17-20.6-62.42-28.73-96.08-25.43-32.7,3.2-64.53,16.7-88.58,39.26-29.48,27.64-42.32,67.03-54,104.58-10.82,34.78-28.95,85.83-3.72,104.59,27.43,20.4,63.9-15.53,96.75-11.76,63.03,7.23,99.39-6.53,93.38-49.29-3.12-22.2-19.83-38.5-31.44-56.58-6.95-10.83-12.72-23.32-11.85-36.58,1.97-29.88,34.73-20.07,37.97,4.28,2.01,15.13,5.61,28.62,19.42,37.3,25.47,16.01,57.7,2.86,68.5-24.03,13.11-32.69-3.94-66.31-30.35-86.33Z"/>
          <path class="cls-9" d="M269.34,205.99c-8.66,3.81,0,8.88,2.8,15.88,2.8,7.01-.93,16.35,5.14,22.43,6.07,6.07,12.61-.93,13.08-12.61.47-11.68-9.34-30.83-21.02-25.69Z"/>
          <path id="eye-2" data-name="eye" class="cls-14" d="M284.28,236.12c0,3.22-1.88,5.84-4.2,5.84s-4.2-2.61-4.2-5.84,1.88-5.84,4.2-5.84c2.32,0,4.2,2.61,4.2,5.84Z"/>
          <path class="cls-9" d="M299.7,195.58c-8.66,3.81,0,8.88,2.8,15.88,2.8,7.01-.93,16.35,5.14,22.43,6.07,6.07,12.61-.93,13.08-12.61.47-11.68-9.34-30.83-21.02-25.69Z"/>
          <path id="eye-3" data-name="eye" class="cls-14" d="M314.65,225.71c0,3.23-1.88,5.84-4.2,5.84s-4.2-2.61-4.2-5.84,1.88-5.84,4.2-5.84,4.2,2.61,4.2,5.84Z"/>
          <path class="cls-9" d="M271.2,156.24c-3.85-2.9-19.45-8.37-23.93-4.85-3.86,3.03-1.9,6.42.07,9.77,1.43,2.43,3.09,5.46,2.21,8.63-.42,1.52-2.29,2.84-3.08,4.26-1.01,1.8-1.82,3.78-1.3,5.89,1.43,5.85,9.75,5.99,14.22,7.86,8.88,3.72,16.49,10.02,23.35,3.34,8.14-7.93,2.41-24.39-11.53-34.9Z"/>
        </g>
        <g id="people-3">
          <g>
            <path class="cls-14" d="M263.09,418.04s-.44,3.72-1.61,7.6.27,9.31.27,9.31c0,0,.84,2.39,4.44,3.1,3.35.66,6.07-.14,6.07-.14,0,0,3.3,3.99,7.61,7.04,4.31,3.05,13.82,5.42,16.41,5.03,4.17-.64,6.41-3.89,6.09-5.99s-5.24-7.91-9.27-10.43c-2.62-1.64-8.58-7.16-10.37-9.09-2.96-3.18-5.14-6.7-5.14-6.7l-14.49.28Z"/>
            <path class="cls-14" d="M190.42,450s-2.29,8.5-2,13.42c.29,4.92,1.46,6.09,2.95,7.75s3.23.94,3.23.94c0,0,.68,10.14,5.49,14.24,4.81,4.1,13.53,4.49,17.53,3s1.37-8.75-2.55-15.87c-3.92-7.12-8.92-14.78-10.17-21.22-9.59-1.32-14.49-2.27-14.49-2.27Z"/>
          </g>
          <path class="cls-3" d="M180.87,287.9c1.02-1.09,23.4-6.91,21.56,14.76,7.6,6.17,13.13,21.26,5.74,28.42-8.39,8.13-14-3.82-17-8.6-4.42-7.04-18.38-25.91-10.29-34.58Z"/>
          <path class="cls-11" d="M252.78,370.83c-6.29-9.22-12.61-19.7-23.79-21.73-10.84-1.96-61.58-1.7-68.61.47-6.78,7.92-4.73,16.61-2.28,26.93,7.74,5.92,36.55,7.09,65.6,4.16,2.24,2.48,20.85,33.4,32.61,45.3,4.95,5.01,22.88,1.56,25.41-5.47-11.53-15.05-23.92-42.31-28.93-49.65Z"/>
          <path class="cls-3" d="M210.15,450.31c-.23-3.18-8.07-28.19-11.19-37.61-2.96-8.96-5.81-17.95-8.69-26.94-1.47-4.6-2.48-14.48-6.19-17.73-6.82-5.98-17.65-3.43-22.59-3.58-5.97-.18-38.03-7.06-40.42-2.98-1.16,8.13-1.62,17.11,2.38,24.62,5.56,10.44,16.84,16.73,37.4,10.44,3.59,16.75,14.28,43.08,22.85,58.63,9.99,5.12,17.96,1.41,26.45-4.86Z"/>
          <path class="cls-9" d="M134.66,291.29c13.68-13.44,45.22-19.13,54.65-.46,6.97,13.81,1.28,37.24-12.04,53.77,3.59-.4,6.42-.43,8.2,3.1-17.68,17.22-52,32.26-65.86,18.41-2.86-35.98-.19-65.24,15.06-74.82Z"/>
          <path class="cls-13" d="M178.27,289s-1.14,4.84-4.97,13.78c-1.94,4.52-3.67,10.21-9.2,1.98-5.89-8.78-8.89-20.49-2.17-22.84,4.35-1.52,9.6-7.35,9.6-7.35l6.74,14.43Z"/>
          <path class="cls-1" d="M166.64,278.51c3.86-9.15,13.66-15.86,23.76-13.89,8.71,1.7,13.7,9.97,11.52,17.56-2.5,8.72-18.13,22.12-28.58,18.95-9.16-2.78-9.8-15.27-6.7-22.61Z"/>
          <path class="cls-13" d="M195.41,293.14s-1.73,6.53-1.7,10.43c.04,3.91,1,5.46,1,5.46,0,0-1.2,2.14-3.73,3.12-2.54.97-3.28.78-3.28.78,0,0-8.42-8.71-6.86-12.64,1.56-3.94,14.57-7.15,14.57-7.15Z"/>
          <path class="cls-1" d="M171.18,289.68c3.62.48,5.93,8.95,7.91,6.57,5.58-6.67,13.97-9.07,16.18-4.77.96,1.85-3.34,7.29-7.43,10.8-4.08,3.51-7.71,4.16-8.76,8.77-1.04,4.61-9.51,14.17-9.51,14.17l-7.95-1.15,7.39-15.13s3.09-8.65,2.16-12.4c-.93-3.76-1.7-7.08,0-6.86Z"/>
          <path class="cls-13" d="M186.5,291.09s-3.54,1.76-5.79,3.43c-1.9,1.41-2.34,2.91-3.45,1.5-1.11-1.41-1.99-3.21-3.83-4.93-1.93-1.81-3.14-.74-3.14-.74,0,0,1.37-2.01,3.14-1.03s3.69,5.86,4.97,5.28c1.28-.59,7.14-5.28,7.14-5.28l.97,1.77Z"/>
          <path class="cls-14" d="M180.38,260.66c5.78-7.74,15.82-5.48,20.34,2.66,3.42,2.03,8.56,2.27,9.93,7.67,1.9,7.48-.15,17.59-7.22,21.44,1.18,1.72,2.46,4.44,4.39,6.94-4.22,1.45-9.76.77-12.74-2.68-.22,2.06-.92,4.1-2.06,5.96-2.35-4.95-6.65-10.18-8.35-13.09-3.24,1.38-6.76.24-8.61-2.96-.79-1.36-1.52-3.05-2.02-4.85-2.49.66-9.14-1.37-9.46-2.53-2.72-9.72,6.5-20.77,15.81-18.57Z"/>
          <g>
            <ellipse class="cls-8" cx="197.35" cy="267.41" rx="1.65" ry="2.56" transform="translate(-99.57 416.74) rotate(-80.27)"/>
            <g>
              <ellipse class="cls-8" cx="180.43" cy="270.79" rx="2.71" ry="4.22" transform="translate(-116.96 402.86) rotate(-80.27)"/>
              <g>
                <path class="cls-4" d="M181.02,272.72s0-.03,0-.05c.02-.13.16-.22.31-.2s.25.15.22.29c0,.02,0,.03-.01.04l-.52-.09Z"/>
                <path class="cls-4" d="M178,272.51s0-.03,0-.05c.02-.13.16-.22.31-.2s.25.15.22.29c0,.02,0,.03-.01.04l-.52-.09Z"/>
                <path class="cls-4" d="M178.16,269.79s0-.03,0-.05c.02-.13.16-.22.31-.2s.25.15.22.29c0,.02,0,.03-.01.04l-.52-.09Z"/>
                <path class="cls-4" d="M177.07,270.82s0-.03,0-.05c.02-.13.16-.22.31-.2s.25.15.22.29c0,.02,0,.03-.01.04l-.52-.09Z"/>
                <path class="cls-4" d="M180.03,271.33s0-.03,0-.05c.02-.13.16-.22.31-.2s.25.15.22.29c0,.02,0,.03-.01.04l-.52-.09Z"/>
                <path class="cls-4" d="M181.18,270s0-.03,0-.05c.02-.13.16-.22.31-.2s.25.15.22.29c0,.02,0,.03-.01.04l-.52-.09Z"/>
                <path class="cls-4" d="M179.6,268.51s0-.03,0-.05c.02-.13.16-.22.31-.2s.25.15.22.29c0,.02,0,.03-.01.04l-.52-.09Z"/>
                <path class="cls-4" d="M183.01,270.01s0-.03,0-.05c.02-.13.16-.22.31-.2s.25.15.22.29c0,.02,0,.03-.01.04l-.52-.09Z"/>
                <path class="cls-4" d="M183,271.84s0-.03,0-.05c.02-.13.16-.22.31-.2s.25.15.22.29c0,.02,0,.03-.01.04l-.52-.09Z"/>
              </g>
            </g>
            <g>
              <ellipse class="cls-8" cx="198.74" cy="280.96" rx="5.67" ry="6.26" transform="translate(-111.76 429.37) rotate(-80.27)"/>
              <g>
                <path class="cls-4" d="M199.43,284.92s0-.06,0-.1c.05-.28.26-.48.48-.44s.35.3.3.58c0,.03-.01.06-.02.09l-.77-.13Z"/>
                <path class="cls-4" d="M194.92,284.79s0-.06,0-.1c.05-.28.26-.48.48-.44s.35.3.3.58c0,.03-.01.06-.02.09l-.77-.13Z"/>
                <path class="cls-4" d="M195.44,279.12s0-.06,0-.1c.05-.28.26-.48.48-.44s.35.3.3.58c0,.03-.01.06-.02.09l-.77-.13Z"/>
                <path class="cls-4" d="M193.69,281.38s0-.06,0-.1c.05-.28.26-.48.48-.44s.35.3.3.58c0,.03-.01.06-.02.09l-.77-.13Z"/>
                <path class="cls-4" d="M198.1,282.13s0-.06,0-.1c.05-.28.26-.48.48-.44s.35.3.3.58c0,.03-.01.06-.02.09l-.77-.13Z"/>
                <path class="cls-4" d="M199.95,279.25s0-.06,0-.1c.05-.28.26-.48.48-.44s.35.3.3.58c0,.03-.01.06-.02.09l-.77-.13Z"/>
                <path class="cls-4" d="M197.73,276.31s0-.06,0-.1c.05-.28.26-.48.48-.44s.35.3.3.58c0,.03-.01.06-.02.09l-.77-.13Z"/>
                <path class="cls-4" d="M202.7,279.08s0-.06,0-.1c.05-.28.26-.48.48-.44s.35.3.3.58c0,.03-.01.06-.02.09l-.77-.13Z"/>
                <path class="cls-4" d="M202.5,282.89s0-.06,0-.1c.05-.28.26-.48.48-.44s.35.3.3.58c0,.03-.01.06-.02.09l-.77-.13Z"/>
              </g>
            </g>
            <g>
              <path class="cls-4" d="M197.64,268.67s0-.02,0-.03c.01-.08.1-.13.18-.12s.15.09.13.17c0,0,0,.02,0,.03l-.31-.05Z"/>
              <path class="cls-4" d="M195.83,268.54s0-.02,0-.03c.01-.08.1-.13.18-.12s.15.09.13.17c0,0,0,.02,0,.03l-.31-.05Z"/>
              <path class="cls-4" d="M195.92,266.91s0-.02,0-.03c.01-.08.1-.13.18-.12s.15.09.13.17c0,0,0,.02,0,.03l-.31-.05Z"/>
              <path class="cls-4" d="M195.27,267.53s0-.02,0-.03c.01-.08.1-.13.18-.12s.15.09.13.17c0,0,0,.02,0,.03l-.31-.05Z"/>
              <path class="cls-4" d="M197.05,267.83s0-.02,0-.03c.01-.08.1-.13.18-.12s.15.09.13.17c0,0,0,.02,0,.03l-.31-.05Z"/>
              <path class="cls-4" d="M197.73,267.03s0-.02,0-.03c.01-.08.1-.13.18-.12s.15.09.13.17c0,0,0,.02,0,.03l-.31-.05Z"/>
              <path class="cls-4" d="M196.79,266.14s0-.02,0-.03c.01-.08.1-.13.18-.12s.15.09.13.17c0,0,0,.02,0,.03l-.31-.05Z"/>
              <path class="cls-4" d="M198.83,267.04s0-.02,0-.03c.01-.08.1-.13.18-.12s.15.09.13.17c0,0,0,.02,0,.03l-.31-.05Z"/>
              <path class="cls-4" d="M198.83,268.14s0-.02,0-.03c.01-.08.1-.13.18-.12s.15.09.13.17c0,0,0,.02,0,.03l-.31-.05Z"/>
            </g>
          </g>
          <path class="cls-1" d="M176.06,286.61s2.69-2.59,0-5.62c-2.69-3.04-8.41,1.54-5.81,5.62,2.6,4.09,5.81,0,5.81,0Z"/>
          <path class="cls-3" d="M194.72,306.59c6.5,5.44,18.52,11.4,15.44,20.12-3.08,8.72-5.84,11.57-11.92,7.14-6.08-4.43-9.17-13.37-11.74-22.23,5.85-.85,8.22-5.02,8.22-5.02Z"/>
          <path class="cls-3" d="M141.27,286.46c-1.99-.78-18.59,3.4-18.57,25.16.02,25.61,10.51,41.58,17.52,46.08,7.01,4.49,21.42-7.95,27.03-15.65,7.44-10.2,11.28-29.37,11.28-29.37l-9.5-3.74s-4.87,4.54-12.93,13.63c-4.15,4.68-8.48,12.02-8.48,12.02,0,0-.92-9.3-1.62-19.34,5.41-7.59,7.41-24.04-4.73-28.79Z"/>
          <path class="cls-12" d="M140.51,247.89c1.76,7.53.83,16.6,11.1,28.86,10.75,12.83,15.73,30.5,12.25,34.51-2.46,2.84-10.15-7.44-10.15-7.44,0,0,7.12,11.27.35,17.44-3.46,3.16-5.59-2.14-7.82-6.2-2.31-4.2-5.14-9.34-5.14-9.34,0,0,4.2,19.39-1.65,20.66-8.24,1.79-3.82-9.33-13.07-22.18-10.51-14.61-12.7-33.58-7.8-48.29,4.9-14.72,17.72-25.97,21.92-8.01Z"/>
          <path class="cls-12" d="M227.06,274.58c-9.74,1.7-9.81,16.42-4.2,26.36,5.6,9.94-23.32,13.88-24.27,20.32-.95,6.44,14.24,1.51,14.24,1.51,0,0-18.72,9.82-12.74,13.15,5.56,3.1,17.69-4.02,17.69-4.02,0,0-.53,4.02-3.85,6.48-3.92,2.91-5.92,7.41,1.23,7.18,10.86-.35,25.86-8.58,29.17-33.24,3.31-24.66-6.05-39.7-17.26-37.74Z"/>
          <g id="line-2" data-name="line">
            <path class="cls-7" d="M239.77,227.73c-.4-8.53-12.99-13.52-19.63-15.82-5.11-1.76-10.26-2.7-15.36-2.96-6.3-4.55-13.53-7.84-20.97-9.47-7.91-1.73-19.54-2.83-26.42,2.56-5.64,4.42-4.45,10.73.17,15.46,2.09,2.14,4.47,4.12,7.05,5.95-3.76,3.36-7.16,7.22-10.06,11.58-.58.87.74,1.82,1.31.95,2.87-4.36,6.29-8.26,10.12-11.61,16.92,11.34,42.15,16.3,60.54,14.26,5.9-.64,13.6-3.64,13.26-10.9ZM162.58,219.59c-1.77-1.41-5.98-5.03-6.8-7.01-3.69-8.85,5.95-11.49,11.83-12.51,4.93-.85,11.03.05,15.79,1.18,6.5,1.55,12.33,4.17,17.52,7.62-12.76.27-24.94,5.04-34.79,13.28-1.23-.82-2.42-1.66-3.55-2.56ZM210.18,236.72c-6.2-.59-12.34-1.76-18.33-3.46-8.1-2.3-16.87-5.59-24.27-10.2,10.09-8.2,22.79-12.73,36.06-12.26,8.72,6.59,15.43,15.68,20.09,26.19.13.3.64.16.56-.17-2.43-10.22-8.63-19.08-16.73-25.73.49.05.97.08,1.46.15,6.17.85,11.99,2.8,17.49,5.65,2.49,1.29,14.08,5.74,10.65,13.83-3.43,8.08-22.45,6.44-26.98,6.01Z"/>
            <path class="cls-7" d="M160.58,203.72c-4.19,7.44,3.83,18.36,8.24,23.82,3.39,4.2,7.26,7.74,11.45,10.66,2.93,7.2,7.3,13.82,12.75,19.15,5.78,5.66,15.06,12.77,23.75,11.85,7.12-.75,9.47-6.74,8.06-13.19-.64-2.93-1.6-5.86-2.82-8.78,4.97-.86,9.9-2.32,14.67-4.47.95-.43.34-1.93-.61-1.5-4.75,2.17-9.71,3.66-14.74,4.47-8.33-18.59-27.07-36.18-43.74-44.22-5.35-2.58-13.46-4.12-17.02,2.21ZM221.68,251.58c.75,2.13,2.4,7.44,2.05,9.55-1.57,9.45-11.14,6.58-16.66,4.32-4.63-1.9-9.33-5.89-12.76-9.38-4.69-4.76-8.24-10.07-10.8-15.75,10.95,6.54,23.81,8.97,36.54,7.21.61,1.34,1.17,2.69,1.65,4.05ZM190.43,211.8c4.95,3.79,9.53,8.04,13.7,12.66,5.65,6.25,11.33,13.69,15.16,21.53-12.91,1.59-26.08-1.3-37.07-8.75-3.89-10.22-4.76-21.48-3.12-32.86.05-.32-.46-.48-.57-.15-3.36,9.95-2.81,20.75.52,30.69-.38-.3-.78-.58-1.16-.9-4.78-4-8.67-8.73-11.83-14.07-1.43-2.41-8.89-12.34-1.69-17.37,7.19-5.03,22.44,6.45,26.06,9.22Z"/>
            <path class="cls-7" d="M160.57,260.77c6.68,5.32,18.73-.85,24.83-4.33,4.69-2.68,8.8-5.93,12.35-9.6,7.57-1.74,14.81-5,20.95-9.53,6.51-4.81,15.01-12.83,15.49-21.55.4-7.15-5.14-10.42-11.73-10.07-2.99.16-6.04.65-9.12,1.38-.05-5.04-.71-10.14-2.07-15.2-.27-1-1.85-.64-1.58.36,1.39,5.04,2.06,10.18,2.05,15.27-19.68,5.25-40.04,20.95-50.64,36.11-3.4,4.86-6.22,12.62-.54,17.16ZM217.58,208.09c2.23-.4,7.73-1.18,9.75-.49,9.08,3.06,4.72,12.05,1.61,17.14-2.61,4.27-7.31,8.27-11.3,11.1-5.45,3.87-11.26,6.52-17.27,8.15,8.21-9.77,12.66-22.07,12.96-34.92,1.42-.38,2.84-.72,4.26-.98ZM173.31,232.59c4.53-4.28,9.46-8.12,14.69-11.51,7.07-4.57,15.33-9,23.67-11.52-.49,12.99-5.45,25.53-14.56,35.2-10.71,2.21-21.96,1.26-32.94-2.17-.31-.1-.54.38-.24.53,9.29,4.91,20.04,6.09,30.38,4.39-.36.33-.7.68-1.07,1-4.71,4.08-10.01,7.17-15.77,9.43-2.61,1.02-13.6,6.8-17.42-1.11-3.81-7.9,9.96-21.12,13.27-24.25Z"/>
          </g>
        </g>
        <path class="cls-6" d="M0,0v603.81h1167.8V0H0ZM1149.79,208.71c0,29.27-7.12,64-35.17,99.51-8.79,11.13-16.01,24.27-17.28,38.81-2.23,25.61,20.73,45.78,29.73,68.18,7.69,19.12,6.98,41.76.27,61.09-12.75,36.71-48.37,58.65-84.73,66.91-52.04,11.81-103.21-8.27-155.25-9.41-29.86-.66-57.3,8.49-86.37,13.51-27.07,4.68-52.3.87-77.56-9.65-25.47-10.61-49.99-22.54-77.28-27.98-28.55-5.7-57.31-3.48-85.59,2.71-29.15,6.38-56.51,17.26-83.98,28.63-22.84,9.46-47.53,12.2-71.98,9.04-50.21-6.49-94.92-33.65-144.72-41.82-28.13-4.61-56.17,2.25-83.64,7.7-23.49,4.66-47.98,8.95-71.32,1.46-42.06-13.49-69.9-54.36-68.48-98.12.45-13.95,3.32-27.66,5.01-41.48,1.9-15.55.56-29.75-4.42-44.62-4.11-12.27-9.61-24.01-13.37-36.41-3.36-11.08-5.94-22.41-7.6-33.88-3.37-23.33-3.25-48.02,4.55-70.49,6.86-19.76,20.82-35.6,38.09-47.07,37.99-25.24,83.95-28.68,127.43-37.3,28.61-5.67,54.12-16.22,79.71-30,25.06-13.5,49.77-27.35,77.46-34.76,55.55-14.87,113.09-5.26,169.03,1.78,59.13,7.44,118.02,15.48,177.63,18.06,30.55,1.32,61.36,1.83,91.9-.08,21.91-1.36,43.65-4.81,65.27-8.44,43.03-7.21,86.82-16.26,130.67-12.86,35.07,2.72,69.65,17.79,105.67,44.94,19.41,14.63,37.98,34.03,50.57,54.7,5.91,9.69,15.72,41.01,15.72,67.35Z"/>
        <g id="people-2">
          <path class="cls-14" d="M481.58,289.52c-1.28-.27-23.45-5.11-33.41,3.64-7.51,6.61-7.86,16.16-7.52,22.56.34,6.39-2.03,11.22-2.03,11.22,0,0,3.23-.54,4.49-3.19,0,6.5,6.01,11.21,6.01,11.21.76-2.85.77-3.69,1.47-8.58,6.44-.88,11.07-9.36,12.08-14.27,1.02-4.91,10.69-11.9,12.97-13.19,2.78-1.58,5.93-9.41,5.93-9.41Z"/>
          <path class="cls-14" d="M629.14,402.57c.23-2.64,1.69-4.98,3.73-6.64-.07-.04-.13-.1-.21-.13-14.34-5.83-33.52-9.02-42.52-7.11-.57-11.55-3.69-29.7-9.99-33.65,6.83-12.45,4.42-25.59-7.04-35.31-.8-.68-25.16,4.15-24.92,5.36,2.3,11.3-1.02,20.77.58,31.96,2.56,17.87,16.01,36.75,26.31,51.31.5.71,1.98,2.4,6.71,2.35,8.5-.09,16.21-1.57,24.01-1.7,1.11-.02,15.97-.67,24.83-.55-1.13-1.68-1.64-3.98-1.47-5.87Z"/>
          <path class="cls-6" d="M546.68,415.13c8.85-13.41,15.29-29.17,11.68-44.88,7.99-5.83,12.09-16.32,9.66-26.34-1.08-4.44-4.68-18.28-9.94-17.48-5.19.79-28.55,17.23-28.82,18.29-3.56,14.22-5.42,28.95-6.49,43.56-.93,12.73-3.9,39.57,3.46,43.57,6.75,2.35,15.78-15.56,20.45-16.72Z"/>
          <path class="cls-6" d="M561.97,413.32c-7.33-3.15-14.44-4.12-21.82-5.26-5.61,5.32-12.13,9.13-13.66,17.8-.35,2-.4,4.01-.26,5.99,1.26.86,2.63.86,6.75,2.35,4.17,1.51,13.61,2.44,18.47,2.97,13.08,1.43,22.71.86,35.49,2.09-.34-2.13.28-2.12.99-4.21.62-1.82-2.84-4.28-1.07-6.58-9.66-5.49-14.68-10.76-24.9-15.16Z"/>
          <g>
            <path class="cls-9" d="M641,430.68c-6.63-6.46-4.94-21.13-4.94-21.13,0,0-1.16-1.59-2.19-5.02-1.03-3.43-2.93-10.68,0-12.93-3.76,1.48-9.48,3.16-9.48,3.16-5.68,7.09,1.49,13.73,1.49,13.73,3,14.93,2.74,13.18,6.63,20.43,3.93,7.33,10.7,9.66,15.36,3.8-2,.64-4.38.4-6.87-2.03Z"/>
            <path class="cls-3" d="M643,405.71c.4-8.89-3.84-16.18-9.12-14.11-2.93,2.25-1.03,9.5,0,12.93,1.03,3.43,2.19,5.02,2.19,5.02,0,0-1.69,14.67,4.94,21.13,2.49,2.43,4.87,2.67,6.88,2.03.02-.02.03-.03.05-.05,5.64-7.17-2.26-18.88-4.93-26.96Z"/>
          </g>
          <g>
            <path class="cls-9" d="M594.35,464.58c-5.6-7.37-1.76-21.63-1.76-21.63,0,0-.91-1.74-1.42-5.29-.51-3.54-1.31-11,1.92-12.79-3.94.91-9.84,1.72-9.84,1.72-6.66,6.17-.57,13.79-.57,13.79.77,15.54.93,13.9,3.53,21.19,2.8,7.83,9.15,11.14,14.63,6.03-2.07.34-4.39-.26-6.5-3.03Z"/>
            <path class="cls-3" d="M600.03,440.17c1.71-8.73-1.4-16.58-6.93-15.3-3.23,1.79-2.43,9.24-1.92,12.79.51,3.54,1.42,5.29,1.42,5.29,0,0-3.85,14.26,1.76,21.63,2.11,2.77,4.42,3.37,6.5,3.03.02-.02.04-.03.05-.05,6.64-6.26.57-19.01-.88-27.39Z"/>
          </g>
          <path class="cls-1" d="M495.56,372.95s-1.14,1.66-4.62,1.88c-4.85-.43-13.27-2.62-15.87-3.16-1.21-.25-4.74-1.2-4.73,1.08-1.41-.19-1.94-.38-2.83,0-1.58.66,0,2.21,0,2.21,0,0-2.94,1.49.34,2.74-.9,1.81,3.05,2.71,5.53,3.16,1.51.28,2.9.39,4.66,1.1-1.29.2-2.52.39-3.27.51-2.31.37-1.02,2.14,0,2.37s2.18-.34,3.8.68c1.62,1.02,6.19,1.95,8.06,2.02,3.16.11,5.5-1.33,5.5-1.33h0c2.86-.48,6.98-4.67,6.79-10.46-.06-1.74-3.34-2.78-3.34-2.78Z"/>
          <path class="cls-1" d="M461.07,395.31s-1.14,1.66-4.62,1.88c-.56-.99-1.3-1.86-2.18-2.3-2.71-1.35-8.16-3.87-8.16-3.87-1.29,1.28-.66,2.47.45,3.27.39.28.55.82.65,1.43-1.95-.54-4.03-1.15-6.64-1.69-1.21-.25-4.74-1.21-4.73,1.08-1.4-.19-1.94-.38-2.83,0-1.58.66,0,2.21,0,2.21,0,0-2.94,1.49.34,2.74-.9,1.81,3.05,2.71,5.53,3.16s4.61.45,8.63,3.39c4.02,2.94,11.18,4.58,13.69,2.96,4.07-2.62,4.86-8.13,5.08-9.85.23-1.72-5.21-4.4-5.21-4.4Z"/>
          <path class="cls-9" d="M454.27,394.89s-1.71,4.26-1.11,6.41c.59,2.14,7.25,5.2,10.41,4.18,3.16-1.02,3.95-7.91,3.95-7.91l-13.26-2.68Z"/>
          <path class="cls-9" d="M487.41,372.16s-2,4.08-1.41,6.23c.59,2.14,7.32,7.05,10.48,6.03,3.16-1.02,3.95-7.91,3.95-7.91l-13.03-4.35Z"/>
          <path class="cls-6" d="M494.49,286.12c-15.89.49-16.63,13.03-12.07,25.02-4.12,13.21,3.47,45.48,3.47,60.11,0,4.96,4.59,9.16,7.73,10.16,5.23,1.67,8.01-3.03,9.15-6.61,2.34-7.32,4.61-29.54,3.96-39.04,4.67-13.03,10.87-25.67,7.75-34.88-4.93-14.51-13.78-14.96-19.99-14.77Z"/>
          <path class="cls-9" d="M576.95,323.49c-11.84-16.36-32.17-22.48-41.7-27.08-21.76-10.51-39.77-16.57-52.82-10.6-9.65,4.41-22.8,20.69-26.18,29.01-3.39,8.32,7.61,17.66,16.34,20.11,8.73,2.45,22.3,9.95,34.48,9.95,7.82,9.85,19.55,12.2,19.55,12.2,0,0,15.17-8.69,24.97-15.39,9.8-6.71,25.37-18.18,25.37-18.18Z"/>
          <path class="cls-6" d="M461.58,306.02c-10.75,2.07-10.54,20.71-5.98,32.71-4.12,13.21-2.97,40.74-2.97,55.37,0,4.96,4.31,5.52,7.45,6.52,5.23,1.67,8.44,1.68,9.58-1.91,2.34-7.32,4.8-33.54,4.15-43.03,4.67-13.03,10.87-25.67,7.75-34.88-4.92-14.51-13.88-15.94-19.99-14.77Z"/>
          <path class="cls-6" d="M511.13,340.76s4.96-7.79,10.27-11.52c5.32-3.73,11.41-5.76,11.41-5.76,0,0-5.76,5.59-10.84,9.4-5.08,3.81-10.85,7.88-10.85,7.88Z"/>
          <path class="cls-6" d="M509.77,332.88s0-5.23,9.49-12.14c4.36-3.17,13.55-6.1,13.55-6.1,0,0-7.46,7.51-12.2,10.12-4.74,2.61-10.85,8.11-10.85,8.11Z"/>
          <g>
            <ellipse class="cls-8" cx="454.18" cy="298.08" rx="8.94" ry="6.31" transform="translate(-89.06 302.24) rotate(-33.72)"/>
            <g>
              <path class="cls-4" d="M458.12,300.51s-.05-.05-.07-.08c-.18-.26-.11-.62.15-.79s.62-.1.79.16c.02.03.04.06.05.1l-.93.62Z"/>
              <path class="cls-4" d="M453.2,304.64s-.05-.05-.07-.08c-.18-.26-.11-.62.15-.79s.62-.1.79.16c.02.03.04.06.05.1l-.93.62Z"/>
              <path class="cls-4" d="M449.16,299.74s-.05-.05-.07-.08c-.18-.26-.11-.62.15-.79s.62-.1.79.16c.02.03.04.06.05.1l-.93.62Z"/>
              <path class="cls-4" d="M449.13,303.14s-.05-.05-.07-.08c-.18-.26-.11-.62.15-.79s.62-.1.79.16c.02.03.04.06.05.1l-.93.62Z"/>
              <path class="cls-4" d="M454.44,299.59s-.05-.05-.07-.08c-.18-.26-.11-.62.15-.79s.62-.1.79.16c.02.03.04.06.05.1l-.93.62Z"/>
              <path class="cls-4" d="M454.09,295.61s-.05-.05-.07-.08c-.18-.26-.11-.62.15-.79s.62-.1.79.16c.02.03.04.06.05.1l-.93.62Z"/>
              <path class="cls-4" d="M449.34,295.4s-.05-.05-.07-.08c-.18-.26-.11-.62.15-.79s.62-.1.79.16c.02.03.04.06.05.1l-.93.62Z"/>
              <path class="cls-4" d="M456.88,292.9s-.05-.05-.07-.08c-.18-.26-.11-.62.15-.79s.62-.1.79.16c.02.03.04.06.05.1l-.93.62Z"/>
              <path class="cls-4" d="M459.75,296.05s-.05-.05-.07-.08c-.18-.26-.11-.62.15-.79s.62-.1.79.16c.02.03.04.06.05.1l-.93.62Z"/>
            </g>
          </g>
        </g>
        <g id="hand">
          <path class="cls-6" d="M78.88,514.89c6.84,9.65,31.84,16.32,34.51,14.34,1.03-.76,1.04-8.62-4.42-10.1-16.81-4.54-21.76-21.46-13.51-33.65,8.57-12.67,19.11-12.69,31.31-17.26,3.27-1.22,11.94-2.17,7.65-5.48-1.5-1.15-8.52-1.98-14.35.27,3.84-3.03,7.63-6.13,11.34-9.22,4.88-4.06-6.42-4.6-17.4,3.07,1.47-2.57,11.27-11.76,6.21-12.24-6.37-.6-15.14,5.72-18.79,13.02-3.21,6.41-7.03,12.05-13.67,15.1-5.6,2.57-12.06,9.23-15.16,19.02-2.6,8.25,1.25,16.03,6.28,23.13Z"/>
          <path class="cls-6" d="M473.09,560.13c11.76-1.22,29.86-19.72,29.44-23.02-.16-1.27-5.52-2.64-10.97-1.11-8.97,2.52-29.38,8.41-35.95-4.76-6.82-13.69-1.67-22.88.35-35.74.54-3.45,3.98-11.47-1.02-9.35-1.74.74-5.91,6.45-6.81,12.63-.75-4.83-1.59-9.65-2.46-14.41-1.14-6.24-7.16,3.34-5.88,16.67-1.52-2.55-4.71-15.6-7.61-11.43-3.65,5.25-2.45,16,2.11,22.76,4.01,5.94,7.05,12.05,6.44,19.32-.51,6.14,2.12,15.04,9.13,22.55,5.91,6.32,14.57,6.79,23.23,5.89Z"/>
          <path class="cls-6" d="M846.86,555.87c11.81.52,32.43-15.12,32.5-18.44.03-1.28-5.07-3.42-10.68-2.71-9.24,1.18-30.3,4-34.86-10-4.74-14.54,1.71-22.88,5.6-35.31,1.04-3.33,5.62-10.76.37-9.4-1.83.47-6.79,5.51-8.59,11.49-.04-4.89-.16-9.78-.31-14.61-.21-6.34-7.57,2.25-8.26,15.62-1.13-2.74-2.36-16.12-5.85-12.42-4.39,4.66-4.78,15.47-1.26,22.83,3.1,6.47,5.2,12.95,3.53,20.05-1.41,6-.12,15.19,5.71,23.64,4.92,7.12,13.42,8.86,22.11,9.24Z"/>
          <path class="cls-6" d="M1141.42,305.18c6.74-9.72,4.49-35.5,1.73-37.33-1.07-.71-5.6,2.46-7.98,7.6-3.93,8.45-12.76,27.77-27.04,24.16-14.83-3.74-18.44-13.64-26.89-23.56-2.26-2.66-6.11-10.49-7.76-5.32-.57,1.8,1.04,8.68,5.15,13.39-4.16-2.57-8.36-5.08-12.53-7.52-5.48-3.2-2.13,7.6,8.81,15.32-2.92-.51-14.9-6.59-13.63-1.67,1.6,6.19,10.54,12.29,18.64,13.23,7.12.83,13.73,2.5,18.85,7.7,4.32,4.39,12.79,8.2,23.05,7.77,8.65-.35,14.64-6.62,19.6-13.78Z"/>
          <path class="cls-6" d="M328.66,531.04c-11.2,3.8-35.36-5.48-36.36-8.65-.39-1.22-1.65-7.25,3.65-5.24,16.28,6.19,37.46,5.67,36.55-19.65-.55-15.28-8.02-21.49-15.22-32.35-1.93-2.91-8.4-8.77-2.97-8.93,1.89-.06,8.06,3.39,11.45,8.64-1.33-4.7-2.58-9.44-3.77-14.12-1.57-6.15,7.9.05,12.29,12.7.32-2.95-2.22-16.14,2.16-13.56,5.51,3.25,8.9,13.52,7.57,21.57-1.17,7.07-1.38,13.89,2.2,20.24,3.03,5.37,4.35,14.55,1.1,24.3-2.73,8.21-10.42,12.24-18.66,15.04Z"/>
          <path class="cls-6" d="M704.94,531.04c-11.2,3.8-35.36-5.48-36.36-8.65-.39-1.22-1.65-7.25,3.65-5.24,16.28,6.19,37.46,5.67,36.55-19.65-.55-15.28-8.02-21.49-15.22-32.35-1.93-2.91-8.4-8.77-2.97-8.93,1.89-.06,8.06,3.39,11.45,8.64-1.33-4.7-2.58-9.44-3.77-14.12-1.57-6.15,7.9.05,12.29,12.7.32-2.95-2.22-16.14,2.16-13.56,5.51,3.25,8.9,13.52,7.57,21.57-1.17,7.07-1.38,13.89,2.2,20.24,3.03,5.37,4.35,14.55,1.1,24.3-2.73,8.21-10.41,12.24-18.65,15.04Z"/>
          <path class="cls-6" d="M1018.53,559.83c-11.2,3.8-35.36-5.48-36.36-8.65-.39-1.22-2.01-5.53,3.65-5.24,18.56.95,37.46,5.66,36.55-19.65-.55-15.28-8.02-21.49-15.22-32.35-1.93-2.91-8.4-8.77-2.97-8.93,1.89-.06,8.06,3.39,11.45,8.64-1.33-4.7-2.58-9.44-3.77-14.12-1.57-6.15,7.9.05,12.29,12.7.32-2.95-2.22-16.14,2.16-13.56,5.51,3.25,8.9,13.52,7.57,21.57-1.17,7.07-1.38,13.89,2.2,20.24,3.03,5.37,4.35,14.55,1.1,24.3-2.73,8.21-10.42,12.24-18.66,15.04Z"/>
          <path class="cls-6" d="M1117.7,100.88c10.57,5.31,20.91,29.03,19.36,31.97-.6,1.13-2.53,5.31-6.29,1.08-12.35-13.89-22.26-30.66-39.65-12.24-10.5,11.12-9.68,20.8-12.36,33.54-.72,3.41-.35,12.13-4.27,8.38-1.37-1.31-3.24-8.12-1.88-14.23-2.42,4.25-4.91,8.46-7.41,12.6-3.28,5.43-5.51-5.66.42-17.67-2.32,1.84-9.94,12.91-11.17,7.98-1.55-6.21,3.38-15.83,10.05-20.53,5.86-4.13,10.86-8.76,12.87-15.78,1.7-5.92,7.31-13.31,16.53-17.84,7.76-3.82,16.03-1.17,23.8,2.74Z"/>
          <path class="cls-6" d="M274.96,66.89c6.04-10.17,30.42-18.84,33.24-17.08,1.09.68,5.97,4.44.64,6.35-16.39,5.88-32.14,20.07-14.98,38.7,10.36,11.25,20.07,11.11,32.6,14.67,3.36.96,12.08,1.2,8.06,4.85-1.4,1.27-8.33,2.66-14.32.89,4.07,2.71,8.1,5.49,12.05,8.27,5.19,3.65-6.03,5.1-17.6-1.65,1.68,2.45,12.19,10.82,7.18,11.7-6.3,1.12-15.56-4.48-19.78-11.46-3.72-6.13-7.98-11.45-14.84-13.94-5.79-2.11-12.77-8.22-16.65-17.74-3.27-8.01-.06-16.07,4.39-23.56Z"/>
          <path class="cls-6" d="M7.03,182.93c-6.13,10.12-2.28,35.71.59,37.37,1.11.64,5.99-2.62,7.5-8.08,5.5-19.83,11.02-28.51,25.49-25.79,15.03,2.82,19.25,12.47,28.3,21.84,2.42,2.51,6.75,10.09,8.07,4.83.46-1.83-1.57-8.6-5.97-13.05,4.31,2.31,8.66,4.56,12.97,6.73,5.66,2.86,1.66-7.72-9.75-14.74,2.95.33,15.28,5.66,13.7.82-1.98-6.08-11.28-11.61-19.42-12.05-7.16-.39-13.86-1.65-19.29-6.52-4.59-4.12-13.27-7.39-23.49-6.32-8.61.89-14.2,7.52-18.71,14.97Z"/>
          <path class="cls-6" d="M386.42,27.29c-10.63-5.19-35.77.94-37.16,3.95-.54,1.16,3.15,5.73,8.72,6.74,20.24,3.69,29.38,8.41,27.98,23.06-1.45,15.23-10.69,20.3-19.21,30.15-2.28,2.64-9.44,7.63-4.08,8.47,1.87.3,8.42-2.34,12.46-7.12-1.91,4.5-3.76,9.03-5.54,13.53-2.34,5.9,7.84.96,13.8-11.04-.06,2.96-4.26,15.73.41,13.72,5.88-2.52,10.55-12.28,10.25-20.43-.26-7.16.39-13.95,4.76-19.8,3.69-4.94,6.16-13.88,4.18-23.96-1.67-8.49-8.77-13.46-16.59-17.28Z"/>
          <path class="cls-6" d="M894.86,40.11c9.63-6.86,35.44-4.92,37.31-2.17.72,1.06,3.73,4.72-1.91,4.31-17.37-1.25-37.58,7.1-29.43,31.09,4.92,14.48,13.86,18.28,23.88,26.6,2.68,2.23,10.56,5.98,5.41,7.69-1.8.6-8.69-.93-13.46-4.98,2.62,4.12,5.18,8.3,7.67,12.44,3.27,5.44-7.58,2.23-15.42-8.63.54,2.92,6.77,14.82,1.84,13.61-6.21-1.53-12.41-10.39-13.45-18.48-.92-7.11-2.67-13.7-7.93-18.76-4.44-4.27-8.35-12.69-8.05-22.96.26-8.65,6.45-14.72,13.54-19.77Z"/>
          <path class="cls-6" d="M1011.07,42.55c-7.62-9.05-31.35-7.17-33.84-4.98-.96.85-2.25,3.95,5.82,4.65,20.5,1.78,22.9,24.62,15.69,37.45-7.48,13.34-17.99,14.24-29.76,19.8-3.15,1.49-11.72,3.15-7.16,6.1,1.59,1.03,8.65,1.27,14.28-1.47-3.57,3.34-7.09,6.74-10.54,10.13-4.52,4.45,6.78,4.05,17.09-4.51-1.25,2.69-10.26,12.66-5.17,12.72,6.4.07,14.61-6.96,17.64-14.54,2.66-6.66,6-12.6,12.36-16.18,5.37-3.03,11.25-10.2,13.52-20.22,1.91-8.44-4.32-22.31-9.92-28.96Z"/>
        </g>
      </g>
    </g>
  </g>
</svg>