<?xml version="1.0" encoding="UTF-8"?>
<svg id="_圖層_2" data-name="圖層 2" xmlns="http://www.w3.org/2000/svg" viewBox="0 0 217.14 20.54">
  <defs>
    <style>
      .cls-1 {
        fill: #cbc9ca;
      }

      .cls-2 {
        fill: #373a4c;
      }
    </style>
  </defs>
  <g id="_圖層_1-2" data-name="圖層 1">
    <g>
      <path class="cls-2" d="M207.77,20.54H9.38c-2,0-3.88-1.06-4.91-2.77L.84,11.81c-1.09-1.8-1.13-3.97-.09-5.8,1.03-1.83,2.9-2.93,5.01-2.93h205.63c2.1,0,3.97,1.09,5.01,2.93,1.03,1.83,1,4-.09,5.8l-3.62,5.97c-1.03,1.71-2.92,2.77-4.91,2.77ZM5.76,7.14c-.89,0-1.32.6-1.47.86-.15.26-.43.94.03,1.7l3.62,5.97c.3.5.85.81,1.44.81h198.39c.58,0,1.14-.31,1.44-.81l3.62-5.97c.46-.76.17-1.44.03-1.7s-.58-.86-1.47-.86H5.76Z"/>
      <path class="cls-1" d="M198.43,0H18.72c-2.82,0-5.11,2.29-5.11,5.11h0c0,2.82,2.29,5.11,5.11,5.11h179.71c2.82,0,5.11-2.29,5.11-5.11h0c0-2.82-2.29-5.11-5.11-5.11Z"/>
      <path class="cls-2" d="M163.99,3.52H53.15c-.88,0-1.59.72-1.59,1.59h0c0,.88.72,1.59,1.59,1.59h110.84c.88,0,1.59-.72,1.59-1.59h0c0-.88-.72-1.59-1.59-1.59Z"/>
    </g>
  </g>
</svg>