<?xml version="1.0" encoding="UTF-8"?>
<svg id="_圖層_2" data-name="圖層 2" xmlns="http://www.w3.org/2000/svg" viewBox="0 0 117.87 310.44">
  <defs>
    <style>
      .cls-1, .cls-2, .cls-3, .cls-4, .cls-5, .cls-6 {
        fill: none;
        stroke: #493b31;
      }

      .cls-1, .cls-3, .cls-4, .cls-5 {
        stroke-linejoin: round;
      }

      .cls-7 {
        fill: #644b30;
      }

      .cls-8 {
        fill: #e36c4f;
      }

      .cls-2, .cls-3 {
        stroke-width: 2px;
      }

      .cls-2, .cls-6 {
        stroke-miterlimit: 10;
      }

      .cls-9 {
        fill: #a4b3dd;
      }

      .cls-10 {
        fill: #f4d0b8;
      }

      .cls-11 {
        fill: #fff;
      }

      .cls-12 {
        fill: #394282;
      }

      .cls-4 {
        stroke-width: .5px;
      }

      .cls-5 {
        stroke-width: .75px;
      }
    </style>
  </defs>
  <g id="_圖層_1-2" data-name="圖層 1">
    <g>
      <path class="cls-12" d="M27.93,70.35l-.62,70.07,53.23-5.32s1.73-3.02,1.73-4.68c0-1.66-1.23-4.47-1.74-7.21-1.24-6.67-2.21-18.4-2.62-22.7-1.01-10.5-1.86-42.04-1.86-42.04"/>
      <polyline class="cls-10" points="53.08 259.91 48.8 301.61 17.03 300.14 20.8 264.31"/>
      <path class="cls-7" d="M74.39,310.44H15.45s1.08-16.55,1.08-16.55l33.14.29s2.62.99,6.38,2.64c2.57,1.13,5.81,2.06,10.98,4.01,8.3,3.13,7.36,9.61,7.36,9.6Z"/>
      <line class="cls-1" x1="15.55" y1="306.64" x2="73.71" y2="306.86"/>
      <line class="cls-1" x1="48.5" y1="299.58" x2="53.55" y2="295.96"/>
      <line class="cls-1" x1="51.55" y1="300.7" x2="56.6" y2="297.08"/>
      <polyline class="cls-10" points="93.09 259.91 92.25 301.61 60.48 300.14 60.81 264.31"/>
      <path class="cls-7" d="M117.84,310.44h-58.94s1.08-16.55,1.08-16.55l33.14.29s2.61.99,6.38,2.64c2.57,1.13,5.81,2.06,10.98,4.01,8.3,3.13,7.36,9.61,7.36,9.6Z"/>
      <line class="cls-1" x1="59" y1="306.64" x2="117.29" y2="306.86"/>
      <line class="cls-1" x1="91.95" y1="299.58" x2="97" y2="295.96"/>
      <line class="cls-1" x1="95" y1="300.7" x2="100.05" y2="297.08"/>
      <path class="cls-9" d="M42.07,129.69c2.38,23.53,15.87,78.34,15.9,81.61s.92,78.66.92,78.66h34.64s-.11-60.93-.11-78.66c0-13.83-12.88-76.19-12.88-76.19"/>
      <path class="cls-9" d="M29.85,131.28c-5.05,9.86-5.74,53.91-5.74,62.39,0,8.47-6.24,96.29-6.24,96.29h33.89s5.25-62.4,7.41-78.66c2.16-16.26-3.84-75.83-3.84-75.83"/>
      <path class="cls-1" d="M43.83,137.76c2.38,23.53,14.11,70.26,14.14,73.53,0,.79.07,5.85.15,13.05"/>
      <line class="cls-1" x1="59" y1="282.68" x2="93.53" y2="282.68"/>
      <line class="cls-1" x1="18.32" y1="282.58" x2="52.39" y2="282.58"/>
      <path class="cls-1" d="M67.33,13.52c1.69-.81,3.87.21,4.87,2.28.99,2.07.43,4.41-1.27,5.23s-3.87-.21-4.87-2.28c-1-2.07-.43-4.41,1.27-5.23Z"/>
      <path class="cls-10" d="M65.79,45.97l.42-7.24c3.53-1.86,6.41-2.6,6.61-6.88.2-4.43-1.29-7.97-3.65-11.69-.48-.76-1.02-1.48-1.45-2.27-1.43-2.62-1.5-5.76-3.3-8.29-2.68-3.77-7.74-4.24-12-4.22-2.95.02-5.94.12-8.75.98s-5.49,2.56-6.95,5.12c-1.24,2.17-1.52,4.77-1.32,7.26.4,4.94,2.55,9.53,5.18,13.66,1.34,2.09,2.79,4.02,3.53,6.43.7,2.27-1.18,6.83-1.18,6.83"/>
      <path class="cls-7" d="M64.22,7.01c.13.9-.2,1.81-.6,2.63-.83,1.71-2.45,3.47-4.29,3.03.53.95,1.04,2.18.39,3.04-.27.35-.68.56-1.02.84-1.1.93-1.3,2.56-1.1,3.99.19,1.43.69,2.83.65,4.27-.07,2.34-.85,4.73-1.09,7.09-.12,1.19.29,3.79-.76,4.61-.15.12-.34.15-.52.19-1.66,0-3.09,1.04-4.5,1.78-.79.42-1.62.84-2.51.79-.89-.06-1.79-.81-1.66-1.69-.98,1.33-3,1.76-4.44.95-1.21-.69-1.88-2.02-2.63-3.19-2.26-3.52-5.9-6.25-7.06-10.27-.37-1.29-.46-2.65-.45-3.99.05-4.95,1.51-9.88,4.16-14.07,1.78-2.81,4.46-5.47,7.79-5.6,1.47-.06,3.05.37,4.34-.32.46-.25.85-.62,1.32-.85,1.09-.52,2.39-.16,3.46.38,1.08.54,2.09,1.26,3.27,1.49.62.12,1.26.1,1.88.23.93.2,1.74.75,2.53,1.28.96.65,1.98,1.4,2.51,2.39.16.31.28.64.33,1Z"/>
      <g>
        <path class="cls-10" d="M64.17,27.49c-.06,2.81-3.46,3.38-5.95,1.61-2.47-1.76-5.02-5.79-1.91-8.54,1.38-1.22,3.49-.99,4.84.11"/>
        <path class="cls-5" d="M61.2,27.56c.5-.65.43-1.58.18-2.36-.3-.92-.83-1.77-1.59-2.36s-1.76-.9-2.71-.73"/>
        <path class="cls-5" d="M58.64,26c-.32-.44-.51-.99-.5-1.53,0-.55.23-1.1.63-1.47.17-.16.38-.29.61-.31"/>
        <path class="cls-5" d="M64.16,27.79s-.11,1.33-1.61,2.15c-2.46,1.35-4.55-1.01-4.55-1.01"/>
      </g>
      <line class="cls-1" x1="71.8" y1="14.94" x2="56.3" y2="23.29"/>
      <g>
        <g>
          <path class="cls-3" d="M85.91,8.44c3.82-1.35,8.17,1.09,9.71,5.45,1.54,4.36-.31,8.99-4.13,10.34-3.82,1.35-8.17-1.09-9.71-5.45-1.54-4.36.31-8.99,4.13-10.34Z"/>
          <line class="cls-3" x1="96.33" y1="37.89" x2="91.5" y2="24.23"/>
          <path class="cls-2" d="M84.89,17.46c-.86-4.22,3.3-5.77,3.3-5.77"/>
        </g>
        <g>
          <path class="cls-10" d="M103.46,57.16s0-.03.01-.05c.82-3.46,1.75-6.93,2.46-10.41.54-2.7.84-5.96-1.09-8.21-.39-.46-.87-.87-1.1-1.43-.18-.44-.21-.97-.52-1.33-.58-.67-1.87-.45-2.32-1.22-.16-.27-.16-.6-.24-.9-.16-.62-.66-1.14-1.27-1.32-.19-.06-.4-.09-.56-.21-.31-.22-.35-.67-.59-.97-.33-.41-.98-.43-1.45-.19-.63.33-.97.94-1.32,1.51-.45.74-1.07,1.42-1.59,2.12-.04.06.06-.49.06-.49l-.72-1.98s-1.09,1.76-1.18,1.86c-.38.4-.7.85-.97,1.34-1.27,2.28-1.43,5.08-1.91,7.6-.51,2.68-1.06,5.35-1.64,8.01"/>
          <path class="cls-4" d="M91.85,37.46c1.13-1.09,2.66-4.04,2.66-4.04"/>
          <path class="cls-4" d="M97.55,36.58s.41-2.96,1.28-4.49"/>
          <path class="cls-4" d="M100.19,39.65s.73-3.21.7-5.14"/>
          <path class="cls-4" d="M103.34,42.49c.24-.98.7-4.65.7-4.65"/>
        </g>
        <path class="cls-11" d="M38.93,69.35l-9.94,22.1,10.54,23.14-14.96,27.58s-4.11-7.4-10.54-19.64c-4.86-9.26-9.31-16.75-10.13-21.78-.82-5.03,7.19-28.17,11.73-35.59,3.09-5.05,7.86-13.81,12.42-16.03,4.56-2.22,19.74-1.81,20.38-1.94"/>
        <rect class="cls-8" x="11.73" y="99.82" width="31.14" height="45.41" transform="translate(100.46 20.52) rotate(48.21)"/>
        <path class="cls-11" d="M38.18,204.16h38.3s-1.12-52.66-3.63-81.11c-1.08-12.26-4.66-69.87-4.39-70.72l-43.74,11.8s-.29,56.46-.08,57.09c.21.63-3.59,22.45-4.38,39.05-.96,20.01-1.33,43.89-1.33,43.89h14.46s2.86-19.6,2.86-19.6l1.94,19.6Z"/>
        <path class="cls-6" d="M66.06,72.99c4.71,56.7,1.02,131.17,1.02,131.17"/>
        <path class="cls-1" d="M24.71,64.13s-.11,23.67-.15,39.96"/>
        <path class="cls-7" d="M46.24,119.02c.1-.31-.38-.44-.48-.13-.59,1.85-1.31,3.67-2.15,5.43-1.47,3.1-3.3,6.03-5.45,8.7-2.15,2.68-4.6,5.11-7.31,7.23-.25.2.1.55.35.35,1.55-1.21,3.02-2.53,4.4-3.94,2.41-2.47,4.54-5.23,6.33-8.18,1.8-2.97,3.24-6.15,4.31-9.46h0Z"/>
        <path class="cls-7" d="M39.71,126.26c.23-.22-.12-.58-.35-.35-3.24,3.13-6.7,6.01-10.36,8.63-.26.19-.01.62.25.43,3.69-2.64,7.19-5.55,10.46-8.71h0Z"/>
        <path class="cls-11" d="M74.62,49.75l-3.48-7.75s-12.32-1.65-19.15-.81c-6.83.84-10.86,2.73-10.86,2.73l-1.6,5.66"/>
        <path class="cls-11" d="M62.35,71.24s10.63,29.6,16.74,35.71c9.4,9.4,18.55-1.34,20.73-8.18,1.92-6.05,7.52-42.7,7.52-42.7l-20.12-6.31-1.77,8.04s-4.08-8.15-10.07-11.13c-5.99-2.98-14.3-1.83-20.5-.69-17.73,3.24-25.3,5.37-25.3,5.37"/>
        <line class="cls-1" x1="85.45" y1="57.79" x2="98.34" y2="89.91"/>
        <line class="cls-1" x1="63.39" y1="74.08" x2="70.77" y2="92.22"/>
        <g>
          <path class="cls-6" d="M79.09,106.95c9.4,9.4,18.55-1.34,20.73-8.18,1.92-6.05,7.52-42.7,7.52-42.7l-20.12-6.31-1.77,8.04"/>
          <path class="cls-6" d="M72.04,45.47c8.22.64,13.41,12.33,13.41,12.33"/>
          <polyline class="cls-6" points="72.84 45.79 71.14 42 66.06 41.44"/>
          <polyline class="cls-6" points="40.31 47.19 41.12 43.92 43.83 42.92"/>
        </g>
        <path class="cls-1" d="M40.31,47.19s23.51-2.36,31.73-1.72"/>
        <line class="cls-1" x1="16.38" y1="93.25" x2="24.58" y2="96.44"/>
      </g>
    </g>
  </g>
</svg>