<?xml version="1.0" encoding="UTF-8"?>
<svg id="_圖層_2" data-name="圖層 2" xmlns="http://www.w3.org/2000/svg" viewBox="6 6 241.63 231.11">
  <defs>
    <style>
      .cls-1 {
        fill: #3d4654;
      }

      .cls-2 {
        fill: none;
        stroke: #5c81b7;
        stroke-linecap: round;
        stroke-miterlimit: 10;
        stroke-width: 5.13px;
      }

      .cls-3 {
        fill: #fff;
      }

      .cls-4 {
        fill: #f5f5f5;
      }

      .cls-5 {
        fill: #f7ceb6;
      }

      .blink-1 {
        animation: blink-1 4s both infinite;
      }
      .blink-2 {
        animation: blink-1 4s both infinite;
        animation-delay: .5s;
      }
      .blink-3 {
        animation: blink-1 4s both infinite;
        animation-delay: -.25s;
      }

      @keyframes blink-1 {
        0%,
        50%,
        100% {
          opacity: 1;
        }
        25%,
        75% {
          opacity: 0;
        }
      }

      .rotate-center {
        animation: rotate-center 6s ease-in-out both infinite;
        transform-origin: 148.4px 137.88px;
      }
      @keyframes rotate-center {
        0% {
          transform: rotate(0);
        }
        100% {
          transform: rotate(360deg);
        }
      }

    </style>
  </defs>
  <g id="img">
    <g id="link-img">
      <defs>
        <filter id="dropshadow" x="-50%" y="-50%" width="300%" height="300%">
          <feDropShadow
            dx="0"
            dy="0"
            stdDeviation="5"
            flood-color="#000"
            flood-opacity="0.35"
          />
        </filter>
      </defs>
      <circle class="cls-5" cx="148.4" cy="137.88" r="93.23" fill="#4A90E2" filter="url(#dropshadow)"/>
      <path class="cls-2 rotate-center" d="M164.63,54.97c34.03,6.62,60.75,33.67,66.9,67.86"/>
      <path class="cls-4" d="M202.64,146.42c1.56-5.52-2.25-11.33-7.98-11.62-3.1-.16-6.26-.86-9.16-1.79-7.24-2.34-14.62-5.83-22.1-4.47-4.84.88-9.06,3.71-13.65,5.47-7.77,2.99-16.73,2.79-24.36-.55-4.17-1.82-7.96-4.53-12.34-5.74-5.19-1.44-10.94-.43-15.49,2.43-3.29,2.06-4.5,6.29-3.31,9.98l5.17,16c1.19,3.67,4.61,6.16,8.46,6.16h83.54c3.98,0,7.47-2.65,8.56-6.47l2.66-9.41Z"/>
      <g id="hair">
        <path id="hair-3" class="cls-1" d="M141.24,145.3c1.16-10.1,3.18-20.27,7.19-29.7,3.99-9.38,10.06-18,18.17-23.93-7.45,6.74-12.37,15.68-15.25,25-2.89,9.38-3.8,19.2-3.9,29.02-.02,1.72-1.43,3.1-3.15,3.08-1.72-.02-3.1-1.43-3.09-3.15,0-.11.01-.23.02-.33Z"/>
        <path id="hair-2" class="cls-1" d="M138.7,72.69c-14.35,21.88-20.18,48.72-16.55,73.84.24,1.7-.93,3.28-2.64,3.53-1.7.24-3.28-.93-3.53-2.64-.01-.08-.02-.17-.03-.25-1.71-26.89,6.7-53.81,22.74-74.48Z"/>
        <path id="hair-1" class="cls-1" d="M192.26,71.96c-12.43,23.03-15.93,50.27-10.16,74.99.39,1.68-.65,3.35-2.32,3.74-1.68.39-3.35-.65-3.74-2.32-.02-.08-.04-.17-.05-.25-4.01-26.64,2.07-54.18,16.28-76.15Z"/>
      </g>
      <path class="cls-1" d="M119.34,196.2c.74-2.08,1.56-5.08,2.04-7.7.16-.92.66-1.28,1.58-1.12.94.16,1.26.76,1.02,1.68-.64,2.56-1.42,5.18-2.14,7.14h4.4c.8,0,1.2.4,1.2,1.2s-.4,1.2-1.2,1.2h-15.62c-.8,0-1.2-.4-1.2-1.2s.4-1.2,1.2-1.2h8.72ZM118.44,186.46h-7.22c-.78,0-1.18-.4-1.18-1.18s.4-1.18,1.18-1.18h5.9v-2.28c0-.82.42-1.24,1.24-1.24s1.24.42,1.24,1.24v2.28h6.08c.78,0,1.18.4,1.18,1.18s-.4,1.18-1.18,1.18h-7.24ZM116.64,193.92c.08.74-.24,1.1-.96,1.3-.92.24-1.42,0-1.5-.94-.1-.76-.26-1.6-.46-2.44-.2-.96-.46-1.96-.74-2.88-.26-.78.04-1.24.84-1.46.7-.18,1.18.04,1.42.72.32.94.6,1.98.86,2.98.22.94.42,1.88.54,2.72Z"/>
      <path class="cls-1" d="M130.44,182.88c0-.78.52-1.3,1.3-1.3h5.12c.78,0,1.3.52,1.3,1.3v7.24c0,.78-.52,1.3-1.3,1.3h-4.16v3.72l2.4-.58c-.16-.3-.34-.58-.5-.86-.42-.64-.28-1.12.42-1.46.56-.28,1.04-.16,1.4.36.86,1.26,1.68,2.72,2.2,3.9.26.66.04.98-.6,1.3-.8.4-1.32.24-1.62-.6-.06-.2-.16-.38-.24-.58-1.8.54-3.66,1.06-5.28,1.5-.82.22-1.22-.1-1.44-.92-.24-.84.1-1.34.96-1.52h.04v-12.8ZM135.96,185.46v-1.06c0-.4-.2-.6-.6-.6h-2.06c-.4,0-.6.2-.6.6v1.06h3.26ZM135.36,189.2c.4,0,.6-.2.6-.6v-1.04h-3.26v1.64h2.66ZM139.29,182.84c0-.78.52-1.3,1.3-1.3h5.1c.78,0,1.3.52,1.3,1.3v10.82c0,1.16-.2,1.94-.92,2.38-.42.26-.9.38-1.48.44-.84.04-1.54-.2-1.8-1-.36-1.16.16-1.56,1.38-1.54h.02c.24,0,.32-.08.32-.34v-9.04c0-.4-.2-.6-.6-.6h-1.62c-.4,0-.6.2-.6.6v13.58c0,.8-.4,1.2-1.2,1.2s-1.2-.4-1.2-1.2v-15.3Z"/>
      <path class="cls-1" d="M155.06,183.9c.62,0,.94.32.94.94s-.32.96-.94.96h-5.02c-.62,0-.94-.34-.94-.96s.32-.94.94-.94h5.02ZM149.92,193.52c0-.78.52-1.3,1.3-1.3h3.02c.78,0,1.3.52,1.3,1.3v3.46c0,.78-.52,1.3-1.3,1.3h-3.02c-.78,0-1.3-.52-1.3-1.3v-3.46ZM154.6,186.72c.6,0,.9.3.9.9s-.3.92-.9.92h-3.72c-.6,0-.9-.32-.9-.92s.3-.9.9-.9h3.72ZM154.6,189.46c.6,0,.9.3.9.9s-.3.9-.9.9h-3.72c-.6,0-.9-.3-.9-.9s.3-.9.9-.9h3.72ZM154.54,181.22c.6,0,.9.3.9.9s-.3.9-.9.9h-3.54c-.6,0-.9-.3-.9-.9s.3-.9.9-.9h3.54ZM151.84,195.9c0,.34.16.5.5.5h.64c.4,0,.6-.2.6-.6v-1.18c0-.36-.16-.52-.52-.52h-.62c-.4,0-.6.2-.6.6v1.2ZM157.5,189.22c-.62.3-1.06.16-1.36-.46-.32-.66-.2-1.08.5-1.34.24-.08.5-.18.76-.28.34-.14.7-.3,1.08-.44.6-.24,1-.02,1.16.6.12.5-.02.9-.48,1.12-.32.16-.66.32-.98.48-.22.1-.46.22-.68.32ZM158.82,182.51c.46,0,.76.3.76.76v.88c.4-.76.74-1.64.98-2.54.16-.68.6-.98,1.28-.84.68.14.96.56.78,1.24-.06.18-.1.34-.16.52h3.92c.88,0,1.32.54,1.12,1.5-.16.7-.34,1.34-.5,1.88-.16.48-.48.56-.98.46-.6-.12-.86-.46-.72-1.06.02-.08.04-.16.06-.24.1-.44-.06-.64-.46-.64h-.52v1c0,.74.3,2.08,1.78,3.18.76.4,1.56,1.22,1.08,1.94-.36.52-1.02.52-1.6.24-1.36-.86-2.16-2.18-2.38-3.02-.26.86-1.18,2.14-2.74,3.02-.58.26-1.26.3-1.6-.22-.48-.7.4-1.5,1.16-1.88,1.64-1.12,2.02-2.52,2.02-3.24v-1.02h-.36c-.22.56-.5,1.1-.78,1.56-.42.62-.84.72-1.44.28-.66-.46-.68-.94-.22-1.6.06-.1.1-.2.16-.3h-2.24c-.62,0-.92-.32-.92-.94s.3-.92.92-.92h1.6ZM157.4,192.9c0-.78.52-1.3,1.3-1.3h6.26c.78,0,1.3.52,1.3,1.3v4.32c0,.78-.52,1.3-1.3,1.3h-6.26c-.78,0-1.3-.52-1.3-1.3v-4.32ZM163.35,196.42c.4,0,.6-.2.6-.6v-1.5c0-.4-.2-.6-.6-.6h-3.14c-.4,0-.6.2-.6.6v1.5c0,.4.2.6.6.6h3.14Z"/>
      <path class="cls-1" d="M175.36,183.9c.62,0,.94.32.94.94s-.32.96-.94.96h-5.32c-.62,0-.94-.34-.94-.96s.32-.94.94-.94h5.32ZM169.94,193.52c0-.78.52-1.3,1.3-1.3h3.28c.78,0,1.3.52,1.3,1.3v3.5c0,.78-.52,1.3-1.3,1.3h-3.28c-.78,0-1.3-.52-1.3-1.3v-3.5ZM183.46,193.82c0,.78-.52,1.3-1.3,1.3h-3.48c-.78,0-1.3-.52-1.3-1.3v-5.1l-.08.1s-.02.02-.02,0c-.34-.34-.96-.86-1.5-1.26v.56c0,.26-.16.42-.42.42h-4.48c-.6,0-.9-.32-.9-.92s.3-.9.9-.9h4.9c1.12-1.28,2.02-3.06,2.66-4.94.22-.78.76-1.12,1.54-.94.84.2,1.1.68.84,1.5-.14.42-.28.82-.44,1.2h5.88c.64,0,1.06.42,1.06,1.06v.06c-.16,9.28-.28,12.46-1.02,13.48-.52.76-1.04,1-1.82,1.12-.46.08-1.08.1-1.76.1-.82-.02-1.38-.5-1.52-1.18,0-.02-.02-.04-.02-.06-.3-.66-.04-1.04.88-.98.6.02,1.1.02,1.4.02.36,0,.58-.08.78-.36.52-.58.68-3.32.8-9.92.02-.96-.18-1.16-.58-1.16h-5.08c-.28.56-.6,1.08-.92,1.58h3.7c.78,0,1.3.52,1.3,1.3v5.22ZM174.88,189.46c.6,0,.9.3.9.9s-.3.9-.9.9h-4c-.6,0-.9-.3-.9-.9s.3-.9.9-.9h4ZM174.84,181.22c.6,0,.9.3.9.9s-.3.9-.9.9h-3.88c-.6,0-.9-.3-.9-.9s.3-.9.9-.9h3.88ZM171.9,195.92c0,.34.16.5.5.5h.84c.4,0,.6-.2.6-.6v-1.18c0-.36-.16-.52-.52-.52h-.82c-.4,0-.6.2-.6.6v1.2ZM179.36,189.1v1.22h2.1v-.68c0-.36-.18-.54-.54-.54h-1.56ZM179.36,192.02v.72c0,.4.18.58.58.58h1.06c.32,0,.46-.14.46-.46v-.84h-2.1Z"/>
      <g>
        <path class="cls-3 blink-1" d="M43.01,48.31c-3.58-1.52-7.17-2.31-10.75-2.87-2.12-.32-4.24-.5-6.35-.63-.05-4.89-.27-9.77-.74-14.66-.58-5.52-1.34-11.04-2.86-16.56-1.52,5.52-2.28,11.04-2.86,16.56-.47,4.87-.69,9.74-.74,14.61-2.65.1-5.29.29-7.94.69-3.58.57-7.17,1.35-10.75,2.86,3.58,1.51,7.17,2.29,10.75,2.86,2.67.4,5.34.59,8.01.69.11,3.8.29,7.61.66,11.41.58,5.52,1.34,11.04,2.87,16.56,1.53-5.52,2.29-11.04,2.87-16.56.37-3.82.56-7.64.66-11.46,2.14-.12,4.28-.31,6.42-.63,3.58-.56,7.17-1.35,10.75-2.87Z"/>
        <path class="cls-3 blink-2" d="M60.66,16.06c-1.66-.7-3.32-1.07-4.97-1.33-.98-.15-1.96-.23-2.94-.29-.03-2.26-.13-4.52-.34-6.78-.27-2.55-.62-5.11-1.32-7.66-.7,2.55-1.05,5.11-1.32,7.66-.22,2.25-.32,4.5-.34,6.76-1.22.05-2.45.14-3.67.32-1.66.26-3.32.63-4.97,1.32,1.66.7,3.32,1.06,4.97,1.32,1.23.18,2.47.27,3.71.32.05,1.76.14,3.52.31,5.28.27,2.55.62,5.11,1.33,7.66.71-2.55,1.06-5.11,1.33-7.66.17-1.77.26-3.53.31-5.3.99-.06,1.98-.14,2.97-.29,1.65-.26,3.31-.62,4.97-1.33Z"/>
        <path class="cls-3 blink-3" d="M67.27,69.2c-1.66-.7-3.32-1.07-4.97-1.33-.98-.15-1.96-.23-2.94-.29-.03-2.26-.13-4.52-.34-6.78-.27-2.55-.62-5.11-1.32-7.66-.7,2.55-1.05,5.11-1.32,7.66-.22,2.25-.32,4.5-.34,6.76-1.22.05-2.45.14-3.67.32-1.66.26-3.32.63-4.97,1.32,1.66.7,3.32,1.06,4.97,1.32,1.23.18,2.47.27,3.71.32.05,1.76.14,3.52.31,5.28.27,2.55.62,5.11,1.33,7.66.71-2.55,1.06-5.11,1.33-7.66.17-1.77.26-3.53.31-5.3.99-.06,1.98-.14,2.97-.29,1.65-.26,3.31-.62,4.97-1.33Z"/>
      </g>
    </g>
  </g>
</svg>