<?xml version="1.0" encoding="UTF-8"?>
<svg id="_圖層_2" data-name="圖層 2" xmlns="http://www.w3.org/2000/svg" viewBox="0 0 74.46 158">
  <defs>
    <style>
      .cls-1 {
        fill: #efe2cb;
      }

      .cls-2 {
        fill: #f6caa8;
      }

      .cls-3 {
        fill: #d2ba81;
      }

      .cls-4 {
        fill: #faf7ef;
      }

      .cls-5, .cls-6 {
        opacity: .35;
      }

      .cls-6 {
        isolation: isolate;
      }

      .cls-6, .cls-7 {
        fill: #ead9b7;
      }

      #hurt-1 {
        animation: tear-flow 4s infinite ease;
        animation-delay: -1s;
      }
      .cls-1 {
        fill: #ffffff
      }
      @keyframes tear-flow {
        50% {
          opacity: 0;
        }
      }

    </style>
  </defs>
  <g id="img">
    <g id="impact-img-4">
      <path class="cls-2" d="M37.23,158c13.38,0,26.02-3.17,37.23-8.78C74.22,72.45,74.63.06,37.26,0h-.06C-.17.06.24,72.46,0,149.22c11.21,5.6,23.84,8.77,37.23,8.77Z"/>
      <path class="cls-7" d="M57.06,22.2c-4.41-6.13-11.5-9.66-18.34-9.83-6.85.17-13.94,3.7-18.34,9.83-8.19,11.41-9.72,37.77-7.47,46.81,2.71,10.89,13.92,14.7,25.81,14.87,11.9-.17,23.11-3.98,25.82-14.87,2.24-9.04.71-35.4-7.47-46.81Z"/>
      <g id="hurt-1">
        <path class="cls-1" d="M27.25,62.58c4.29,1.94,9,3.42,13.96,4.38,1.69.33,3.42-.92,3.09-2.22,0-.02,0-.04-.01-.06-.32-1.2,1.17-2.42,2.79-2.25,3.34.35,6.78.41,10.23.18,2.14-.14,3.19-2.2,1.62-3.14-5.66-3.39-14.82-3.64-21.66-.24-.65.32-1.43.4-2.08.21-2.59-.76-5.37-1.21-8.24-1.35-1.76-.08-3.24,1.4-2.52,2.56,1.17,1.86,3.86,3.12,6.78,2.81l-3.97-.9Z"/>
      </g>
      <path class="cls-6" d="M39.28,12.32c-1.88.01-3.78.31-5.65.82l-1.12,70.17c1.84.26,3.71.45,5.63.51,4.32,0,8.54-.49,12.32-1.61l1.05-65.69c-3.69-2.56-7.99-4.03-12.23-4.2Z"/>
      <path class="cls-4" d="M14.89,35.19c5.72-6.13,14.93-9.66,23.82-9.83,8.89.17,18.1,3.7,23.82,9.83.02.02.04.05.06.07-1.33-5.09-3.14-9.72-5.53-13.06-4.41-6.13-11.5-9.66-18.34-9.83-6.85.17-13.94,3.7-18.34,9.83-2.4,3.34-4.21,7.97-5.53,13.06.02-.02.04-.05.06-.07Z"/>
      <g class="cls-5">
        <path class="cls-3" d="M38.45,116.25c-11.6,0-19.34-6.89-19.46-6.99-.58-.53-.62-1.43-.09-2.02.53-.58,1.43-.63,2.02-.1.64.58,15.85,13.99,35.71-.11.65-.46,1.54-.31,2,.34.46.64.31,1.54-.34,2-7.26,5.16-14.03,6.88-19.84,6.88Z"/>
      </g>
      <g class="cls-5">
        <path class="cls-3" d="M38.42,127.83c-13.31,0-22.2-7.9-22.33-8.02-.67-.61-.72-1.65-.11-2.31s1.65-.72,2.32-.11c.73.66,18.18,16.05,40.97-.13.75-.53,1.77-.35,2.29.39.52.74.35,1.77-.39,2.29-8.33,5.92-16.1,7.9-22.76,7.9Z"/>
      </g>
    </g>
  </g>
</svg>