<?xml version="1.0" encoding="UTF-8"?>
<svg id="_圖層_2" data-name="圖層 2" xmlns="http://www.w3.org/2000/svg" viewBox="0 0 208.05 207.23">
  <defs>
    <style>
      .cls-1 {
        fill: #f7cf49;
      }

      .cls-2 {
        fill: #f6caa8;
      }

      .cls-3 {
        fill: #f5bf92;
      }

      .cls-4 {
        fill: #ea8b60;
      }

      .cls-5 {
        fill: #c3725a;
      }

      .cls-6 {
        fill: #f3ad3e;
      }

      .cls-7 {
        fill: #fff;
      }

      .cls-8 {
        fill: #afcaef;
      }

      .cls-9 {
        fill: #fbea4f;
      }

      #sun {
          transform-origin: 35.58px 35.26px;
          animation: rotate-center 10s linear infinite;
        }
      @keyframes rotate-center {
        0% {
          transform: rotate(0);
        }
        100% {
          transform: rotate(360deg);
        }
      }

      #hurt-1, #hurt-2 {
        animation: tear-flow 4s infinite ease;
        animation-delay: -.5s;
      }
      @keyframes tear-flow {
        50% {
          opacity: 0;
        }
      }

    </style>
  </defs>
  <g id="img">
    <g id="impact-img-3">
      <g>
        <path class="cls-3" d="M147.13,18.93l1.61,24.42c0,.73.73,7.46.05,7.7-2.42.87-8.57,2.76-16.51,2.76s-12.85-2.87-14.64-4.16c-.49-.35,2.15-6.5,2.2-7.11l1.61-25.24,25.69,1.63Z"/>
        <path class="cls-2" d="M161.49,40.15c-.06,0-.12,0-.18,0h-32.06s-51.45-.82-55.1,20.96c-8.61,51.31-9.35,115.69-9,122.79.02.46,6.03,8,8.19,1.64l10.17,6.87c1.03.94,2.68.29,2.81-1.11l10.65-110.07c.08-.85.77-1.51,1.61-1.55l71.65-3.35c.86-.04,1.61.58,1.75,1.44l7.63,47.53c.1.63.54,1.15,1.13,1.35l20.9,7.06c1.1.37,2.24-.46,2.23-1.64-.11-11.51-1.07-61.09-9.17-74.44-8.86-14.6-31.59-17.28-33.2-17.45Z"/>
        <path class="cls-7" d="M112.91,206.52l32.46.72c.1,0,.2,0,.3-.02,12.81-1.89,24.82-6.25,35.55-12.61.55-.33.87-.94.83-1.59l-5.65-92.13c-.05-.8.45-1.52,1.21-1.75l28.38-8.53c.78-.23,1.28-1,1.2-1.82-.79-7.89-6.59-45.99-44.95-48.59-.52-.04-1.03.18-1.38.58-3.38,3.88-22.76,23.61-49.67.8-.21-.18-.45-.3-.72-.36-3.44-.76-27.8-5.39-36.33,14.06-8,18.26-11.27,30.33-12.27,34.49-.21.89.31,1.8,1.18,2.05l29.22,8.47c.8.23,1.31,1.01,1.22,1.85l-10.59,92.15c-.08.69.26,1.37.86,1.71,8.88,4.93,18.58,8.51,28.85,10.5.1.02.19.03.29.03Z"/>
        <path class="cls-2" d="M110.82,130.46v11.83c0,.67.39,1.27.98,1.56,5.75,2.72,36.16,15.67,73.35,4.7,34.9-10.3,14.88-30.28-2.2-27.32-16.1,2.8-43.19,13.55-75.67,9.14l3.53.1Z"/>
        <path class="cls-8" d="M114.43,40.85c.34.05.66.2.91.44,1.82,1.71,10.03,8.87,19.66,8.87s17.55-7.61,19.55-9.66c.32-.32.74-.5,1.19-.5h2.82c1.33,0,2.14,1.48,1.43,2.63-2.77,4.47-9.94,13.07-24.09,13.07s-21.5-7.78-25.09-12.38c-.95-1.22.05-2.99,1.56-2.77l2.05.3Z"/>
        <path class="cls-8" d="M177.03,99.97l29.74-9.42c.87-.27,1.41-1.2,1.26-2.15l-.61-3.94c-.18-1.15-1.27-1.87-2.31-1.51l-30.24,10.39c-.99.34-1.5,1.5-1.11,2.53l1.11,2.97c.34.92,1.28,1.41,2.17,1.13Z"/>
        <path class="cls-8" d="M93.53,100.97l-31.96-9.17c-1.02-.29-1.6-1.39-1.26-2.4l1.36-4.08c.32-.95,1.33-1.49,2.29-1.21l31.96,9.17c1.02.29,1.6,1.39,1.26,2.4l-1.36,4.08c-.32.95-1.33,1.49-2.29,1.21Z"/>
        <g id="hurt-2">
          <path class="cls-4" d="M93.13,105.34c-5.33,1.42-13.93-.46-17.83,3.49-6.89,6.99-8.03,20.19-3.44,23.28.85.58,4.03-4.01,4.74-3.26,2.43,2.57.25,6.68-1.29,9.88-1.52,3.17-2.31,6.69-2.3,10.21,0,.94.79,1.69,1.72,1.68l1.44-.02c.82-.01,1.51-.61,1.64-1.43.61-3.95,3.55-7.48,7.3-8.74.76-.26,1.59.09,1.99.8,1.24,2.21.27,8.22.99,9.89l5.06-45.79Z"/>
        </g>
        <g>
          <path class="cls-2" d="M115.56,143.79c-.16-.04-.32-.05-.48-.04-1.91.12-14.64.67-18.49-4.86-2.68-3.86-5.77-8.93-7.63-12.04-.69-1.15-2.36-1.09-2.95.12-1.36,2.78-3.58,6.24-5.55,4.41-3.1-2.89,3.21-11.26,3.21-11.26,0,0-5,10.55-7.29,8.74-2.3-1.8,4.01-12.29,4.01-12.29,0,0-6.36,11.86-7.96,9.4-1.59-2.46,3.21-14.44,10.36-15.44,7.15-1,14.79,2.38,20.6,9.46,5.81,7.08,13.7,12.87,19.36,14.8,5.67,1.93,2.98,10.39.28,10.29-2.35-.09-6.45-1.03-7.48-1.27Z"/>
          <path class="cls-5" d="M79.85,128.48c.08-.06.14-.14.18-.24,1.25-2.96,5.66-8.88,5.71-8.94.2-.26.15-.64-.11-.84-.26-.2-.63-.15-.83.12-.18.25-4.54,6.1-5.85,9.19-.13.3.01.66.31.79.2.09.43.05.59-.08Z"/>
          <path class="cls-5" d="M76.02,125.5c.09-.07.17-.18.21-.3.56-1.88,3.13-6.04,4.51-8.28.77-1.25.94-1.53,1-1.7.11-.31-.05-.65-.36-.76-.3-.11-.63.05-.75.35-.07.14-.47.8-.89,1.48-1.51,2.45-4.03,6.54-4.64,8.57-.09.32.08.65.39.75.19.06.39.01.53-.1Z"/>
        </g>
        <g id="hurt-1">
          <path class="cls-4" d="M80.66,151.52c-2.78,2.83-5.19,6.03-7.14,9.5-.67,1.18.2,2.63,1.54,2.58.02,0,.04,0,.06,0,1.24-.05,2.13,1.22,1.64,2.38-1.02,2.38-1.78,4.87-2.27,7.42-.3,1.58,1.5,2.66,2.74,1.66,4.47-3.6,6.6-10.24,4.66-15.73-.18-.52-.1-1.1.22-1.55,1.27-1.77,2.29-3.73,3-5.79.44-1.27-.71-2.57-1.99-2.22-2.06.56-3.85,2.34-4.14,4.51l1.69-2.75Z"/>
        </g>
      </g>
      <g id="sun">
        <circle class="cls-9" cx="35.58" cy="35.26" r="22.19"/>
        <circle class="cls-9" cx="35.58" cy="35.26" r="23.44"/>
        <circle class="cls-6" cx="35.58" cy="35.26" r="23.44"/>
        <circle class="cls-1" cx="35.58" cy="35.26" r="18.74"/>
        <g>
          <path class="cls-6" d="M37.81,8.13l-1.77-7.7c-.13-.57-.95-.57-1.08,0l-1.77,7.71c-.17.72.4,1.39,1.14,1.36.41-.02.83-.03,1.25-.03.36,0,.72,0,1.08.02.74.03,1.3-.64,1.14-1.36Z"/>
          <path class="cls-6" d="M8.46,33.04l-8.03,1.84c-.57.13-.57.95,0,1.08l8.05,1.85c.72.17,1.4-.41,1.36-1.15-.03-.46-.04-.93-.04-1.4,0-.36,0-.72.02-1.08.03-.74-.64-1.31-1.36-1.14Z"/>
          <path class="cls-6" d="M33.11,62.37l1.83,7.97c.13.57.95.57,1.08,0l1.83-7.96c.16-.72-.4-1.39-1.14-1.36-.37.02-.74.02-1.11.02-.45,0-.89-.01-1.34-.04-.74-.04-1.31.63-1.15,1.36Z"/>
          <path class="cls-6" d="M70.55,34.81l-7.83-1.8c-.72-.16-1.39.4-1.36,1.14.02.36.02.73.02,1.1,0,.43-.01.86-.03,1.29-.04.74.63,1.31,1.36,1.14l7.84-1.8c.57-.13.57-.95,0-1.08Z"/>
          <path class="cls-6" d="M17.95,14.53l-6.79-4.25c-.5-.31-1.07.26-.76.76l4.26,6.8c.39.63,1.28.7,1.77.15.53-.59,1.09-1.16,1.67-1.69.54-.5.47-1.37-.16-1.76Z"/>
          <path class="cls-6" d="M14.76,52.77l-4.42,7.05c-.31.5.26,1.07.76.76l7.05-4.42c.63-.39.7-1.27.15-1.77-.62-.56-1.22-1.15-1.78-1.77-.5-.55-1.37-.47-1.77.15Z"/>
          <path class="cls-6" d="M52.98,56.21l6.84,4.29c.5.31,1.07-.26.76-.76l-4.28-6.82c-.39-.62-1.26-.7-1.76-.16-.54.59-1.11,1.15-1.71,1.68-.55.5-.48,1.38.14,1.77Z"/>
          <path class="cls-6" d="M56.4,17.71l4.24-6.76c.31-.5-.26-1.07-.76-.76l-6.76,4.24c-.63.39-.7,1.27-.15,1.77.58.53,1.14,1.09,1.67,1.67.5.54,1.37.47,1.77-.15Z"/>
          <path class="cls-6" d="M66.04,18.39c.43-.4.02-1.11-.54-.93l-7.53,2.31c-.71.22-1,1.04-.61,1.67.41.65.8,1.32,1.15,2.01.34.66,1.21.82,1.75.31l5.77-5.37Z"/>
          <path class="cls-6" d="M18.4,4.77c-.4-.43-1.11-.02-.93.54l2.38,7.73c.22.71,1.05,1,1.68.6.67-.44,1.36-.84,2.07-1.22.65-.34.8-1.2.3-1.74l-5.5-5.91Z"/>
          <path class="cls-6" d="M4.94,52.39c-.43.4-.02,1.11.54.93l7.84-2.41c.71-.22,1-1.05.6-1.67-.44-.69-.86-1.4-1.23-2.13-.34-.66-1.2-.81-1.75-.31l-6,5.58Z"/>
          <path class="cls-6" d="M52.58,66c.4.43,1.11.02.93-.54l-2.41-7.85c-.22-.71-1.04-1-1.67-.61-.69.44-1.4.85-2.14,1.22-.66.34-.82,1.21-.32,1.75l5.6,6.02Z"/>
          <path class="cls-6" d="M45.07,1.76c.02-.59-.77-.8-1.04-.28l-3.69,6.96c-.35.65.03,1.45.75,1.61.76.17,1.5.36,2.24.59.7.22,1.43-.28,1.45-1.02l.29-7.87Z"/>
          <path class="cls-6" d="M1.76,25.82c-.59-.02-.8.77-.28,1.04l7.26,3.85c.66.35,1.46-.03,1.61-.76.17-.81.38-1.6.62-2.38.22-.7-.28-1.42-1.02-1.45l-8.19-.3Z"/>
          <path class="cls-6" d="M25.91,69.01c-.02.59.77.8,1.04.28l3.84-7.24c.35-.65-.03-1.45-.75-1.61-.8-.18-1.59-.39-2.37-.64-.71-.23-1.43.27-1.46,1.01l-.3,8.19Z"/>
          <path class="cls-6" d="M69.22,44.95c.59.02.8-.77.28-1.04l-7.13-3.78c-.65-.35-1.45.03-1.61.75-.18.79-.39,1.56-.63,2.32-.23.71.27,1.43,1.01,1.46l8.08.29Z"/>
          <path class="cls-6" d="M65.49,53.34c.56.17.97-.53.54-.93l-5.86-5.45c-.54-.5-1.4-.35-1.74.3-.37.7-.77,1.39-1.2,2.05-.4.62-.11,1.46.6,1.67l7.67,2.36Z"/>
          <path class="cls-6" d="M53.46,5.28c.17-.56-.53-.97-.93-.54l-5.43,5.84c-.5.54-.35,1.41.31,1.75.7.36,1.38.75,2.04,1.18.62.4,1.45.1,1.67-.6l2.34-7.62Z"/>
          <path class="cls-6" d="M5.49,17.43c-.56-.17-.97.53-.54.93l5.91,5.5c.54.5,1.41.34,1.75-.32.36-.71.76-1.41,1.19-2.08.39-.62.1-1.45-.61-1.66l-7.7-2.37Z"/>
          <path class="cls-6" d="M17.52,65.5c-.17.56.53.97.93.54l5.66-6.09c.5-.54.35-1.41-.31-1.75-.75-.38-1.47-.8-2.17-1.25-.62-.4-1.45-.1-1.67.6l-2.44,7.95Z"/>
          <path class="cls-6" d="M69.4,26.87c.52-.27.31-1.06-.28-1.04l-7.89.29c-.74.03-1.24.75-1.02,1.45.23.74.43,1.48.59,2.25.16.72.95,1.1,1.61.76l6.98-3.7Z"/>
          <path class="cls-6" d="M26.9,1.39c-.27-.52-1.06-.31-1.04.28l.29,8.04c.03.74.76,1.24,1.46,1.01.75-.24,1.52-.46,2.3-.63.72-.16,1.09-.95.75-1.6l-3.76-7.1Z"/>
          <path class="cls-6" d="M1.58,43.9c-.52.27-.31,1.06.28,1.04l8.17-.3c.74-.03,1.24-.75,1.01-1.46-.25-.77-.46-1.56-.64-2.36-.16-.72-.95-1.1-1.61-.75l-7.22,3.83Z"/>
          <path class="cls-6" d="M44.08,69.38c.27.52,1.06.31,1.04-.28l-.3-8.24c-.03-.74-.75-1.24-1.45-1.02-.78.25-1.58.46-2.39.63-.72.15-1.1.95-.76,1.61l3.86,7.29Z"/>
        </g>
      </g>
    </g>
  </g>
</svg>