<?xml version="1.0" encoding="UTF-8"?>
<svg id="_圖層_2" data-name="圖層 2" xmlns="http://www.w3.org/2000/svg" viewBox="0 0 186.06 164.69">
  <defs>
    <style>
      .cls-1 {
        fill: #6ca0d5;
      }

      .cls-2 {
        fill: #29405a;
      }

      .cls-3 {
        fill: #4d4d4d;
      }

      .cls-4 {
        fill: #fff;
      }

      .cls-5 {
        fill: #666;
      }

      .cls-6 {
        fill: #afcaef;
      }

      .cls-7 {
        opacity: .64;
      }

      .cls-8 {
        opacity: .6;
      }

      .cls-9 {
        opacity: .32;
      }

      .cls-10 {
        fill: #7998d8;
      }

      .cls-11 {
        fill: #989898;
      }

      .cls-12 {
        fill: #333;
      }

      .cls-13 {
        fill: #cacaca;
      }

      .cls-14 {
        fill: #285380;
      }

      @keyframes tear-flow {
        0% {
          opacity: 0.5;
          transform: translateY(-10px);
        }
        70% {
          opacity: 1;
          transform: translateY(0px);
        }
        100% {
          opacity: 0;
        }
      }

      @keyframes tear-flow-2 {
        50% {
          opacity: 0;
        }
      }

      #eyedrop-2 {
        transform-origin: center top;
        animation: tear-flow 5s infinite ease-in-out;
      }

      #eyedrop-1, #dust {
        transform-origin: center top;
        animation: tear-flow-2 5s infinite ease;
      }

    </style>
  </defs>
  <g id="img">
    <g id="impact-img-1">
      <g id="eyedrop-2">
        <path class="cls-6" d="M29.14,88.35c9.66,10.64,13.65,26.15,10.33,40.13-.86,3.64-2.04,7.95.46,10.73,3.78,4.22,11.15-.62,12.19-6.19,1.05-5.57-1.14-11.32-.44-16.94,2.67-3.45,8.22.07,10.15,3.98s3.77,9.04,8.12,9.44c4.32.39,8.24-4.58,12.32-3.1,1.79.65,2.95,2.42,3.61,4.21,2.43,6.63-.32,13.94-.22,21.01.1,7.06,6.29,15.37,12.74,12.49,4.53-2.02,5.43-8.18,4.3-13-1.13-4.83-3.64-9.43-3.51-14.39.13-4.96,4.71-10.31,9.37-8.62,3.22,1.17,4.57,4.9,5.53,8.18,1.95,2.17,5.73.85,7.57-1.42,1.84-2.27,2.72-5.25,4.76-7.34,4.4-4.52,13.54-1.9,14.87,4.27,1.01,4.68-1.65,10.34,1.49,13.94,3.18,3.64,9.67,1.28,12.02-2.95,2.35-4.23,2.08-9.35,2.64-14.16.72-6.21,2.94-12.24,6.43-17.42,1.48-2.2,4.34-4.45,6.47-2.87,2.59,1.91,2.97,10.16,6.18,10.16,9.17,0,10.33-26.29,7.64-33.62-4.03-10.97-9.4-1.02-20.41-1.53-13.9-.64-27.98,0-41.9,0H43.59l-14.45,5.01Z"/>
      </g>
      <g id="eye">
        <path class="cls-4" d="M28.31,88.69s25.98-51.95,76.4-51.95,79.45,44.31,79.45,44.31c0,0-64.17,74.87-155.85,7.64Z"/>
        <path class="cls-2" d="M104.51,118.24c-4.44,0-8.9-.29-13.37-.86-21.17-2.73-42.61-11.96-63.74-27.45l-1.04-.76.58-1.15c.27-.54,6.75-13.35,19.57-26.36,11.88-12.06,31.62-26.43,58.2-26.43s47.04,12.24,59.6,22.5c13.59,11.1,20.83,22.04,21.13,22.5l.63.96-.75.87c-.67.78-16.62,19.13-44.17,29.47-11.94,4.48-24.21,6.72-36.63,6.72ZM30.28,88.24c46.34,33.49,85.24,29.62,109.8,20.41,23.48-8.8,38.61-23.96,42.14-27.73-2.08-2.91-8.95-11.96-19.91-20.91-12.17-9.92-32.03-21.75-57.59-21.75s-44.49,13.84-55.95,25.45c-10.35,10.48-16.59,21.09-18.47,24.52Z"/>
        <g>
          <circle class="cls-10" cx="104.69" cy="77.23" r="35.14" transform="translate(-23.95 96.65) rotate(-45)"/>
          <circle class="cls-14" cx="104.68" cy="77.27" r="20.15"/>
          <g class="cls-7">
            <circle class="cls-4" cx="85.69" cy="64.54" r="17.2" transform="translate(-21.29 56.55) rotate(-32.72)"/>
          </g>
        </g>
      </g>
      <g id="eyedrop-1" class="cls-9">
        <path class="cls-1" d="M180.62,80.04c-3.43,6.32-13.97-.68-20.22,2.88-3.72,2.12-4.47,7.23-7.49,10.27-4.88,4.92-13.2,2.64-19.38-.51-6.18-3.15-13.31-6.94-19.62-4.08-5.62,2.55-8.73,9.84-14.86,10.57-8.5,1.01-14.54-11.51-22.89-9.65-6.96,1.55-9.57,12.29-16.71,12.37-7.57.08-9.58-11.53-16.6-14.39-4.18-1.7-8.87.21-12.97,2.1,0,0,38.14,30.41,77.87,30.41,39.73,0,72.86-39.97,72.86-39.97Z"/>
      </g>
      <g id="dust" class="cls-8">
        <path class="cls-5" d="M49.58,50.41c1.69,0,1.7-2.63,0-2.63s-1.7,2.63,0,2.63h0Z"/>
        <path class="cls-5" d="M32.99,59.63h-.79c-.34,0-.69.15-.93.39-.23.23-.4.6-.39.93.03.71.58,1.32,1.32,1.32h.79c.34,0,.69-.15.93-.39.23-.23.4-.6.39-.93-.03-.71-.58-1.32-1.32-1.32h0Z"/>
        <path class="cls-11" d="M19.55,51.2c1.69,0,1.7-2.63,0-2.63-1.69,0-1.7,2.63,0,2.63h0Z"/>
        <path class="cls-5" d="M53.54,63.58c3.39,0,3.4-5.27,0-5.27-3.39,0-3.4,5.27,0,5.27h0Z"/>
        <path class="cls-11" d="M62.23,48.04c1.69,0,1.7-2.63,0-2.63-1.7,0-1.7,2.63,0,2.63h0Z"/>
        <path class="cls-5" d="M44.05,54.89h-.79c-.34,0-.69.15-.93.39-.23.23-.4.6-.39.93.03.71.58,1.32,1.32,1.32h.79c.34,0,.69-.15.93-.39.23-.23.4-.6.39-.93-.03-.71-.58-1.32-1.32-1.32h0Z"/>
        <path class="cls-5" d="M35.36,55.15c1.7,0,1.7-2.63,0-2.63s-1.7,2.63,0,2.63h0Z"/>
        <path class="cls-5" d="M63.02,52.25c2.14,0,3.95-1.82,3.95-3.95s-1.81-3.95-3.95-3.95-3.95,1.82-3.95,3.95,1.81,3.95,3.95,3.95h0Z"/>
        <path class="cls-5" d="M24.29,52.26v-.79c.02-.54-.09-1.05-.34-1.52-.16-.49-.43-.91-.82-1.27-.36-.39-.78-.66-1.27-.82-.47-.25-.98-.36-1.52-.34-.35.05-.7.09-1.05.14-.67.19-1.25.53-1.74,1.02-.21.27-.41.53-.62.8-.36.62-.54,1.28-.54,1.99v.79c-.02.54.09,1.05.34,1.52.16.49.43.91.82,1.27.36.39.78.66,1.27.82.47.25.98.36,1.52.34.35-.05.7-.09,1.05-.14.67-.19,1.25-.53,1.74-1.02.21-.27.41-.53.62-.8.36-.62.54-1.28.54-1.99h0Z"/>
        <path class="cls-5" d="M44.05,58.84c3.39,0,3.4-5.27,0-5.27-3.39,0-3.4,5.27,0,5.27h0Z"/>
        <g>
          <g>
            <circle class="cls-5" cx="40.58" cy="24.67" r="7.99"/>
            <circle class="cls-5" cx="49.41" cy="4.79" r="4.79" transform="translate(17.41 42.74) rotate(-55.4)"/>
            <path class="cls-5" d="M64.7,21.48c.71-2.55,3.36-4.04,5.91-3.33,2.55.71,4.04,3.36,3.33,5.9s-3.36,4.04-5.9,3.33c-2.55-.71-4.04-3.36-3.33-5.9Z"/>
            <circle class="cls-12" cx="51.61" cy="17.87" r="7.99"/>
            <circle class="cls-3" cx="32.44" cy="18.3" r="5.19"/>
            <circle class="cls-5" cx="36.52" cy="9.47" r="7.99"/>
            <circle class="cls-5" cx="60.89" cy="26.23" r="7.99"/>
            <circle class="cls-3" cx="49.45" cy="30.06" r="6.79"/>
            <circle class="cls-3" cx="46.01" cy="11.27" r="5.19"/>
            <circle class="cls-3" cx="61.57" cy="11.86" r="5.19"/>
            <circle class="cls-3" cx="61.93" cy="34.35" r="5.19"/>
            <circle class="cls-13" cx="41.31" cy="19.07" r="4.99" transform="translate(-4.04 22.75) rotate(-29.41)"/>
            <circle class="cls-13" cx="54.39" cy="7.8" r="4.99" transform="translate(18.7 49.58) rotate(-57.66)"/>
            <circle class="cls-13" cx="63.81" cy="18.71" r="4.99" transform="translate(-.96 33.75) rotate(-29.41)"/>
          </g>
          <g>
            <circle class="cls-5" cx="16" cy="41.23" r="7.99"/>
            <circle class="cls-5" cx="19.18" cy="19.66" r="4.79"/>
            <circle class="cls-5" cx="43.15" cy="31.64" r="4.79"/>
            <circle class="cls-12" cx="24.77" cy="31.64" r="7.99" transform="translate(-13.83 20.45) rotate(-35.78)"/>
            <circle class="cls-3" cx="6.4" cy="37.23" r="5.19"/>
            <circle class="cls-5" cx="7.99" cy="27.65" r="7.99"/>
            <circle class="cls-5" cx="35.98" cy="37.23" r="7.99"/>
            <circle class="cls-3" cx="25.97" cy="44.02" r="6.79"/>
            <circle class="cls-3" cx="17.6" cy="26.85" r="5.19"/>
            <circle class="cls-3" cx="32.76" cy="23.25" r="5.19"/>
            <circle class="cls-3" cx="39.15" cy="44.82" r="5.19"/>
            <circle class="cls-13" cx="15.19" cy="35.63" r="4.99"/>
            <circle class="cls-13" cx="24.77" cy="21.25" r="4.99"/>
            <circle class="cls-13" cx="36.76" cy="29.24" r="4.99"/>
          </g>
        </g>
        <path class="cls-5" d="M54.33,42.51c1.69,0,1.7-2.63,0-2.63s-1.7,2.63,0,2.63h0Z"/>
        <path class="cls-5" d="M73.29,36.71c3.39,0,3.4-5.27,0-5.27-3.39,0-3.4,5.27,0,5.27h0Z"/>
      </g>
    </g>
  </g>
</svg>