<?xml version="1.0" encoding="UTF-8"?>
<svg id="_圖層_2" data-name="圖層 2" xmlns="http://www.w3.org/2000/svg" viewBox="0 0 128.5 165.28">
  <defs>
    <style>
      .cls-1 {
        fill: #e3a789;
      }

      .cls-2 {
        fill: #f5bf92;
      }

      .cls-3 {
        fill: #afcaef;
      }

      .cls-4 {
        opacity: .56;
      }

      @keyframes tear-flow {
        0% {
          opacity: 0.5;
          transform: translateY(-10px);
        }
        70% {
          opacity: 1;
          transform: translateY(0px);
        }
        100% {
          opacity: 0;
        }
      }

      #nose-2 {
        transform-origin: center top;
        animation: tear-flow 5s infinite ease-in-out;
      }

      #nose-1 {
        transform-origin: center top;
        animation: tear-flow 5s infinite ease-in-out;
        animation-delay: 1s;
      }

    </style>
  </defs>
  <g id="img">
    <g id="impact-img-2">
      <g id="nose-2">
        <path class="cls-3" d="M73.03,138.91c.05,2.58,3.23,4.52,5.55,3.4,2.93-1.43,3.3-6.02,6.35-7.19,2.82-1.09,5.82,1.83,6.22,4.82.4,2.99-.85,5.92-1.65,8.84-.34,1.22-.56,2.63.16,3.67,1.52,2.18,5.22.16,5.8-2.43.58-2.59-.44-5.3-.16-7.94.28-2.64,3.2-5.37,5.36-3.82.94.67,1.29,1.89,1.52,3.03.73,3.73.7,7.6-.1,11.31-.51,2.39-1.34,4.77-1.18,7.21.16,2.44,1.66,5.03,4.07,5.43,1.99.33,3.99-.97,5-2.72,1.01-1.75,1.21-3.85,1.18-5.87-.03-2.53-.39-5.05-1.04-7.49-1.17-4.33-3.06-9.62.15-12.75,1.33-1.3,3.23-1.8,4.78-2.83,4.07-2.72,4.8-8.74,2.79-13.21-2-4.47-6.05-7.65-10.13-10.35-3.05-2.01-6.38-3.9-10.03-4.01-1.75-.05-3.49.32-5.2.73-6.91,1.67-13.63,4.09-20.02,7.19l.59,24.98Z"/>
      </g>
      <g id="nose-1">
        <path class="cls-3" d="M18.59,134.93c.74-.43,1.33-1.13,2.14-1.41,1.51-.52,3.18.71,3.71,2.22.53,1.51.25,3.17-.03,4.74-.53,2.92-1.06,5.83-1.59,8.75-.56,3.08-1.12,6.29-.28,9.31.84,3.02,3.54,5.77,6.66,5.58,2.93-.18,5.22-2.87,5.91-5.73s.14-5.85-.41-8.74c-.64-3.37-1.28-6.74-1.92-10.12-.31-1.65-.63-3.35-.26-4.99.37-1.64,1.61-3.2,3.28-3.4,2.72-.32,4.53,3.02,4.27,5.75-.26,2.73-1.71,5.24-1.96,7.97-.24,2.73,1.63,6.06,4.34,5.68,2.62-.37,3.58-3.75,3.16-6.36-.42-2.61-1.6-5.25-.9-7.8,1.01-3.72,5.46-5.44,7.22-8.88.7-1.38.93-2.96.88-4.5-.25-8.94-8.79-15.5-17.32-18.21-5.41-1.72-11.75-2.32-16.41.92-4.72,3.29-7.42,11.01-8.1,16.55-.46,3.74,1,16.48,7.61,12.67Z"/>
      </g>
      <path class="cls-1" d="M64.33,150.77c18.63,0,18.28-16.94,28.44-22.02,10.16-5.08,22.73,10.16,33.88-8.47,11.84-19.78-37.27-32.19-35.57-55.9S98.57,0,64.33,0c-31.83,0-28.44,40.66-26.75,64.37,1.69,23.72-48.04,32.75-35.57,55.9,11.86,22.02,23.72,3.39,33.88,8.47,10.16,5.08,9.81,22.02,28.44,22.02h0Z"/>
      <g class="cls-4">
        <path class="cls-2" d="M48.04,52.95c1.47,13.84,3.68,28.64-2.66,41.02-2.17,4.24-5.31,8.1-6.28,12.77-1.5,7.21,2.57,14.43,7.43,19.96,5.53,6.29,14.21,11.79,21.88,8.43,4.4-1.93,7.17-6.29,9.46-10.52,4.16-7.66,7.62-17.25,3.18-24.74-2.05-3.46-5.57-5.96-7.24-9.62-1.49-3.25-1.32-6.98-1.13-10.55.78-14.4,1.57-28.8,2.35-43.2.33-6.13,1.34-13.3-2.73-17.9-19.48-21.99-25.27,24.97-24.27,34.35Z"/>
      </g>
    </g>
  </g>
</svg>