<?xml version="1.0" encoding="UTF-8"?>
<svg id="_圖層_2" data-name="圖層 2" xmlns="http://www.w3.org/2000/svg" viewBox="0 0 77.07 109.3">
  <defs>
    <style>
      .cls-1 {
        fill: #5c81b7;
      }

      .cls-2 {
        fill: #f5f5f5;
      }
    </style>
  </defs>
  <g id="_圖層_1-2" data-name="圖層 1">
    <g>
      <path class="cls-1" d="M48.94,63.08h0s-.05-.06-.05-.06c-.06-.07-.12-.14-.19-.21L13.01,22.95c-2.83-3.16-8.07-1.4-8.42,2.82L.1,79.03l-.03.4v.02h0c-.25,3.55.17,7.21,1.38,10.8,4.89,14.61,20.71,22.49,35.32,17.6,14.61-4.89,22.49-20.71,17.6-35.32-1.21-3.59-3.08-6.76-5.42-9.45Z"/>
      <polygon class="cls-2" points="40.05 71.55 30.39 74.79 27.16 65.14 18.7 67.97 21.93 77.62 12.27 80.86 15.11 89.32 24.77 86.09 28 95.74 36.46 92.91 33.23 83.25 42.88 80.02 40.05 71.55"/>
      <path class="cls-1" d="M72.73,26.43h0l-.03-.04s-.08-.09-.12-.13L49.98,1.02c-1.79-2-5.11-.89-5.34,1.79l-2.84,33.72c0,.08-.02.17-.02.25h0c-.16,2.26.11,4.58.87,6.85,3.1,9.25,13.11,14.24,22.36,11.14,9.25-3.1,14.24-13.11,11.14-22.36-.76-2.27-1.94-4.28-3.42-5.98Z"/>
      <polygon class="cls-2" points="67.1 31.8 60.98 33.85 58.94 27.74 53.58 29.53 55.63 35.65 49.51 37.69 51.31 43.05 57.42 41.01 59.47 47.12 64.83 45.32 62.78 39.21 68.89 37.16 67.1 31.8"/>
    </g>
  </g>
</svg>