<?xml version="1.0" encoding="UTF-8"?>
<svg id="_圖層_2" data-name="圖層 2" xmlns="http://www.w3.org/2000/svg" viewBox="0 0 114.85 92.85">
  <defs>
    <style>
      .cls-1 {
        fill: #ef9275;
      }

      .cls-2 {
        fill: #5c81b7;
      }

      .cls-3 {
        fill: #fae6e5;
      }

      #icon {
          transform-origin: center center;
          animation: tear-flow 8s linear infinite;
        }
      @keyframes tear-flow {
        50% {
          opacity: 0;
        }
      }

    </style>
  </defs>
  <g id="_圖層_1-2" data-name="圖層 1">
    <g id="icon">
      <path class="cls-1" d="M12.11,55.83h0c-5.88-4.31-7.16-12.57-2.85-18.45L32.66,5.41c4.31-5.88,12.57-7.16,18.45-2.86h0c5.88,4.31,7.16,12.57,2.85,18.45l-23.4,31.97c-4.31,5.88-12.57,7.16-18.45,2.86Z"/>
      <path class="cls-2" d="M42.26,36.99l-21.31-15.6,11.7-15.98c4.31-5.88,12.57-7.16,18.45-2.86h0c5.88,4.31,7.16,12.57,2.85,18.45l-11.7,15.98Z"/>
      <rect class="cls-3" x="29.45" y="15.98" width="4.31" height="26.41" transform="translate(-10.61 37.45) rotate(-53.8)"/>
      <g>
        <path class="cls-1" d="M.03,80.52H.03c-.48-7.28,5.03-13.57,12.3-14.05l39.53-2.61c7.28-.48,13.57,5.03,14.05,12.3h0c.48,7.28-5.03,13.57-12.3,14.05l-39.53,2.61c-7.27.49-13.56-5.03-14.05-12.3Z"/>
        <path class="cls-2" d="M33.84,91.52l-1.75-26.35,19.77-1.31c7.28-.48,13.57,5.03,14.05,12.3h0c.48,7.28-5.03,13.57-12.3,14.05l-19.76,1.31Z"/>
        <rect class="cls-3" x="30.86" y="65.11" width="4.31" height="26.41" transform="translate(-5.1 2.35) rotate(-3.79)"/>
      </g>
      <g>
        <path class="cls-1" d="M108.6,85.45h0c-6.2,3.84-14.34,1.94-18.18-4.26l-20.89-33.66c-3.84-6.19-1.94-14.34,4.26-18.18h0c6.19-3.84,14.34-1.94,18.18,4.26l20.89,33.66c3.84,6.2,1.93,14.34-4.26,18.18Z"/>
        <path class="cls-2" d="M102.42,50.44l-22.44,13.92-10.44-16.83c-3.84-6.19-1.94-14.34,4.26-18.18h0c6.19-3.84,14.34-1.94,18.18,4.26l10.44,16.83Z"/>
        <rect class="cls-3" x="77.98" y="55.29" width="26.41" height="4.31" transform="translate(-16.58 56.7) rotate(-31.81)"/>
      </g>
    </g>
  </g>
</svg>