<?xml version="1.0" encoding="UTF-8"?>
<svg id="_圖層_2" data-name="圖層 2" xmlns="http://www.w3.org/2000/svg" viewBox="0 0 1901.42 144.92">
  <defs>
    <style>
      .cls-1 {
        fill: #d7e4f9;
      }
    </style>
  </defs>
  <g id="_圖層_1-2" data-name="圖層 1">
    <g>
      <g>
        <path class="cls-1" d="M124.34,126.85c-5.38,0-5.38,8.38,0,8.38s5.41-8.38,0-8.38Z"/>
        <path class="cls-1" d="M126.5,73.27c-7.46,0-7.46,11.58,0,11.58s7.48-11.58,0-11.58Z"/>
        <path class="cls-1" d="M511.06,18.45c-7.83,0-7.83,12.2,0,12.2s7.87-12.2,0-12.2Z"/>
        <path class="cls-1" d="M455.62,63.09c-1.96-4.11-8.42-4.11-10.37,0-4.36,4.27-.65,11.88,5.18,11.88s9.55-7.61,5.19-11.88Z"/>
        <path class="cls-1" d="M430.93,22.75c-10.69,0-10.69,16.6,0,16.6s10.7-16.6,0-16.6Z"/>
        <path class="cls-1" d="M50.7,65.26c-9.43,0-9.43,14.63,0,14.63s9.44-14.63,0-14.63Z"/>
        <path class="cls-1" d="M482.92,37.01c-6.29,0-6.29,9.75,0,9.75s6.29-9.75,0-9.75Z"/>
        <path class="cls-1" d="M185.96,114.44c-.2-.8-.52-1.52-.88-2.23-1.71-3.34-7.13-3.34-8.84,0-.37.71-.69,1.43-.87,2.23-.79,3.42,1.62,6.91,5.28,6.91s6.13-3.49,5.31-6.91Z"/>
        <path class="cls-1" d="M76.69,121.39c-6.88,0-6.88,10.66,0,10.66s6.89-10.66,0-10.66Z"/>
        <path class="cls-1" d="M363.81,79.33c-7.56,0-7.56,11.75,0,11.75s7.57-11.75,0-11.75Z"/>
        <path class="cls-1" d="M553.45,107.66c-2.43-1.12-4.35-1.12-6.81,0-1.92.9-3.58,3.71-3.34,5.85.07.67.14,1.35.22,2.02.94,8.41,12.16,8.41,13.09,0,.08-.67.15-1.35.24-2.02.23-2.14-1.42-4.95-3.38-5.85Z"/>
        <path class="cls-1" d="M586.88,26.13c-9.12,0-9.12,14.16,0,14.16s9.13-14.16,0-14.16Z"/>
        <path class="cls-1" d="M233.21,117.5c-.43-.12-.86-.22-1.3-.34-3.39-.87-6.85,1.64-6.85,5.21s3.46,6.1,6.85,5.22c.44-.12.87-.24,1.3-.34,4.84-1.24,4.84-8.51,0-9.76Z"/>
        <path class="cls-1" d="M312.79,43.72c-6.5,0-6.5,10.04,0,10.04s6.49-10.04,0-10.04Z"/>
        <path class="cls-1" d="M325.78,128.64c-5.9,0-5.9,9.14,0,9.14s5.88-9.14,0-9.14Z"/>
        <path class="cls-1" d="M379.91,110.7c-6.68,0-6.68,10.36,0,10.36s6.68-10.36,0-10.36Z"/>
        <path class="cls-1" d="M332.27,85.15c-11.67,0-11.67,18.12,0,18.12s11.71-18.12,0-18.12Z"/>
        <path class="cls-1" d="M280.29,130.92c-4.51,0-7.28,4.21-6.4,8.38.07.36.16.69.23,1.04,1.29,6.13,11.05,6.13,12.34,0,.07-.35.15-.68.22-1.04.87-4.16-1.88-8.38-6.39-8.38Z"/>
        <path class="cls-1" d="M593.16,78.29c.15,1.35.2,2.64,1.03,3.81,2.01,2.8,5.55,2.8,7.55,0,.86-1.16.89-2.46,1.03-3.81.63-6.2-10.22-6.2-9.6,0Z"/>
        <path class="cls-1" d="M672.15,102.39c-1.05-.37-2-.31-3.07-.25-5.49.29-5.49,8.22,0,8.52,1.07.04,2.02.11,3.07-.26,3.94-1.44,3.94-6.57,0-8.02Z"/>
        <path class="cls-1" d="M680.28,56.86c-13.65,0-13.65,21.18,0,21.18s13.63-21.18,0-21.18Z"/>
        <path class="cls-1" d="M644.35,26.01c-5.25,1.69-5.25,7.58,0,9.25,7.69,2.48,7.69-11.73,0-9.25Z"/>
        <path class="cls-1" d="M639.11,66.22c-7.16,0-7.16,11.11,0,11.11s7.18-11.11,0-11.11Z"/>
        <path class="cls-1" d="M152.51,19.66c-6.78,0-6.78,10.51,0,10.51s6.76-10.51,0-10.51Z"/>
        <path class="cls-1" d="M115.7.25c-6.68,0-6.68,10.36,0,10.36S122.35.25,115.7.25Z"/>
        <path class="cls-1" d="M113.17,40.41c-1.55-1.92-5.29-2.38-7.31-.93-.05.08-.08.15-.13.23-3.69,1.26-4.37,5.34-2.24,7.8,1.26,6.86,11.28,4.68,11.66-1.65.1-2.19-.63-3.77-1.97-5.46Z"/>
        <path class="cls-1" d="M94.18,15.21c-.19-.25-.39-.47-.6-.7-8.84-9.59-25.09-2.01-25.09,10.4s16.18,19.85,25.09,10.38c.19-.21.39-.39.6-.61,5.66-5.96,4.68-13.42,0-19.46Z"/>
        <path class="cls-1" d="M38.14,9.07c-.82-.03-1.65-.04-2.5-.08h-.54c-3.32-.06-4.95,2.53-4.9,5.1-.05,2.59,1.58,5.16,4.9,5.09.15,0,.31,0,.43,0l.11-.03c.85-.01,1.68-.03,2.5-.04,3.28.07,4.91-2.48,4.86-5.03.04-2.56-1.58-5.1-4.86-5.02Z"/>
        <path class="cls-1" d="M16.06,59.42c-5.8,0-5.8,8.98,0,8.98s5.78-8.98,0-8.98Z"/>
        <path class="cls-1" d="M5.22,123.47c-6.96,0-6.96,10.8,0,10.8s6.97-10.8,0-10.8Z"/>
        <path class="cls-1" d="M394.12,15.18c-6.48,0-6.48,10.06,0,10.06s6.48-10.06,0-10.06Z"/>
        <path class="cls-1" d="M55.71,109.16c-2.45-8.86-14.88-8.45-17.52,0-.67,2.16-1.01,4.06-.3,6.29,1.01,3.12,3.7,4.68,6.43,4.65,6.22,1.79,13.4-3.64,11.39-10.94Z"/>
        <path class="cls-1" d="M400.61,79.48c-7.36,0-7.36,11.42,0,11.42s7.37-11.42,0-11.42Z"/>
        <path class="cls-1" d="M426.62,121.65c-1.34-.77-2.81-1.14-4.35-1-7.35.6-7.35,10.79,0,11.4,1.54.14,3.01-.24,4.35-1.01,3.53-2.06,3.53-7.36,0-9.4Z"/>
        <path class="cls-1" d="M478.07,100.82c-3.15-4.41-7.97-6.99-13.5-5.47-5.11,1.4-8.74,6.19-8.74,11.52s3.63,10.11,8.74,11.53c5.54,1.51,10.36-1.08,13.5-5.49,2.41-3.38,2.41-8.69,0-12.08Z"/>
        <path class="cls-1" d="M511.06,70.52c-7.73,0-7.73,12.02,0,12.02s7.76-12.02,0-12.02Z"/>
        <path class="cls-1" d="M269.44,17.71c-6.46,0-6.46,10.06,0,10.06s6.49-10.06,0-10.06Z"/>
        <path class="cls-1" d="M269.44,62.81c-6.97,0-6.97,10.82,0,10.82s6.99-10.82,0-10.82Z"/>
        <path class="cls-1" d="M295.43,73.65c-6.97,0-6.97,10.82,0,10.82s6.99-10.82,0-10.82Z"/>
        <path class="cls-1" d="M317.1,11.75c-5.79,0-5.79,9,0,9s5.8-9,0-9Z"/>
        <path class="cls-1" d="M344.5,27.07c-.46.05-.93.08-1.4.15-10.99,1.15-10.99,15.9,0,17.05.47.06.93.11,1.4.14,4.71.5,8.68-4.32,8.68-8.66s-3.97-9.16-8.68-8.67Z"/>
        <path class="cls-1" d="M853.83,52.27c-1.96-4.11-8.42-4.11-10.38,0-4.38,4.26-.65,11.87,5.19,11.87s9.54-7.61,5.19-11.87Z"/>
        <path class="cls-1" d="M829.14,11.93c-10.69,0-10.69,16.59,0,16.59s10.7-16.59,0-16.59Z"/>
        <path class="cls-1" d="M881.13,26.17c-6.29,0-6.29,9.76,0,9.76s6.29-9.76,0-9.76Z"/>
        <path class="cls-1" d="M762.02,68.5c-7.58,0-7.58,11.74,0,11.74s7.54-11.74,0-11.74Z"/>
        <path class="cls-1" d="M778.12,99.87c-6.69,0-6.69,10.36,0,10.36s6.67-10.36,0-10.36Z"/>
        <path class="cls-1" d="M730.48,74.33c-11.69,0-11.69,18.12,0,18.12s11.7-18.12,0-18.12Z"/>
        <path class="cls-1" d="M792.32,4.36c-6.48,0-6.48,10.05,0,10.05s6.49-10.05,0-10.05Z"/>
        <path class="cls-1" d="M692.03,14.17c-6.47,0-6.47,10.04,0,10.04s6.49-10.04,0-10.04Z"/>
        <path class="cls-1" d="M798.8,68.65c-7.36,0-7.36,11.43,0,11.43s7.4-11.43,0-11.43Z"/>
        <path class="cls-1" d="M824.83,110.83c-1.35-.78-2.82-1.15-4.36-1.02-7.35.62-7.35,10.79,0,11.42,1.54.14,3.01-.25,4.36-1.02,3.52-2.06,3.52-7.35,0-9.39Z"/>
        <path class="cls-1" d="M876.28,90c-3.16-4.42-7.95-7.01-13.5-5.49-5.12,1.42-8.76,6.2-8.76,11.53s3.65,10.12,8.76,11.53c5.55,1.52,10.34-1.08,13.5-5.49,2.4-3.39,2.4-8.69,0-12.07Z"/>
        <path class="cls-1" d="M898.39,76.23c-7.58,0-7.58,11.74,0,11.74s7.55-11.74,0-11.74Z"/>
        <path class="cls-1" d="M914.5,107.6c-6.7,0-6.7,10.35,0,10.35s6.67-10.35,0-10.35Z"/>
        <path class="cls-1" d="M928.71,12.09c-6.49,0-6.49,10.06,0,10.06s6.47-10.06,0-10.06Z"/>
        <path class="cls-1" d="M935.19,76.37c-7.35,0-7.35,11.41,0,11.41s7.37-11.41,0-11.41Z"/>
        <path class="cls-1" d="M913.1,34.9c-1.35-.77-2.82-1.13-4.35-1-7.36.61-7.36,10.79,0,11.41,1.53.13,3-.24,4.35-1.02,3.51-2.05,3.51-7.34,0-9.4Z"/>
        <path class="cls-1" d="M742.7,16.23c-.46.05-.93.09-1.41.15-10.98,1.16-10.98,15.9,0,17.06.47.06.94.11,1.41.15,4.72.48,8.66-4.33,8.66-8.67s-3.95-9.16-8.66-8.68Z"/>
      </g>
      <g>
        <path class="cls-1" d="M1085.04,126.6c-5.38,0-5.38,8.38,0,8.38s5.41-8.38,0-8.38Z"/>
        <path class="cls-1" d="M1087.21,73.02c-7.46,0-7.46,11.58,0,11.58s7.48-11.58,0-11.58Z"/>
        <path class="cls-1" d="M1471.77,18.2c-7.83,0-7.83,12.2,0,12.2s7.87-12.2,0-12.2Z"/>
        <path class="cls-1" d="M1416.32,62.84c-1.96-4.11-8.42-4.11-10.37,0-4.36,4.27-.65,11.88,5.18,11.88s9.55-7.61,5.19-11.88Z"/>
        <path class="cls-1" d="M1391.64,22.5c-10.69,0-10.69,16.6,0,16.6s10.7-16.6,0-16.6Z"/>
        <path class="cls-1" d="M1011.41,65.01c-9.43,0-9.43,14.63,0,14.63s9.44-14.63,0-14.63Z"/>
        <path class="cls-1" d="M1443.63,36.77c-6.29,0-6.29,9.75,0,9.75s6.29-9.75,0-9.75Z"/>
        <path class="cls-1" d="M1146.66,114.19c-.2-.8-.52-1.52-.88-2.23-1.71-3.34-7.13-3.34-8.84,0-.37.71-.69,1.43-.87,2.23-.79,3.42,1.62,6.91,5.28,6.91s6.13-3.49,5.31-6.91Z"/>
        <path class="cls-1" d="M1037.4,121.14c-6.88,0-6.88,10.66,0,10.66s6.89-10.66,0-10.66Z"/>
        <path class="cls-1" d="M1324.51,79.08c-7.56,0-7.56,11.75,0,11.75s7.57-11.75,0-11.75Z"/>
        <path class="cls-1" d="M1514.16,107.42c-2.43-1.12-4.35-1.12-6.81,0-1.92.9-3.58,3.71-3.34,5.85.07.67.14,1.35.22,2.02.94,8.41,12.16,8.41,13.09,0,.08-.67.15-1.35.24-2.02.23-2.14-1.42-4.95-3.38-5.85Z"/>
        <path class="cls-1" d="M1547.58,25.88c-9.12,0-9.12,14.16,0,14.16s9.13-14.16,0-14.16Z"/>
        <path class="cls-1" d="M1193.92,117.25c-.43-.12-.86-.22-1.3-.34-3.39-.87-6.85,1.64-6.85,5.21s3.46,6.1,6.85,5.22c.44-.12.87-.24,1.3-.34,4.84-1.24,4.84-8.51,0-9.76Z"/>
        <path class="cls-1" d="M1273.49,43.47c-6.5,0-6.5,10.04,0,10.04s6.49-10.04,0-10.04Z"/>
        <path class="cls-1" d="M1286.48,128.39c-5.9,0-5.9,9.14,0,9.14s5.88-9.14,0-9.14Z"/>
        <path class="cls-1" d="M1340.62,110.45c-6.68,0-6.68,10.36,0,10.36s6.68-10.36,0-10.36Z"/>
        <path class="cls-1" d="M1292.98,84.9c-11.67,0-11.67,18.12,0,18.12s11.71-18.12,0-18.12Z"/>
        <path class="cls-1" d="M1241,130.67c-4.51,0-7.28,4.21-6.4,8.38.07.36.16.69.23,1.04,1.29,6.13,11.05,6.13,12.34,0,.07-.35.15-.68.22-1.04.87-4.16-1.88-8.38-6.39-8.38Z"/>
        <path class="cls-1" d="M1553.87,78.04c.15,1.35.2,2.64,1.03,3.81,2.01,2.8,5.55,2.8,7.55,0,.86-1.16.89-2.46,1.03-3.81.63-6.2-10.22-6.2-9.6,0Z"/>
        <path class="cls-1" d="M1632.86,102.14c-1.05-.37-2-.31-3.07-.25-5.49.29-5.49,8.22,0,8.52,1.07.04,2.02.11,3.07-.26,3.94-1.44,3.94-6.57,0-8.02Z"/>
        <path class="cls-1" d="M1640.99,56.61c-13.65,0-13.65,21.18,0,21.18s13.63-21.18,0-21.18Z"/>
        <path class="cls-1" d="M1605.06,25.76c-5.25,1.69-5.25,7.58,0,9.25,7.69,2.48,7.69-11.73,0-9.25Z"/>
        <path class="cls-1" d="M1599.81,65.97c-7.16,0-7.16,11.11,0,11.11s7.18-11.11,0-11.11Z"/>
        <path class="cls-1" d="M1113.22,19.41c-6.78,0-6.78,10.51,0,10.51s6.76-10.51,0-10.51Z"/>
        <path class="cls-1" d="M1076.4,0c-6.68,0-6.68,10.36,0,10.36s6.65-10.36,0-10.36Z"/>
        <path class="cls-1" d="M1073.88,40.16c-1.55-1.92-5.29-2.38-7.31-.93-.05.08-.08.15-.13.23-3.69,1.26-4.37,5.34-2.24,7.8,1.26,6.86,11.28,4.68,11.66-1.65.1-2.19-.63-3.77-1.97-5.46Z"/>
        <path class="cls-1" d="M1054.89,14.96c-.19-.25-.39-.47-.6-.7-8.84-9.59-25.09-2.01-25.09,10.4s16.18,19.85,25.09,10.38c.19-.21.39-.39.6-.61,5.66-5.96,4.68-13.42,0-19.46Z"/>
        <path class="cls-1" d="M998.85,8.82c-.82-.03-1.65-.04-2.5-.08h-.54c-3.32-.06-4.95,2.53-4.9,5.1-.05,2.59,1.58,5.16,4.9,5.09.15,0,.31,0,.43,0l.11-.03c.85-.01,1.68-.03,2.5-.04,3.28.07,4.91-2.48,4.86-5.03.04-2.56-1.58-5.1-4.86-5.02Z"/>
        <path class="cls-1" d="M976.77,59.17c-5.8,0-5.8,8.98,0,8.98s5.78-8.98,0-8.98Z"/>
        <path class="cls-1" d="M965.93,123.22c-6.96,0-6.96,10.8,0,10.8s6.97-10.8,0-10.8Z"/>
        <path class="cls-1" d="M1354.83,14.94c-6.48,0-6.48,10.06,0,10.06s6.48-10.06,0-10.06Z"/>
        <path class="cls-1" d="M1016.41,108.91c-2.45-8.86-14.88-8.45-17.52,0-.67,2.16-1.01,4.06-.3,6.29,1.01,3.12,3.7,4.68,6.43,4.65,6.22,1.79,13.4-3.64,11.39-10.94Z"/>
        <path class="cls-1" d="M1361.32,79.23c-7.36,0-7.36,11.42,0,11.42s7.37-11.42,0-11.42Z"/>
        <path class="cls-1" d="M1387.33,121.4c-1.34-.77-2.81-1.14-4.35-1-7.35.6-7.35,10.79,0,11.4,1.54.14,3.01-.24,4.35-1.01,3.53-2.06,3.53-7.36,0-9.4Z"/>
        <path class="cls-1" d="M1438.78,100.57c-3.15-4.41-7.97-6.99-13.5-5.47-5.11,1.4-8.74,6.19-8.74,11.52s3.63,10.11,8.74,11.53c5.54,1.51,10.36-1.08,13.5-5.49,2.41-3.38,2.41-8.69,0-12.08Z"/>
        <path class="cls-1" d="M1471.77,70.28c-7.73,0-7.73,12.02,0,12.02s7.76-12.02,0-12.02Z"/>
        <path class="cls-1" d="M1230.15,17.46c-6.46,0-6.46,10.06,0,10.06s6.49-10.06,0-10.06Z"/>
        <path class="cls-1" d="M1230.15,62.56c-6.97,0-6.97,10.82,0,10.82s6.99-10.82,0-10.82Z"/>
        <path class="cls-1" d="M1256.14,73.4c-6.97,0-6.97,10.82,0,10.82s6.99-10.82,0-10.82Z"/>
        <path class="cls-1" d="M1277.81,11.5c-5.79,0-5.79,9,0,9s5.8-9,0-9Z"/>
        <path class="cls-1" d="M1305.2,26.82c-.46.05-.93.08-1.4.15-10.99,1.15-10.99,15.9,0,17.05.47.06.93.11,1.4.14,4.71.5,8.68-4.32,8.68-8.66s-3.97-9.16-8.68-8.67Z"/>
        <path class="cls-1" d="M1814.53,52.02c-1.96-4.11-8.42-4.11-10.38,0-4.38,4.26-.65,11.87,5.19,11.87s9.54-7.61,5.19-11.87Z"/>
        <path class="cls-1" d="M1789.84,11.68c-10.69,0-10.69,16.59,0,16.59s10.7-16.59,0-16.59Z"/>
        <path class="cls-1" d="M1841.83,25.92c-6.29,0-6.29,9.76,0,9.76s6.29-9.76,0-9.76Z"/>
        <path class="cls-1" d="M1722.72,68.25c-7.58,0-7.58,11.74,0,11.74s7.54-11.74,0-11.74Z"/>
        <path class="cls-1" d="M1738.83,99.62c-6.69,0-6.69,10.36,0,10.36s6.67-10.36,0-10.36Z"/>
        <path class="cls-1" d="M1691.18,74.08c-11.69,0-11.69,18.12,0,18.12s11.7-18.12,0-18.12Z"/>
        <path class="cls-1" d="M1753.02,4.11c-6.48,0-6.48,10.05,0,10.05s6.49-10.05,0-10.05Z"/>
        <path class="cls-1" d="M1652.74,13.92c-6.47,0-6.47,10.04,0,10.04s6.49-10.04,0-10.04Z"/>
        <path class="cls-1" d="M1759.51,68.4c-7.36,0-7.36,11.43,0,11.43s7.4-11.43,0-11.43Z"/>
        <path class="cls-1" d="M1785.54,110.58c-1.35-.78-2.82-1.15-4.36-1.02-7.35.62-7.35,10.79,0,11.42,1.54.14,3.01-.25,4.36-1.02,3.52-2.06,3.52-7.35,0-9.39Z"/>
        <path class="cls-1" d="M1836.99,89.75c-3.16-4.42-7.95-7.01-13.5-5.49-5.12,1.42-8.76,6.2-8.76,11.53s3.65,10.12,8.76,11.53c5.55,1.52,10.34-1.08,13.5-5.49,2.4-3.39,2.4-8.69,0-12.07Z"/>
        <path class="cls-1" d="M1859.1,75.98c-7.58,0-7.58,11.74,0,11.74s7.55-11.74,0-11.74Z"/>
        <path class="cls-1" d="M1875.21,107.35c-6.7,0-6.7,10.35,0,10.35s6.67-10.35,0-10.35Z"/>
        <path class="cls-1" d="M1889.42,11.84c-6.49,0-6.49,10.06,0,10.06s6.47-10.06,0-10.06Z"/>
        <path class="cls-1" d="M1895.89,76.13c-7.35,0-7.35,11.41,0,11.41s7.37-11.41,0-11.41Z"/>
        <path class="cls-1" d="M1873.81,34.65c-1.35-.77-2.82-1.13-4.35-1-7.36.61-7.36,10.79,0,11.41,1.53.13,3-.24,4.35-1.02,3.51-2.05,3.51-7.34,0-9.4Z"/>
        <path class="cls-1" d="M1703.41,15.98c-.46.05-.93.09-1.41.15-10.98,1.16-10.98,15.9,0,17.06.47.06.94.11,1.41.15,4.72.48,8.66-4.33,8.66-8.67s-3.95-9.16-8.66-8.68Z"/>
      </g>
    </g>
  </g>
</svg>