<?xml version="1.0" encoding="UTF-8"?>
<svg id="_圖層_2" data-name="圖層 2" xmlns="http://www.w3.org/2000/svg" xmlns:xlink="http://www.w3.org/1999/xlink" viewBox="0 0 1007.58 880.98">
  <defs>
    <style>
      .cls-1, .cls-2, .cls-3 {
        fill: none;
      }

      .cls-4 {
        fill: #3d4654;
      }

      .cls-5 {
        fill: #644b30;
      }

      .cls-2 {
        stroke: #060a11;
        stroke-width: 2.33px;
      }

      .cls-2, .cls-3 {
        stroke-miterlimit: 10;
      }

      .cls-6 {
        fill: #607af1;
      }

      .cls-7 {
        fill: #f4d0b8;
      }

      .cls-8 {
        fill: #e5e5e5;
      }

      .cls-9 {
        fill: #92b3e8;
      }

      .cls-3 {
        stroke: #3d4654;
        stroke-linecap: round;
        stroke-width: 1.53px;
      }

      .cls-10 {
        fill: #a0bcea;
      }

      .cls-11 {
        fill: #fff;
      }

      .cls-12 {
        fill: #5c81b7;
      }

      .cls-13 {
        fill: #6486d7;
      }

      .cls-14 {
        fill: url(#_未命名漸層_4-2);
      }

      .cls-15 {
        fill: url(#_未命名漸層_4);
      }

      .cls-16 {
        fill: #c58067;
      }

      .cls-17 {
        fill: #bdcffa;
      }

      .cls-18 {
        fill: #91b0f8;
      }

      .cls-19 {
        fill: #d48180;
      }

      .cls-20 {
        clip-path: url(#clippath);
      }

      .cls-21 {
        fill: #1b2749;
      }


      <!-- 圓禿 -->
      @keyframes alopecia-scale-in {
        0% {
          transform: scale(0);
          opacity: 05;
        }
        10% {
          transform: scale(.25);
          opacity: .5;
        }
        25% {
          transform: scale(.5);
          opacity: 1;
        }
        80% {
          transform: scale(1.25);
          opacity: 1;
        }
        100% {
          transform: scale(1);
          opacity: 0;
        }
      }

      .alopecia-spot-2 {
        transform-origin: 467.3px 214.19px;
        animation: alopecia-scale-in 10s ease infinite;
      }

      .alopecia-spot-1 {
        transform-origin: 467.47px 126.61px;
        animation: alopecia-scale-in 10s ease infinite;
      }

      .alopecia-spot-3 {
        transform-origin: 406.5px 149.99px;
        animation: alopecia-scale-in 10s ease infinite;
      }

      <!-- 呼吸 -->
      #girl-front, #girl-back {
        animation: girl-scale 3s ease-in-out infinite;
        transform-origin: center center;
      }

      @keyframes girl-scale {
        50% {
          transform: scaleY(.99);
        }
        0%, 100% {
          transform: scaleY(1);
        }
      }

      .mouth {
        animation: mouth 3s ease-in-out infinite;
        transform-origin: center center;
      }

      @keyframes mouth {
        50% {
          transform: scale(1.01) translate(-2px, 2px);
        }
        0%, 100% {
          transform: scale(1) translate(0px, 0px);
        }
      }


      <!-- 眉毛 -->
      .brow, .eye {
        animation: girl-brow 5s ease-in-out infinite;
      }
      .brow-2, .eye-2 {
        animation: girl-brow-2 5s ease-in-out infinite;
      }

      @keyframes girl-brow {
        50% {
          transform: translate(-2px, 0px);
        }
        0%, 100% {
          transform: translate(0px, 0px);
        }
      }

      @keyframes girl-brow-2 {
        50% {
          transform: translate(2px, 0px);
        }
        0%, 100% {
          transform: translate(0px, 0px);
        }
      }

      <!-- 對話框 -->
      #kv-line-3 {
        animation: vibrate-1 2s ease-in-out infinite both;
        transform-origin: 214px 122px;
        animation-delay: -.5s;
      }

      @keyframes vibrate-1 {
        0% {
          transform: translate(0);
        }
        20% {
          transform: translate(-1px, 1px);
        }
        40% {
          transform: translate(-1px, -1px);
        }
        60% {
          transform: translate(1px, 1px);
        }
        80% {
          transform: translate(1px, -1px);
        }
        100% {
          transform: translate(0);
        }
      }
    </style>
    <linearGradient id="_未命名漸層_4" data-name="未命名漸層 4" x1="947.97" y1="15419.71" x2="676.69" y2="15125.83" gradientTransform="translate(0 15293.26) scale(1 -1)" gradientUnits="userSpaceOnUse">
      <stop offset="0" stop-color="#fff"/>
      <stop offset="1" stop-color="#fff" stop-opacity="0"/>
    </linearGradient>
    <linearGradient id="_未命名漸層_4-2" data-name="未命名漸層 4" x1="994.34" y1="15376.92" x2="723.07" y2="15083.05" xlink:href="#_未命名漸層_4"/>
    <clipPath id="clippath">
      <rect class="cls-1" x="539.55" y="13.63" width="329" height="428"/>
    </clipPath>
  </defs>
  <g id="_圖層_1-2" data-name="圖層 1">
    <g id="girl">
      <g id="washbasin">
        <g>
          <rect class="cls-13" x="527.7" y="627.32" width="352.49" height="42.15"/>
          <rect class="cls-17" x="527.7" y="491.38" width="352.49" height="135.94"/>
          <rect class="cls-13" x="691.83" y="516.72" width="24.31" height="23.89"/>
          <rect class="cls-13" x="544.95" y="540.91" width="318.04" height="70.71"/>
          <rect class="cls-18" x="544.95" y="559.84" width="318.04" height="53.26"/>
          <path class="cls-4" d="M677.76,583.1c0,3.81,11.74,6.9,26.21,6.9s26.21-3.09,26.21-6.9-11.74-6.9-26.21-6.9-26.21,3.09-26.21,6.9Z"/>
          <line class="cls-3" x1="862.34" y1="612.78" x2="544.92" y2="612.78"/>
          <line class="cls-3" x1="862.34" y1="541.03" x2="544.92" y2="541.03"/>
        </g>
        <g>
          <path class="cls-8" d="M703.94,469.18h0c-4.78,0-8.75,3.67-9.13,8.42l-3.1,38.58c-.43,5.33,3.78,9.89,9.13,9.89h6.19c5.35,0,9.56-4.56,9.13-9.89l-3.1-38.58c-.38-4.76-4.36-8.42-9.13-8.42Z"/>
          <path class="cls-11" d="M714.17,491.22l-1.06-13.24c-.36-4.45-3.71-8.27-8.16-8.75-5.21-.56-9.73,3.28-10.14,8.37l-1.09,13.62c-.23,2.88,2.05,5.34,4.94,5.34h10.58c2.89,0,5.17-2.46,4.94-5.34Z"/>
          <g>
            <path class="cls-11" d="M672.26,526.31h-29c-1.63,0-2.95-1.32-2.95-2.95v-2.12c0-1.63,1.32-2.95,2.95-2.95h29c1.63,0,2.95,1.32,2.95,2.95v2.12c0,1.63-1.32,2.95-2.95,2.95Z"/>
            <path class="cls-11" d="M661.63,504.58h-7.13v14.33h9.81v-11.66c0-1.48-1.2-2.68-2.68-2.68Z"/>
            <path class="cls-11" d="M662.45,504.58h-22.36c-1.03,0-1.86.83-1.86,1.86v1.33c0,1.03.83,1.86,1.86,1.86h22.36c1.03,0,1.86-.83,1.86-1.86v-1.33c0-1.03-.83-1.86-1.86-1.86Z"/>
          </g>
          <g>
            <path class="cls-11" d="M735.63,526.31h29c1.63,0,2.95-1.32,2.95-2.95v-2.12c0-1.63-1.32-2.95-2.95-2.95h-29c-1.63,0-2.95,1.32-2.95,2.95v2.12c0,1.63,1.32,2.95,2.95,2.95Z"/>
            <path class="cls-11" d="M746.25,504.58h7.13v14.33h-9.81v-11.66c0-1.48,1.2-2.68,2.68-2.68Z"/>
            <path class="cls-11" d="M745.43,504.58h22.36c1.03,0,1.86.83,1.86,1.86v1.33c0,1.03-.83,1.86-1.86,1.86h-22.36c-1.03,0-1.86-.83-1.86-1.86v-1.33c0-1.03.83-1.86,1.86-1.86Z"/>
          </g>
        </g>
        <path class="cls-4" d="M711.71,492.49c0,1.03-3.37,1.86-7.52,1.86s-7.52-.83-7.52-1.86,3.37-1.86,7.52-1.86,7.52.83,7.52,1.86Z"/>
      </g>
      <g>
        <rect class="cls-10" x="539.46" y="13.5" width="329.17" height="427.74"/>
        <g>
          <path class="cls-12" d="M525.54,0v454.74h357.01V0h-357.01ZM868.63,441.24h-329.17V13.5h329.17v427.74Z"/>
          <path class="cls-15" d="M554.12,331.59c54.85-54.8,109.71-109.61,164.56-164.41,49.98-49.94,99.97-99.88,149.95-149.81v-2.76h-85.32c-17.43,17.41-34.86,34.83-52.29,52.25l-191.55,191.38v88l14.65-14.64Z"/>
          <polygon class="cls-14" points="868.63 85.9 868.63 46.87 539.46 375.73 539.46 414.77 868.63 85.9"/>
        </g>
        <g class="cls-20">
          <g id="girl-front">
            <path class="cls-5" d="M702.34,89.68c44.67,0,55.05,33.91,56.58,60.03s-2.65,22.46,6.76,39.56c9.41,17.1,1.27,24.34-1.99,32.32-3.26,7.98.37,19.68,6.09,27.26s7.01,31.19,1.68,34.04-67.77,2.98-67.77,2.98l-1.36-196.19Z"/>
            <path class="cls-5" d="M701.09,89.68c-44.67,0-55.05,33.91-56.58,60.03-1.53,26.12,2.65,22.46-6.76,39.56-9.41,17.1-1.27,24.34,1.99,32.32,3.26,7.98-.37,19.68-6.09,27.26-5.72,7.58-7.01,31.19-1.68,34.04,5.33,2.85,67.77,2.98,67.77,2.98l1.36-196.19Z"/>
            <circle class="cls-5" cx="702.37" cy="142.47" r="52.8" transform="translate(104.98 538.38) rotate(-45)"/>
            <path class="cls-7" d="M892.73,260.85s13.26-21.82,10.91-47.63c-2.16-23.72-10.18-36.86-12.14-27.84,0,0-7.14-10.43-8.82.33,0,0-3.29-6.98-6.96-5.77-2.72.9-3.67,5.24-3.67,5.24,0,0-3.85-8.57-8.2-7.75-5.18.98-4.86,21.69-2.61,39.39,0,0-5.79-14.28-11.89-12.08-8.67,3.12,4.11,40.82,4.11,40.82l39.26,15.28Z"/>
            <path class="cls-5" d="M892.02,184.97l-1.4.54c.04.11,4.41,11.5,5.89,19.67l1.48-.27c-1.51-8.31-5.93-19.82-5.97-19.94Z"/>
            <path class="cls-5" d="M883.36,185.26l-1.45.39c.03.1,2.71,10.2,3.88,19.19l1.49-.19c-1.18-9.09-3.89-19.28-3.91-19.38Z"/>
            <path class="cls-5" d="M872.76,184.9l-1.43.48c.04.11,3.88,11.72,5.73,23.46l1.48-.24c-1.87-11.87-5.74-23.58-5.78-23.7Z"/>
            <path class="cls-5" d="M861.89,216.16l-1.42.48c.02.06,1.93,5.74,2.99,10.37l1.46-.33c-1.07-4.7-3.01-10.46-3.02-10.51Z"/>
            <path class="cls-6" d="M769.79,347.06c18.72,46.66,47.72,72.17,71.39,72.17,56.24,0,53.99-176.57,53.99-176.57l-38.56-1.92s2.62,39.45-17.69,114.77c-4.35,16.15-17.3-26.93-17.3-26.93l-51.83,18.48Z"/>
            <path class="cls-7" d="M753.53,170.9c-2.43,6.83-8.89,10.6-14.4,8.42-5.52-2.18-8.02-9.49-5.59-16.32,2.43-6.83,8.88-10.6,14.41-8.42,5.52,2.18,8.02,9.49,5.59,16.32"/>
            <path class="cls-5" d="M749.53,171.85l-1.13-.33c.02-.07,2.05-7.27-2.86-11.14l.73-.93c5.55,4.37,3.36,12.08,3.26,12.4Z"/>
            <path class="cls-7" d="M650.78,170.9c2.43,6.83,8.88,10.6,14.4,8.42,5.52-2.18,8.02-9.49,5.59-16.32-2.44-6.83-8.89-10.6-14.41-8.42-5.52,2.18-8.02,9.49-5.59,16.32"/>
            <path class="cls-5" d="M653.92,171.85c-.1-.33-2.29-8.03,3.26-12.4l.73.93c-4.91,3.87-2.88,11.07-2.86,11.14l-1.13.33Z"/>
            <polygon class="cls-7" points="721.64 211.56 702.64 210.07 683.64 211.56 680.68 239.33 702.64 239.33 724.6 239.33 721.64 211.56"/>
            <path class="cls-19" d="M683.64,211.56s8.53,13.14,19,13.14,19-13.14,19-13.14h-37.99Z"/>
            <path class="cls-7" d="M744.6,145.01c.02-.19.05-.38.07-.58v-.04s0,0,0,0c.14-1.46.21-2.94.21-4.44,0-24.59-18.85-44.53-42.11-44.53s-42.1,19.94-42.1,44.53c0,1.5.07,2.98.21,4.44h0v.04c.02.19.05.37.07.56l4.36,38.34c0,.08.02.16.03.24l.1.92h0c2.41,19.54,22.64,34.63,37.33,34.63s34.59-14.77,37.26-34.01h0l.05-.47c.06-.49.12-.98.17-1.47l4.35-38.16Z"/>
            <path class="cls-21" d="M648.91,423.06h0c-26.33,43.22-43.16,105.95-39.4,156.41l35.6,355.47h52.66l8.22-511.89h-57.08Z"/>
            <path class="cls-21" d="M757.26,423.06h0c26.32,43.22,45.49,105.95,41.72,156.41l-34.79,355.47h-54.13l-8.31-511.89h55.51Z"/>
            <polygon class="cls-21" points="741.65 535.27 666.62 529.2 666.62 435.42 741.65 435.42 741.65 535.27"/>
            <path class="cls-6" d="M718.3,340.49c1.12.04,2.23.08,3.34.11,2.2.07,4.4.14,6.6.22.94.02,1.88.04,2.82.06,18.06.4,36.13.71,54.2.83l3.32-14.85c11.3-45.55-14.73-91.82-65.41-96.57-12.93-.97-25.92.95-38.85,1.92l-1.24-1.92c-51.65,4.65-75.88,52.37-63.17,98.5l6.58-1.94"/>
            <path class="cls-6" d="M655.77,237.7c-65.75,27.43-50.74,83.71-50.74,83.71l24.3,14.29,16.48,87.37s54.69,31.23,114.01,0l10.69-81.49,28.91-14.53c15.26-69.83-49.96-89.35-49.96-89.35,0,0-14.42,27.59-46.5,27.59-34.16,0-47.19-27.6-47.19-27.6"/>
            <path class="cls-6" d="M785.17,261.62c29.04,35.95,36.44,66.96,36.44,66.96l-52.76,22.2,16.32-89.17Z"/>
            <path class="cls-5" d="M747.3,154l-7.43,33.72s-2.64-34.67-2.42-53.92c0,0-27.46,18.99-54.48-2.64,0,0-3.47,7.02-16.75,11.29,0,0,2.89,32.98-.46,44.1,0,0-32.26-93.41,37.95-93.41,58.67,0,43.58,60.86,43.58,60.86"/>
            <rect class="cls-5" x="756.06" y="350.85" width="25.48" height="1.77" transform="translate(315.48 1065.37) rotate(-82.16)"/>
            <rect x="651.69" y="582.84" width="102.79" height="1.07" transform="translate(114.38 1282) rotate(-89.56)"/>
            <path class="cls-6" d="M777.55,296.57s15.51,38.51-21.8,51.23l-5.12-31.76,26.92-19.46Z"/>
            <path class="cls-5" d="M759.57,347.06l-.65-1.65.83-.32c27.7-10.9,19.14-43.68,18.76-45.07l-.23-.85,1.71-.47.23.85c.1.36,9.37,35.69-19.82,47.18l-.83.33Z"/>
            <path class="cls-7" d="M681.9,227.92s-3.59,28.61,21.11,28.61,20.63-26.2,20.63-26.2l-3.41-5.63-30.08,1.21-8.25,2.02Z"/>
            <polygon class="cls-11" points="681.9 227.92 656.66 235.56 692.08 273.16 702.34 256.53 681.9 227.92"/>
            <polygon class="cls-11" points="723.45 227.92 748.68 235.56 713.26 273.16 703.01 256.53 723.45 227.92"/>
            <path class="cls-6" d="M582.36,298.7c-23.27,25.92-55.22,62.04-69.95,86.63-20.81,34.72,81.89,61.72,81.89,61.72l13.85-29.34s-38.59-23.56-36.21-26.45c16.15-19.61,50.51-42.69,62.32-59.83l-51.9-32.72Z"/>
            <path class="cls-6" d="M635.18,248.84c-29.76,17.86-59.53,57.35-59.53,57.35l33.74,34.75,25.79-92.1Z"/>
            <rect class="cls-5" x="631.8" y="338.28" width="1.77" height="25.48" transform="translate(-41.94 89.51) rotate(-7.83)"/>
            <path class="cls-6" d="M629,296.88s-13.39,39.29,21.66,50.18c0,0,3.31-29.57,3.16-29.12-.15.45-24.82-21.06-24.82-21.06Z"/>
            <path class="cls-5" d="M641.94,346.35l-.83-.32c-29.19-11.49-19.92-46.83-19.82-47.18l.23-.85,1.71.46-.23.85c-.38,1.39-8.94,34.16,18.76,45.07l.83.32-.65,1.65Z"/>
            <polygon class="cls-11" points="849.91 239.4 841.05 263.38 888.38 263.76 895.04 253.56 898.53 263.76 907.55 263.76 904.15 240.45 849.91 239.4"/>
            <g>
              <path class="cls-7" d="M602.92,413.6s20.84-2.77,29.91.16c9.08,2.93,21.06,11.1,19.33,16.63-1.74,5.53-7.65,3.38-7.65,3.38,0,0,3.16,2.39,2.13,6.69-1.03,4.3-7.11,5.18-7.11,5.18,0,0,1.19,3.16.31,5.87-.87,2.7-5.59,4.28-5.59,4.28,0,0,.44,14.44-20.66,5.99-21.09-8.45-14.06-8.65-26.53-15.14l15.86-33.03Z"/>
              <path class="cls-5" d="M634.35,456.36c-.11-.03-10.76-3.46-17.48-7.1l.4-.75c6.66,3.61,17.23,7.01,17.34,7.04l-.26.81Z"/>
              <path class="cls-5" d="M639.76,446.22c-.09-.03-9.15-3.11-16.61-6.79l.38-.76c7.4,3.65,16.41,6.72,16.5,6.75l-.27.8Z"/>
              <path class="cls-5" d="M645.2,434.83c-.1-.04-10.59-3.95-20.05-9.37l.42-.74c9.39,5.38,19.82,9.27,19.92,9.31l-.3.8Z"/>
            </g>
            <polygon class="cls-11" points="592.43 399 577.36 428.17 582.73 435.86 571.66 439.19 566.28 447.72 589.81 451.21 610.89 410.42 592.43 399"/>
            <path class="cls-5 eye" d="M715.33,166.95c0-1.73,1.4-3.12,3.12-3.12s3.12,1.4,3.12,3.12-1.4,3.12-3.12,3.12-3.12-1.4-3.12-3.12Z"/>
            <path class="cls-5 eye-2" d="M682.74,166.95c0-1.73,1.4-3.12,3.12-3.12s3.12,1.4,3.12,3.12-1.4,3.12-3.12,3.12-3.12-1.4-3.12-3.12Z"/>
            <path class="cls-11 mouth" d="M710.24,197.74c.1-.49.16-.99.16-1.5,0-4.46-3.92-8.08-8.75-8.08s-8.75,3.62-8.75,8.08c0,.51.06,1.02.16,1.5h17.18Z"/>
            <g>
              <g id="pilgarlic-5">
                <ellipse class="cls-7" cx="715.63" cy="113.01" rx="7.65" ry="4.92"/>
                <g>
                  <path class="cls-5" d="M713.98,116.29s0-.05,0-.08c0-.25-.22-.45-.49-.45s-.49.2-.49.45c0,.03,0,.06,0,.08h.95Z"/>
                  <path class="cls-5" d="M719.44,116.84s0-.05,0-.08c0-.25-.22-.45-.49-.45s-.49.2-.49.45c0,.03,0,.06,0,.08h.95Z"/>
                  <path class="cls-5" d="M719.99,111.92s0-.05,0-.08c0-.25-.22-.45-.49-.45s-.49.2-.49.45c0,.03,0,.06,0,.08h.95Z"/>
                  <path class="cls-5" d="M721.63,114.11s0-.05,0-.08c0-.25-.22-.45-.49-.45s-.49.2-.49.45c0,.03,0,.06,0,.08h.95Z"/>
                  <path class="cls-5" d="M716.16,114.11s0-.05,0-.08c0-.25-.22-.45-.49-.45s-.49.2-.49.45c0,.03,0,.06,0,.08h.95Z"/>
                  <path class="cls-5" d="M714.53,111.37s0-.05,0-.08c0-.25-.22-.45-.49-.45s-.49.2-.49.45c0,.03,0,.06,0,.08h.95Z"/>
                  <path class="cls-5" d="M717.8,109.19s0-.05,0-.08c0-.25-.22-.45-.49-.45s-.49.2-.49.45c0,.03,0,.06,0,.08h.95Z"/>
                  <path class="cls-5" d="M711.25,110.83s0-.05,0-.08c0-.25-.22-.45-.49-.45s-.49.2-.49.45c0,.03,0,.06,0,.08h.95Z"/>
                  <path class="cls-5" d="M710.7,114.11s0-.05,0-.08c0-.25-.22-.45-.49-.45s-.49.2-.49.45c0,.03,0,.06,0,.08h.95Z"/>
                </g>
              </g>
              <g id="pilgarlic-4">
                <ellipse class="cls-7" cx="686.38" cy="101.79" rx="4.65" ry="2.99"/>
                <g>
                  <path class="cls-5" d="M685.49,103.94s0-.03,0-.05c0-.15-.13-.27-.29-.27s-.29.12-.29.27c0,.02,0,.03,0,.05h.57Z"/>
                  <path class="cls-5" d="M688.77,104.27s0-.03,0-.05c0-.15-.13-.27-.29-.27s-.29.12-.29.27c0,.02,0,.03,0,.05h.57Z"/>
                  <path class="cls-5" d="M689.1,101.32s0-.03,0-.05c0-.15-.13-.27-.29-.27s-.29.12-.29.27c0,.02,0,.03,0,.05h.57Z"/>
                  <path class="cls-5" d="M690.08,102.63s0-.03,0-.05c0-.15-.13-.27-.29-.27s-.29.12-.29.27c0,.02,0,.03,0,.05h.57Z"/>
                  <path class="cls-5" d="M686.8,102.63s0-.03,0-.05c0-.15-.13-.27-.29-.27s-.29.12-.29.27c0,.02,0,.03,0,.05h.57Z"/>
                  <path class="cls-5" d="M685.82,100.99s0-.03,0-.05c0-.15-.13-.27-.29-.27s-.29.12-.29.27c0,.02,0,.03,0,.05h.57Z"/>
                  <path class="cls-5" d="M687.79,99.68s0-.03,0-.05c0-.15-.13-.27-.29-.27s-.29.12-.29.27c0,.02,0,.03,0,.05h.57Z"/>
                  <path class="cls-5" d="M683.86,100.66s0-.03,0-.05c0-.15-.13-.27-.29-.27s-.29.12-.29.27c0,.02,0,.03,0,.05h.57Z"/>
                  <path class="cls-5" d="M683.53,102.63s0-.03,0-.05c0-.15-.13-.27-.29-.27s-.29.12-.29.27c0,.02,0,.03,0,.05h.57Z"/>
                </g>
              </g>
            </g>
            <path class="cls-5 brow" d="M729.22,161.91c-4.72-1.5-10.61-2.39-16.63-2.66,0,0,.99-3.81,8.72-2.53,7.73,1.27,7.91,5.2,7.91,5.2Z"/>
            <path class="cls-5 brow-2" d="M682.79,156.72c7.73-1.28,8.72,2.53,8.72,2.53-6.01.27-11.91,1.16-16.63,2.66,0,0,.18-3.92,7.91-5.2Z"/>
            <path class="cls-16" d="M704.08,181.13c-2.52-.18-4.17-1.08-4.91-2.69-1.82-3.97,3.15-10.7,3.36-10.98l1.23.91c-1.3,1.74-4.39,6.82-3.2,9.44.48,1.05,1.7,1.66,3.62,1.8l-.11,1.52Z"/>
          </g>
        </g>
      </g>
      <g id="girl-back">
        <path class="cls-7" d="M112.6,425.29s26.6-78.5,8.55-85c-12.71-4.57-24.77,25.15-24.77,25.15,4.69-36.85,5.35-79.98-5.43-82.01-9.05-1.71-17.07,16.13-17.07,16.13,0,0-1.96-9.03-7.64-10.91-7.62-2.53-14.48,12.01-14.48,12.01-3.49-22.4-18.36-.69-18.36-.69-4.08-18.8-20.79,8.57-25.28,57.96-4.88,53.74,22.72,99.17,22.72,99.17l81.75-31.82Z"/>
        <path class="cls-5" d="M19.9,340.62l3.08.56c3.09-17.01,12.18-40.71,12.27-40.95l-2.92-1.13c-.09.24-9.28,24.22-12.43,41.52Z"/>
        <path class="cls-5" d="M42.22,340.08l3.1.4c2.43-18.72,8.01-39.74,8.07-39.96l-3.02-.8c-.05.21-5.69,21.44-8.15,40.36Z"/>
        <path class="cls-5" d="M60.4,348.31l3.09.49c3.85-24.45,11.84-48.61,11.92-48.85l-2.97-.99c-.08.24-8.15,24.64-12.04,49.35Z"/>
        <path class="cls-5" d="M88.77,385.94l3.05.7c2.19-9.64,6.18-21.47,6.22-21.58l-2.96-1c-.04.12-4.07,12.09-6.3,21.89Z"/>
        <path class="cls-6" d="M178.93,598.12s-26.96,89.7-36.02,56.08c-42.28-156.82-36.83-238.96-36.83-238.96l-80.28,3.99s-4.68,367.64,112.41,367.64c49.28,0,109.66-53.11,148.64-150.26l-107.91-38.49Z"/>
        <path class="cls-6" d="M585.22,594.52l13.69,4.05c26.46-96.06-24-195.42-131.54-205.1l-2.58,4c-26.92-2.01-53.97-6.01-80.89-4-105.53,9.89-159.73,106.23-136.19,201.08l6.91,30.93c37.62-.25,75.24-.9,112.85-1.73,1.96-.04,3.92-.08,5.87-.13,4.57-.16,9.16-.32,13.73-.46,2.32-.07,4.64-.15,6.96-.23"/>
        <path class="cls-6" d="M524.24,408.9s-27.13,57.45-98.25,57.46c-66.79,0-96.81-57.45-96.81-57.45,0,0-135.81,40.64-104.03,186.03l60.2,30.26,22.25,169.67c123.53,65.02,237.39,0,237.39,0l34.32-181.91,50.59-29.75s31.24-117.18-105.66-174.29"/>
        <path class="cls-6" d="M288.79,644.36l-109.85-46.23s15.4-64.58,75.87-139.42l33.98,185.65Z"/>
        <path class="cls-6" d="M326.74,571.99l-10.66,66.14c-77.69-26.48-45.39-106.66-45.39-106.66l56.06,40.52Z"/>
        <path class="cls-6" d="M569.02,604.05c24.58,35.7,96.13,83.75,129.75,124.58,4.95,6.01-75.39,55.08-75.39,55.08l28.83,61.08s213.84-56.21,170.51-128.5c-30.68-51.21-97.2-126.41-145.65-180.38l-108.06,68.14Z"/>
        <path class="cls-6" d="M620.8,623.88l70.26-72.35s-61.98-82.23-123.95-119.42l53.69,191.77Z"/>
        <path class="cls-6" d="M528.29,575.97c-.31-.94,6.58,60.64,6.58,60.64,72.98-22.68,45.11-104.49,45.11-104.49,0,0-51.37,44.79-51.69,43.85Z"/>
        <polygon class="cls-11" points="7.09 414.64 0 463.18 18.79 463.18 26.05 441.93 39.91 463.18 138.46 462.38 120.01 412.44 7.09 414.64"/>
        <g>
          <path class="cls-7" d="M667.3,843.93c-25.97,13.52-11.32,13.93-55.24,31.53-43.92,17.6-43.01-12.48-43.01-12.48,0,0-9.83-3.28-11.64-8.91-1.82-5.63.65-12.22.65-12.22,0,0-12.66-1.83-14.81-10.8-2.15-8.96,4.43-13.93,4.43-13.93,0,0-12.31,4.48-15.93-7.04-3.62-11.51,21.34-28.51,40.24-34.62,18.9-6.1,62.28-.33,62.28-.33l33.03,68.78Z"/>
          <path class="cls-5" d="M568.29,862.5c.22-.07,22.24-7.14,36.09-14.65l.84,1.56c-14,7.59-36.18,14.72-36.4,14.79l-.54-1.69Z"/>
          <path class="cls-5" d="M557,841.39c.18-.07,18.94-6.44,34.36-14.05l.78,1.59c-15.53,7.66-34.39,14.07-34.58,14.13l-.57-1.68Z"/>
          <path class="cls-5" d="M545.64,817.69c.22-.08,21.92-8.18,41.48-19.39l.88,1.53c-19.69,11.28-41.53,19.44-41.74,19.52l-.61-1.66Z"/>
        </g>
        <polygon class="cls-11" points="617.69 768.53 661.57 853.46 710.58 846.2 699.36 828.43 676.31 821.49 687.51 805.5 656.11 744.75 617.69 768.53"/>
        <g>
          <path class="cls-5" d="M433.97,509.2s-138.37-.28-150.17-6.21c-11.8-5.93-8.94-55.09,3.73-70.88,12.67-15.79,20.7-40.15,13.49-56.77-7.22-16.62-25.26-31.69-4.4-67.29,20.86-35.59,11.61-27.96,14.99-82.36,3.38-54.39,26.39-125,125.38-125l-3.02,408.5Z"/>
          <path class="cls-5" d="M432.71,509.2s130.01-.28,141.1-6.21c11.09-5.93,8.4-55.09-3.5-70.88-11.9-15.79-19.45-40.15-12.67-56.77,6.78-16.62,23.73-31.69,4.13-67.29-19.59-35.59-10.9-27.96-14.09-82.36-3.18-54.39-24.79-125-117.81-125l2.83,408.5Z"/>
          <rect class="cls-5" x="393.36" y="169.32" width="89.53" height="339.38"/>
        </g>
        <g>
          <g id="pilgarlic-3">
            <ellipse class="cls-7 alopecia-spot-3" cx="406.58" cy="149.99" rx="15.93" ry="10.24"/>
            <g>
              <path class="cls-5" d="M410.02,156.82c-.01-.06-.02-.11-.02-.17,0-.52.45-.93,1.01-.93s1.01.42,1.01.93c0,.06,0,.12-.02.17h-1.99Z"/>
              <path class="cls-5" d="M398.64,157.95c-.01-.06-.02-.11-.02-.17,0-.52.45-.93,1.01-.93s1.01.42,1.01.93c0,.06,0,.12-.02.17h-1.99Z"/>
              <path class="cls-5" d="M397.5,147.71c-.01-.06-.02-.11-.02-.17,0-.52.45-.93,1.01-.93s1.01.42,1.01.93c0,.06,0,.12-.02.17h-1.99Z"/>
              <path class="cls-5" d="M394.08,152.26c-.01-.06-.02-.11-.02-.17,0-.52.45-.93,1.01-.93s1.01.42,1.01.93c0,.06,0,.12-.02.17h-1.99Z"/>
              <path class="cls-5" d="M405.46,152.26c-.01-.06-.02-.11-.02-.17,0-.52.45-.93,1.01-.93s1.01.42,1.01.93c0,.06,0,.12-.02.17h-1.99Z"/>
              <path class="cls-5" d="M408.88,146.57c-.01-.06-.02-.11-.02-.17,0-.52.45-.93,1.01-.93s1.01.42,1.01.93c0,.06,0,.12-.02.17h-1.99Z"/>
              <path class="cls-5" d="M402.05,142.02c-.01-.06-.02-.11-.02-.17,0-.52.45-.93,1.01-.93s1.01.42,1.01.93c0,.06,0,.12-.02.17h-1.99Z"/>
              <path class="cls-5" d="M415.71,145.43c-.01-.06-.02-.11-.02-.17,0-.52.45-.93,1.01-.93s1.01.42,1.01.93c0,.06,0,.12-.02.17h-1.99Z"/>
              <path class="cls-5" d="M416.85,152.26c-.01-.06-.02-.11-.02-.17,0-.52.45-.93,1.01-.93s1.01.42,1.01.93c0,.06,0,.12-.02.17h-1.99Z"/>
            </g>
          </g>
          <g id="pilgarlic-2">
            <ellipse class="cls-7 alopecia-spot-2" cx="467.3" cy="214.19" rx="23.65" ry="21.44"/>
            <g>
              <path class="cls-5" d="M472.39,228.48c-.02-.12-.03-.24-.03-.36,0-1.08.67-1.96,1.5-1.96s1.5.88,1.5,1.96c0,.12-.01.25-.03.36h-2.95Z"/>
              <path class="cls-5" d="M455.5,230.86c-.02-.12-.03-.24-.03-.36,0-1.08.67-1.96,1.5-1.96s1.5.88,1.5,1.96c0,.12-.01.25-.03.36h-2.95Z"/>
              <path class="cls-5" d="M453.81,209.42c-.02-.12-.03-.24-.03-.36,0-1.08.67-1.96,1.5-1.96s1.5.88,1.5,1.96c0,.12-.01.25-.03.36h-2.95Z"/>
              <path class="cls-5" d="M448.75,218.95c-.02-.12-.03-.24-.03-.36,0-1.08.67-1.96,1.5-1.96s1.5.88,1.5,1.96c0,.12-.01.25-.03.36h-2.95Z"/>
              <path class="cls-5" d="M465.64,218.95c-.02-.12-.03-.24-.03-.36,0-1.08.67-1.96,1.5-1.96s1.5.88,1.5,1.96c0,.12-.01.25-.03.36h-2.95Z"/>
              <path class="cls-5" d="M470.71,207.04c-.02-.12-.03-.24-.03-.36,0-1.08.67-1.96,1.5-1.96.83,0,1.5.88,1.5,1.96,0,.12-.01.25-.03.36h-2.95Z"/>
              <path class="cls-5" d="M460.57,197.51c-.02-.12-.03-.24-.03-.36,0-1.08.67-1.96,1.5-1.96s1.5.88,1.5,1.96c0,.12-.01.25-.03.36h-2.95Z"/>
              <path class="cls-5" d="M480.84,204.66c-.02-.12-.03-.24-.03-.36,0-1.08.67-1.96,1.5-1.96s1.5.88,1.5,1.96c0,.12-.01.25-.03.36h-2.95Z"/>
              <path class="cls-5" d="M482.53,218.95c-.02-.12-.03-.24-.03-.36,0-1.08.67-1.96,1.5-1.96.83,0,1.5.88,1.5,1.96,0,.12-.01.25-.03.36h-2.95Z"/>
            </g>
          </g>
          <g id="pilgarlic-1">
            <ellipse class="cls-7 alopecia-spot-1" cx="467.47" cy="126.61" rx="9.67" ry="6.22"/>
            <g>
              <path class="cls-5" d="M469.32,131.1s-.01-.07-.01-.1c0-.31.27-.56.61-.56s.61.25.61.56c0,.04,0,.07-.01.1h-1.19Z"/>
              <path class="cls-5" d="M462.5,131.78s-.01-.07-.01-.1c0-.31.27-.56.61-.56s.61.25.61.56c0,.04,0,.07-.01.1h-1.19Z"/>
              <path class="cls-5" d="M461.82,125.64s-.01-.07-.01-.1c0-.31.27-.56.61-.56s.61.25.61.56c0,.04,0,.07-.01.1h-1.19Z"/>
              <path class="cls-5" d="M459.78,128.37s-.01-.07-.01-.1c0-.31.27-.56.61-.56s.61.25.61.56c0,.04,0,.07-.01.1h-1.19Z"/>
              <path class="cls-5" d="M466.6,128.37s-.01-.07-.01-.1c0-.31.27-.56.61-.56s.61.25.61.56c0,.04,0,.07-.01.1h-1.19Z"/>
              <path class="cls-5" d="M468.64,124.96s-.01-.07-.01-.1c0-.31.27-.56.61-.56s.61.25.61.56c0,.04,0,.07-.01.1h-1.19Z"/>
              <path class="cls-5" d="M464.55,122.23s-.01-.07-.01-.1c0-.31.27-.56.61-.56s.61.25.61.56c0,.04,0,.07-.01.1h-1.19Z"/>
              <path class="cls-5" d="M472.74,124.27s-.01-.07-.01-.1c0-.31.27-.56.61-.56s.61.25.61.56c0,.04,0,.07-.01.1h-1.19Z"/>
              <path class="cls-5" d="M473.42,128.37s-.01-.07-.01-.1.27-.56.61-.56.61.25.61.56,0,.07-.01.1h-1.19Z"/>
            </g>
          </g>
        </g>
      </g>
      <g id="kv-line-3">
        <path class="cls-9" d="M147.18,94.89c-15.44,35.68.96,77.11,36.64,92.56,24,10.39,50.59,6.35,70.14-8.26,5.42,5.6,16.21,10.99,29.92,10.27,5.13-.27-14-8.16-19.83-19.83,5.91-6.01,8.78-10.62,12.33-18.82,15.44-35.68-.96-77.11-36.64-92.56-35.68-15.44-77.11.96-92.56,36.64Z"/>
        <path class="cls-11" d="M270.89,104.39c-2.04-5.58-4.8-10.87-8.31-15.62-3.48-4.77-7.7-9-12.41-12.62-4.72-3.61-9.96-6.56-15.55-8.86,5.9,1.37,11.55,3.95,16.61,7.39,5.08,3.43,9.57,7.76,13.22,12.72,3.62,4.98,6.41,10.56,8.15,16.43,1.76,5.86,2.51,12.03,2.05,18.06-.51-6.03-1.76-11.91-3.78-17.5Z"/>
        <path class="cls-11" d="M154.24,142.69c2.03,5.58,4.79,10.87,8.3,15.63,3.48,4.78,7.7,9,12.4,12.62,4.72,3.61,9.96,6.57,15.55,8.87-5.9-1.37-11.55-3.95-16.61-7.39-5.08-3.43-9.56-7.76-13.22-12.72-3.62-4.98-6.41-10.56-8.15-16.44-1.75-5.87-2.51-12.03-2.05-18.06.51,6.03,1.75,11.91,3.77,17.5Z"/>
        <path id="kv-line-3-2" data-name="kv-line-3" class="cls-2" d="M199.11,108.14c-6.17,4.38-7.6,13.09-6.42,20.57,2.72,17.24,17.41,31.89,34.65,34.58,4.7.73,9.71.61,13.98-1.5,5.63-2.78,9.26-8.8,10.08-15.03.81-6.23-.92-12.59-3.89-18.13-6.19-11.56-17.98-19.94-30.93-22-6.93-1.1-14.77-.17-19.64,4.87-3.44,3.56-4.88,8.69-4.84,13.63.07,10.74,7.1,21.11,17.04,25.17,9.95,4.05,22.22,1.55,29.78-6.08,2.44-2.46,4.42-5.41,5.67-8.65,1.71-4.42,2.05-9.28,1.55-13.99-1.27-11.91-8.08-23.11-18.07-29.72-3.99-2.64-9.75-4.38-13.19-1.07-2.89,2.78-2.36,7.59-.79,11.28,2.3,5.41,6.39,10.03,11.48,12.98,3.05,1.77,6.54,2.95,10.07,2.74,3.52-.21,7.05-1.99,8.82-5.05,2.05-3.54,1.42-8.1-.31-11.8-2.23-4.78-6.41-8.82-11.55-10-5.14-1.19-11.11.97-13.61,5.61-2.09,3.88-1.54,8.66-.22,12.87,1.24,3.94,3.11,7.69,5.52,11.05,2.99,4.17,7.37,7.97,12.49,7.88,6.85-.12,11.58-6.94,13.82-13.41,1.56-4.52,2.52-9.25,2.82-14.03.1-1.53.03-3.29-1.16-4.26-2.18-1.77-5.19.87-6.53,3.34-5.73,10.56-7.22,22.99-12.84,33.61-4.74,8.96-12.42,16.35-21.55,20.74-5.27,2.53-11.13,4.1-16.95,3.58-5.82-.52-11.58-3.32-14.89-8.14-1.92-2.8-2.78-7.01-.32-9.36,1.69-1.61,4.29-1.72,6.61-1.54,5.78.44,11.42,2.07,17.19,2.68,5.77.61,11.98.09,16.69-3.31,3.23-2.34,5.46-5.83,7.05-9.49,6.68-15.41,1.92-34.99-11.1-45.6-2.25-1.84-4.73-3.43-7.41-4.56-11.79-4.98-26.58.28-33.7,10.92-7.12,10.64-6.78,25.37-.36,36.44,3.46,5.97,8.6,11.04,14.87,13.92,3.33,1.53,7.09,2.44,10.69,1.73,5.49-1.07,9.8-5.93,11.08-11.38,1.27-5.45-.18-11.3-3.08-16.08-2.42-3.99-5.95-7.44-10.33-9.09-4.37-1.64-9.62-1.26-13.32,1.59-3.95,3.04-5.59,8.4-5.18,13.37.42,4.97,2.62,9.61,5.18,13.88,1.7,2.84,3.72,5.7,6.73,7.07,3.01,1.38,7.21.64,8.63-2.35.59-1.25.63-2.69.65-4.07.09-5.92.19-11.83.28-17.75.05-2.94.1-5.94,1.04-8.72,1.74-5.17,6.5-9.03,11.8-10.33,5.3-1.3,11.01-.22,15.84,2.31,7.61,3.99,13.26,11.83,13.93,20.4.67,8.57-4,17.5-11.73,21.25-9.95,4.84-22.36.48-30.3-7.23-6.39-6.21-10.82-14.86-10.43-23.76.39-8.9,6.31-17.73,14.92-20.04,8.52-2.29,17.82,2.12,23.33,9.02,5.02,6.29,7.42,14.61,6.53,22.61-.89,8-5.06,15.59-11.34,20.63-5.64,4.52-13.82,6.9-20.14,3.4-1.13-.62-2.2-1.46-2.77-2.61-1.34-2.68.5-5.96,2.94-7.69s5.44-2.52,7.94-4.17c5.8-3.83,7.84-11.91,5.81-18.56-2.03-6.65-7.42-11.87-13.56-15.14-3.18-1.69-6.74-2.97-10.33-2.6-7.08.73-12.09,7.72-13.39,14.72-.94,5.1-.27,10.79,3.11,14.72,4.08,4.75,10.93,5.84,17.18,6.24,4.88.31,9.83.4,14.6-.72,4.76-1.11,9.36-3.53,12.3-7.44,1.84-2.44,2.96-5.38,3.43-8.41,1.08-6.93-1.41-14.32-6.46-19.18-2.75-2.65-6.62-4.62-10.32-3.69"/>
      </g>
      <g id="kv-line-2">
        <path class="cls-6" d="M1001.08,121.99c-2.65,1.11-5.36,2.08-8.08,3.01-2.72.92-5.46,1.79-8.21,2.61-2.75.84-5.51,1.63-8.27,2.39-2.77.77-5.53,1.52-8.32,2.21l.53-2.32c3.73,2.94,7.48,5.86,11.19,8.84l2.15,1.73-2.65.8-6.55,1.97c-2.18.67-4.38,1.28-6.57,1.92-4.38,1.28-8.77,2.53-13.17,3.74l.4-2.36c3.09,2.26,6.17,4.54,9.23,6.84l1.59,1.19-1.77.8-11.88,5.34-11.9,5.29-11.94,5.22-11.98,5.14,11.63-5.88,11.67-5.79,11.7-5.73,11.72-5.68-.18,1.99c-3.16-2.16-6.31-4.35-9.44-6.55l-2.19-1.54,2.6-.82c4.35-1.38,8.72-2.7,13.09-4.01,2.19-.65,4.37-1.33,6.56-1.95l6.58-1.9-.5,2.53c-3.7-2.98-7.36-6.02-11.03-9.04l-2.11-1.74,2.64-.58,16.76-3.71,8.37-1.9c2.79-.65,5.58-1.3,8.35-2.03Z"/>
        <path class="cls-6" d="M1007.58,166.23c-2.48.15-4.96.16-7.44.13-2.48-.04-4.96-.12-7.44-.26-2.48-.11-4.95-.28-7.42-.47-2.47-.18-4.94-.38-7.41-.64l1.29-2c2.17,3.49,4.36,6.96,6.48,10.47l1.43,2.36-2.76-.16-5.9-.33c-1.97-.1-3.93-.25-5.9-.38-3.93-.26-7.86-.54-11.79-.88l1.18-2.08c1.83,2.75,3.65,5.51,5.45,8.29l.95,1.47-1.68.31-11.36,2.12-11.37,2.06-11.38,1.99c-3.8.66-7.6,1.29-11.4,1.9,3.74-.92,7.49-1.82,11.24-2.7l11.26-2.61,11.27-2.54,11.28-2.49-.72,1.79c-1.93-2.68-3.85-5.38-5.74-8.09l-1.53-2.19,2.72.11c3.94.15,7.87.36,11.8.6,1.97.12,3.93.21,5.9.35l5.89.4-1.33,2.2c-2.12-3.51-4.18-7.06-6.26-10.6l-1.39-2.37,2.68.37,14.68,2,7.35.98c2.45.31,4.9.64,7.37.89Z"/>
        <path class="cls-6" d="M961.83,108.81c-1.65,1.29-3.37,2.49-5.11,3.65-1.75,1.15-3.51,2.28-5.3,3.35-1.78,1.1-3.58,2.15-5.39,3.18-1.81,1.04-3.62,2.07-5.47,3.05l-.04-2.38c3.15,1.42,6.31,2.81,9.45,4.27l2.49,1.16-2.38,1.41-4.28,2.54c-1.42.86-2.87,1.66-4.31,2.49-2.87,1.66-5.76,3.3-8.67,4.89l-.17-2.39c2.57,1.07,5.13,2.16,7.68,3.28l2,.87-1.78,1.16-8.77,5.71-8.8,5.66-8.84,5.6c-2.95,1.86-5.92,3.7-8.89,5.53,2.8-2.08,5.61-4.15,8.43-6.2l8.49-6.13,8.53-6.07,8.56-6.02.22,2.03c-2.61-.96-5.22-1.94-7.82-2.94l-2.48-.96,2.31-1.43c2.82-1.75,5.67-3.45,8.53-5.13,1.43-.84,2.85-1.7,4.29-2.52l4.32-2.47.12,2.57c-3.13-1.46-6.23-2.99-9.34-4.5l-2.48-1.21,2.44-1.18,11.24-5.41,5.62-2.71c1.87-.91,3.75-1.81,5.62-2.76Z"/>
      </g>
      <g id="kv-line-1">
        <path class="cls-6" d="M164.81,320.57c2.61-1.19,5.18-2.46,7.75-3.72l7.69-3.82,15.33-7.73,2.42-1.22-.54,2.68c-.93,4.66-1.84,9.33-2.82,13.98l-1.99-1.64,6.3-2.69c2.09-.91,4.21-1.76,6.32-2.64,4.21-1.76,8.43-3.49,12.67-5.18l2.53-1.01-.72,2.58c-1.03,3.69-2.09,7.37-3.17,11.04l-1.35-1.43,12.89-2.43,12.9-2.37,12.92-2.31,12.93-2.21-12.77,3.01-12.79,2.92-12.8,2.85-12.81,2.8-1.8.39.45-1.83c.92-3.72,1.86-7.43,2.82-11.14l1.81,1.58c-4.17,1.85-8.36,3.65-12.57,5.44-2.1.89-4.19,1.8-6.3,2.67l-6.32,2.62-2.56,1.06.57-2.7c.98-4.65,2.04-9.28,3.08-13.92l1.88,1.46c-2.6,1.23-5.22,2.4-7.85,3.55-2.62,1.17-5.26,2.3-7.92,3.38-2.65,1.11-5.32,2.16-8.01,3.17-2.69,1-5.4,1.96-8.16,2.77Z"/>
        <path class="cls-6" d="M187.75,358.94c1.75-1.76,3.44-3.56,5.14-5.35l5.07-5.4,10.1-10.83,1.85-1.98.42,2.71c.62,4.06,1.28,8.11,1.85,12.17l-2.43-.86,4.31-4.04c1.43-1.36,2.9-2.67,4.34-4,2.9-2.67,5.81-5.32,8.77-7.93l2.04-1.8.2,2.67c.25,3.3.47,6.59.67,9.9l-1.75-.89,8.55-4.99,8.58-4.94,8.61-4.88c2.88-1.62,5.77-3.22,8.66-4.8-2.74,1.85-5.48,3.69-8.24,5.5l-8.29,5.42-8.32,5.36-8.35,5.31-1.55.98-.21-1.87c-.37-3.29-.7-6.57-1.02-9.87l2.24.87c-2.83,2.74-5.69,5.45-8.57,8.13-1.44,1.34-2.86,2.7-4.32,4.03l-4.36,3.99-2.04,1.87-.39-2.73c-.57-4.06-1.07-8.13-1.6-12.2l2.27.73c-1.75,1.76-3.54,3.48-5.34,5.18-1.79,1.71-3.6,3.4-5.45,5.06-1.83,1.67-3.7,3.3-5.6,4.9-1.9,1.6-3.83,3.16-5.85,4.61Z"/>
        <path class="cls-6" d="M186.88,285.53c2.04-.44,4.07-.94,6.09-1.42l6.07-1.46,12.13-2.92,2.64-.63-1.16,2.5c-1.46,3.13-2.89,6.28-4.38,9.39l-1.54-2.07,4.91-.81c1.63-.28,3.28-.51,4.92-.76,3.28-.51,6.56-.99,9.85-1.42l2.69-.35-1.32,2.32c-1.38,2.42-2.77,4.83-4.19,7.22l-.85-1.7,9.01,1.44,9,1.5,8.99,1.57c3,.53,5.99,1.09,8.98,1.66-3.03-.27-6.07-.54-9.09-.85l-9.08-.94-9.07-1.01-9.06-1.07-1.63-.19.78-1.51c1.27-2.48,2.57-4.94,3.88-7.4l1.38,1.96c-3.26.61-6.53,1.16-9.81,1.7-1.64.27-3.27.56-4.91.79l-4.92.74-2.73.41,1.2-2.48c1.5-3.11,3.07-6.19,4.62-9.28l1.47,1.87c-2.05.41-4.11.76-6.17,1.1-2.06.35-4.12.67-6.19.95-2.07.3-4.14.54-6.22.75-2.08.2-4.17.36-6.27.4Z"/>
      </g>
    </g>
  </g>
</svg>