<?xml version="1.0" encoding="UTF-8"?>
<svg id="_圖層_2" data-name="圖層 2" xmlns="http://www.w3.org/2000/svg" viewBox="0 0 922.23 203.68">
  <defs>
    <style>
      .sub-cls-1 {
        fill: #3d4654;
      }

      .sub-cls-2 {
        fill: #fff;
      }
    </style>
  </defs>
  <g id="_圖層_1-2" data-name="圖層 1">
    <g id="subtitle">
      <path class="sub-cls-2" d="M416.94,132.77l11.5,57.42c2.53,12.66,17.82,17.82,27.51,9.3l43.98-38.66c9.69-8.52,6.53-24.34-5.7-28.47l-55.47-18.75c-12.23-4.13-24.34,6.52-21.81,19.17Z"/>
      <g>
        <rect class="sub-cls-2" y="0" width="922.23" height="161.65" rx="67.77" ry="67.77"/>
        <g>
          <path class="sub-cls-1" d="M95.99,38.31c0-1.73,1.15-2.89,2.89-2.89h31.93c1.73,0,2.89,1.15,2.89,2.89v32.33c0,1.73-1.15,2.89-2.89,2.89h-31.93c-1.73,0-2.89-1.15-2.89-2.89v-32.33ZM128.45,41.55c0-.89-.44-1.33-1.33-1.33h-24.78c-.89,0-1.33.44-1.33,1.33v25.84c0,.89.44,1.33,1.33,1.33h24.78c.89,0,1.33-.44,1.33-1.33v-25.84ZM104.39,52.38c0-1.73,1.15-2.89,2.89-2.89h14.88c1.73,0,2.89,1.15,2.89,2.89v7.99c0,1.73-1.15,2.89-2.89,2.89h-1.6c1.33.58,2.75,1.2,4,1.87,1.82,1.07,1.51,1.78-.44,2.58-.93.4-1.6.44-2.44-.13-.93-.62-2.13-1.29-3.38-1.95-1.38-.67-1.42-1.55-.22-2.26l.13-.09h-7.19l1.33.44c.67.22.71.62.27.98-1.64,1.15-3.86,2.26-5.99,3.11-.93.31-1.69.22-2.4-.44-1.47-1.33-.84-2.18,1.07-2.71,1.24-.4,2.44-.89,3.38-1.38h-2.26c-1.2,0-2-.8-2-2v-8.88ZM120.11,41.9c2.13,0,3.2,1.07,3.2,3.2s-1.07,3.24-3.2,3.24h-10.7c-2.13,0-3.2-1.11-3.2-3.24s1.07-3.2,3.2-3.2h10.7ZM120.46,53.32v-.8c0-.35-.18-.53-.53-.53h-9.95c-.8,0-1.2.4-1.2,1.2v.13h11.68ZM120.46,57.05v-1.38h-11.68v1.38h11.68ZM119.17,60.82c.89,0,1.29-.4,1.29-1.29v-.13h-11.68v.84c0,.4.18.58.58.58h9.81ZM117.97,45.9c.53,0,.8-.27.8-.8v-.13c0-.44-.18-.62-.62-.62h-6.88c-.53,0-.8.27-.8.8v.13c0,.44.18.62.62.62h6.88Z"/>
          <path class="sub-cls-1" d="M156.52,43.41v-3.33c-3.82.35-7.68.53-11.32.67-1.38.04-2.18-.4-2.58-1.73-.53-1.82.4-2.53,2.26-2.62,8.79-.4,18.07-1.29,24.38-2.53,1.2-.27,1.82.13,2.66,1.02,1.78,1.87,1.64,2.93-.89,3.42-2.93.53-6.08.93-9.33,1.29v3.82h14.92c1.6,0,2.4.8,2.4,2.4s-.8,2.4-2.4,2.4h-9.41c2.58,2.22,5.91,4.13,9.41,5.55,2.44.84,3.15,2,1.6,4.04-1.02,1.33-2.18,1.47-3.73.84-4.84-2.18-9.32-5.46-12.79-9.41v5.64c0,1.73-.84,2.58-2.58,2.58s-2.62-.84-2.62-2.58v-5.55c-3.33,4.13-7.77,7.46-12.83,9.64-1.47.58-2.62.4-3.6-.84-1.51-1.95-.8-3.11,1.55-3.91,3.64-1.47,6.97-3.6,9.5-5.99h-9.15c-1.6,0-2.4-.8-2.4-2.4s.8-2.4,2.4-2.4h14.52ZM149.73,61.09c.27-1.73,1.29-2.84,3.06-2.84,2.04,0,2.89,1.24,2.62,3.24-.49,2.66-1.24,5.02-2.67,7.1-1.46,2.26-3.77,4.13-7.24,5.64-1.6.58-3.33.67-4.31-.75-1.33-2,.13-3.29,2.4-4.08,2-1.02,3.33-2.18,4.31-3.51.98-1.38,1.51-3.02,1.82-4.8ZM167,68.41c0,1.42.22,1.6,1.6,1.6h3.77c.49,0,.84-.13,1.07-.53.31-2.35,1.29-4.71,3.46-3.77,1.42.62,1.55,3.06,1.38,4.57-.75,3.51-2.31,4.53-5.42,4.53h-5.11c-4.88,0-6.08-1.6-6.08-6.35v-7.59c0-1.78.89-2.66,2.66-2.66s2.66.89,2.66,2.66v7.55Z"/>
          <path class="sub-cls-1" d="M203.72,52.52h17.18c1.55,0,2.31.75,2.31,2.31s-.75,2.35-2.31,2.35h-14.08v3.33h11.23c1.55,0,2.31.75,2.31,2.31s-.75,2.31-2.31,2.31h-11.23v4.31c1.11.09,2.31.13,3.51.13,1.86,0,6.97,0,10.79-.04,2.44-.04,3.02.71,2.22,3.02-.49,1.51-1.42,2-3.02,2h-10.21c-8.12,0-13.54-1.15-17.32-6.31-1.11,2.09-2.53,3.91-4.17,5.46-1.33,1.11-2.44,1.2-3.68,0-1.69-1.55-1.38-2.84.44-4.26,2.26-2.22,3.86-5.11,4.84-8.53.4-1.64,1.55-2.66,3.24-2.44,1.78.27,2.44,1.29,2.04,3.02-.13.49-.27.98-.4,1.42,1.38,3.02,3.51,4.71,6.39,5.64v-11.37h-14.96c-1.55,0-2.31-.8-2.31-2.35s.75-2.31,2.31-2.31h17.18ZM216.11,35.02c1.73,0,2.89,1.15,2.89,2.89v9.72c0,1.73-1.15,2.89-2.89,2.89h-24.91c-1.73,0-2.89-1.15-2.89-2.89v-9.72c0-1.73,1.15-2.89,2.89-2.89h24.91ZM213.62,41.02v-1.24c0-.62-.31-.93-.93-.93h-17.94c-.89,0-1.33.44-1.33,1.33v.84h20.2ZM212.29,46.74c.89,0,1.33-.44,1.33-1.33v-.89h-20.2v1.24c0,.67.31.98.98.98h17.89Z"/>
          <path class="sub-cls-1" d="M232.45,42.17c0-1.73,1.16-2.89,2.89-2.89h8.35c.27-.89.49-1.86.71-2.8.36-2.09,1.38-2.93,3.46-2.71,2.44.27,2.97,1.6,2.09,3.91-.27.53-.49,1.07-.71,1.6h12.21c1.73,0,2.89,1.15,2.89,2.89v27.89c0,1.73-1.15,2.89-2.89,2.89h-26.11c-1.73,0-2.89-1.15-2.89-2.89v-27.89ZM258.78,48.96v-3.24c0-.89-.44-1.33-1.33-1.33h-18.38c-.89,0-1.33.44-1.33,1.33v3.24h21.05ZM258.78,58.47v-4.57h-21.05v4.57h21.05ZM257.45,68.01c.89,0,1.33-.44,1.33-1.33v-3.29h-21.05v3.29c0,.89.44,1.33,1.33,1.33h18.38Z"/>
          <path class="sub-cls-1" d="M310.96,52.65c1.2,0,1.78.58,1.78,1.78s-.58,1.78-1.78,1.78h-17.76c-.93,0-1.51-.58-1.51-1.51v-.13h-2.8v16.21c0,1.91-.27,3.06-1.46,3.73-.71.44-1.55.62-2.53.71-1.29.04-2.4-.58-2.75-1.78-.44-1.51.18-2.22,1.73-2.18h.04c.4-.04.49-.18.49-.53v-3.11h-4.75v5.46c0,1.47-.71,2.18-2.18,2.18s-2.22-.71-2.22-2.18v-18.52h-1.46c-.71,0-1.15-.44-1.15-1.15v-3.46c0-1.42.93-2.35,2.35-2.35h.13v-9.77c0-1.73,1.15-2.89,2.89-2.89h8.12c1.73,0,2.89,1.15,2.89,2.89v9.77h1.46c.75,0,1.2.44,1.2,1.2v3.86h19.27ZM287.16,53.01h.58v-1.07c0-.53-.22-.75-.75-.75h-9.24c-.89,0-1.33.44-1.33,1.33v.49h10.75ZM278.9,47.59h1.55v-4.17c0-1.73,1.16-2.89,2.89-2.89h1.78v-1.07c0-.53-.22-.75-.75-.75h-4.13c-.89,0-1.33.44-1.33,1.33v7.55ZM284.41,58.56v-1.95h-4.75v1.95h4.75ZM284.41,64.06v-2.04h-4.75v2.04h4.75ZM285.12,43.5h-1.07c-.53,0-.8.27-.8.8v3.29h1.87v-4.08ZM308.39,57.62c1.73,0,2.89,1.15,2.89,2.89v2.89c0,1.73-1.16,2.89-2.89,2.89h-1.42l1.55.36c.75.18,1.02.75.62,1.42l-1.64,2.89h3.86c1.24,0,1.86.67,1.86,1.91s-.62,1.86-1.86,1.86h-18.78c-1.24,0-1.86-.62-1.86-1.86s.62-1.91,1.86-1.91h3.77c-.18-.62-.44-1.33-.75-2-.53-1.07-.18-1.91.89-2.31l.98-.36h-2.26c-1.2,0-2-.8-2-2v-3.77c0-1.73,1.15-2.89,2.89-2.89h12.3ZM311.89,48.25c0,1.73-1.15,2.89-2.89,2.89h-13.54c-1.73,0-2.89-1.15-2.89-2.89v-8.13c0-1.73,1.16-2.89,2.89-2.89h2.04v-1.91c0-1.2.62-1.82,1.82-1.82s1.82.62,1.82,1.82v1.91h1.91v-1.86c0-1.24.62-1.87,1.87-1.87s1.86.62,1.86,1.87v1.86h2.71c1.46,0,2.4.93,2.4,2.4v8.61ZM296.44,42.57h1.87v-1.95h-1.07c-.53,0-.8.27-.8.8v1.15ZM296.44,47.41c0,.27.09.35.36.35h1.51v-2.04h-1.87v1.69ZM305.59,63.17c.84,0,1.24-.4,1.24-1.24v-.13c0-.71-.36-1.07-1.07-1.07h-7.1c-.84,0-1.24.4-1.24,1.24v.13c0,.71.36,1.07,1.07,1.07h7.1ZM300.48,70.94h3.02c.71-1.42,1.42-3.24,1.86-4.66h-6.84c.49.71.89,1.55,1.2,2.35.36.8.62,1.6.75,2.31ZM301.15,42.57h1.91v-1.95h-1.91v1.95ZM301.15,47.77h1.91v-2.04h-1.91v2.04ZM307.85,40.97c0-.27-.09-.36-.36-.36h-1.6v1.95h1.95v-1.6ZM305.9,47.77h1.11c.58,0,.84-.27.84-.84v-1.2h-1.95v2.04Z"/>
          <path class="sub-cls-1" d="M353.9,56.91c0,1.73-1.15,2.89-2.89,2.89h-6.97v8.21c0,1.47.27,1.64,1.95,1.64h4.66c.62,0,1.07-.13,1.33-.62.31-2.35,1.42-4.75,3.6-3.82,1.42.62,1.55,2.97,1.33,4.48-.8,3.6-2.35,4.71-5.77,4.71h-5.99c-5.28,0-6.57-1.55-6.57-6.35v-8.26h-.71c-2.13,5.91-6.22,10.83-15.1,14.08-1.55.49-3.51.53-4.4-.8-1.29-1.95.62-3.42,2.89-4.13,5.95-2.31,9.06-5.46,10.79-9.15h-8.21c-1.73,0-2.89-1.15-2.89-2.89v-7.02l-.09.04c-.84.67-1.82.49-2.53-.27-1.51-1.6-1.33-3.55.44-4.88,3.69-3.06,6.53-6.53,8.53-9.72.75-1.38,2.35-1.47,3.91-1.15,1.42.27,2.4,1.2,1.64,2.44l-.04.09h9.99c2,0,2.89,1.24,2,3.73-.84,1.86-1.82,3.2-2.8,4.48h9.06c1.73,0,2.84,1.11,2.84,2.84v9.41ZM333.56,55.09c.36-1.82.58-3.73.75-5.73h-8.08v4.4c0,.89.44,1.33,1.33,1.33h5.99ZM329.83,40.79c-1.02,1.33-2.13,2.62-3.29,3.86h9.15c1.02-1.15,2.04-2.53,2.89-3.86h-8.75ZM339.87,49.36c-.22,1.95-.44,3.86-.75,5.73h9.15v-5.73h-8.39Z"/>
          <path class="sub-cls-1" d="M399.33,38.17c1.6,0,2.4.8,2.4,2.4s-.8,2.4-2.4,2.4h-25.62c-.89,0-1.33.44-1.33,1.33v7.19c0,6.31-.8,15.1-5.24,21.22-1.2,1.42-2.4,1.78-3.73.49-1.38-1.29-1.24-2.66-.04-4.13,1.69-2.44,2.66-5.24,3.2-8.04l-2.22,1.33c-1.73,1.02-2.89.71-3.46-1.24-.44-1.55-.27-2.4,1.2-3.06,1.55-.71,3.38-1.6,5.2-2.53.09-1.42.09-2.8.09-4.08v-1.29l-2.04,1.11c-1.02.53-1.91.13-2.13-.75-.4-1.47-1.02-3.2-1.69-4.8-.58-1.24-.22-2.35,1.02-2.98,1.2-.62,2.18-.31,2.8.89.89,1.78,1.6,3.69,2.04,5.24v-7.81c0-1.73,1.15-2.89,2.89-2.89h10.39v-1.91c0-1.82.98-2.75,2.8-2.75s2.75.93,2.75,2.75v1.91h13.14ZM391.47,44.88c1.73,0,2.89,1.15,2.89,2.89v3.2c0,1.11.09,1.24.75,1.24h1.6c.13,0,.22,0,.31-.04.36-2.09,1.24-3.42,3.2-2.62,1.29.53,1.42,2.53,1.2,3.91-.67,2.26-1.91,2.98-4.13,2.98h-3.15c-3.82,0-4.93-1.24-4.93-5.37v-1.07c0-.53-.22-.75-.75-.75h-5.64c-.09,3.2-1.24,6.35-5.77,8.39h17.89c2,0,2.89,1.24,2,3.73-1.46,3.2-3.33,5.42-5.59,7.24,1.95.67,4.17,1.15,6.66,1.47,2.75.27,3.95,1.24,2.44,3.55-.84,1.29-2.18,1.55-3.69,1.38-4.22-.67-7.73-1.69-10.66-3.2-3.06,1.42-6.48,2.4-10.21,3.06-1.38.27-2.49-.04-3.15-1.29-1.07-1.95-.18-2.84,2.04-3.15,2.44-.44,4.75-1.02,6.84-1.78-1.02-.93-1.91-1.95-2.71-3.06-1.11-1.73-.53-3.15,1.38-3.6l.13-.04h-3.33c-1.42,0-2.13-2.58-2.13-4,0-.09.09-.31.18-.31h.09c-.36-.58-.93-1.33-1.51-1.95-.8-.84-.62-1.73,1.73-2.66,2.13-1.24,2.49-2.66,2.49-4.31v-2.04c0-1.07.71-1.78,1.78-1.78h11.77ZM391.02,61.93h-8.88c1.07,1.73,2.44,3.15,4.22,4.31.93-.62,1.78-1.24,2.53-1.95.8-.75,1.51-1.51,2.13-2.35Z"/>
          <path class="sub-cls-1" d="M443.65,38.13c1.55,0,2.35.8,2.35,2.35s-.8,2.4-2.35,2.4h-25.67c-.89,0-1.33.44-1.33,1.33v7.37c0,6.31-.8,15.1-5.2,21.31-1.2,1.47-2.4,1.82-3.77.53-1.38-1.33-1.24-2.66-.04-4.13,1.73-2.58,2.71-5.46,3.24-8.35l-2.26,1.33c-1.73,1.02-2.89.71-3.46-1.24-.49-1.55-.27-2.4,1.24-3.06,1.51-.71,3.33-1.55,5.15-2.49.09-1.38.09-2.71.09-3.95v-1.47l-2.04,1.11c-1.07.58-1.95.18-2.18-.75-.4-1.47-.98-3.2-1.64-4.8-.58-1.24-.22-2.31,1.02-2.93,1.2-.58,2.18-.31,2.8.89.84,1.78,1.6,3.69,2.04,5.28v-7.86c0-1.73,1.15-2.89,2.89-2.89h10.52v-1.87c0-1.82.98-2.75,2.8-2.75s2.75.93,2.75,2.75v1.87h13.05ZM443.42,57.09c1.55,0,2.35.8,2.35,2.35s-.8,2.35-2.35,2.35h-7.68c1.47,3.2,3.69,5.73,6.97,7.37,2.44.93,3.64,2.18,2.13,4.31-1.02,1.42-2.4,1.42-4.04.75-3.86-1.87-6.48-4.75-8.39-8.57-1.6,3.15-4.53,6.13-9.81,8.53-1.42.58-3.24.8-4.26-.4-1.6-1.82.44-3.46,2.66-4.35,4.44-2.22,6.44-4.97,7.24-7.64h-8.13c-1.55,0-2.35-.8-2.35-2.35s.8-2.35,2.35-2.35h1.38c-.53-.44-1.38-1.02-2.22-1.6-1.29-.75-1.51-2-.71-3.02,1.33-1.91,2.53-4.26,3.38-6.7.49-1.64,1.64-2.44,3.33-2.04,1.73.4,2.31,1.47,1.73,3.15-.09.27-.18.53-.27.8h15.45c1.51,0,2.26.75,2.26,2.26s-.75,2.26-2.26,2.26h-7.99v4.88h9.24ZM422.38,56.11c-.49.67-.31.98.53.98h5.95v-4.88h-4.13c-.49.93-.98,1.82-1.51,2.62-.27.44-.53.89-.84,1.29Z"/>
          <path class="sub-cls-1" d="M488.18,38.31c1.55,0,2.35.8,2.35,2.35s-.8,2.4-2.35,2.4h-25.62c-.89,0-1.33.44-1.33,1.33v7.19c0,6.31-.8,15.05-5.2,21.22-1.2,1.47-2.4,1.82-3.77.53-1.42-1.33-1.24-2.66,0-4.17,1.64-2.44,2.62-5.2,3.15-8.04l-2.22,1.33c-1.73,1.02-2.89.71-3.46-1.24-.44-1.55-.27-2.4,1.2-3.06,1.55-.71,3.38-1.55,5.2-2.49.04-1.42.09-2.84.09-4.13v-1.29l-2.04,1.11c-1.07.58-1.95.18-2.18-.75-.44-1.47-1.02-3.2-1.69-4.8-.58-1.29-.22-2.31,1.02-2.93s2.22-.31,2.84.93c.84,1.73,1.6,3.64,2.04,5.24v-7.86c0-1.73,1.15-2.89,2.89-2.89h10.35v-2.04c0-1.82.98-2.75,2.8-2.75s2.75.93,2.75,2.75v2.04h13.19ZM463.67,56.56c0-1.73,1.16-2.89,2.89-2.89h7.1v-3.2h-8.66c-1.46,0-2.22-.8-2.22-2.26s.75-2.22,2.22-2.22h23.05c1.46,0,2.22.75,2.22,2.22s-.75,2.26-2.22,2.26h-9.81v3.2h7.95c1.73,0,2.89,1.15,2.89,2.89v13.5c0,2.26-.44,3.55-2,4.31-1.02.49-2.26.71-3.77.8-1.47.04-2.75-.4-3.24-1.78-.75-2.09.49-2.8,2.71-2.75h.49c.62,0,.8-.18.8-.67v-3.42l-1.51,1.42c-.75.71-1.73.67-2.22.09-1.11-1.24-2.66-2.75-4.13-4.13-.75,1.33-1.82,2.62-3.2,3.77-1.69,1.11-3.29.84-4.35-.49-.09-.09-.13-.13-.22-.22v5.91c0,1.55-.8,2.35-2.35,2.35s-2.4-.8-2.4-2.35v-16.34ZM473.49,58.16h-3.73c-.89,0-1.33.44-1.33,1.33v5.99c1.73-.98,2.89-2.13,3.68-3.37.8-1.29,1.2-2.62,1.38-3.95ZM484.06,65.66v-6.17c0-.89-.44-1.33-1.33-1.33h-4.66l-.31,1.73c1.07.89,2.26,1.91,3.38,2.93,1.11,1.02,2.18,2,2.93,2.84Z"/>
          <path class="sub-cls-1" d="M515.09,55.18l-.49.04c-2.22,0-4.22-1.42-4.22-3.95s2-4,4.35-4c3.15,0,4.79,2.35,4.79,6.08,0,2.49-.8,4.8-2.31,6.66-1.15,1.42-2.71,2.62-4.62,3.42-1.11.4-2.04.09-2.49-1.02-.49-1.24.04-2.18,1.24-2.71.84-.4,1.51-.84,2.09-1.38.93-.93,1.51-2,1.64-3.15Z"/>
          <path class="sub-cls-1" d="M561.81,72.32c0,1.91-.93,2.84-2.84,2.84s-2.89-.93-2.89-2.84v-18.96c-3.33,3.64-7.19,6.88-11.46,9.5-1.69.98-3.06.89-4.22-.67-1.47-1.91-.8-3.29,1.29-4.44,6.62-4,12.21-9.9,15.72-15.81h-14.92c-1.82,0-2.71-.93-2.71-2.75s.89-2.71,2.71-2.71h32.95c1.82,0,2.71.89,2.71,2.71s-.89,2.75-2.71,2.75h-11.06c-.8,1.38-1.64,2.8-2.58,4.13v4.66l1.78-1.47c.93-.8,2.22-.84,3.06-.22,3.77,2.8,8.3,6.26,11.37,9.19,1.42,1.42,1.02,2.44-.44,3.82-1.51,1.42-2.58,1.78-3.95.22-3.11-3.2-7.86-7.19-11.81-10.26v20.29Z"/>
          <path class="sub-cls-1" d="M605.64,54.91h-4.93v9.81c0,4.31-2.13,7.86-8.3,9.99-1.29.36-3.29.49-4.08-.58-1.38-1.86.22-2.89,2.49-3.29,1.47-.44,2.49-.98,3.2-1.64l-8.97.58c-1.15.04-1.73-.49-1.78-1.64-.04-1.11.53-1.73,1.64-1.78l10.7-.58.04-1.11v-.22h-8.84c-1.02,0-1.55-.58-1.55-1.6s.53-1.55,1.55-1.55h8.84v-1.55h-9.68c-1.11,0-1.64-.53-1.64-1.64s.53-1.64,1.64-1.64h9.68v-1.55h-4.57c-1.73,0-2.89-1.15-2.89-2.89v-2.84c0-1.73,1.15-2.89,2.89-2.89h25.35c1.73,0,2.89,1.15,2.89,2.89v2.84c0,1.73-1.15,2.89-2.89,2.89h-5.55v1.55h10.04c1.11,0,1.64.53,1.64,1.64s-.53,1.64-1.64,1.64h-10.04v1.51h9.15c1.02,0,1.55.53,1.55,1.55s-.53,1.6-1.55,1.6h-9.15v1.6h11.01c1.15,0,1.73.58,1.73,1.73s-.58,1.78-1.73,1.78h-11.01v2.98c0,1.73-.89,2.62-2.62,2.62s-2.62-.89-2.62-2.62v-17.58ZM603.33,44.61h-17.63c-1.2,0-1.78-.58-1.78-1.78s.58-1.78,1.78-1.78h2.13c-.4-.27-.8-.49-1.2-.67-.58-.27-.62-.71-.09-1.15,1.29-1.2,2.31-2.58,3.02-3.91.58-1.24,2.04-1.51,3.42-1.29,1.11.18,1.91.89,1.47,1.91l-.04.09h6.31v-.09c0-1.6.98-2.44,2.58-2.44s2.53.84,2.53,2.44v.09h12.03c1.11,0,1.64.53,1.64,1.64s-.53,1.69-1.64,1.69h-12.03v1.69h15.19c1.2,0,1.78.58,1.78,1.78s-.58,1.78-1.78,1.78h-17.67ZM592.54,39.37c-.35.58-.75,1.15-1.24,1.69h9.41v-1.69h-8.17ZM612.83,51.63c.71,0,1.07-.36,1.07-1.07v-.13c0-.62-.27-.89-.89-.89h-18.65c-.71,0-1.07.35-1.07,1.07v.13c0,.62.27.89.89.89h18.65Z"/>
          <path class="sub-cls-1" d="M649.82,57.45l-.4,2.75h16.16c1.55,0,2.31.75,2.31,2.31s-.75,2.31-2.31,2.31h-12.3c2.26,2.53,5.68,4.08,10.3,4.93,2.8.31,4.71,1.38,3.2,3.77-.84,1.33-2.53,1.55-4.08,1.33-7.33-1.33-11.9-4.22-14.92-9.37-2.04,4.17-6.04,7.15-14.43,9.01-1.64.31-4,.22-4.8-1.24-1.2-2.18,1.24-3.33,3.69-3.73,5.02-1.11,7.81-2.62,9.46-4.71h-11.59c-1.55,0-2.31-.75-2.31-2.31s.75-2.31,2.31-2.31h13.68c.18-.84.31-1.78.44-2.75h-13.85c-1.55,0-2.35-.84-2.35-2.4s.8-2.35,2.35-2.35h14.56v-2.26h-10.83c-1.46,0-2.22-.8-2.22-2.26s.75-2.22,2.22-2.22h10.83v-2.26h-12.79c-1.55,0-2.31-.8-2.31-2.35s.75-2.31,2.31-2.31h5.33c-.31-.67-.71-1.38-1.15-2.09-.71-.98-.4-1.95.75-2.4l.62-.27c1.42-.58,3.51,1.33,4.35,2.62.4.58.71,1.82.04,2.09l-.09.04h11.23l-.84-.22c-.36-.13-.44-.36-.27-.62.49-.71,1.02-1.55,1.51-2.4.8-1.64,1.86-2.22,3.6-1.78,2.31.58,2.49,1.91,1.11,3.86-.31.4-.62.8-.93,1.15h5.91c1.55,0,2.31.75,2.31,2.31s-.75,2.35-2.31,2.35h-12.97v2.26h11.32c1.46,0,2.22.75,2.22,2.22s-.75,2.26-2.22,2.26h-11.32v2.26h14.7c1.55,0,2.35.8,2.35,2.35s-.8,2.4-2.35,2.4h-15.23Z"/>
          <path class="sub-cls-1" d="M704.8,72.5c0,1.78-2.04,2.66-3.82,2.66-.71,0-1.55-.36-1.55-1.07v-.09h-14.52v.09c0,.75-.84,1.15-1.6,1.15-1.69,0-3.51-.84-3.51-2.53v-9.15c-.84.49-1.64.93-2.49,1.38-1.6.75-2.71.58-3.69-.89-1.2-1.86-.4-3.11,1.6-4,5.37-2.75,10.3-6.79,13.28-10.52.44-.62,1.6-1.2,2.71-1.2h1.82c1.07,0,2.18.53,2.84,1.33,3.82,4.17,8.7,7.59,13.76,9.86,2.31.89,2.84,2.04,1.47,4.08-1.02,1.51-2.13,1.69-3.77.89-.84-.4-1.69-.84-2.53-1.33v9.32ZM708.13,37.06c1.73,0,2.89,1.15,2.89,2.89v4.08c0,1.78-.89,2.66-2.67,2.66s-2.71-.89-2.71-2.66v-.8c0-.89-.44-1.33-1.33-1.33h-24.51c-.89,0-1.33.44-1.33,1.33v.89c0,1.73-.84,2.58-2.58,2.58s-2.62-.84-2.62-2.58v-4.17c0-1.73,1.15-2.89,2.89-2.89h13.14v-.84c0-1.82.89-2.71,2.71-2.71s2.71.89,2.71,2.71v.84h13.41ZM682.82,44.39c.93-1.11,2-1.38,3.38-.89,2,.67,2.44,1.78,1.15,3.42-1.02,1.15-2.13,2.26-3.24,3.33-1.29,1.11-2.62,2.13-3.95,3.06-1.55.93-2.66.89-3.82-.49-1.46-1.78-1.02-2.93,1.02-4,.89-.53,1.69-1.11,2.49-1.73,1.11-.84,2.09-1.73,2.97-2.71ZM699.42,69.3v-4.71h-14.52v4.71h14.52ZM699.69,59.89c-2.93-2.13-5.55-4.44-7.37-6.66-1.69,2.18-4.13,4.48-6.97,6.66h14.34ZM707.82,49.19c1.38,1.24,1.15,2.22-.22,3.42-1.33,1.15-2.4,1.29-3.64.04-.89-.8-1.95-1.69-3.11-2.58-1.2-.93-2.44-1.87-3.69-2.71-1.6-1.07-1.55-2.22-.04-3.42.93-.75,1.87-.93,2.93-.31,1.46.89,3.06,1.95,4.53,3.02,1.15.84,2.26,1.69,3.24,2.53Z"/>
          <path class="sub-cls-1" d="M720.29,52.96s-.09.13-.13.18c-1.73,2.26-3.06,2.35-4.17-.27-.62-1.47-.53-2.53.44-3.77,2.53-3.51,4.84-8.13,6.53-12.92.53-1.6,1.69-2.35,3.29-1.86,1.64.49,2.18,1.55,1.64,3.15-.75,2.13-1.64,4.26-2.58,6.31v28.95c0,1.64-.84,2.49-2.49,2.49s-2.53-.84-2.53-2.49v-19.76ZM734.33,52.87l-.13,2.13h18.78c1.73,0,2.89,1.15,2.89,2.89v12.52c0,1.82-.22,3.11-1.33,3.95-.44.31-.93.53-1.42.67-1.46.13-2.75-1.2-3.2-2.62-.27-.84,0-1.73.89-1.69h.04c.27-.04.36-.09.36-.44v-3.73h-2.31v6.31c0,1.2-.62,1.82-1.82,1.82s-1.82-.62-1.82-1.82v-6.31h-2.18v6.31c0,1.2-.62,1.82-1.82,1.82s-1.82-.62-1.82-1.82v-6.31h-2.09v6.57c0,1.42-.71,2.13-2.13,2.13s-2.18-.71-2.18-2.13v-9.46c-.49,2.58-1.2,5.15-2.13,7.5-.89,1.86-1.78,2.4-3.46,1.15-1.42-1.07-1.42-2.18-.71-3.77,2.71-6.93,2.97-15.5,2.97-21.62v-8.61c0-1.55.93-2.31,2.44-1.95l.13.04c6.17-.53,13.05-1.42,17.63-2.53,1.07-.31,1.64.04,2.49.8,1.69,1.6,1.73,2.53-.53,3.11-5.28,1.15-11.63,1.91-17.45,2.35v1.73h17.85c1.73,0,2.89,1.15,2.89,2.89v5.24c0,1.73-1.15,2.89-2.89,2.89h-17.94ZM748.67,48.83c.89,0,1.33-.44,1.33-1.33v-.27c0-.89-.44-1.33-1.33-1.33h-14.25v2.93h14.25ZM739.43,59.04h-2.09v3.51h2.09v-3.51ZM743.07,62.55h2.18v-3.51h-2.18v3.51ZM748.89,62.55h2.31v-2.75c0-.53-.22-.75-.75-.75h-1.55v3.51Z"/>
          <path class="sub-cls-1" d="M798.36,40.66c1.69,0,2.53.84,2.53,2.53s-.84,2.53-2.53,2.53h-18.87c-.09,1.91-.27,3.86-.49,5.82h14.08c1.82,0,2.89,1.15,2.58,5.42-.8,10.35-1.69,14.3-3.24,15.99-1.33,1.47-2.71,1.86-4.75,2.09-1.07.09-2.66.13-4.48.09-2.04-.04-3.38-1.11-3.73-2.71,0-.04-.04-.13-.04-.18-.75-1.51-.18-2.35,1.95-2.22,1.86.09,3.42.09,4.26.09.98,0,1.6-.09,2.13-.58,1.15-.98,1.95-4.84,2.58-12.97h-12.12c-1.46,6.62-4.48,12.74-11.14,17.23-1.69.98-3.46,1.29-4.71-.22-1.6-1.91-.13-3.69,2.04-4.93,8.04-5.82,8.88-14.61,9.28-22.91h-10.08c-1.69,0-2.53-.84-2.53-2.53s.84-2.53,2.53-2.53h14.39v-4.62c0-1.82.93-2.71,2.75-2.71s2.71.89,2.71,2.71v4.62h14.92Z"/>
          <path class="sub-cls-1" d="M825.93,55.18l-.49.04c-2.22,0-4.22-1.42-4.22-3.95s2-4,4.35-4c3.15,0,4.79,2.35,4.79,6.08,0,2.49-.8,4.8-2.31,6.66-1.15,1.42-2.71,2.62-4.62,3.42-1.11.4-2.04.09-2.49-1.02-.49-1.24.04-2.18,1.24-2.71.84-.4,1.51-.84,2.09-1.38.93-.93,1.51-2,1.64-3.15Z"/>
          <path class="sub-cls-1" d="M69.75,110.25c-1.33,0-2-.67-2-2s.67-2,2-2h2.58v-3.06h-1.95c-1.29,0-1.95-.67-1.95-1.95s.67-1.95,1.95-1.95h1.95v-1.69c0-.89.53-1.42,1.42-1.42h1.33v-2.4h-9.41v1.42c0,.71-.44,1.15-1.15,1.15h-2.75v1.64c.67-.13,1.33-.22,1.95-.35,1.07-.22,1.87.13,2.53.98,1.24,1.55,1.02,2.49-.93,2.84-1.15.18-2.35.36-3.55.49v2.22h3.11c1.38,0,2.04.67,2.04,2.04s-.67,2.09-2.04,2.09h-3.11v1.95h3.95c1.38,0,2.04.67,2.04,2.04s-.67,2.13-2.09,2.13h-3.91v.18c1.33,1.07,3.51,2.93,4.97,4.17,1.15,1.02.89,1.69-.09,2.89-1.15,1.47-2.09,1.51-3.24.04-.49-.62-1.07-1.29-1.64-1.91v6.31c0,1.55-.8,2.35-2.35,2.35s-2.35-.8-2.35-2.35v-5.99c-.89,1.55-1.82,2.93-2.84,4.13-1.2,1.33-2.13,1.38-3.33.04-1.24-1.38-1.16-2.31.27-3.55,1.78-1.78,3.46-4,4.71-6.31h-3.37c-1.38,0-2.09-.71-2.09-2.09s.71-2.09,2.09-2.09h4.57v-1.95h-3.64c-1.38,0-2.04-.71-2.04-2.09s.67-2.04,2.04-2.04h3.64v-1.78c-1.33.09-2.62.13-3.91.18-1.16.04-1.82-.4-2.13-1.51-.44-1.47.13-2.09,1.64-2.18,1.47-.09,2.98-.18,4.4-.31v-1.55c0-.75.49-1.24,1.24-1.24h2.18v-2h-7.37c-1.55,0-2.31-.75-2.31-2.31s.75-2.31,2.31-2.31h7.37v-.09c0-1.55,1.07-2.35,2.62-2.35s2.58.8,2.58,2.35v.09h9.41v-.09c0-1.55,1.11-2.35,2.66-2.35s2.62.8,2.62,2.35v.09h7.55c1.55,0,2.31.75,2.31,2.31s-.75,2.31-2.31,2.31h-7.55v1.42c0,.71-.44,1.15-1.15,1.15h-2.09v2.93h3.77v-.62c0-1.64.84-2.49,2.49-2.49s2.49.84,2.49,2.49v.62h1.78c1.29,0,1.95.67,1.95,1.95s-.67,1.95-1.95,1.95h-1.78v3.06h2.53c1.33,0,2,.67,2,2s-.67,2.04-2,2.04h-9.33l-9.32-.04ZM70.24,114.74c0-1.73,1.15-2.89,2.89-2.89h12.39c1.73,0,2.89,1.15,2.89,2.89v9.64c0,1.73-1.15,2.89-2.89,2.89h-12.39c-1.73,0-2.89-1.15-2.89-2.89v-9.64ZM83.38,117.8v-1.24c0-.62-.31-.93-.93-.93h-6.13c-.89,0-1.33.44-1.33,1.33v.84h8.39ZM82.05,123.44c.89,0,1.33-.44,1.33-1.33v-.93h-8.39v1.29c0,.67.31.98.98.98h6.08ZM80.9,106.26v-3.06h-3.77v3.06h3.77Z"/>
          <path class="sub-cls-1" d="M97.33,98.09c0-1.73,1.15-2.89,2.89-2.89h11.72v-5.73c0-1.82.89-2.71,2.71-2.71s2.71.89,2.71,2.71v5.73h12.34c1.73,0,2.89,1.15,2.89,2.89v25.09c0,1.73-1.15,2.89-2.89,2.89h-29.48c-1.73,0-2.89-1.15-2.89-2.89v-25.09ZM111.93,108.03v-7.46h-7.99c-.89,0-1.33.44-1.33,1.33v6.13h9.32ZM111.93,120.82v-7.59h-9.32v6.26c0,.89.44,1.33,1.33,1.33h7.99ZM117.35,100.57v7.46h9.68v-6.13c0-.89-.44-1.33-1.33-1.33h-8.35ZM117.35,113.23v7.59h8.35c.89,0,1.33-.44,1.33-1.33v-6.26h-9.68Z"/>
          <path class="sub-cls-1" d="M156.61,89.61v-.27c0-1.73.84-2.58,2.58-2.58s2.58.84,2.58,2.58v.27h14.12c1.33,0,2,.67,2,2s-.67,2-2,2h-14.12v1.6h10.48c1.73,0,2.89,1.15,2.89,2.89v7.06c0,1.73-1.15,2.89-2.89,2.89h-.13c1.46.8,2.89,1.64,4.04,2.4,1.29.89,1.11,1.69-.04,2.71-.98.84-1.87.89-2.89.09-.18-.13-.31-.22-.49-.36l-3.2.09v1.87h7.77c1.38,0,2.09.71,2.09,2.09s-.71,2.09-2.09,2.09h-7.77v4.31c0,2.44-.44,3.73-2.26,4.44-1.24.49-2.89.62-4.88.67-1.46.04-2.89-.49-3.33-1.86-.67-2,.75-2.71,2.89-2.66h1.55c.71-.04.93-.18.93-.75v-4.13h-12.39c1.07.8,2.18,1.64,3.11,2.44,1.2,1.2.98,2.18-.31,3.29-1.33,1.15-2.35,1.33-3.55,0-.93-.93-2.13-1.91-3.29-2.8-1.11-.84-1.15-1.95-.04-2.84l.09-.09h-6.75c-1.38,0-2.09-.71-2.09-2.09s.71-2.09,2.09-2.09h23.13v-1.73c-7.95.22-15.72.36-21.71.44-1.24,0-1.55-.62-1.6-1.86-.04-1.33.22-2,1.55-2,3.91.04,8.7.04,13.94.04v-1.69h-9.81c-1.73,0-2.89-1.15-2.89-2.89v-7.06c0-1.73,1.15-2.89,2.89-2.89h9.81v-1.6h-14.21c-1.33,0-2-.67-2-2s.67-2,2-2h14.21ZM156.61,100.09v-1.64h-6.48c-.89,0-1.33.44-1.33,1.33v.31h7.81ZM156.61,104.84v-1.73h-7.81v1.02c0,.49.22.71.71.71h7.1ZM169.97,100.09v-.98c0-.44-.22-.67-.67-.67h-7.55v1.64h8.21ZM168.64,104.84c.89,0,1.33-.44,1.33-1.33v-.4h-8.21v1.73h6.88ZM161.76,108.03v1.64h2.8l2.8-.04-1.02-.49c-.49-.22-.53-.62-.13-.93l.22-.18h-4.66Z"/>
          <path class="sub-cls-1" d="M201.01,113.9v-1.95h-10.83c-1.29,0-1.91-.67-1.91-1.95s.62-1.91,1.91-1.91h10.83v-1.95h-12.83c-1.38,0-2.09-.71-2.09-2.09s.71-2.09,2.09-2.09h6.3c-.31-.93-.8-2.18-1.33-3.2-.13-.18-.04-.35.22-.4h.13-7.06c-1.46,0-2.17-.71-2.17-2.18s.71-2.18,2.17-2.18h3.73c-.36-.93-.89-2.04-1.42-3.11-.89-1.6-.44-2.71,1.29-3.29,1.24-.44,2.31-.04,3.02,1.07.53.93,1.07,1.87,1.47,2.71.44,1.02-.04,2.13-1.29,2.58l-.13.04h4.04v-4.84c0-1.64.84-2.44,2.49-2.44s2.44.8,2.44,2.44v4.84h3.29v-4.84c0-1.64.84-2.44,2.49-2.44s2.44.8,2.44,2.44v4.84h3.95l-.93-.27c-.4-.13-.53-.44-.36-.8.53-.98,1.07-2.18,1.55-3.33.62-1.69,1.6-2.4,3.37-1.95,2.18.53,2.4,1.86,1.24,3.82-.58.93-1.11,1.78-1.6,2.53h3.55c1.47,0,2.18.71,2.18,2.18s-.71,2.18-2.18,2.18h-6.13l-2.09,3.6h6.57c1.38,0,2.09.71,2.09,2.09s-.71,2.09-2.09,2.09h-13.23v1.95h11.37c1.29,0,1.91.62,1.91,1.91s-.62,1.95-1.91,1.95h-11.37v1.95h15.01c1.46,0,2.17.71,2.17,2.18s-.71,2.22-2.17,2.22h-10.57c2.71,1.6,6.04,2.97,9.64,3.95,2.75.58,3.73,1.64,2.09,3.91-.98,1.33-2.18,1.6-3.77,1.11-4.57-1.51-8.92-3.86-12.39-6.79v5.42c0,1.73-.84,2.58-2.58,2.58s-2.62-.84-2.62-2.58v-5.15c-3.55,2.8-8.04,5.06-12.57,6.53-1.51.44-2.58.22-3.51-1.02-1.55-2.04-.75-3.06,1.73-3.69,3.69-1.07,7.24-2.53,10.12-4.26h-10.48c-1.46,0-2.18-.75-2.18-2.22s.71-2.18,2.18-2.18h14.7ZM207.58,101.95c.49-1.07,1.07-2.35,1.51-3.6h-10.52c.49.89.93,1.86,1.24,2.71.13.4-.09.75-.62.84l-.13.04h8.53Z"/>
          <path class="sub-cls-1" d="M234.01,127.57c-1.73,0-2.89-1.15-2.89-2.89v-8.88c0-1.73,1.16-2.89,2.89-2.89h7.99v-1.38h-11.37c-1.11,0-1.69-.62-1.69-1.73s.58-1.69,1.69-1.69h33.7c-2.75-.49-5.24-1.29-7.28-2.4-1.2.58-2.53,1.02-3.91,1.42-1.6.4-3.06-.27-3.86-1.64-.22-.31-.4-.58-.62-.8v1.2c0,.58-.35.93-.93.93h-14.79c-1.73,0-2.89-1.15-2.89-2.89v-12.83c0-1.73,1.15-2.89,2.89-2.89h13.85c1.02,0,1.51.49,1.51,1.51s-.49,1.51-1.51,1.51h-7.9l.67.18c.27.04.36.27.27.49l-.13.31c-.13.31-.04.49.31.49h5.68c.8,0,1.2.4,1.2,1.2s-.4,1.2-1.2,1.2h-2.75v.84c0,.36.18.53.53.53h2.97c.84,0,1.24.4,1.24,1.24s-.4,1.29-1.24,1.29h-2.75c.8.49,1.55.98,2.26,1.47.89.67.98,1.82.09,2.8l-.44.49h2.35c.44,0,.71.27.71.71v.13c1.73-.31,3.42-.71,4.93-1.24-.58-.53-1.15-1.11-1.64-1.73-.75-1.07-.44-1.95.8-2.26l.58-.13h-1.91c-1.02,0-1.64-.62-1.64-1.64v-.58c-.36-.49-.89-1.11-1.38-1.69-.71-.62-.62-1.42,1.15-2.31,1.2-.93,1.42-1.91,1.42-2.93v-1.29c0-.62.36-.98.98-.98h8.08c1.73,0,2.89,1.15,2.89,2.89v.44c0,.58-.04.89.09,1.02.04.13.18.18.36.18h.67c.22,0,.4,0,.49-.04.18-.04.31-.18.4-.44v-.04c.13-1.02.84-1.24,1.73-.75.84.44,1.33,1.47,1.2,2.4-.09.4-.18.71-.31.93-.31.49-.8.84-1.38,1.07-.49.22-1.33.31-1.91.31h-1.91c-.93,0-2.04-.31-2.66-.93-.36-.4-.62-.84-.71-1.64-.09-1.38-.58-1.82-1.46-1.82h-2.62c-.13,1.38-.62,2.66-1.73,3.82-.84.75-.75,1.02.13,1.02h8.92c2.04,0,2.84,1.24,1.91,3.51-.84,1.42-1.82,2.53-2.98,3.51,1.11.35,2.26.62,3.51.84,2.22.31,2.8,1.6,1.51,3.33-.13.22-.27.49-.36.71h.09c1.11,0,1.69.58,1.69,1.69s-.58,1.73-1.69,1.73h-12.21v1.38h8.79c1.73,0,2.89,1.15,2.89,2.89v8.88c0,1.73-1.15,2.89-2.89,2.89h-28.46ZM239.07,99.02h-3.2c-.84,0-1.24-.44-1.24-1.29s.4-1.24,1.24-1.24h.93c-.35-.22-.84-.58-1.38-.84-.71-.4-.8-1.07-.22-1.64.71-.84,1.29-1.82,1.69-2.75h-1.6c-.89,0-1.33.44-1.33,1.33v9.86c0,.89.44,1.33,1.33,1.33h1.2c-.27-.4-.62-.84-1.02-1.24-.58-.53-.44-1.02.49-1.29.67-.22,1.16-.49,1.6-.75.71-.44,1.2-.98,1.51-1.47ZM239.91,117.31c.93-.49,1.47-1.02,1.69-1.6h-4.4c-.89,0-1.33.44-1.33,1.33v3.95h2.18c-.27-.44-.67-.93-1.07-1.38-.62-.67-.44-1.2.49-1.42.27-.04.53-.13.8-.22.67-.18,1.2-.44,1.64-.67ZM259.32,124.82c.75,0,1.11-.36,1.11-1.11v-.13h-24.56v.75c0,.36.13.49.49.49h22.96ZM237.47,95.87c-.22.22-.35.4-.58.62h2.8v-1.38h-1.64c-.09.13-.18.27-.27.36-.13.13-.22.27-.31.4ZM237.34,103.77h6.75c.89,0,.98-.27.44-.75-.84-.67-1.91-1.42-2.98-2.09-.4.49-.93,1.02-1.64,1.51-.71.49-1.55.93-2.58,1.33ZM250.17,121h10.26v-1.24h-5.91c-3.95,0-4.88-.71-4.88-3.6v-.44h-3.77c-.44,2.09-2.04,3.95-5.99,5.28h10.3ZM249.64,112.92v-1.38h-3.64v1.38h3.64ZM259.23,117.31c.75,0,1.02,0,1.2-.27v-.8c0-.36-.18-.53-.53-.53h-6.22v.49c0,1.02.27,1.11,1.38,1.11h4.17ZM257.36,101.51c.53-.35.98-.71,1.42-1.07.4-.4.8-.8,1.16-1.2h-5.15c.36.4.71.8,1.15,1.2.44.35.93.71,1.42,1.07Z"/>
          <path class="sub-cls-1" d="M310.65,90.32c1.47,0,2.22.75,2.22,2.22s-.75,2.22-2.22,2.22h-14.52l1.73.22c.89.13,1.29.75,1.02,1.6-.13.36-.27.67-.4,1.02h11.99c1.33,0,2,.67,2,2s-.67,2-2,2h-.98l1.51,1.15c.84.62.89,1.42.13,2.09-.58.49-1.2.98-1.78,1.42.44.27.84.53,1.29.8,1.95.89,2.4,1.87,1.07,3.51-.93,1.15-1.91,1.2-3.24.53-.13-.09-.27-.18-.4-.27v4.44c0,1.73-1.15,2.89-2.89,2.89h-4.84v5.68c0,2.18-.4,3.29-1.95,4-1.07.44-2.4.58-3.95.62-1.29.04-2.49-.44-2.93-1.64-.71-1.87.4-2.58,2.4-2.53h.67c.53,0,.67-.18.67-.62v-5.51h-4.62c-1.73,0-2.89-1.15-2.89-2.89v-4.44c-.44.31-.93.58-1.42.89-.75.4-1.51.22-1.91-.4-.49-.62-1.11-1.33-1.73-1.86-.4,5.55-1.55,11.9-4.66,16.7-1.16,1.51-2.22,1.82-3.6.49-1.29-1.24-1.2-2.53-.13-4,1.73-2.84,2.66-6.04,3.15-9.28-.75.49-1.51.93-2.22,1.38-1.64.93-2.71.49-3.24-1.29-.44-1.47-.27-2.31,1.11-2.98,1.42-.67,3.11-1.51,4.84-2.35l.04-3.46v-1.55l-2.04.98c-1.11.49-1.95.04-2.09-.84-.35-1.6-.84-3.51-1.42-5.33-.44-1.24-.09-2.22,1.15-2.75s2.18-.13,2.71,1.11c.75,2.04,1.38,4.22,1.69,5.91v-8.97c0-1.73,1.15-2.89,2.89-2.89h10.97v-.84c0-1.82.98-2.75,2.8-2.75s2.75.93,2.75,2.75v.84h13.28ZM286.4,120.33c.75-1.15,1.78-1.42,3.11-1.07,1.78.49,2.26,1.51,1.29,3.06-.49.71-1.02,1.38-1.55,2.04-.67.75-1.33,1.47-2.04,2.09-1.16,1.02-2.09,1.07-3.29.13-1.69-1.33-1.47-2.49.27-3.82.27-.27.53-.49.8-.75.53-.53.98-1.11,1.42-1.69ZM282.85,104.66c0,1.2-.04,2.49-.09,3.82,1.38-.71,2.66-1.46,3.73-2.31-.31-.27-.62-.53-.98-.8-1.07-.84-1.07-1.73-.04-2.62.71-.67,1.47-.71,2.26-.18.53.35,1.07.75,1.6,1.15.67-.71,1.2-1.42,1.78-2.13h-4.75c-1.33,0-2-.67-2-2s.67-2,2-2h7.06c.44-.93.8-1.91,1.07-2.84h-10.3c-.89,0-1.33.44-1.33,1.33v8.57ZM303.5,110.34v-1.64h-11.37v1.64h11.37ZM302.17,115.01c.89,0,1.33-.44,1.33-1.33v-.4h-11.37v1.02c0,.49.22.71.71.71h9.33ZM293.78,105.55h8.44c-1.02-1.24-1.95-2.58-2.71-3.95h-2.97c-.4.67-.84,1.38-1.29,2.04-.44.62-.93,1.29-1.46,1.91ZM311.14,123.75c.98,1.33.62,2.22-.84,3.02-1.38.75-2.35.62-3.24-.67-.4-.53-.89-1.11-1.38-1.69-.49-.58-.98-1.15-1.51-1.73-1.29-1.29-.98-2.26.62-3.11.98-.49,1.91-.44,2.71.31.75.71,1.55,1.51,2.26,2.31.49.53.93,1.07,1.38,1.55ZM306.61,104.08c.49-.4.98-.84,1.38-1.29.44-.44.89-.84,1.2-1.2h-4.84c.35.44.71.84,1.07,1.29.4.4.8.8,1.2,1.2Z"/>
          <path class="sub-cls-1" d="M344.35,88.94c1.87,0,2.93,1.2,2.71,3.06-.44,3.2-.98,6.48-1.47,9.46h5.15c1.95,0,2.93,1.2,2.31,3.86-1.73,6.22-4.35,10.57-7.73,13.94,2.31,1.24,4.84,2.22,7.73,2.98,2.89.58,4.13,1.82,2.49,4.26-.98,1.47-2.49,1.73-4.22,1.33-4.13-1.15-7.59-2.71-10.57-4.75-2.75,1.86-5.82,3.29-9.15,4.44-1.64.53-2.89.35-3.77-1.11-1.33-2.13-.44-3.24,1.95-3.91,2.4-.8,4.66-1.82,6.66-3.11-2.8-2.93-5.02-6.48-6.79-10.61-1.33,6.66-3.55,12.97-7.59,17.45-1.29,1.24-2.4,1.33-3.77.18-1.69-1.42-1.6-2.66-.04-4.22,6-6.88,7.15-18.25,7.5-28.02h-4.49c-1.73,0-2.62-.89-2.62-2.62s.89-2.62,2.62-2.62h23.09ZM339.96,101.46c.44-2.4.84-4.97,1.2-7.28h-9.86c-.18,2.35-.35,4.8-.62,7.28h9.28ZM340.4,106.48h-6.66c1.64,3.77,3.95,7.02,7.02,9.64,2.75-2.58,4.93-5.77,6.39-9.64h-6.75Z"/>
          <path class="sub-cls-1" d="M365.58,91.47c0-1.73,1.16-2.89,2.89-2.89h25.62c1.73,0,2.89,1.15,2.89,2.89v14.39c0,1.73-1.15,2.89-2.89,2.89h-10.26v5.06h15.19c1.69,0,2.53.84,2.53,2.53s-.84,2.53-2.53,2.53h-15.19v6.79c0,1.82-.89,2.71-2.71,2.71s-2.71-.89-2.71-2.71v-6.79h-14.65c-1.69,0-2.53-.84-2.53-2.53s.84-2.53,2.53-2.53h14.65v-5.06h-9.95c-1.73,0-2.89-1.15-2.89-2.89v-14.39ZM391.56,96.49v-1.86c0-.89-.44-1.33-1.33-1.33h-18.16c-.89,0-1.33.44-1.33,1.33v1.86h20.83ZM390.23,104.08c.89,0,1.33-.44,1.33-1.33v-1.95h-20.83v1.95c0,.89.44,1.33,1.33,1.33h18.16Z"/>
          <path class="sub-cls-1" d="M421.58,88.19c.49-.84,1.69-1.55,2.93-1.55h1.69c1.15,0,2.31.62,2.97,1.64,2.09,3.06,4.62,5.82,7.37,8.17,2.22,1.91,4.57,3.55,7.02,4.84,2.26,1.02,2.75,2.22,1.33,4.26-1.11,1.55-2.4,1.64-4.08.71-6.13-3.73-12.12-9.1-15.28-14.16-2.97,4.97-8.61,10.39-15.01,14.25-1.6.93-2.93.93-4-.53-1.29-1.78-.8-2.93,1.15-4,2.8-1.69,5.37-3.77,7.68-5.99,2.53-2.44,4.66-5.11,6.22-7.64ZM415.23,108.61v-2.66c0-1.82.93-2.71,2.75-2.71s2.71.89,2.71,2.71v2.8c0,3.15-.22,6.71-1.55,10.17-1.02,2.71-2.66,5.33-5.42,7.64-1.47,1.11-3.06,1.51-4.44.31-1.91-1.64-1.07-3.33.93-4.84,1.78-1.64,2.93-3.42,3.69-5.24,1.15-2.8,1.33-5.64,1.33-8.17ZM435.92,125.66c0,1.82-.93,2.75-2.75,2.75s-2.75-.93-2.75-2.75v-19.89c0-1.82.93-2.75,2.75-2.75s2.75.93,2.75,2.75v19.89Z"/>
          <path class="sub-cls-1" d="M460.92,94.62c-1.82,0-2.71-.89-2.71-2.71s.89-2.71,2.71-2.71h9.72c1.73,0,2.93,1.15,2.93,2.09.22,7.9,1.95,20.38,12.97,29.31,2.13,1.47,3.77,3.73,2.04,5.64-1.38,1.46-3.06,1.24-4.71.09-7.33-5.46-11.28-12.92-13.41-20.03-2.97,8.88-7.5,15.81-13.94,20.51-1.6,1.07-2.89,1.07-4.31-.22-2.09-1.86-1.64-3.33.75-4.75,6.26-4.48,10.3-11.28,12.57-19.94.44-1.95,1.69-2.75,3.24-2.49l.13.04c-.31-1.69-.49-3.33-.62-4.84h-7.37Z"/>
          <path class="sub-cls-1" d="M515.09,108.39l-.49.04c-2.22,0-4.22-1.42-4.22-3.95s2-4,4.35-4c3.15,0,4.79,2.35,4.79,6.08,0,2.49-.8,4.8-2.31,6.66-1.15,1.42-2.71,2.62-4.62,3.42-1.11.4-2.04.09-2.49-1.02-.49-1.24.04-2.18,1.24-2.71.84-.4,1.51-.84,2.09-1.38.93-.93,1.51-2,1.64-3.15Z"/>
          <path class="sub-cls-1" d="M540.72,115.76c.36-1.6,1.33-2.22,2.93-1.86,1.55.35,2.18,1.29,1.78,2.84-.36,1.33-.75,2.62-1.24,3.86-.4,1.07-.84,2.09-1.33,2.98-.89,1.55-1.87,1.78-3.29.67-1.33-1.02-1.55-2.04-.67-3.51.36-.71.67-1.42.93-2.22.36-.89.62-1.82.89-2.75ZM549.55,96.62h-8.3c-1.6,0-2.4-.84-2.4-2.44s.8-2.4,2.4-2.4h5.68v-2.4c0-1.78.93-2.66,2.71-2.66s2.67.89,2.67,2.66v2.4h5.59c1.6,0,2.4.8,2.4,2.4s-.8,2.44-2.4,2.44h-8.35ZM540.9,102c0-1.73,1.15-2.89,2.89-2.89h11.86c1.73,0,2.89,1.15,2.89,2.89v6.79c0,1.73-1.15,2.89-2.89,2.89h-3.29v11.41c0,2.22-.36,3.6-1.87,4.4-.89.49-1.95.71-3.2.8-1.51.04-2.8-.44-3.29-1.91-.67-2.09.31-2.84,2.49-2.8h.13c.53,0,.67-.13.67-.62v-11.28h-3.51c-1.73,0-2.89-1.15-2.89-2.89v-6.79ZM552.04,107.28c.89,0,1.33-.44,1.33-1.33v-1.15c0-.89-.44-1.33-1.33-1.33h-5.02c-.89,0-1.33.44-1.33,1.33v1.15c0,.89.44,1.33,1.33,1.33h5.02ZM573.27,121.93c0,.27.04.58.18.71.18.22.4.31.67.31h.84c.27,0,.62-.09.75-.27.18-.18.35-.62.4-1.07.04-.31.04-.75.09-1.33.04-2.09.67-3.37,2.49-2.35,1.02.58,1.29,1.69,1.24,2.84-.13,1.73-.27,3.29-.49,4.04-.27,1.15-.71,1.86-1.51,2.44-.67.49-1.69.75-2.66.75h-2.62c-1.2,0-2.4-.35-3.15-1.15-.8-.84-1.02-1.69-1.02-4.53v-8.75c-1.11,4.62-3.02,9.1-6.13,12.92-1.2,1.29-2.44,1.64-3.91.62-1.82-1.29-1.69-2.58-.18-4.22.62-.75,1.2-1.55,1.73-2.35l-2.22.84c-1.2.49-2.13,0-2.4-1.07-.31-1.2-.8-2.58-1.29-3.82-.58-1.42-.13-2.44,1.33-2.93,1.24-.44,2.18-.09,2.75,1.11.67,1.51,1.24,3.15,1.64,4.48.18.67.53.71,1.02-.13,2.75-5.15,3.73-11.06,4-16.21h-2.31c-1.69,0-2.53-.84-2.53-2.53s.84-2.53,2.53-2.53h2.44v-8.53c0-1.69.84-2.53,2.53-2.53s2.53.84,2.53,2.53v8.53h6.84c1.69,0,2.53.84,2.53,2.53s-.84,2.53-2.53,2.53h-6.93l-.09,1.87h1.86c.93,0,1.55.62,1.55,1.55v15.67ZM578.55,92.94c.62,1.33.13,2.22-1.16,2.84-1.55.75-2.66.44-3.33-1.15-.22-.44-.44-.89-.71-1.33-.31-.53-.67-1.11-1.02-1.64-1.11-1.42-.75-2.44.89-3.2,1.07-.49,2-.31,2.8.58.53.67,1.07,1.47,1.55,2.22.36.58.71,1.11.98,1.69Z"/>
          <path class="sub-cls-1" d="M591.29,100.17l-5.68.36c-1.64.13-2.58-.67-2.71-2.31-.13-1.73.67-2.62,2.4-2.66l.8-.04c.93-2,1.82-4.35,2.53-6.53.49-1.73,1.51-2.26,3.29-1.91,2.04.44,2.53,1.64,1.73,3.55-.71,1.6-1.42,3.2-2.13,4.66l5.86-.27c-.22-.44-.44-.89-.71-1.33-.89-1.55-.44-2.66,1.2-3.29,1.29-.49,2.26-.13,2.97,1.02,1.38,2.18,2.66,4.57,3.55,6.66.53,1.51-.22,2.4-1.73,2.98-1.46.58-2.66.18-3.15-1.33,0-.04-.04-.04-.04-.09l-4.09.27-4.08.27ZM585.3,105.68c0-1.73,1.15-2.89,2.89-2.89h10.88c1.73,0,2.89,1.15,2.89,2.89v17.36c0,2.31-.44,3.64-1.91,4.4-.98.53-2.18.75-3.6.84-1.47.04-2.75-.44-3.24-1.82-.75-2.09.31-2.84,2.53-2.84h.31c.58,0,.71-.13.71-.67v-2.98h-6.57v5.95c0,1.64-.8,2.44-2.44,2.44s-2.44-.8-2.44-2.44v-20.25ZM591.52,107.15c-.89,0-1.33.44-1.33,1.33v1.02h6.57v-1.33c0-.71-.31-1.02-1.02-1.02h-4.22ZM596.76,116.03v-2.58h-6.57v2.58h6.57ZM605.46,93.6v-4.13c0-1.73.89-2.58,2.62-2.58s2.58.84,2.58,2.58v3.77c2.26-.84,4.44-1.82,6.26-2.75,1.29-.75,2.18-.44,3.15.71,1.29,1.51,1.11,2.53-.67,3.33-2.75,1.15-5.86,2.18-8.75,3.06v2.66c0,1.55.31,1.78,1.95,1.78h4.84c.4,0,.71-.04.93-.22.49-2.31,1.55-4.13,3.73-3.2,1.42.62,1.55,2.75,1.29,4.31-.84,2.93-2.35,3.86-5.46,3.86h-6.04c-5.2,0-6.44-1.55-6.44-6.48v-6.71ZM605.46,114.69v-4.44c0-1.73.89-2.58,2.62-2.58s2.58.84,2.58,2.58v3.42c2.35-.93,4.62-2,6.48-3.06,1.33-.84,2.26-.58,3.33.62,1.33,1.47,1.15,2.58-.62,3.46-2.89,1.33-6.13,2.49-9.19,3.42v3.55c0,1.6.31,1.82,2.04,1.82h4.97c.62,0,1.02-.13,1.33-.58.36-2.26,1.42-4.48,3.51-3.6,1.38.58,1.51,2.84,1.29,4.31-.75,3.46-2.31,4.53-5.59,4.53h-6.3c-5.15,0-6.44-1.55-6.44-6.44v-7.02Z"/>
          <path class="sub-cls-1" d="M639.61,94.09c1.38,0,2.09.71,2.09,2.09s-.71,2.13-2.09,2.13h-10.44c-1.38,0-2.09-.75-2.09-2.13s.71-2.09,2.09-2.09h10.44ZM628.73,115.45c0-1.73,1.15-2.89,2.89-2.89h6.13c1.69,0,2.8,1.11,2.8,2.8v7.77c0,1.73-1.15,2.89-2.89,2.89h-6.04c-1.73,0-2.89-1.15-2.89-2.89v-7.68ZM638.59,100.35c1.33,0,2,.67,2,2s-.67,2.04-2,2.04h-7.73c-1.33,0-2-.71-2-2.04s.67-2,2-2h7.73ZM638.59,106.44c1.33,0,2,.67,2,2s-.67,2-2,2h-7.73c-1.33,0-2-.67-2-2s.67-2,2-2h7.73ZM638.5,88.14c1.33,0,2,.67,2,2s-.67,2-2,2h-7.33c-1.33,0-2-.67-2-2s.67-2,2-2h7.33ZM632.86,120.73c0,.75.36,1.11,1.11,1.11h1.02c.89,0,1.33-.44,1.33-1.33v-2.62c0-.8-.36-1.15-1.15-1.15h-.98c-.89,0-1.33.44-1.33,1.33v2.66ZM651.64,94.49c1.55,0,2.53.98,2.53,2.53v3.77c0,.93-.62,1.55-1.55,1.55h-.13v1.95h4.66v-1.95h-.84c-.36,0-.53-.18-.53-.53v-4.44c0-1.73,1.15-2.89,2.89-2.89h5.28c1.55,0,2.53.98,2.53,2.53v2.44c0,1.73-1.15,2.89-2.89,2.89h-1.73v1.95h3.91c1.02,0,1.55.53,1.55,1.55s-.53,1.6-1.55,1.6h-3.91v1.42h3.33c1.07,0,1.6.53,1.6,1.6s-.53,1.6-1.6,1.6h-3.33v1.47h4.31c1.2,0,1.78.58,1.78,1.78s-.58,1.82-1.78,1.82h-7.19c.53,1.02,1.11,1.95,1.87,2.8,1.07-.58,2.18-1.24,3.11-1.86.93-.58,1.6-.4,2.4.35.98.98.93,1.82-.22,2.53-.93.53-1.86.98-2.75,1.38.71.53,1.51.98,2.35,1.38,2,.71,2.71,1.64,1.47,3.37-.8,1.11-1.87,1.15-3.15.67-2.8-1.24-4.97-3.06-6.62-5.37l.13,1.86c.09.98-.49,1.73-1.46,1.91-3.38.58-6.84,1.2-9.77,1.69-1.24.18-1.91-.35-2.26-1.55-.44-1.46.09-2.26,1.6-2.49l1.29-.18v-2.31c-.75.31-1.51.58-2.22.84-1.11.36-1.91.18-2.58-.75-1.07-1.47-.53-2.26,1.2-2.71,1.46-.44,2.93-.98,4.26-1.55h-4.26c-1.2,0-1.78-.62-1.78-1.82s.58-1.78,1.78-1.78h4.48v-1.47h-2.71c-1.07,0-1.6-.53-1.6-1.6s.53-1.6,1.6-1.6h2.71v-1.42h-3.33c-1.02,0-1.55-.58-1.55-1.6s.53-1.55,1.55-1.55h3.33v-1.95h-2.26c-1.2,0-2-.8-2-2v-2.98c0-1.73,1.16-2.89,2.89-2.89h5.2ZM654.84,93.34h-10.92c-1.29,0-1.91-.67-1.91-1.95s.62-1.91,1.91-1.91h8.08v-.09c0-1.78.89-2.66,2.66-2.66s2.67.89,2.67,2.66v.09h8.48c1.29,0,1.91.62,1.91,1.91s-.62,1.95-1.91,1.95h-10.97ZM649.56,99.6c.4,0,.58-.18.58-.58v-.71c0-.71-.31-1.02-1.02-1.02h-1.2c-.4,0-.58.18-.58.58v.71c0,.71.31,1.02,1.02,1.02h1.2ZM651.42,119.05v3.86l5.73-.89c-.49-.75-.93-1.51-1.33-2.31-.44-.8-.8-1.69-1.11-2.58h-.62c-.4.31-.8.67-1.24.98-.44.31-.93.62-1.42.93ZM657.15,108.88v-1.42h-4.66v1.42h4.66ZM657.15,113.54v-1.47h-4.66v1.47h4.66ZM661.9,99.6c.44,0,.62-.18.62-.62v-.67c0-.71-.31-1.02-1.02-1.02h-1.38c-.4,0-.58.18-.58.58v.71c0,.71.31,1.02,1.02,1.02h1.33Z"/>
          <path class="sub-cls-1" d="M708.35,108.57c1.64-.22,2.62.53,2.84,2.18.22,1.69-.44,2.66-2.13,2.89l-7.19.93-9.68,1.24v3.82c0,2.53.44,2.89,3.37,2.89h8.79c1.15,0,1.87-.18,2.35-.84.49-2.44,1.73-4.66,4.04-3.73,1.64.67,1.78,2.93,1.46,4.66-1.02,3.82-2.97,5.15-7.42,5.15h-9.72c-6.53,0-8.39-1.78-8.39-8.13v-3.11l-11.1,1.47c-1.69.22-2.62-.58-2.84-2.26-.22-1.69.49-2.66,2.17-2.89l11.77-1.51v-4.88l-9.59,1.33c-1.69.22-2.62-.53-2.89-2.22-.27-1.73.44-2.71,2.18-2.93l10.3-1.38v-4.88c-3.38.58-6.71,1.07-10.04,1.55-1.6.22-2.53-.22-3.06-1.78-.67-1.95.31-2.8,2.35-3.06,9.19-1.29,18.69-3.29,25.27-5.68,1.42-.53,2.18-.13,3.24.93,1.87,1.82,1.82,3.11-.67,3.95-3.55,1.15-7.5,2.18-11.59,3.02v5.2l13.45-1.82c1.64-.22,2.53.49,2.8,2.13.27,1.64-.44,2.66-2.09,2.89l-14.16,1.95v4.97l9.32-1.15,6.84-.89Z"/>
          <path class="sub-cls-1" d="M732.68,102.97c1.78,0,2.66,1.02,2.66,2.8,0,1.6-.8,2.53-2.4,2.53h-.09v1.15h7.15v-1.15h-.09c-1.78,0-2.66-.89-2.66-2.66s.89-2.66,2.66-2.66h7.28c1.78,0,2.66.89,2.66,2.66s-.89,2.66-2.66,2.66h-2v1.15h7.95c.84,0,1.24.4,1.24,1.24s-.4,1.24-1.24,1.24h-7.95v1.11h6.97c.8,0,1.2.4,1.2,1.2s-.4,1.2-1.2,1.2h-6.97v1.2h9.81c.89,0,1.33.44,1.33,1.33s-.44,1.38-1.33,1.38h-3.15l1.24.84c.62.4.58.89-.04,1.2-1.55.71-3.2,1.42-4.84,2,1.78.53,3.64.93,5.73,1.24,2.04.22,2.84.98,1.69,2.66-.62.93-1.78,1.11-2.89.93-7.5-1.24-13.01-4.04-16.3-8.88-1.42.8-2.97,1.51-4.75,2.13v2.66l6.75-.62c1.11-.09,1.69.49,1.69,1.6,0,.98-.58,1.55-1.55,1.69-4.97.53-10.04,1.02-14.03,1.42-1.11.09-1.51-.44-1.64-1.55-.13-1.15.36-1.78,1.55-1.86l2.31-.22v-1.69c-2.44.58-4.97.98-7.5,1.29-.93.09-1.55-.13-2.09-.89-1.07-1.47-.44-2.04,1.33-2.18,3.55-.4,7.1-.98,10.08-1.78h-10.48c-.89,0-1.33-.49-1.33-1.38s.44-1.33,1.33-1.33h9.59v-1.2h-6.48c-.8,0-1.2-.4-1.2-1.2s.4-1.2,1.2-1.2h6.48v-1.11h-7.28c-.84,0-1.24-.4-1.24-1.24s.4-1.24,1.24-1.24h7.28v-1.15h-2.13c-1.78,0-2.67-.89-2.67-2.66s.89-2.66,2.67-2.66h7.1ZM753.29,99.42c1.73,0,2.89,1.15,2.89,2.89v.31c0,1.6-1.2,2.4-2.8,2.4-1.15,0-2-.58-2-1.73v-.09c0-.89-.44-1.33-1.33-1.33h-27.17c-.89,0-1.33.44-1.33,1.33v1.07c0,.49-.27.75-.75.75h-1.07c-1.87,0-2.8-.93-2.8-2.8s.93-2.8,2.8-2.8h14.16v-1.11h-9.28c-1.86,0-2.8-.98-2.8-2.84s.93-2.8,2.8-2.8h9.28v-.71c0-.27-.13-.4-.4-.4h-14.03c-.93,0-1.42-.49-1.42-1.42s.49-1.42,1.42-1.42h14.43v-.09c0-1.24,1.33-1.91,2.58-1.91s2.58.67,2.58,1.91v.09h14.56c.93,0,1.42.49,1.42,1.42s-.49,1.42-1.42,1.42h-13.59c-.67,0-.98.31-.98.98v.13h10.21c1.87,0,2.8.93,2.8,2.8s-.93,2.84-2.8,2.84h-10.21v1.11h14.25ZM733.88,96.13v-1.24h-6.66c-.44,0-.62.18-.62.62v.13c0,.35.13.49.49.49h6.79ZM730.46,106.26c.44,0,.67-.22.67-.67v-.13c0-.36-.13-.49-.49-.49h-3.11c-.44,0-.67.22-.67.67v.13c0,.36.13.49.49.49h3.11ZM740.01,113.05v-1.11h-7.15v1.11h7.15ZM740.01,116.65v-1.2h-7.15v1.2h7.15ZM746.4,96.13c.44,0,.62-.18.62-.62v-.13c0-.36-.13-.49-.49-.49h-7.5v1.24h7.37ZM749.65,119.36h-8.75c.98.89,2.09,1.69,3.38,2.4.93-.36,1.87-.75,2.75-1.15.93-.44,1.82-.84,2.62-1.24ZM744.98,106.26c.44,0,.67-.22.67-.67v-.13c0-.36-.13-.49-.49-.49h-3.24c-.44,0-.67.22-.67.67v.13c0,.36.13.49.49.49h3.24Z"/>
          <path class="sub-cls-1" d="M783.22,119.14c-1.46,0-2.18-.71-2.18-2.18s.71-2.18,2.18-2.18h6.35v-6.35h-3.91c-1.42,0-2.13-.75-2.13-2.18s.71-2.13,2.13-2.13h3.91v-5.46h-3.46c-.36,1.07-.75,2.09-1.15,3.02-.71,1.33-2.04,1.55-3.2.4-.31-.22-.58-.44-.84-.67v8.21c0,1.73-1.15,2.89-2.89,2.89h-4.88c-.22,2.66-.75,5.15-1.73,7.46,4.13,2.53,9.63,3.06,15.98,3.11,1.82,0,7.55,0,11.5-.04,2.26-.09,2.66.62,1.86,2.75-.49,1.29-1.38,1.78-2.75,1.78h-10.79c-7.46,0-13.45-.71-18.07-3.82-.98,1.24-2.22,2.35-3.73,3.37-1.33.8-2.53.89-3.51-.31-1.24-1.51-.67-2.66,1.02-3.69,1.07-.8,1.91-1.64,2.66-2.58-1.07-1.2-2-2.62-2.84-4.31-.58-1.24-.31-2.22.98-2.71,1.24-.44,2.17-.04,2.75,1.15.35.71.8,1.33,1.24,1.91.44-1.29.75-2.66.89-4.08h-4.22c-1.73,0-2.89-1.15-2.89-2.89v-11.01c0-1.73,1.15-2.89,2.89-2.89h4.48v-2.58h-5.55c-1.55,0-2.35-.8-2.35-2.35s.8-2.35,2.35-2.35h15.99c1.55,0,2.35.8,2.35,2.35s-.8,2.35-2.35,2.35h-5.99v2.58h4.71c1.73,0,2.89,1.15,2.89,2.89v1.2c1.11-2.18,1.87-5.02,2.4-7.99.22-1.55,1.11-2.35,2.66-2.04,1.47.31,2,1.15,1.73,2.62-.09.67-.22,1.29-.36,1.91h2.22v-4.26c0-1.55.75-2.31,2.31-2.31s2.31.75,2.31,2.31v4.26h4.17c1.47,0,2.18.71,2.18,2.18s-.71,2.18-2.18,2.18h-4.17v5.46h3.77c1.42,0,2.13.71,2.13,2.13s-.71,2.18-2.13,2.18h-3.77v6.35h4.8c1.46,0,2.18.71,2.18,2.18s-.71,2.18-2.18,2.18h-15.76ZM768.87,102.35v-2.89h-2.53c-.44,0-.62.18-.62.62v2.26h3.15ZM768.87,108.79v-2.93h-3.15v1.6c0,.89.44,1.33,1.33,1.33h1.82ZM776.47,102.35v-1.6c0-.89-.4-1.29-1.29-1.29h-1.86v2.89h3.15ZM775.8,108.79c.44,0,.67-.22.67-.67v-2.26h-3.15v2.93h2.49Z"/>
          <path class="sub-cls-1" d="M805.86,99.78c0-1.73,1.15-2.89,2.89-2.89h1.69v-4.04h-2.84c-1.47,0-2.18-.75-2.18-2.22s.71-2.18,2.18-2.18h14.34c1.47,0,2.18.71,2.18,2.18s-.71,2.22-2.18,2.22h-2.75v4.04h2.53c1.33,0,2.22.89,2.22,2.22v13.45c1.2-1.55,2.13-3.51,2.8-5.51.36-1.29,1.24-1.91,2.58-1.64,1.38.27,1.91,1.11,1.51,2.49-.09.22-.13.4-.22.62h2.4v-.89c0-1.55.8-2.31,2.35-2.31s2.31.75,2.31,2.31v.89h5.2c1.38,0,2.04.67,2.04,2.04s-.67,2.09-2.04,2.09h-5.2v2.93h4.31c1.38,0,2.04.67,2.04,2.04s-.67,2.04-2.04,2.04h-4.31v3.51h6.31c1.42,0,2.13.75,2.13,2.18s-.71,2.13-2.13,2.13h-16.92c-1.42,0-2.13-.71-2.13-2.13s.71-2.18,2.13-2.18h5.95v-3.51h-3.51c-1.73,0-2.89-1.15-2.89-2.89v-.89l-.04.04c-.58-.49-1.69-1.24-2.62-1.82v11.37c0,1.38-.71,2.04-2.09,2.04s-2.04-.67-2.04-2v-.09h-9.95v.71c0,1.33-.67,2-2,2s-2-.67-2-2v-26.38ZM815.5,101.29h-1.38v3.33c0,1.95-.27,4.31-1.47,6.26-.84,1.07-1.82,1.15-2.71.36,0-.04-.04-.04-.09-.09v3.42h9.95v-2.98h-1.6c-2.09,0-2.71-.71-2.71-3.51v-6.79ZM811.32,104.53v-3.24h-.89c-.4,0-.58.18-.58.58v8.08c.62-.84.98-1.78,1.2-2.71.22-.93.27-1.86.27-2.71ZM819.81,121.31v-2.71h-9.95v2.71h9.95ZM813.99,96.89h1.6v-4.04h-1.6v4.04ZM818.21,108.03c0,.62.04.67.4.67h1.2v-6.08c0-.89-.44-1.33-1.33-1.33h-.27v6.75ZM829.09,104.7c-1.73,0-2.89-1.15-2.89-2.89v-10.48c0-1.73,1.15-2.89,2.89-2.89h12.3c1.73,0,2.89,1.15,2.89,2.89v10.48c0,1.73-1.15,2.89-2.89,2.89h-12.3ZM827.8,114.21c-.27.49-.58.93-.93,1.38h6.13v-2.93h-4.26c-.13.27-.27.53-.44.8-.13.27-.31.49-.49.75ZM839.52,94.71v-1.24c0-.62-.31-.93-.93-.93h-6.53c-.89,0-1.33.44-1.33,1.33v.84h8.79ZM838.19,100.62c.89,0,1.33-.44,1.33-1.33v-.89h-8.79v1.24c0,.67.31.98.98.98h6.48Z"/>
          <path class="sub-cls-1" d="M862.7,107.63c0-2,.8-3.77,2.13-5.06,1.29-1.33,3.11-2.13,5.06-2.13,4,0,7.19,3.24,7.19,7.19s-3.2,7.19-7.19,7.19c-1.95,0-3.77-.8-5.06-2.13-1.33-1.29-2.13-3.11-2.13-5.06ZM865.9,107.63c0,1.11.44,2.09,1.2,2.84.71.71,1.73,1.15,2.8,1.15,2.22,0,4-1.78,4-4s-1.78-4-4-4c-1.07,0-2.09.44-2.8,1.15-.75.71-1.2,1.73-1.2,2.84Z"/>
        </g>
      </g>
    </g>
  </g>
</svg>