<?xml version="1.0" encoding="UTF-8"?>
<svg id="_圖層_2" data-name="圖層 2" xmlns="http://www.w3.org/2000/svg" viewBox="0 0 1008.73 385.64">
  <defs>
    <style>
      .cls-1 {
        fill: none;
      }

      .cls-2 {
        fill: #3d4654;
      }

      .cls-3 {
        fill: #993e3e;
      }

      .cls-4 {
        fill: #4e6b93;
      }

      .cls-5 {
        opacity: .4;
      }

      .cls-6 {
        fill: #985545;
      }

      .cls-7 {
        fill: #f7ceb6;
      }
    </style>
  </defs>
  <g id="_圖層_1-2" data-name="圖層 1">
    <g>
      <g id="title-1">
        <g>
          <path class="cls-2" d="M55.99,69.06c0-4.17,2.78-6.94,6.94-6.94h20.08c.64-2.14,1.17-4.49,1.71-6.73.85-5.02,3.31-7.05,8.33-6.52,5.88.64,7.16,3.85,5.02,9.4-.64,1.28-1.18,2.56-1.71,3.85h29.38c4.17,0,6.94,2.78,6.94,6.94v67.09c0,4.17-2.78,6.94-6.94,6.94h-62.81c-4.17,0-6.94-2.78-6.94-6.94v-67.09ZM119.34,85.4v-7.8c0-2.14-1.07-3.21-3.2-3.21h-44.23c-2.14,0-3.21,1.07-3.21,3.21v7.8h50.64ZM119.34,108.26v-11h-50.64v11h50.64ZM116.14,131.23c2.14,0,3.2-1.07,3.2-3.2v-7.91h-50.64v7.91c0,2.14,1.07,3.2,3.21,3.2h44.23Z"/>
          <path class="cls-2" d="M244.87,94.27c2.88,0,4.27,1.39,4.27,4.27s-1.39,4.27-4.27,4.27h-42.73c-2.24,0-3.63-1.39-3.63-3.63v-.32h-6.73v38.99c0,4.59-.64,7.37-3.53,8.97-1.71,1.07-3.74,1.5-6.09,1.71-3.1.11-5.77-1.39-6.62-4.27-1.07-3.63.43-5.34,4.17-5.23h.11c.96-.11,1.17-.43,1.17-1.28v-7.48h-11.43v13.14c0,3.53-1.71,5.23-5.23,5.23s-5.34-1.71-5.34-5.23v-44.55h-3.53c-1.71,0-2.78-1.07-2.78-2.78v-8.33c0-3.42,2.24-5.66,5.66-5.66h.32v-23.5c0-4.17,2.78-6.94,6.94-6.94h19.55c4.17,0,6.94,2.78,6.94,6.94v23.5h3.53c1.82,0,2.88,1.07,2.88,2.88v9.29h46.36ZM187.61,95.12h1.39v-2.56c0-1.28-.53-1.82-1.82-1.82h-22.22c-2.14,0-3.21,1.07-3.21,3.2v1.18h25.85ZM167.74,82.09h3.74v-10.04c0-4.17,2.78-6.94,6.94-6.94h4.27v-2.56c0-1.28-.53-1.82-1.82-1.82h-9.94c-2.14,0-3.2,1.07-3.2,3.21v18.16ZM180.98,108.48v-4.7h-11.43v4.7h11.43ZM180.98,121.72v-4.91h-11.43v4.91h11.43ZM182.69,72.26h-2.56c-1.28,0-1.92.64-1.92,1.92v7.91h4.49v-9.83ZM238.67,106.23c4.17,0,6.94,2.78,6.94,6.94v6.94c0,4.17-2.78,6.94-6.94,6.94h-3.42l3.74.85c1.82.43,2.46,1.82,1.5,3.42l-3.95,6.94h9.29c2.99,0,4.49,1.6,4.49,4.59s-1.5,4.49-4.49,4.49h-45.19c-2.99,0-4.49-1.5-4.49-4.49s1.5-4.59,4.49-4.59h9.08c-.43-1.5-1.07-3.21-1.82-4.81-1.28-2.56-.43-4.59,2.14-5.55l2.35-.85h-5.45c-2.88,0-4.81-1.92-4.81-4.81v-9.08c0-4.17,2.78-6.94,6.94-6.94h29.59ZM247.11,83.69c0,4.17-2.78,6.94-6.94,6.94h-32.58c-4.17,0-6.94-2.78-6.94-6.94v-19.55c0-4.17,2.78-6.94,6.94-6.94h4.91v-4.59c0-2.88,1.5-4.38,4.38-4.38s4.38,1.5,4.38,4.38v4.59h4.59v-4.49c0-2.99,1.5-4.49,4.49-4.49s4.49,1.5,4.49,4.49v4.49h6.52c3.53,0,5.77,2.24,5.77,5.77v20.72ZM209.93,70.02h4.49v-4.7h-2.56c-1.28,0-1.92.64-1.92,1.92v2.78ZM209.93,81.66c0,.64.21.85.85.85h3.63v-4.91h-4.49v4.06ZM231.94,119.59c2.03,0,2.99-.96,2.99-2.99v-.32c0-1.71-.85-2.56-2.56-2.56h-17.09c-2.03,0-2.99.96-2.99,2.99v.32c0,1.71.85,2.56,2.56,2.56h17.09ZM219.66,138.28h7.26c1.71-3.42,3.42-7.8,4.49-11.22h-16.45c1.18,1.71,2.14,3.74,2.88,5.66.85,1.92,1.5,3.85,1.82,5.56ZM221.26,70.02h4.59v-4.7h-4.59v4.7ZM221.26,82.52h4.59v-4.91h-4.59v4.91ZM237.39,66.17c0-.64-.21-.85-.85-.85h-3.85v4.7h4.7v-3.85ZM232.69,82.52h2.67c1.39,0,2.03-.64,2.03-2.03v-2.88h-4.7v4.91Z"/>
          <path class="cls-2" d="M348.17,104.52c0,4.17-2.78,6.94-6.94,6.94h-16.77v19.76c0,3.53.64,3.95,4.7,3.95h11.22c1.5,0,2.56-.32,3.21-1.5.75-5.66,3.42-11.43,8.65-9.19,3.42,1.5,3.74,7.16,3.2,10.79-1.92,8.65-5.66,11.32-13.89,11.32h-14.42c-12.71,0-15.81-3.74-15.81-15.28v-19.87h-1.71c-5.13,14.21-14.96,26.07-36.32,33.86-3.74,1.18-8.44,1.28-10.58-1.92-3.1-4.7,1.5-8.23,6.94-9.94,14.31-5.55,21.79-13.14,25.96-22.01h-19.76c-4.17,0-6.94-2.78-6.94-6.94v-16.88l-.21.11c-2.03,1.6-4.38,1.18-6.09-.64-3.63-3.85-3.21-8.55,1.07-11.75,8.87-7.37,15.7-15.7,20.51-23.4,1.82-3.31,5.66-3.53,9.4-2.78,3.42.64,5.77,2.88,3.95,5.88l-.11.21h24.04c4.81,0,6.94,2.99,4.81,8.97-2.03,4.49-4.38,7.69-6.73,10.79h21.79c4.17,0,6.84,2.67,6.84,6.84v22.65ZM299.24,100.14c.85-4.38,1.39-8.97,1.82-13.78h-19.44v10.58c0,2.14,1.07,3.21,3.2,3.21h14.42ZM290.27,65.74c-2.46,3.2-5.13,6.3-7.91,9.29h22.01c2.46-2.78,4.91-6.09,6.94-9.29h-21.04ZM314.41,86.36c-.53,4.7-1.07,9.29-1.82,13.78h22.01v-13.78h-20.19Z"/>
          <path class="cls-2" d="M457.46,59.44c3.85,0,5.77,1.92,5.77,5.77s-1.92,5.77-5.77,5.77h-61.64c-2.14,0-3.21,1.07-3.21,3.21v17.31c0,15.17-1.92,36.32-12.61,51.06-2.88,3.42-5.77,4.27-8.97,1.17-3.31-3.1-2.99-6.41-.11-9.93,4.06-5.88,6.41-12.61,7.69-19.34l-5.34,3.21c-4.17,2.46-6.94,1.71-8.33-2.99-1.07-3.74-.64-5.77,2.88-7.37,3.74-1.71,8.12-3.85,12.5-6.09.21-3.42.21-6.73.21-9.83v-3.1l-4.91,2.67c-2.46,1.28-4.59.32-5.13-1.82-.96-3.53-2.46-7.69-4.06-11.54-1.39-2.99-.53-5.66,2.46-7.16,2.88-1.5,5.23-.75,6.73,2.14,2.14,4.27,3.85,8.87,4.91,12.61v-18.8c0-4.17,2.78-6.94,6.94-6.94h25v-4.59c0-4.38,2.35-6.62,6.73-6.62s6.62,2.24,6.62,6.62v4.59h31.62ZM438.55,75.57c4.17,0,6.94,2.78,6.94,6.94v7.69c0,2.67.21,2.99,1.82,2.99h3.85c.32,0,.53,0,.75-.11.85-5.02,2.99-8.23,7.69-6.3,3.1,1.28,3.42,6.09,2.88,9.4-1.6,5.45-4.59,7.16-9.93,7.16h-7.58c-9.19,0-11.86-2.99-11.86-12.93v-2.56c0-1.28-.53-1.82-1.82-1.82h-13.57c-.21,7.69-2.99,15.28-13.89,20.19h43.05c4.81,0,6.94,2.99,4.81,8.97-3.53,7.69-8.01,13.03-13.46,17.41,4.7,1.6,10.04,2.78,16.02,3.53,6.62.64,9.51,2.99,5.88,8.55-2.03,3.1-5.23,3.74-8.87,3.31-10.15-1.6-18.59-4.06-25.64-7.69-7.37,3.42-15.6,5.77-24.57,7.37-3.31.64-5.98-.11-7.58-3.1-2.56-4.7-.43-6.84,4.91-7.58,5.88-1.07,11.43-2.46,16.45-4.27-2.46-2.24-4.59-4.7-6.52-7.37-2.67-4.17-1.28-7.58,3.31-8.65l.32-.11h-8.01c-3.42,0-5.13-6.2-5.13-9.61,0-.21.21-.75.43-.75h.21c-.85-1.39-2.24-3.2-3.63-4.7-1.92-2.03-1.5-4.17,4.17-6.41,5.13-2.99,5.98-6.41,5.98-10.36v-4.91c0-2.56,1.71-4.27,4.27-4.27h28.31ZM437.48,116.59h-21.37c2.56,4.17,5.88,7.58,10.15,10.36,2.24-1.5,4.27-2.99,6.09-4.7,1.92-1.82,3.63-3.63,5.13-5.66Z"/>
          <path class="cls-2" d="M504.79,65.96c3.31,0,5.02,1.71,5.02,5.02s-1.71,5.13-5.02,5.13h-28.52c-3.31,0-5.02-1.82-5.02-5.13s1.71-5.02,5.02-5.02h28.52ZM513.44,63.07c0-3.85,2.03-5.77,5.88-5.77s5.77,1.92,5.77,5.77v22.22c0,2.14,1.07,3.2,3.2,3.2h28.84c4.17,0,6.94,2.78,6.94,6.94v14.74h1.17c3.85,0,5.77,1.92,5.77,5.77s-1.92,5.88-5.77,5.88h-15.38c2.99,5.56,7.26,10.04,12.93,13.25,5.56,2.24,8.01,5.13,4.49,9.83-2.35,3.2-5.34,3.1-8.97,1.5-8.23-4.27-13.89-10.9-17.95-19.44-2.88,6.94-8.55,13.46-18.8,18.59-5.45,2.35-9.08,1.28-11.22-1.71-1.07-1.17-2.14-2.46-3.21-3.42v1.6c0,.64-.32.96-.96.96h-23.5c-4.17,0-6.94-2.78-6.94-6.94v-18.69c0-4.17,2.78-6.94,6.94-6.94h17.52c4.17,0,6.94,2.78,6.94,6.94v21.9c13.25-4.7,19.44-11,22.33-17.41h-13.78c-3.85,0-5.77-2.03-5.77-5.88s1.92-5.77,5.77-5.77h16.24v-10.9h-11.54c-4.17,0-6.94-2.78-6.94-6.94v-29.27ZM502.12,81.02c3.2,0,4.81,1.6,4.81,4.81s-1.6,4.91-4.81,4.91h-21.37c-3.2,0-4.81-1.71-4.81-4.91s1.6-4.81,4.81-4.81h21.37ZM502.12,95.66c3.2,0,4.81,1.6,4.81,4.81s-1.6,4.81-4.81,4.81h-21.37c-3.2,0-4.81-1.6-4.81-4.81s1.6-4.81,4.81-4.81h21.37ZM501.9,51.64c3.2,0,4.81,1.6,4.81,4.81s-1.6,4.81-4.81,4.81h-20.72c-3.21,0-4.81-1.6-4.81-4.81s1.6-4.81,4.81-4.81h20.72ZM486.2,130.16c0,1.82.85,2.67,2.67,2.67h4.49c2.14,0,3.2-1.07,3.2-3.21v-6.3c0-1.92-.85-2.78-2.78-2.78h-4.38c-2.14,0-3.21,1.07-3.21,3.2v6.41ZM559.05,51.11c4.17,0,6.94,2.78,6.94,6.94v18.59c0,4.17-2.78,6.94-6.94,6.94h-21.79c-4.17,0-6.94-2.78-6.94-6.94v-18.59c0-4.17,2.78-6.94,6.94-6.94h21.79ZM551.36,73.22c1.92,0,2.88-.96,2.88-2.88v-5.66c0-2.14-1.07-3.2-3.21-3.2h-6.84c-1.92,0-2.78.85-2.78,2.78v5.77c0,2.14,1.07,3.21,3.21,3.21h6.73ZM543.56,109.22v.96h8.44v-8.55c0-1.6-.75-2.35-2.35-2.35h-6.09v9.94Z"/>
          <path class="cls-2" d="M592.6,73.22h-7.26c-4.06,0-6.09-2.14-6.09-6.2s2.03-6.09,6.09-6.09h27.99c4.06,0,6.09,2.03,6.09,6.09s-2.03,6.2-6.09,6.2h-8.12v38.46l9.4-2.14c3.95-.96,6.2.75,6.73,4.81.43,3.42-1.17,5.77-4.49,6.62-10.47,2.99-21.26,5.98-30.55,8.55-4.59,1.18-6.52-.64-7.48-5.23-.96-4.49.86-6.94,5.34-7.91l8.44-1.82v-41.34ZM671.01,67.24c4.06,0,6.09,2.03,6.09,6.09s-2.03,6.2-6.09,6.2h-1.6c-3.42,16.45-8.33,29.59-15.7,40.27,4.49,5.23,9.83,9.72,16.02,13.25,5.77,2.56,7.8,5.77,3.95,10.79-2.67,3.53-5.98,3.63-10.04,1.71-7.37-4.06-13.57-9.19-18.91-15.28-6.62,6.41-14.53,11.54-24.25,15.7-4.27,1.71-7.91,1.5-10.15-2.56-2.78-4.81-.11-7.8,5.13-9.61,8.76-3.63,16.02-8.33,21.79-14.21-4.27-7.37-7.69-15.81-10.47-25.1-.53.85-1.07,1.6-1.5,2.35-2.67,3.85-5.34,4.59-9.19,1.92-4.06-2.88-4.59-5.23-1.5-9.19,6.52-9.29,11.64-21.79,15.17-34.93.96-4.06,3.63-6.2,7.69-5.34,4.17.85,5.77,3.31,4.81,7.48-.96,3.53-2.14,7.05-3.31,10.47h32.05ZM656.06,79.53h-20.83c2.35,10.79,5.88,20.51,10.47,28.95,2.46-3.95,4.49-8.33,6.2-13.14,1.71-4.81,3.1-10.15,4.17-15.81Z"/>
        </g>
        <g>
          <path class="cls-2" d="M967.38,142.79c-1.6-.77-2.68-1.9-3.25-3.39-.57-1.48-.49-2.99.25-4.51s1.88-2.53,3.43-3c1.55-.48,3.1-.34,4.66.42,1.63.79,2.7,1.92,3.22,3.4.58,1.51.5,3.03-.24,4.55s-1.87,2.52-3.39,2.99c-1.52.47-3.08.32-4.67-.46ZM974.29,128.67c-1.88-.91-2.49-2.23-1.82-3.97l5.96-16.5,2.04-4.47c.48-1.08,1.19-1.79,2.12-2.13.93-.34,1.93-.25,2.99.27l1.33.64,2.61,1.26c.71.34,1.16.83,1.37,1.45.2.62.12,1.26-.24,1.92l-2.95,5.54-9.21,14.92c-.95,1.6-2.35,1.95-4.19,1.06Z"/>
          <path class="cls-2" d="M985.12,146.97c-1.6-.77-2.68-1.9-3.25-3.39-.57-1.48-.49-2.99.25-4.51s1.88-2.53,3.43-3c1.55-.48,3.1-.34,4.66.42,1.63.79,2.7,1.92,3.22,3.4.58,1.51.5,3.03-.24,4.55-.74,1.53-1.87,2.52-3.39,2.99-1.52.47-3.08.32-4.67-.46ZM992.04,132.84c-1.88-.91-2.49-2.23-1.82-3.97l5.96-16.5,2.04-4.47c.48-1.08,1.19-1.79,2.12-2.13.93-.34,1.93-.25,2.99.27l1.33.64,2.61,1.26c.71.34,1.16.83,1.37,1.45.2.62.12,1.26-.24,1.92l-2.95,5.54-9.21,14.92c-.95,1.6-2.35,1.95-4.19,1.06Z"/>
        </g>
        <g id="txt-1">
          <g>
            <path class="cls-6" d="M895.03,87.32c4.27,0,6.41,2.46,6.41,6.73,0,3.85-1.92,6.09-5.77,6.09h-.21v2.78h17.2v-2.78h-.21c-4.27,0-6.41-2.14-6.41-6.41s2.14-6.41,6.41-6.41h17.52c4.27,0,6.41,2.14,6.41,6.41s-2.14,6.41-6.41,6.41h-4.81v2.78h19.12c2.03,0,2.99.96,2.99,2.99s-.96,2.99-2.99,2.99h-19.12v2.67h16.77c1.92,0,2.88.96,2.88,2.88s-.96,2.88-2.88,2.88h-16.77v2.88h23.61c2.14,0,3.21,1.07,3.21,3.2s-1.07,3.31-3.21,3.31h-7.58l2.99,2.03c1.5.96,1.39,2.14-.11,2.88-3.74,1.71-7.69,3.42-11.64,4.81,4.27,1.28,8.76,2.24,13.78,2.99,4.91.53,6.84,2.35,4.06,6.41-1.5,2.24-4.27,2.67-6.94,2.24-18.05-2.99-31.3-9.72-39.21-21.37-3.42,1.92-7.16,3.63-11.43,5.13v6.41l16.24-1.5c2.67-.21,4.06,1.17,4.06,3.85,0,2.35-1.39,3.74-3.74,4.06-11.96,1.28-24.14,2.46-33.76,3.42-2.67.21-3.63-1.07-3.95-3.74-.32-2.78.86-4.27,3.74-4.49l5.55-.53v-4.06c-5.88,1.39-11.96,2.35-18.05,3.1-2.24.21-3.74-.32-5.02-2.14-2.56-3.53-1.07-4.91,3.21-5.23,8.55-.96,17.09-2.35,24.25-4.27h-25.21c-2.14,0-3.21-1.17-3.21-3.31s1.07-3.2,3.21-3.2h23.08v-2.88h-15.6c-1.92,0-2.88-.96-2.88-2.88s.96-2.88,2.88-2.88h15.6v-2.67h-17.52c-2.03,0-2.99-.96-2.99-2.99s.96-2.99,2.99-2.99h17.52v-2.78h-5.13c-4.27,0-6.41-2.14-6.41-6.41s2.14-6.41,6.41-6.41h17.09ZM944.6,78.78c4.17,0,6.94,2.78,6.94,6.94v.75c0,3.85-2.88,5.77-6.73,5.77-2.78,0-4.81-1.39-4.81-4.17v-.21c0-2.14-1.07-3.21-3.21-3.21h-65.38c-2.14,0-3.21,1.07-3.21,3.21v2.56c0,1.17-.64,1.82-1.82,1.82h-2.56c-4.49,0-6.73-2.24-6.73-6.73s2.24-6.73,6.73-6.73h34.08v-2.67h-22.33c-4.49,0-6.73-2.35-6.73-6.84s2.24-6.73,6.73-6.73h22.33v-1.71c0-.64-.32-.96-.96-.96h-33.76c-2.24,0-3.42-1.17-3.42-3.42s1.18-3.42,3.42-3.42h34.72v-.21c0-2.99,3.21-4.59,6.2-4.59s6.2,1.6,6.2,4.59v.21h35.04c2.24,0,3.42,1.18,3.42,3.42s-1.17,3.42-3.42,3.42h-32.69c-1.6,0-2.35.75-2.35,2.35v.32h24.57c4.49,0,6.73,2.24,6.73,6.73s-2.24,6.84-6.73,6.84h-24.57v2.67h34.29ZM897.91,70.87v-2.99h-16.02c-1.07,0-1.5.43-1.5,1.5v.32c0,.85.32,1.18,1.17,1.18h16.34ZM889.69,95.23c1.07,0,1.6-.53,1.6-1.6v-.32c0-.85-.32-1.18-1.18-1.18h-7.48c-1.07,0-1.6.53-1.6,1.6v.32c0,.85.32,1.18,1.17,1.18h7.48ZM912.66,111.57v-2.67h-17.2v2.67h17.2ZM912.66,120.23v-2.88h-17.2v2.88h17.2ZM928.04,70.87c1.07,0,1.5-.43,1.5-1.5v-.32c0-.85-.32-1.17-1.18-1.17h-18.05v2.99h17.73ZM935.84,126.74h-21.04c2.35,2.14,5.02,4.06,8.12,5.77,2.24-.85,4.49-1.82,6.62-2.78,2.24-1.07,4.38-2.03,6.3-2.99ZM924.62,95.23c1.07,0,1.6-.53,1.6-1.6v-.32c0-.85-.32-1.18-1.17-1.18h-7.8c-1.07,0-1.6.53-1.6,1.6v.32c0,.85.32,1.18,1.17,1.18h7.8Z"/>
            <path class="cls-6" d="M788.6,145.96c-11.4,1.44-19.39.46-23.97-2.94-4.58-3.4-7.57-10.65-8.97-21.74l-1.41-11.14-3.54-27.9-.96-7.55-4.49-35.46c-9.09,2.96-20.62,6.28-34.6,9.96-2.88.79-5.21.82-7,.09-1.79-.73-3.32-2.34-4.6-4.84-2.86-5.8-.59-9.7,6.81-11.7,36.24-10.01,65-20.46,86.25-31.33,2.29-1.25,4.36-1.67,6.22-1.27,1.65.43,3.59,1.51,5.83,3.25,3.76,2.82,5.62,5.37,5.59,7.66-.03,2.29-2.1,4.44-6.2,6.44-11.36,5.16-24.52,10.33-39.48,15.52l2.35,18.51,2.29,18.04,2.23,17.57,4.02,31.69c.56,4.39,1.59,7.08,3.09,8.06,1.5.98,4.82,1.14,9.95.49l30.91-3.92c4.18-.53,6.88-1.88,8.09-4.05.32-5.03,1.42-8.89,3.31-11.58,2.24-3.26,5.29-4.34,9.16-3.23,2.64.73,4.6,2.77,5.87,6.11.99,2.74,1.38,5.88,1.19,9.41-.93,6.92-3.16,11.98-6.68,15.19-3.53,3.21-9.21,5.31-17.05,6.31l-17.1,2.17-17.1,2.17Z"/>
          </g>
          <g id="hair-1">
            <circle class="cls-7" cx="714.5" cy="86.07" r="19.93"/>
            <circle class="cls-7" cx="715.59" cy="119.77" r="19.93"/>
            <path class="cls-2" d="M709.2,105.84c-7.81,3.36-11.42,12.42-8.06,20.23,3.36,7.81,12.42,11.42,20.23,8.06,5.56-2.39,8.97-7.66,9.28-13.32,6.21-3.09,12.4-6.2,18.55-9.36,9.24-4.78,18.44-9.59,27.51-14.56,9.09-4.94,18.08-10,26.91-15.22,8.8-5.23,17.55-10.55,25.71-16.27-8.95,4.97-18.26,9.4-27.58,13.73-9.33,4.31-18.75,8.42-28.22,12.4-9.45,4-18.98,7.82-28.5,11.6-5.99,2.35-11.99,4.65-18,6.92-4.26-5.04-11.47-6.95-17.85-4.21Z"/>
            <path class="cls-2" d="M708.98,72.36c-7.81,3.36-11.42,12.42-8.06,20.23,3.36,7.81,12.42,11.42,20.23,8.06,5.56-2.39,8.97-7.66,9.28-13.32,6.21-3.09,12.4-6.2,18.55-9.36,9.24-4.78,18.44-9.59,27.51-14.56,9.09-4.94,30.78-17.34,38.95-23.06-8.95,4.97-32.65,13.71-42.12,17.69-9.45,4-18.98,7.82-28.5,11.6-5.99,2.35-11.99,4.65-18,6.92-4.26-5.04-11.47-6.95-17.85-4.21Z"/>
          </g>
        </g>
      </g>
      <g id="title-2">
        <g>
          <path class="cls-4" d="M283.66,213.31c3.42,2.35,3.74,4.81,1.39,8.23-2.78,3.95-5.66,4.7-9.61,1.82-1.07-.64-2.24-1.28-3.42-1.92-1.6-.85-3.31-1.82-5.02-2.56-4.17-1.92-4.7-4.81-2.03-8.55,1.92-2.67,4.17-3.63,7.26-2.46,2.24.96,4.49,1.92,6.73,2.99,1.6.75,3.21,1.6,4.7,2.46ZM279.07,269.72c-2.56,4.27-5.55,4.91-9.51,1.82-3.53-2.78-4.27-5.34-1.71-9.08,1.92-3.1,4.06-6.52,6.2-10.26,2.35-3.85,4.59-7.91,6.84-11.96,2.24-4.38,5.34-4.91,8.97-1.6,2.56,2.35,3.1,4.91,1.6,8.01-2.03,4.17-4.27,8.44-6.62,12.71-1.92,3.53-3.85,7.05-5.77,10.36ZM289.96,184.79c3.31,2.35,3.53,5.02,1.17,8.33-2.67,3.85-5.55,4.59-9.29,1.71-1.17-.75-2.35-1.5-3.52-2.24-1.71-.96-3.42-1.92-5.02-2.78-4.06-1.92-4.59-4.81-1.92-8.44,1.92-2.56,4.27-3.53,7.26-2.35,2.24.96,4.49,2.03,6.73,3.2,1.6.85,3.21,1.71,4.59,2.56ZM296.91,225.06c-4.27.32-5.98-1.71-6.52-5.88-.53-4.49,1.6-6.73,6.09-6.94l3.42-.11c3.95-8.44,7.91-19.12,10.68-28.63,1.28-4.7,3.95-6.2,8.76-5.13,5.34,1.18,6.73,4.27,4.7,9.29-3.31,8.23-6.94,16.56-10.47,23.82l12.29-.64,12.29-.75c-1.5-2.35-3.1-4.59-4.7-6.73-2.88-3.74-2.14-6.52,2.14-8.65,3.1-1.5,5.77-1.07,8.01,1.6,5.98,7.26,11.64,15.49,15.38,22.54,1.82,3.85.64,5.88-3.1,7.91-4.17,2.35-7.26,1.5-9.29-2.88-.43-.75-.85-1.5-1.28-2.35-9.72.75-19.66,1.5-28.95,2.14-6.94.43-13.57.96-19.44,1.39ZM298.3,239.59c0-4.17,2.78-6.94,6.94-6.94h39.53c4.17,0,6.94,2.78,6.94,6.94v26.39c0,4.17-2.78,6.94-6.94,6.94h-39.53c-4.17,0-6.94-2.78-6.94-6.94v-26.39ZM335.58,261.17c2.14,0,3.21-1.07,3.21-3.21v-10.36c0-2.14-1.07-3.2-3.21-3.2h-21.69c-2.14,0-3.21,1.07-3.21,3.2v10.36c0,2.14,1.07,3.21,3.21,3.21h21.69Z"/>
          <path class="cls-4" d="M461.32,185.64c3.53,0,5.34,1.82,5.34,5.34s-1.82,5.34-5.34,5.34h-34.93l4.17.53c2.14.32,3.1,1.82,2.46,3.85-.32.85-.64,1.6-.96,2.46h28.84c3.2,0,4.81,1.6,4.81,4.81s-1.6,4.81-4.81,4.81h-2.35l3.63,2.78c2.03,1.5,2.14,3.42.32,5.02-1.39,1.17-2.88,2.35-4.27,3.42,1.07.64,2.03,1.28,3.1,1.92,4.7,2.14,5.77,4.49,2.56,8.44-2.24,2.78-4.59,2.88-7.8,1.28-.32-.21-.64-.43-.96-.64v10.68c0,4.17-2.78,6.94-6.94,6.94h-11.64v13.67c0,5.23-.96,7.91-4.7,9.61-2.56,1.07-5.77,1.39-9.51,1.5-3.1.11-5.98-1.07-7.05-3.95-1.71-4.49.96-6.2,5.77-6.09h1.6c1.28,0,1.6-.43,1.6-1.5v-13.25h-11.11c-4.17,0-6.94-2.78-6.94-6.94v-10.68c-1.07.75-2.24,1.39-3.42,2.14-1.82.96-3.63.53-4.59-.96-1.17-1.5-2.67-3.21-4.17-4.49-.96,13.35-3.74,28.63-11.22,40.17-2.78,3.63-5.34,4.38-8.65,1.17-3.1-2.99-2.88-6.09-.32-9.61,4.17-6.84,6.41-14.53,7.58-22.33-1.82,1.17-3.63,2.24-5.34,3.31-3.95,2.24-6.52,1.17-7.8-3.1-1.07-3.53-.64-5.55,2.67-7.16,3.42-1.6,7.48-3.63,11.64-5.66l.11-8.33v-3.74l-4.91,2.35c-2.67,1.18-4.7.11-5.02-2.03-.85-3.85-2.03-8.44-3.42-12.82-1.07-2.99-.21-5.34,2.78-6.62,2.99-1.28,5.23-.32,6.52,2.67,1.82,4.91,3.31,10.15,4.06,14.21v-21.58c0-4.17,2.78-6.94,6.94-6.94h26.39v-2.03c0-4.38,2.35-6.62,6.73-6.62s6.62,2.24,6.62,6.62v2.03h31.94ZM402.99,257.86c1.82-2.78,4.27-3.42,7.48-2.56,4.27,1.17,5.45,3.63,3.1,7.37-1.17,1.71-2.46,3.31-3.74,4.91-1.6,1.82-3.21,3.53-4.91,5.02-2.78,2.46-5.02,2.56-7.91.32-4.06-3.2-3.53-5.98.64-9.19.64-.64,1.28-1.17,1.92-1.82,1.28-1.28,2.35-2.67,3.42-4.06ZM394.45,220.15c0,2.88-.11,5.98-.21,9.19,3.31-1.71,6.41-3.53,8.97-5.56-.75-.64-1.5-1.28-2.35-1.92-2.56-2.03-2.56-4.17-.11-6.3,1.71-1.6,3.52-1.71,5.45-.43,1.28.85,2.56,1.82,3.85,2.78,1.6-1.71,2.88-3.42,4.27-5.13h-11.43c-3.2,0-4.81-1.6-4.81-4.81s1.6-4.81,4.81-4.81h16.99c1.07-2.24,1.92-4.59,2.56-6.84h-24.78c-2.14,0-3.2,1.07-3.2,3.21v20.62ZM444.12,233.82v-3.95h-27.35v3.95h27.35ZM440.91,245.04c2.14,0,3.21-1.07,3.21-3.21v-.96h-27.35v2.46c0,1.18.53,1.71,1.71,1.71h22.43ZM420.72,222.28h20.3c-2.46-2.99-4.7-6.2-6.52-9.51h-7.16c-.96,1.6-2.03,3.31-3.1,4.91-1.07,1.5-2.24,3.1-3.53,4.59ZM462.49,266.08c2.35,3.21,1.5,5.34-2.03,7.26-3.31,1.82-5.66,1.5-7.8-1.6-.96-1.28-2.14-2.67-3.31-4.06-1.17-1.39-2.35-2.78-3.63-4.17-3.1-3.1-2.35-5.45,1.5-7.48,2.35-1.18,4.59-1.07,6.52.75,1.82,1.71,3.74,3.63,5.45,5.55,1.18,1.28,2.24,2.56,3.31,3.74ZM451.6,218.76c1.17-.96,2.35-2.03,3.31-3.1,1.07-1.07,2.14-2.03,2.88-2.88h-11.64c.85,1.07,1.71,2.03,2.56,3.1.96.96,1.92,1.92,2.88,2.88Z"/>
          <path class="cls-4" d="M559.92,263.52c0,6.3-1.17,9.83-5.55,11.75-2.88,1.39-6.62,1.92-11.54,2.03-3.95.11-7.8-1.18-8.97-4.91-1.71-5.45,2.03-7.26,7.69-7.05h3.53c1.82-.11,2.35-.64,2.35-2.03v-6.52h-38.46v14.31c0,4.17-2.03,6.2-6.2,6.2s-6.2-2.03-6.2-6.2v-40.49c-2.78,3.1-5.77,5.98-8.87,8.55-3.42,2.67-6.3,2.67-9.08-.64-3.1-3.74-2.46-6.73,1.39-9.61,8.55-7.26,15.38-16.77,20.62-26.92h-17.31c-3.95,0-5.98-2.14-5.98-6.09s2.03-5.98,5.98-5.98h22.75c.85-2.24,1.6-4.49,2.35-6.62,1.17-4.27,3.74-5.77,8.01-4.81,4.59,1.07,6.09,3.74,4.59,8.23-.32,1.07-.75,2.14-1.17,3.2h45.93c3.95,0,5.98,2.03,5.98,5.98s-2.03,6.09-5.98,6.09h-50.85c-1.39,2.88-2.78,5.66-4.38,8.44h42.41c4.17,0,6.94,2.78,6.94,6.94v46.15ZM547.42,228.48v-3.74c0-2.14-.96-3.1-3.1-3.1h-35.36v6.84h38.46ZM547.42,246.11v-6.94h-38.46v6.94h38.46Z"/>
          <path class="cls-4" d="M654.9,182.44h16.56c4.27,0,6.94,2.78,6.52,12.18-.64,12.18-1.6,17.09-3.42,19.34-1.82,2.14-3.85,3.1-6.41,3.42-1.28.21-2.99.32-5.02.32-3.85,0-6.09-1.92-6.62-4.91,0-.21-.11-.53-.21-.85-1.07-2.78.11-4.49,3.85-4.17h1.92c1.28,0,2.14-.11,2.88-1.07.75-.85,1.18-3.2,1.6-8.33.21-4.27-.75-5.34-2.88-5.34h-9.08c-1.82,11.11-5.88,20.08-16.56,26.07l5.02,1.07c2.67.53,4.06,2.56,3.53,5.23-.21.75-.43,1.6-.64,2.35h5.13v-3.63c0-3.95,2.14-5.98,6.09-5.98s5.98,2.03,5.98,5.98v3.63h10.58c3.53,0,5.34,1.82,5.34,5.34s-1.82,5.45-5.34,5.45h-10.58v9.72h12.61c3.63,0,5.45,1.82,5.45,5.45s-1.82,5.55-5.45,5.55h-12.61v11.75c0,3.95-2.03,5.98-5.98,5.98s-6.09-2.03-6.09-5.98v-11.75h-14.21c-3.63,0-5.45-1.92-5.45-5.55s1.82-5.45,5.45-5.45h14.21v-9.72h-8.76c-.64,1.71-1.39,3.31-2.24,4.81-1.17,2.03-3.53,2.67-5.45,1.39-1.6-.85-3.42-1.71-4.81-2.35v22.65c0,5.02-.96,8.33-4.17,10.15-2.03,1.18-4.49,1.6-7.69,1.92-3.52.11-6.73-1.07-7.9-4.38-1.6-4.81,1.28-6.2,6.3-6.09h1.28c1.28,0,1.71-.43,1.71-1.82v-15.49h-21.15c-.85,8.12-2.56,16.45-5.66,23.4-1.92,3.42-3.85,4.17-7.16,2.03-3.2-2.14-3.53-4.59-1.71-8.01,4.7-10.47,5.13-23.61,5.13-33.97v-15.81c-1.17-1.17-2.88-2.67-4.49-3.95-2.35-1.71-2.67-4.38-.96-6.41,4.81-6.41,8.65-14.85,11.32-23.72.96-3.63,3.31-5.56,7.05-4.7,3.85.85,5.23,3.2,4.17,6.94-.21.64-.43,1.18-.64,1.82h10.9c4.59,0,6.84,2.88,5.45,8.65-1.18,3.63-2.46,6.41-3.74,8.97h6.3c3.42,0,5.66,2.24,5.66,5.66v.96c8.65-4.27,11.86-10.47,13.35-18.16h-6.62c-3.52,0-5.23-1.82-5.23-5.34s1.71-5.23,5.23-5.23h18.38ZM610.13,196.65h-8.44c-.53,1.39-1.17,2.67-1.82,4.06-.64,1.28-1.28,2.56-1.92,3.85h9.19c.53-1.17,1.07-2.46,1.6-3.85.53-1.28.96-2.67,1.39-4.06ZM598.81,239.91h6.09v-8.87h-5.98v1.82l-.11,3.52v3.53ZM598.92,221.96h5.98v-8.01h-5.98v8.01ZM613.34,221.96h5.98v-6.3c0-1.18-.53-1.71-1.71-1.71h-4.27v8.01ZM613.34,239.91h5.98v-8.87h-5.98v8.87ZM636.95,219.61l-1.39.64c-.43.32-.85.11-1.07-.21-1.07-2.03-2.88-4.7-4.7-6.52v26.81c1.82-2.78,3.31-6.09,4.49-9.61,1.18-3.53,2.14-7.37,2.67-11.11Z"/>
          <path class="cls-4" d="M779.99,194.19c4.06,0,6.09,2.03,6.09,6.09s-2.03,6.09-6.09,6.09h-45.4c-.21,4.59-.64,9.29-1.17,13.99h33.86c4.38,0,6.94,2.78,6.2,13.03-1.92,24.89-4.06,34.4-7.8,38.46-3.21,3.52-6.52,4.49-11.43,5.02-2.56.21-6.41.32-10.79.21-4.91-.11-8.12-2.67-8.97-6.52,0-.11-.11-.32-.11-.43-1.82-3.63-.43-5.66,4.7-5.34,4.49.21,8.23.21,10.25.21,2.35,0,3.85-.21,5.13-1.39,2.78-2.35,4.7-11.64,6.2-31.19h-29.16c-3.53,15.92-10.79,30.66-26.81,41.45-4.06,2.35-8.33,3.1-11.32-.53-3.85-4.59-.32-8.87,4.91-11.86,19.33-13.99,21.37-35.15,22.33-55.12h-24.25c-4.06,0-6.09-2.03-6.09-6.09s2.03-6.09,6.09-6.09h34.61v-11.11c0-4.38,2.24-6.52,6.62-6.52s6.52,2.14,6.52,6.52v11.11h35.89Z"/>
        </g>
        <g id="txt-2">
          <g>
            <path class="cls-7" d="M35.45,338.85c-2.24.68-4.26.53-6.07-.44-1.81-.97-3.05-2.58-3.73-4.81L.42,249.85c-.67-2.24-.53-4.26.44-6.07.97-1.81,2.57-3.05,4.81-3.73l41.35-12.46,41.46-12.5c2.24-.67,4.26-.53,6.07.44,1.81.97,3.05,2.58,3.72,4.82l25.24,83.74c.67,2.24.53,4.26-.44,6.07-.97,1.81-2.58,3.05-4.82,3.73l-82.81,24.96Z"/>
            <g>
              <g>
                <g id="hair-3">
                  <g>
                    <path class="cls-7" d="M218.82,207.4l-88.3,12.43c.13-1.53.3-3.01.5-4.44h0c.75-5.43,2-10.18,3.77-14.31,2.09-4.89,4.91-8.93,8.49-12.2.1-.1.21-.19.32-.29,0,0,.01,0,.02-.02,7.43-6.62,18.04-10.03,32.07-11,16.76-1.16,27.6,2.62,34.77,11.78,2.93,3.74,5.25,8.37,7.12,13.93.45,1.32.85,2.7,1.24,4.12Z"/>
                    <g class="cls-5">
                      <path class="cls-3" d="M144.43,208.7c.09.62-.34,1.19-.96,1.27s-1.19-.34-1.27-.96.34-1.19.96-1.27,1.19.34,1.27.96Z"/>
                      <path class="cls-3" d="M167.69,205.43c.09.62-.34,1.19-.96,1.27s-1.19-.34-1.27-.96.34-1.19.96-1.27,1.19.34,1.27.96Z"/>
                      <path class="cls-3" d="M173.5,204.61c.09.62-.34,1.19-.96,1.27s-1.19-.34-1.27-.96.34-1.19.96-1.27,1.19.34,1.27.96Z"/>
                      <path class="cls-3" d="M179.32,203.79c.09.62-.34,1.19-.96,1.27s-1.19-.34-1.27-.96.34-1.19.96-1.27,1.19.34,1.27.96Z"/>
                      <path class="cls-3" d="M202.58,200.51c.09.62-.34,1.19-.96,1.27s-1.19-.34-1.27-.96.34-1.19.96-1.27,1.18.34,1.27.96Z"/>
                      <path class="cls-3" d="M147.35,204.08c.09.62-.34,1.18-.96,1.27s-1.19-.34-1.27-.96.34-1.19.96-1.27,1.19.34,1.27.96Z"/>
                      <path class="cls-3" d="M141.79,204.86c.09.62-.34,1.18-.96,1.27s-1.19-.34-1.27-.96.34-1.19.96-1.27c.62-.08,1.19.34,1.27.96Z"/>
                      <path class="cls-3" d="M153.17,203.26c.09.62-.34,1.18-.96,1.27s-1.19-.34-1.27-.96.34-1.19.96-1.27c.62-.08,1.19.34,1.27.96Z"/>
                      <path class="cls-3" d="M158.98,202.44c.09.62-.34,1.18-.96,1.27s-1.18-.34-1.27-.96.34-1.19.96-1.27,1.19.34,1.27.96Z"/>
                      <path class="cls-3" d="M164.8,201.62c.09.62-.34,1.18-.96,1.27s-1.19-.34-1.27-.96.34-1.19.96-1.27c.62-.09,1.19.34,1.27.96Z"/>
                      <path class="cls-3" d="M170.61,200.8c.09.62-.34,1.18-.96,1.27s-1.19-.34-1.27-.96.34-1.19.96-1.27c.62-.08,1.19.34,1.27.96Z"/>
                      <path class="cls-3" d="M176.43,199.98c.09.62-.34,1.18-.96,1.27s-1.18-.34-1.27-.96.34-1.19.96-1.27,1.19.34,1.27.96Z"/>
                      <path class="cls-3" d="M182.24,199.16c.09.62-.34,1.18-.96,1.27s-1.19-.34-1.27-.96.34-1.19.96-1.27c.62-.09,1.19.34,1.27.96Z"/>
                      <path class="cls-3" d="M188.06,198.35c.09.62-.34,1.18-.96,1.27s-1.19-.34-1.27-.96.34-1.19.96-1.27c.62-.08,1.19.34,1.27.96Z"/>
                      <path class="cls-3" d="M193.87,197.53c.09.62-.34,1.18-.96,1.27s-1.18-.34-1.27-.96.34-1.19.96-1.27c.62-.08,1.19.34,1.27.96Z"/>
                      <path class="cls-3" d="M199.69,196.71c.09.62-.34,1.18-.96,1.27s-1.19-.34-1.27-.96.34-1.19.96-1.27c.62-.09,1.19.34,1.27.96Z"/>
                      <path class="cls-3" d="M205.51,195.89c.09.62-.34,1.18-.96,1.27s-1.19-.34-1.27-.96.34-1.19.96-1.27c.62-.08,1.19.34,1.27.96Z"/>
                      <path class="cls-3" d="M143.32,200.8c.09.62-.34,1.19-.96,1.27s-1.19-.34-1.27-.96.34-1.19.96-1.27,1.19.34,1.27.96Z"/>
                      <path class="cls-3" d="M139.02,201.41c.09.62-.34,1.19-.96,1.27s-1.19-.34-1.27-.96.34-1.19.96-1.27,1.19.34,1.27.96Z"/>
                      <path class="cls-3" d="M149.13,199.98c.09.62-.34,1.19-.96,1.27s-1.19-.34-1.27-.96.34-1.19.96-1.27,1.18.34,1.27.96Z"/>
                      <path class="cls-3" d="M154.95,199.16c.09.62-.34,1.19-.96,1.27s-1.19-.34-1.27-.96.34-1.19.96-1.27,1.19.34,1.27.96Z"/>
                      <path class="cls-3" d="M160.76,198.35c.09.62-.34,1.19-.96,1.27s-1.19-.34-1.27-.96.34-1.19.96-1.27,1.19.34,1.27.96Z"/>
                      <path class="cls-3" d="M166.58,197.53c.09.62-.34,1.19-.96,1.27s-1.19-.34-1.27-.96.34-1.19.96-1.27,1.19.34,1.27.96Z"/>
                      <path class="cls-3" d="M172.39,196.71c.09.62-.34,1.19-.96,1.27s-1.19-.34-1.27-.96.34-1.19.96-1.27,1.19.34,1.27.96Z"/>
                      <path class="cls-3" d="M178.21,195.89c.09.62-.34,1.19-.96,1.27s-1.19-.34-1.27-.96.34-1.19.96-1.27,1.19.34,1.27.96Z"/>
                      <path class="cls-3" d="M184.02,195.07c.09.62-.34,1.19-.96,1.27s-1.19-.34-1.27-.96.34-1.19.96-1.27,1.19.34,1.27.96Z"/>
                      <path class="cls-3" d="M189.84,194.25c.09.62-.34,1.19-.96,1.27s-1.19-.34-1.27-.96.34-1.19.96-1.27,1.19.34,1.27.96Z"/>
                      <path class="cls-3" d="M195.65,193.43c.09.62-.34,1.19-.96,1.27s-1.19-.34-1.27-.96.34-1.19.96-1.27,1.19.34,1.27.96Z"/>
                      <path class="cls-3" d="M201.47,192.62c.09.62-.34,1.19-.96,1.27s-1.19-.34-1.27-.96.34-1.19.96-1.27,1.18.34,1.27.96Z"/>
                      <path class="cls-3" d="M207.08,191.83c.09.62-.34,1.19-.96,1.27s-1.19-.34-1.27-.96.34-1.19.96-1.27,1.19.34,1.27.96Z"/>
                      <path class="cls-3" d="M146.24,196.18c.09.62-.34,1.19-.96,1.27s-1.19-.34-1.27-.96.34-1.19.96-1.27,1.19.34,1.27.96Z"/>
                      <path class="cls-3" d="M140.67,196.96c.09.62-.34,1.19-.96,1.27s-1.19-.34-1.27-.96.34-1.19.96-1.27,1.19.34,1.27.96Z"/>
                      <path class="cls-3" d="M152.06,195.36c.09.62-.34,1.19-.96,1.27s-1.19-.34-1.27-.96.34-1.19.96-1.27,1.19.34,1.27.96Z"/>
                      <path class="cls-3" d="M157.87,194.54c.09.62-.34,1.19-.96,1.27s-1.18-.34-1.27-.96.34-1.19.96-1.27,1.19.34,1.27.96Z"/>
                      <path class="cls-3" d="M163.69,193.72c.09.62-.34,1.19-.96,1.27s-1.19-.34-1.27-.96.34-1.19.96-1.27,1.19.34,1.27.96Z"/>
                      <path class="cls-3" d="M169.5,192.9c.09.62-.34,1.19-.96,1.27s-1.19-.34-1.27-.96.34-1.19.96-1.27,1.19.34,1.27.96Z"/>
                      <path class="cls-3" d="M175.32,192.08c.09.62-.34,1.19-.96,1.27s-1.18-.34-1.27-.96.34-1.19.96-1.27,1.19.34,1.27.96Z"/>
                      <path class="cls-3" d="M181.13,191.27c.09.62-.34,1.19-.96,1.27s-1.19-.34-1.27-.96.34-1.19.96-1.27,1.19.34,1.27.96Z"/>
                      <path class="cls-3" d="M186.95,190.45c.09.62-.34,1.19-.96,1.27s-1.19-.34-1.27-.96.34-1.19.96-1.27,1.19.34,1.27.96Z"/>
                      <path class="cls-3" d="M192.76,189.63c.09.62-.34,1.19-.96,1.27s-1.18-.34-1.27-.96.34-1.19.96-1.27,1.19.34,1.27.96Z"/>
                      <path class="cls-3" d="M198.58,188.81c.09.62-.34,1.19-.96,1.27s-1.19-.34-1.27-.96.34-1.19.96-1.27,1.19.34,1.27.96Z"/>
                      <path class="cls-3" d="M204.39,187.99c.09.62-.34,1.19-.96,1.27s-1.19-.34-1.27-.96.34-1.19.96-1.27,1.19.34,1.27.96Z"/>
                      <path class="cls-3" d="M207.61,187.54c.09.62-.34,1.19-.96,1.27s-1.19-.34-1.27-.96.34-1.19.96-1.27,1.18.34,1.27.96Z"/>
                      <path class="cls-3" d="M203.86,184.22c.09.62-.34,1.19-.96,1.27s-1.19-.34-1.27-.96.34-1.18.96-1.27c.62-.09,1.19.34,1.27.96Z"/>
                      <path class="cls-3" d="M142.2,192.9c.09.62-.34,1.19-.96,1.27s-1.19-.34-1.27-.96.34-1.18.96-1.27c.62-.09,1.19.34,1.27.96Z"/>
                      <path class="cls-3" d="M148.02,192.09c.09.62-.34,1.19-.96,1.27s-1.19-.34-1.27-.96.34-1.18.96-1.27c.62-.09,1.18.34,1.27.96Z"/>
                      <path class="cls-3" d="M153.83,191.27c.09.62-.34,1.19-.96,1.27s-1.19-.34-1.27-.96.34-1.18.96-1.27c.62-.09,1.19.34,1.27.96Z"/>
                      <path class="cls-3" d="M159.65,190.45c.09.62-.34,1.19-.96,1.27s-1.19-.34-1.27-.96.34-1.18.96-1.27,1.19.34,1.27.96Z"/>
                      <path class="cls-3" d="M165.46,189.63c.09.62-.34,1.19-.96,1.27s-1.19-.34-1.27-.96.34-1.18.96-1.27c.62-.09,1.19.34,1.27.96Z"/>
                      <path class="cls-3" d="M171.28,188.81c.09.62-.34,1.19-.96,1.27s-1.19-.34-1.27-.96.34-1.18.96-1.27c.62-.09,1.19.34,1.27.96Z"/>
                      <path class="cls-3" d="M177.1,187.99c.09.62-.34,1.19-.96,1.27s-1.19-.34-1.27-.96.34-1.18.96-1.27,1.19.34,1.27.96Z"/>
                      <path class="cls-3" d="M182.91,187.17c.09.62-.34,1.19-.96,1.27s-1.19-.34-1.27-.96.34-1.18.96-1.27c.62-.09,1.19.34,1.27.96Z"/>
                      <path class="cls-3" d="M188.73,186.35c.09.62-.34,1.19-.96,1.27s-1.19-.34-1.27-.96.34-1.18.96-1.27,1.19.34,1.27.96Z"/>
                      <path class="cls-3" d="M194.54,185.54c.09.62-.34,1.19-.96,1.27s-1.19-.34-1.27-.96.34-1.18.96-1.27,1.19.34,1.27.96Z"/>
                      <path class="cls-3" d="M152.93,184.8c.09.62-.34,1.18-.96,1.27s-1.19-.34-1.27-.96.34-1.19.96-1.27c.62-.08,1.19.34,1.27.96Z"/>
                      <path class="cls-3" d="M158.58,182.87c.09.62-.34,1.19-.96,1.27s-1.19-.34-1.27-.96.34-1.19.96-1.27,1.19.34,1.27.96Z"/>
                      <path class="cls-3" d="M164.4,182.05c.09.62-.34,1.19-.96,1.27s-1.19-.34-1.27-.96.34-1.19.96-1.27,1.19.34,1.27.96Z"/>
                      <path class="cls-3" d="M170.21,181.23c.09.62-.34,1.19-.96,1.27s-1.19-.34-1.27-.96.34-1.19.96-1.27,1.19.34,1.27.96Z"/>
                      <path class="cls-3" d="M176.03,180.42c.09.62-.34,1.19-.96,1.27s-1.19-.34-1.27-.96.34-1.19.96-1.27,1.19.34,1.27.96Z"/>
                      <path class="cls-3" d="M181.84,179.6c.09.62-.34,1.19-.96,1.27s-1.19-.34-1.27-.96.34-1.19.96-1.27,1.19.34,1.27.96Z"/>
                      <path class="cls-3" d="M187.66,178.78c.09.62-.34,1.19-.96,1.27s-1.19-.34-1.27-.96.34-1.19.96-1.27,1.19.34,1.27.96Z"/>
                      <path class="cls-3" d="M200.36,184.72c.09.62-.34,1.19-.96,1.27s-1.19-.34-1.27-.96.34-1.18.96-1.27c.62-.09,1.18.34,1.27.96Z"/>
                      <path class="cls-3" d="M145.28,189.39c.09.62-.34,1.19-.96,1.27s-1.19-.34-1.27-.96.34-1.19.96-1.27,1.19.34,1.27.96Z"/>
                      <path class="cls-3" d="M150.94,187.46c.09.62-.34,1.19-.96,1.27s-1.19-.34-1.27-.96.34-1.18.96-1.27,1.19.34,1.27.96Z"/>
                      <path class="cls-3" d="M156.76,186.64c.09.62-.34,1.19-.96,1.27s-1.18-.34-1.27-.96.34-1.18.96-1.27,1.19.34,1.27.96Z"/>
                      <path class="cls-3" d="M162.57,185.82c.09.62-.34,1.19-.96,1.27s-1.19-.34-1.27-.96.34-1.18.96-1.27,1.19.34,1.27.96Z"/>
                      <path class="cls-3" d="M168.39,185c.09.62-.34,1.19-.96,1.27s-1.19-.34-1.27-.96.34-1.18.96-1.27,1.19.34,1.27.96Z"/>
                      <path class="cls-3" d="M174.2,184.19c.09.62-.34,1.19-.96,1.27s-1.18-.34-1.27-.96.34-1.18.96-1.27,1.19.34,1.27.96Z"/>
                      <path class="cls-3" d="M180.02,183.37c.09.62-.34,1.19-.96,1.27s-1.19-.34-1.27-.96.34-1.18.96-1.27,1.19.34,1.27.96Z"/>
                      <circle class="cls-3" cx="184.72" cy="182.71" r="1.13"/>
                      <path class="cls-3" d="M191.65,181.73c.09.62-.34,1.19-.96,1.27s-1.18-.34-1.27-.96.34-1.18.96-1.27,1.19.34,1.27.96Z"/>
                      <path class="cls-3" d="M196.51,182.18c.09.62-.34,1.19-.96,1.27s-1.18-.34-1.27-.96.34-1.19.96-1.27c.62-.08,1.19.34,1.27.96Z"/>
                    </g>
                  </g>
                  <polyline class="cls-1" points="220.71 207.14 218.82 207.4 212.56 208.29 208.37 208.88 141.84 218.24 132.74 219.52 130.52 219.84 127.27 220.29"/>
                </g>
                <path class="cls-6" d="M127.95,257.1c-4.34-4.19-3.43-7.86,2.73-11.01,9.63-5.67,17.4-12.3,23.34-19.9l-24.79,3.49c-4.23.6-6.65-1.26-7.26-5.57-.6-4.23,1.22-6.65,5.45-7.24l93.07-13.1c4.23-.6,6.65,1.22,7.24,5.45.61,4.31-1.21,6.77-5.44,7.36l-25.39,3.57c7.87,5,17,8.81,27.38,11.41,3.52.73,5.8,1.83,6.82,3.32,1.03,1.56.74,3.8-.89,6.72-1.11,1.95-2.42,3.21-3.93,3.79-1.51.58-3.44.59-5.8.02-14.44-4.24-27.09-11.05-37.94-20.43l2.16,15.33c.64,4.55-1.31,7.15-5.87,7.79-4.63.65-7.27-1.3-7.91-5.85l-2.12-15.09c-7.6,12.55-17.88,22.8-30.86,30.73-3.85,2.17-7.18,1.91-10.01-.79Z"/>
                <path class="cls-2" d="M136.74,297.89c-2.01-2.16-2.26-4.49-.74-6.98,1.33-2.14,3.66-4.1,6.99-5.87,4.27-3.21,7.38-6.86,9.33-10.96,1.53-3.55,2.43-7.87,2.69-12.96-.06-5.04,2.31-7.9,7.1-8.57,5.43-.76,8.16,1.83,8.18,7.77-.19,7.93-1.61,14.6-4.27,20.02-3.49,7.01-9.33,12.96-17.52,17.86-5.08,2.67-9,2.57-11.77-.3Z"/>
                <path class="cls-2" d="M208.5,291.33c-6.47.91-11,.29-13.58-1.88-2.48-2.01-4.18-6.25-5.09-12.72l-1.94-13.77-.94-6.71c-.66-4.71,1.4-7.4,6.19-8.08,4.71-.66,7.4,1.36,8.06,6.07l2.87,20.36c.26,1.84.66,2.94,1.2,3.31.54.37,1.77.42,3.69.15l10.06-1.42c1.44-.2,2.33-.78,2.69-1.72-.04-3.74.49-6.62,1.59-8.65,1.35-2.55,3.46-3.46,6.34-2.72,1.78.48,3.18,2.04,4.2,4.66.78,2.09,1.19,4.43,1.23,7.03-.4,4.7-1.59,8.12-3.56,10.27-1.92,1.98-5,3.27-9.23,3.86l-13.77,1.94Z"/>
              </g>
              <path class="cls-2" d="M35.45,338.85c-2.24.68-4.26.53-6.07-.44-1.81-.97-3.05-2.58-3.73-4.81L.42,249.85c-.67-2.24-.53-4.26.44-6.07.97-1.81,2.57-3.05,4.81-3.73l41.35-12.46,41.46-12.5c2.24-.67,4.26-.53,6.07.44,1.81.97,3.05,2.58,3.72,4.82l25.24,83.74c.67,2.24.53,4.26-.44,6.07-.97,1.81-2.58,3.05-4.82,3.73l-82.81,24.96ZM39.98,324.09l65.78-19.83c1.85-.56,2.5-1.76,1.94-3.62l-20.67-68.56c-.56-1.85-1.76-2.5-3.62-1.94l-32.89,9.91-32.89,9.91c-1.85.56-2.5,1.76-1.94,3.62l20.67,68.56c.56,1.85,1.77,2.5,3.62,1.94ZM90.03,305.72c-3.44-1.07-6.97-1.9-10.6-2.49-1.96-.34-3.13-1.02-3.52-2.03-.39-1.02.04-2.22,1.31-3.62l.28-.34-18.53,5.59,3.71.15c.94.05,1.54.29,1.8.72.26.43.14.97-.33,1.62-3.52,4.52-7.82,8.72-12.88,12.6-2.19,1.67-4.47,1.94-6.84.8-4.38-2.22-4.2-4.84.53-7.87,3.28-2.25,5.94-4.32,7.99-6.2l-6.02,1.82c-1.55.47-2.94.36-4.2-.31-1.26-.67-2.12-1.78-2.58-3.33l-6.91-22.93c-.67-2.24-.53-4.26.44-6.07.97-1.81,2.57-3.05,4.82-3.73l19.34-5.83,19.34-5.83c2.24-.67,4.26-.53,6.07.44s3.05,2.58,3.73,4.82l6.21,20.62c.68,2.24.53,4.26-.44,6.07-.97,1.81-2.58,3.05-4.81,3.73l-4.29,1.29c4.63.54,8.54,1.09,11.74,1.64,2.79.59,4.25,1.46,4.38,2.6.13,1.14-.95,2.65-3.25,4.52-2.09,1.73-4.25,2.25-6.47,1.57ZM42.98,265.32c-5.48,1.65-9.06-.3-10.74-5.86s.26-9.05,5.74-10.7l13.9-4.19,14.01-4.22c5.48-1.65,9.05.26,10.7,5.74,1.68,5.56-.23,9.17-5.71,10.82l-27.91,8.41ZM45.27,278.78l30.46-9.18-.63-2.08c-.28-.93-.88-1.25-1.81-.97l-13.9,4.19-12.39,3.74c-1.85.56-2.5,1.76-1.94,3.62l.21.69ZM48.17,288.4l30.46-9.18-1.05-3.47-15.29,4.61-15.17,4.57,1.05,3.47ZM52.52,297.82l26.29-7.92c1.85-.56,2.5-1.76,1.94-3.62l-.24-.81-15.29,4.61-15.17,4.57.66,2.2c.28.93.88,1.25,1.81.97ZM45.5,257.74l9.15-2.76,8.8-2.65c1.39-.42,1.88-1.32,1.46-2.71l-.1-.35c-.33-1.08-1.03-1.46-2.11-1.13l-17.95,5.41c-1.39.42-1.88,1.32-1.46,2.71l.1.35c.33,1.08,1.03,1.46,2.11,1.13Z"/>
            </g>
          </g>
          <path id="hair-2" class="cls-2" d="M46.3,355.46c-8.16,2.41-12.82,10.97-10.42,19.13,2.41,8.16,10.97,12.82,19.13,10.42,5.8-1.71,9.82-6.54,10.8-12.12,6.53-2.33,13.05-4.68,19.53-7.08,9.74-3.65,19.45-7.33,29.05-11.18,9.61-3.83,103.37-38.64,112.15-43.35-9.48,3.87-104.79,34.82-114.66,37.64-9.86,2.85-19.78,5.5-29.67,8.12-6.23,1.62-12.46,3.19-18.69,4.73-3.63-5.52-10.56-8.27-17.22-6.3Z"/>
        </g>
      </g>
    </g>
  </g>
</svg>