<?xml version="1.0" encoding="UTF-8"?>
<svg id="_圖層_2" data-name="圖層 2" xmlns="http://www.w3.org/2000/svg" viewBox="0 0 86.08 69.72">
  <defs>
    <style>
      .cls-1 {
        fill: #ef9275;
      }

      .cls-2 {
        fill: #607af1;
      }

      .cls-3 {
        fill: #fff;
      }
    </style>
  </defs>
  <g id="_圖層_1-2" data-name="圖層 1">
    <g>
      <path class="cls-3" d="M86.08,0H15.31C6.89,0,0,6.89,0,15.31v39.1c0,8.42,6.89,15.31,15.31,15.31h70.78V0Z"/>
      <g>
        <g>
          <path class="cls-2" d="M36.44,20.88h-2.38s.02-3.96.02-3.96c0-1.74,1.41-3.16,3.12-3.15l6.43.04v2.38s-6.44-.04-6.44-.04c-.4,0-.72.35-.72.78l-.02,3.95Z"/>
          <path class="cls-2" d="M53.11,20.97h-2.38s.02-3.96.02-3.96c0-.43-.32-.78-.71-.78l-6.43-.04v-2.38s6.44.04,6.44.04c1.71,0,3.09,1.44,3.08,3.18l-.02,3.95Z"/>
        </g>
        <path class="cls-1" d="M64.59,21.03l-21.01-.12h0l-21.01-.12c-2.44-.01-4.43,1.95-4.44,4.39l-.15,26.52c-.01,2.44,1.95,4.43,4.39,4.44l20.75.11h0l21.27.12c2.44.01,4.43-1.95,4.44-4.39l.15-26.52c.01-2.44-1.95-4.43-4.39-4.44Z"/>
        <g>
          <rect class="cls-3" x="41" y="35.22" width="4.94" height="14.23" transform="translate(.23 -.24) rotate(.31)"/>
          <rect class="cls-3" x="41" y="35.22" width="4.94" height="14.23" transform="translate(86.03 -.9) rotate(90.32)"/>
        </g>
        <path class="cls-2" d="M20.55,20.92h45.97c1.35,0,2.44,1.1,2.44,2.44v6.88H18.13v-6.91c0-1.34,1.08-2.42,2.42-2.42Z" transform="translate(.14 -.24) rotate(.32)"/>
        <path class="cls-3" d="M17.7,29.06h51.29c.27,0,.49.22.49.49v.69c0,.27-.22.49-.49.49H17.7c-.27,0-.49-.22-.49-.49v-.69c0-.27.22-.49.49-.49Z" transform="translate(.17 -.24) rotate(.32)"/>
      </g>
    </g>
  </g>
</svg>