<?xml version="1.0" encoding="UTF-8"?>
<svg id="_圖層_2" data-name="圖層 2" xmlns="http://www.w3.org/2000/svg" viewBox="0 0 343.46 328.68">
  <defs>
    <style>
      .cls-1 {
        fill: #644b30;
      }

      .cls-2 {
        fill: #ef9275;
      }

      .cls-3 {
        fill: #1c2a42;
      }

      .cls-4 {
        fill: #e2ab90;
      }

      .cls-5 {
        fill: #e8e0d3;
      }

      .cls-6, .cls-7 {
        fill: #fff;
      }

      .cls-8 {
        fill: #c58067;
      }

      .cls-7 {
        font-family: GenSenRounded2TW-B-B5pc-H, 'GenSenRounded2 TW';
        font-size: 33.09px;
        letter-spacing: -.03em;
      }

      .cls-9 {
        fill: #e7e0d3;
      }
    </style>
  </defs>
  <g id="_圖層_1-2" data-name="圖層 1">
    <g>
      <path class="cls-5" d="M50.3,67.81c67.07-59.68,175.8-59.68,242.86,0,67.07,59.68,67.07,156.43,0,216.11-67.07,59.68-175.8,59.68-242.86,0s-67.07-156.43,0-216.11Z"/>
      <path class="cls-2" d="M136.42,21.72C170.63-2.85,233.92-7.23,277.78,11.94c43.86,19.16,51.67,54.62,17.46,79.18-25.69,18.45-67.78,25.51-105.72,19.77,0,0-35.64,18-38.51,12.04-2.38-4.94,3.91-21.6,3.91-21.6-.34-.15-.7-.28-1.04-.43-43.86-19.16-51.67-54.62-17.46-79.18"/>
      <text class="cls-7" transform="translate(153.95 70.01)"><tspan x="0" y="0">中度圓禿</tspan></text>
      <g>
        <path class="cls-6" d="M218.81,214.03c-2.63,0-2.66-14.69-2.66-15.32s.03-15.32,2.66-15.32,2.66,14.69,2.66,15.32-.03,15.32-2.66,15.32ZM218.78,184.28c-.67.35-1.74,5.68-1.74,14.43s1.07,14.08,1.8,14.43c.67-.35,1.74-5.68,1.74-14.43s-1.07-14.08-1.8-14.43Z"/>
        <path class="cls-4" d="M123.65,270.81c1.59,1.38,3.48,2.35,5.43,3.13,4.22,1.69,8.63,3.03,13.06,4.03,8.52,1.94,17.27,2.63,25.98,2.81,9.05.18,18.22.08,27.23-.89,6.88-.75,13.81-2.15,20.32-4.56,3.4-1.26,6.76-2.9,9.74-5.03-15.6-4.81-29.45-7.1-29.45-7.1v-40.75h-47.35v40.75s-12.03,1.99-26.29,6.15c.4.52.83,1.02,1.33,1.45Z"/>
        <path class="cls-6" d="M214.74,267.3c-16.31,8.04-56.22,6.31-84.93,0-16.18,4.16-38.46,11.57-48.51,22.6-13.41,14.58-15.38,38.71-15.38,38.71h211.62s-1.37-27.02-14.29-38.71c-10.05-11.02-32.33-18.44-48.51-22.6Z"/>
        <path class="cls-4" d="M195.95,245.69c16.31,4.05,25.05-3.1,22.54-26.9,14.98-5.5,3.06-9.78-3.06-19.15-.56-.85-.41-5.14-.41-5.14,0,0,.51-13.98-14.21-26.94-15.45-13.47-39.24-16.01-54.96-1.54-1.21,1.11-2.33,2.31-3.36,3.58-5.82,7.21-8.04,16.93-6.7,26.03,1.48,10.01,7.62,19.77,12.81,28.16,8.71,14.08,24.55,14.98,47.35,21.9Z"/>
        <path class="cls-8" d="M195.86,246.12l-.6-.12c-14.19-2.91-28.87-5.92-30.44-13.36l.87-.18c1.45,6.87,15.83,9.82,29.75,12.67l.6.12-.18.87Z"/>
        <path class="cls-3" d="M148.6,224.54s-29.58-38.29-2.26-61.67c8.69-6.62,19.52-7.12,25.92-6.68-3.03,5.05-1.29,17.42,13.08,22.78,1.88,13.32,2.3,20.24-2.18,28.68-7.48,15.07-23.45,16.89-34.56,16.89Z"/>
        <path class="cls-8" d="M217.39,225.6c-7.2-.16-8.02-2.85-8.09-3.16l.87-.21s.73,2.33,7.24,2.47l-.02.89Z"/>
        <path class="cls-6" d="M210.35,214.03c-2.42,0-3.69-7.7-3.69-15.32s1.27-15.32,3.69-15.32,3.69,7.7,3.69,15.32c0,7.61-1.27,15.32-3.69,15.32ZM210.35,184.29c-1.17,0-2.8,5.49-2.8,14.42s1.63,14.42,2.8,14.42,2.8-5.49,2.8-14.42c0-8.94-1.63-14.42-2.8-14.42Z"/>
        <rect class="cls-6" x="180.53" y="198.87" width="26.61" height=".89" transform="translate(-14.48 15.18) rotate(-4.32)"/>
        <path class="cls-6" d="M213.88,194.78l-.81-.37c.64-1.39,1.65-2.18,2.58-2.03.38.06,1.29.4,1.49,2.17l-.89.1c-.09-.81-.37-1.33-.74-1.39-.42-.06-1.12.43-1.63,1.53Z"/>
        <path class="cls-6" d="M166.56,216.98c-2.55-4.08.11-8.99.23-9.19l.78.43s-2.52,4.66-.25,8.29l-.76.47Z"/>
        <g>
          <g>
            <path class="cls-4" d="M188.12,210.36c-.94-5.57-4.83-11.36-10.65-12.55-5.11-1.04-11.02,2.1-11.51,7.63-.46,5.15,2.9,10.34,6.68,13.53,3.53,2.98,8.9,5,12.71,1.33,2.74-2.63,3.39-6.33,2.78-9.95Z"/>
            <path class="cls-8" d="M181.12,217.99c-3.18,0-6.1-1.65-7.95-4.55-1.6-2.52-2.02-5.45-1-7.13.43-.72,1.32-1.54,3.07-1.41l-.07.89c-1.04-.09-1.79.24-2.23.98-.83,1.38-.41,3.98.99,6.19.89,1.39,3.45,4.59,8.08,4.09l.09.89c-.33.04-.66.05-.98.05Z"/>
            <path class="cls-8" d="M175.2,215.02l-.77-.44c2.06-3.59,5.76-2.49,5.8-2.48l-.26.85c-.12-.04-3.07-.9-4.76,2.07Z"/>
          </g>
          <path class="cls-8" d="M180.53,222.64c-5.17,0-8.1-3.23-8.23-3.38l.67-.59s3.36,3.67,9.03,2.99l.11.88c-.55.07-1.07.1-1.58.1Z"/>
        </g>
        <path class="cls-9" d="M182.94,276.06c-1.53,0-3.1-.02-4.69-.05-18.43-.39-38.21-3.05-52.92-7.11l.24-.86c30.2,8.33,80.07,10.24,95.23.59l.48.75c-6.81,4.34-20.33,6.68-38.33,6.68Z"/>
        <path class="cls-9" d="M120.13,328.65c-.02-.3-2.25-30.14-4.79-34.25-2.55-4.12-10.11-8.92-10.18-8.97l.48-.76c.32.2,7.81,4.96,10.46,9.25,2.66,4.29,4.83,33.42,4.92,34.66l-.89.07Z"/>
        <path class="cls-9" d="M263.62,328.65c-.02-.3-2.25-30.14-4.79-34.25-2.55-4.12-10.11-8.92-10.18-8.97l.48-.76c.32.2,7.81,4.96,10.46,9.25,2.66,4.29,4.83,33.42,4.92,34.66l-.89.07Z"/>
      </g>
      <path class="cls-6" d="M59.21,89.15c5.8-5.92,9.54-10.04,12.39-13.75,2.26-2.91,6-8.23,6-13.45,0-2.71-.98-4.92-2.46-6.22-1.77-1.61-4.13-1.91-5.9-1.91-2.26,0-4.42.5-6.19,2.51-1.57,1.81-2.66,5.32-2.85,8.13h-15.15c.49-5.82,2.85-12.04,6.79-16.36,5.21-5.72,11.8-7.33,18.39-7.33,7.87,0,13.87,2.51,17.51,6.12,2.66,2.61,5.41,7.22,5.41,14.25,0,5.22-1.47,10.03-4.33,14.45-2.16,3.31-7.18,8.83-10.72,12.14l-8.95,8.43h20.75l-1.67,13.04h-48.69l19.67-20.07Z"/>
      <g>
        <ellipse class="cls-4" cx="175.11" cy="170.35" rx="12.88" ry="14.21" transform="translate(-67.61 198.07) rotate(-50.73)"/>
        <g>
          <path class="cls-1" d="M171.89,178.88c.04-.06.08-.12.13-.18.42-.5,1.07-.64,1.45-.31s.35.98-.07,1.48c-.05.06-.1.11-.15.16l-1.35-1.14Z"/>
          <path class="cls-1" d="M163.22,173.41c.04-.06.08-.12.13-.18.42-.5,1.07-.64,1.45-.31s.35.98-.07,1.48c-.05.06-.1.11-.15.16l-1.35-1.14Z"/>
          <path class="cls-1" d="M170.77,162.93c.04-.06.08-.12.13-.18.42-.5,1.07-.64,1.45-.31.38.32.35.98-.07,1.48-.05.06-.1.11-.15.16l-1.35-1.14Z"/>
          <path class="cls-1" d="M164.74,165.33c.04-.06.08-.12.13-.18.42-.5,1.07-.64,1.45-.31s.35.98-.07,1.48c-.05.06-.1.11-.15.16l-1.35-1.14Z"/>
          <path class="cls-1" d="M172.49,171.89c.04-.06.08-.12.13-.18.42-.5,1.07-.64,1.45-.31s.35.98-.07,1.48c-.05.06-.1.11-.15.16l-1.35-1.14Z"/>
          <path class="cls-1" d="M179.44,168.39c.04-.06.08-.12.13-.18.42-.5,1.07-.64,1.45-.31s.35.98-.07,1.48c-.05.06-.1.11-.15.16l-1.35-1.14Z"/>
          <path class="cls-1" d="M178.49,160.09c.04-.06.08-.12.13-.18.42-.5,1.07-.64,1.45-.31s.35.98-.07,1.48c-.05.06-.1.11-.15.16l-1.35-1.14Z"/>
          <path class="cls-1" d="M185.01,171.23c.04-.06.08-.12.13-.18.42-.5,1.07-.64,1.45-.31s.35.98-.07,1.48c-.05.06-.1.11-.15.16l-1.35-1.14Z"/>
          <path class="cls-1" d="M180.23,178.44c.04-.06.08-.12.13-.18.42-.5,1.07-.64,1.45-.31s.35.98-.07,1.48c-.05.06-.1.11-.15.16l-1.35-1.14Z"/>
        </g>
      </g>
      <g>
        <ellipse class="cls-4" cx="149.05" cy="179.35" rx="11.03" ry="10" transform="translate(-66.8 91.08) rotate(-28.03)"/>
        <g>
          <path class="cls-1" d="M154.2,184.21s-.06-.09-.09-.15c-.23-.45-.14-.96.21-1.13s.81.04,1.04.49c.03.05.05.1.07.16l-1.23.63Z"/>
          <path class="cls-1" d="M147.68,188.79s-.06-.09-.09-.15c-.23-.45-.14-.96.21-1.13s.81.04,1.04.49c.03.05.05.1.07.16l-1.23.63Z"/>
          <path class="cls-1" d="M142.43,180.24s-.06-.09-.09-.15c-.23-.45-.14-.96.21-1.13s.81.04,1.04.49c.03.05.05.1.07.16l-1.23.63Z"/>
          <path class="cls-1" d="M142.35,185.27s-.06-.09-.09-.15c-.23-.45-.14-.96.21-1.13s.81.04,1.04.49c.03.05.05.1.07.16l-1.23.63Z"/>
          <path class="cls-1" d="M149.37,181.69s-.06-.09-.09-.15c-.23-.45-.14-.96.21-1.13s.81.04,1.04.49c.03.05.05.1.07.16l-1.23.63Z"/>
          <path class="cls-1" d="M148.94,175.66s-.06-.09-.09-.15c-.23-.45-.14-.96.21-1.13s.81.04,1.04.49c.03.05.05.1.07.16l-1.23.63Z"/>
          <path class="cls-1" d="M142.71,173.85s-.06-.09-.09-.15c-.23-.45-.14-.96.21-1.13s.81.04,1.04.49c.03.05.05.1.07.16l-1.23.63Z"/>
          <path class="cls-1" d="M152.65,172.52s-.06-.09-.09-.15c-.23-.45-.14-.96.21-1.13s.81.04,1.04.49c.03.05.05.1.07.16l-1.23.63Z"/>
          <path class="cls-1" d="M156.38,178.1s-.06-.09-.09-.15c-.23-.45-.14-.96.21-1.13s.81.04,1.04.49c.03.05.05.1.07.16l-1.23.63Z"/>
        </g>
      </g>
      <g>
        <ellipse class="cls-4" cx="154.17" cy="211.19" rx="10.13" ry="9.19" transform="translate(-81.16 97.22) rotate(-28.03)"/>
        <g>
          <path class="cls-1" d="M158.89,215.65s-.06-.09-.08-.13c-.21-.41-.12-.88.19-1.04s.74.04.95.45c.02.05.04.1.06.14l-1.13.57Z"/>
          <path class="cls-1" d="M152.91,219.86s-.06-.09-.08-.13c-.21-.41-.12-.88.19-1.04s.74.04.95.45c.02.05.04.1.06.14l-1.13.57Z"/>
          <path class="cls-1" d="M148.09,212s-.06-.09-.08-.13c-.21-.41-.12-.88.19-1.04s.74.04.95.45c.02.05.04.1.06.14l-1.13.57Z"/>
          <path class="cls-1" d="M148.01,216.63s-.06-.09-.08-.13c-.21-.41-.12-.88.19-1.04s.74.04.95.45c.02.05.04.1.06.14l-1.13.57Z"/>
          <path class="cls-1" d="M154.46,213.33s-.06-.09-.08-.13c-.21-.41-.12-.88.19-1.04s.74.04.95.45c.02.05.04.1.06.14l-1.13.57Z"/>
          <path class="cls-1" d="M154.07,207.8s-.06-.09-.08-.13c-.21-.41-.12-.88.19-1.04s.74.04.95.45c.02.05.04.1.06.14l-1.13.57Z"/>
          <path class="cls-1" d="M148.34,206.14s-.06-.09-.08-.13c-.21-.41-.12-.88.19-1.04s.74.04.95.45c.02.05.04.1.06.14l-1.13.57Z"/>
          <path class="cls-1" d="M157.47,204.92s-.06-.09-.08-.13c-.21-.41-.12-.88.19-1.04s.74.04.95.45c.02.05.04.1.06.14l-1.13.57Z"/>
          <path class="cls-1" d="M160.9,210.04s-.06-.09-.08-.13c-.21-.41-.12-.88.19-1.04.32-.16.74.04.95.45.02.05.04.1.06.14l-1.13.57Z"/>
        </g>
      </g>
      <g>
        <ellipse class="cls-4" cx="164.98" cy="192.44" rx="7.9" ry="7.17" transform="translate(-71.08 100.1) rotate(-28.03)"/>
        <g>
          <path class="cls-1" d="M168.67,195.93s-.04-.07-.06-.1c-.16-.32-.1-.68.15-.81s.58.03.74.35c.02.04.03.07.05.11l-.88.45Z"/>
          <path class="cls-1" d="M164,199.2s-.04-.07-.06-.1c-.16-.32-.1-.68.15-.81s.58.03.74.35c.02.04.03.07.05.11l-.88.45Z"/>
          <path class="cls-1" d="M160.24,193.08s-.04-.07-.06-.1c-.16-.32-.1-.68.15-.81s.58.03.74.35c.02.04.03.07.05.11l-.88.45Z"/>
          <path class="cls-1" d="M160.18,196.69s-.04-.07-.06-.1c-.16-.32-.1-.68.15-.81s.58.03.74.35c.02.04.03.07.05.11l-.88.45Z"/>
          <path class="cls-1" d="M165.21,194.12s-.04-.07-.06-.1c-.16-.32-.1-.68.15-.81s.58.03.74.35c.02.04.03.07.05.11l-.88.45Z"/>
          <path class="cls-1" d="M164.9,189.8s-.04-.07-.06-.1c-.16-.32-.1-.68.15-.81s.58.03.74.35c.02.04.03.07.05.11l-.88.45Z"/>
          <path class="cls-1" d="M160.44,188.51s-.04-.07-.06-.1c-.16-.32-.1-.68.15-.81s.58.03.74.35c.02.04.03.07.05.11l-.88.45Z"/>
          <path class="cls-1" d="M167.56,187.55s-.04-.07-.06-.1c-.16-.32-.1-.68.15-.81s.58.03.74.35c.02.04.03.07.05.11l-.88.45Z"/>
          <path class="cls-1" d="M170.23,191.55s-.04-.07-.06-.1c-.16-.32-.1-.68.15-.81s.58.03.74.35c.02.04.03.07.05.11l-.88.45Z"/>
        </g>
      </g>
      <g>
        <ellipse class="cls-4" cx="145.52" cy="196.78" rx="5.39" ry="4.88" transform="translate(-75.4 91.46) rotate(-28.03)"/>
        <g>
          <path class="cls-1" d="M148.03,199.15s-.03-.05-.04-.07c-.11-.22-.07-.47.1-.55s.4.02.51.24c.01.03.02.05.03.08l-.6.31Z"/>
          <path class="cls-1" d="M144.85,201.39s-.03-.05-.04-.07c-.11-.22-.07-.47.1-.55s.4.02.51.24c.01.03.02.05.03.08l-.6.31Z"/>
          <path class="cls-1" d="M142.28,197.21s-.03-.05-.04-.07c-.11-.22-.07-.47.1-.55s.4.02.51.24c.01.03.02.05.03.08l-.6.31Z"/>
          <path class="cls-1" d="M142.24,199.67s-.03-.05-.04-.07c-.11-.22-.07-.47.1-.55s.4.02.51.24c.01.03.02.05.03.08l-.6.31Z"/>
          <path class="cls-1" d="M145.67,197.92s-.03-.05-.04-.07c-.11-.22-.07-.47.1-.55s.4.02.51.24c.01.03.02.05.03.08l-.6.31Z"/>
          <path class="cls-1" d="M145.46,194.98s-.03-.05-.04-.07c-.11-.22-.07-.47.1-.55s.4.02.51.24c.01.03.02.05.03.08l-.6.31Z"/>
          <path class="cls-1" d="M142.42,194.1s-.03-.05-.04-.07c-.11-.22-.07-.47.1-.55s.4.02.51.24c.01.03.02.05.03.08l-.6.31Z"/>
          <path class="cls-1" d="M147.27,193.45s-.03-.05-.04-.07c-.11-.22-.07-.47.1-.55s.4.02.51.24c.01.03.02.05.03.08l-.6.31Z"/>
          <path class="cls-1" d="M149.09,196.17s-.03-.05-.04-.07c-.11-.22-.07-.47.1-.55s.4.02.51.24c.01.03.02.05.03.08l-.6.31Z"/>
        </g>
      </g>
      <g>
        <path class="cls-4" d="M151.28,165.07c1.61,1.34,4.81,1.18,7.15-.36,2.34-1.54,2.94-3.88,1.33-5.22-1.61-1.34-4.81-1.18-7.15.36-2.34,1.54-2.94,3.88-1.33,5.22Z"/>
        <g>
          <path class="cls-1" d="M158.33,163.34s-.04-.02-.05-.04c-.14-.12-.14-.3.01-.4s.39-.07.53.05c.02.01.03.03.04.05l-.54.34Z"/>
          <path class="cls-1" d="M155.58,165.57s-.04-.02-.05-.04c-.14-.12-.14-.3.01-.4s.39-.07.53.05c.02.01.03.03.04.05l-.54.34Z"/>
          <path class="cls-1" d="M152.43,163.3s-.04-.02-.05-.04c-.14-.12-.14-.3.01-.4s.39-.07.53.05c.02.01.03.03.04.05l-.54.34Z"/>
          <path class="cls-1" d="M152.78,164.98s-.04-.02-.05-.04c-.14-.12-.14-.3.01-.4s.39-.07.53.05c.02.01.03.03.04.05l-.54.34Z"/>
          <path class="cls-1" d="M155.84,163.02s-.04-.02-.05-.04c-.14-.12-.14-.3.01-.4s.39-.07.53.05c.02.01.03.03.04.05l-.54.34Z"/>
          <path class="cls-1" d="M155.18,161.06s-.04-.02-.05-.04c-.14-.12-.14-.3.01-.4s.39-.07.53.05c.02.01.03.03.04.05l-.54.34Z"/>
          <path class="cls-1" d="M152.08,161.14s-.04-.02-.05-.04c-.14-.12-.14-.3.01-.4s.39-.07.53.05c.02.01.03.03.04.05l-.54.34Z"/>
          <path class="cls-1" d="M156.71,159.61s-.04-.02-.05-.04c-.14-.12-.14-.3.01-.4s.39-.07.53.05c.02.01.03.03.04.05l-.54.34Z"/>
          <path class="cls-1" d="M158.91,161.07s-.04-.02-.05-.04c-.14-.12-.14-.3.01-.4s.39-.07.53.05c.02.01.03.03.04.05l-.54.34Z"/>
        </g>
      </g>
      <g>
        <path class="cls-4" d="M185.98,193.32c2.6-1.42,4.06-5.72,3.25-9.61-.81-3.89-3.58-5.89-6.18-4.47-2.6,1.42-4.06,5.72-3.25,9.61s3.58,5.89,6.18,4.47Z"/>
        <g>
          <path class="cls-1" d="M187.38,183.12s-.05.04-.08.05c-.24.12-.47.02-.52-.23s.11-.55.34-.67c.03-.01.06-.02.08-.03l.17.88Z"/>
          <path class="cls-1" d="M188.89,187.9s-.05.04-.08.05c-.24.12-.47.02-.52-.23s.11-.55.34-.67c.03-.01.06-.02.08-.03l.17.88Z"/>
          <path class="cls-1" d="M184.25,190.87s-.05.04-.08.05c-.24.12-.47.02-.52-.23s.11-.55.34-.67c.03-.01.06-.02.08-.03l.17.88Z"/>
          <path class="cls-1" d="M186.65,191.3s-.05.04-.08.05c-.24.12-.47.02-.52-.23s.11-.55.34-.67c.03-.01.06-.02.08-.03l.17.88Z"/>
          <path class="cls-1" d="M185.67,186.24s-.05.04-.08.05c-.24.12-.47.02-.52-.23s.11-.55.34-.67c.03-.01.06-.02.08-.03l.17.88Z"/>
          <path class="cls-1" d="M182.74,186.09s-.05.04-.08.05c-.24.12-.47.02-.52-.23s.11-.55.34-.67c.03-.01.06-.02.08-.03l.17.88Z"/>
          <path class="cls-1" d="M181.22,190.22s-.05.04-.08.05c-.24.12-.47.02-.52-.23s.11-.55.34-.67c.03-.01.06-.02.08-.03l.17.88Z"/>
          <path class="cls-1" d="M181.62,183.32s-.05.04-.08.05c-.24.12-.47.02-.52-.23s.11-.55.34-.67c.03-.01.06-.02.08-.03l.17.88Z"/>
          <path class="cls-1" d="M184.68,181.18s-.05.04-.08.05c-.24.12-.47.02-.52-.23s.11-.55.34-.67c.03-.01.06-.02.08-.03l.17.88Z"/>
        </g>
      </g>
    </g>
  </g>
</svg>