<?xml version="1.0" encoding="UTF-8"?>
<svg id="_圖層_2" data-name="圖層 2" xmlns="http://www.w3.org/2000/svg" viewBox="0 0 343.46 328.68">
  <defs>
    <style>
      .cls-1 {
        fill: #644b30;
      }

      .cls-2 {
        fill: #1c2a42;
      }

      .cls-3 {
        fill: #eac4b0;
      }

      .cls-4 {
        fill: #e2ab90;
      }

      .cls-5 {
        fill: #e8e0d3;
      }

      .cls-6, .cls-7 {
        fill: #fff;
      }

      .cls-8 {
        fill: #c58067;
      }

      .cls-7 {
        font-family: GenSenRounded2TW-B-B5pc-H, 'GenSenRounded2 TW';
        font-size: 33.09px;
        letter-spacing: -.03em;
      }

      .cls-9 {
        fill: #e7e0d3;
      }
    </style>
  </defs>
  <g id="_圖層_1-2" data-name="圖層 1">
    <g>
      <path class="cls-5" d="M50.3,67.81c67.07-59.68,175.8-59.68,242.86,0,67.07,59.68,67.07,156.43,0,216.11-67.07,59.68-175.8,59.68-242.86,0-67.07-59.68-67.07-156.43,0-216.11Z"/>
      <g>
        <path class="cls-3" d="M136.42,21.72C170.63-2.85,233.92-7.23,277.78,11.94c43.86,19.16,51.67,54.62,17.46,79.18-25.69,18.45-67.78,25.51-105.72,19.77,0,0-35.64,18-38.51,12.04-2.38-4.94,3.91-21.6,3.91-21.6-.34-.15-.7-.28-1.04-.43-43.86-19.16-51.67-54.62-17.46-79.18"/>
        <polygon class="cls-6" points="62.17 55.43 52.93 55.43 54.49 42.52 78.72 42.52 70.74 108.75 55.75 108.75 62.17 55.43"/>
        <text class="cls-7" transform="translate(153.95 70.01)"><tspan x="0" y="0">輕度圓禿</tspan></text>
      </g>
      <g>
        <path class="cls-6" d="M218.81,214.03c-2.63,0-2.66-14.69-2.66-15.32s.03-15.32,2.66-15.32,2.66,14.69,2.66,15.32c0,.63-.03,15.32-2.66,15.32ZM218.78,184.28c-.67.35-1.74,5.68-1.74,14.43s1.07,14.08,1.81,14.43c.67-.35,1.74-5.68,1.74-14.43s-1.07-14.08-1.8-14.43Z"/>
        <path class="cls-4" d="M123.65,270.81c1.59,1.38,3.48,2.35,5.43,3.13,4.22,1.69,8.63,3.03,13.06,4.03,8.52,1.94,17.27,2.63,25.98,2.81,9.05.18,18.22.08,27.23-.89,6.88-.75,13.81-2.15,20.32-4.56,3.4-1.26,6.76-2.9,9.74-5.03-15.6-4.81-29.45-7.1-29.45-7.1v-40.75h-47.35v40.75s-12.03,1.99-26.29,6.15c.4.52.83,1.02,1.33,1.45Z"/>
        <path class="cls-6" d="M214.74,267.3c-16.31,8.04-56.22,6.31-84.93,0-16.18,4.16-38.46,11.57-48.51,22.6-13.41,14.58-15.38,38.71-15.38,38.71h211.62s-1.37-27.02-14.29-38.71c-10.05-11.02-32.33-18.44-48.51-22.6Z"/>
        <path class="cls-4" d="M195.95,245.69c16.31,4.05,25.05-3.1,22.54-26.9,14.98-5.5,3.06-9.78-3.06-19.15-.56-.85-.41-5.14-.41-5.14,0,0,.51-13.98-14.21-26.94-15.45-13.47-39.24-16.01-54.96-1.54-1.21,1.11-2.33,2.31-3.36,3.58-5.82,7.21-8.04,16.93-6.7,26.03,1.48,10.01,7.62,19.77,12.81,28.16,8.7,14.08,24.55,14.98,47.35,21.9Z"/>
        <path class="cls-8" d="M195.86,246.12l-.6-.12c-14.19-2.91-28.87-5.92-30.44-13.36l.87-.18c1.45,6.87,15.83,9.82,29.74,12.67l.6.12-.18.87Z"/>
        <path class="cls-2" d="M148.6,224.54s-29.58-38.29-2.26-61.67c19.95-16.16,47.27-6.1,47.27-6.1,0,0,19.85,6.26,14.3,18.53-7.89-6.16-28.14-7.03-28.34-1.72,0,4.45,7.53,8.95,7.69,11.44.65,10.07-.51,15.87-4.11,22.64-7.48,15.07-23.45,16.89-34.56,16.89Z"/>
        <path class="cls-8" d="M217.39,225.6c-7.2-.15-8.02-2.85-8.09-3.15l.87-.21s.73,2.33,7.24,2.47l-.02.89Z"/>
        <path class="cls-2" d="M140.03,153.31c-3.54,5.52-1.18,12.86,6.37,14.35l-6.37-14.35Z"/>
        <path class="cls-2" d="M129.73,168.64c3.55-5.52,11.2-6.43,15.7-.19l-15.7.19Z"/>
        <path class="cls-6" d="M210.35,214.03c-2.42,0-3.69-7.7-3.69-15.32s1.27-15.32,3.69-15.32,3.69,7.7,3.69,15.32c0,7.61-1.27,15.32-3.69,15.32ZM210.35,184.29c-1.17,0-2.8,5.49-2.8,14.42s1.63,14.42,2.8,14.42,2.8-5.49,2.8-14.42c0-8.94-1.63-14.42-2.8-14.42Z"/>
        <rect class="cls-6" x="180.52" y="198.82" width="26.61" height=".89" transform="translate(-14.49 15.2) rotate(-4.33)"/>
        <path class="cls-6" d="M213.88,194.78l-.81-.37c.64-1.39,1.66-2.18,2.58-2.03.38.06,1.29.39,1.49,2.17l-.89.1c-.09-.81-.37-1.33-.74-1.39-.44-.07-1.12.43-1.63,1.53Z"/>
        <path class="cls-6" d="M166.56,216.98c-2.55-4.08.11-8.99.22-9.19l.78.43s-2.52,4.66-.25,8.29l-.76.47Z"/>
        <g>
          <g>
            <path class="cls-4" d="M188.12,210.36c-.94-5.57-4.83-11.36-10.65-12.55-5.11-1.04-11.02,2.1-11.51,7.63-.46,5.15,2.9,10.34,6.68,13.53,3.53,2.98,8.9,5,12.71,1.33,2.74-2.64,3.39-6.33,2.78-9.95Z"/>
            <path class="cls-8" d="M181.12,217.99c-3.18,0-6.1-1.65-7.95-4.55-1.6-2.52-2.02-5.45-1-7.13.43-.72,1.31-1.54,3.07-1.41l-.07.89c-1.04-.09-1.79.25-2.23.98-.83,1.38-.41,3.98.99,6.19.89,1.39,3.46,4.57,8.08,4.09l.09.89c-.33.04-.65.05-.98.05Z"/>
            <path class="cls-8" d="M175.2,215.02l-.77-.44c2.06-3.6,5.76-2.49,5.8-2.48l-.26.85c-.12-.04-3.07-.89-4.76,2.07Z"/>
          </g>
          <path class="cls-8" d="M180.53,222.65c-5.17,0-8.1-3.23-8.23-3.38l.67-.59s3.36,3.68,9.03,2.99l.11.88c-.55.07-1.07.1-1.58.1Z"/>
        </g>
        <path class="cls-9" d="M182.94,276.06c-1.53,0-3.1-.02-4.69-.05-18.43-.39-38.21-3.05-52.92-7.11l.24-.86c30.2,8.33,80.07,10.24,95.23.59l.48.75c-6.81,4.34-20.33,6.68-38.33,6.68Z"/>
        <path class="cls-9" d="M120.13,328.65c-.02-.3-2.25-30.14-4.79-34.25-2.55-4.11-10.11-8.92-10.18-8.97l.48-.75c.32.2,7.81,4.96,10.46,9.25,2.66,4.29,4.83,33.42,4.92,34.66l-.89.07Z"/>
        <path class="cls-9" d="M263.62,328.65c-.02-.3-2.25-30.14-4.79-34.25-2.55-4.11-10.11-8.92-10.18-8.97l.48-.75c.32.2,7.81,4.96,10.46,9.25,2.66,4.29,4.83,33.42,4.92,34.66l-.89.07Z"/>
        <g>
          <ellipse class="cls-4" cx="158.93" cy="175.28" rx="13.26" ry="12.02"/>
          <g>
            <path class="cls-1" d="M161.63,183.34c0-.07-.01-.13-.01-.2.01-.61.4-1.09.86-1.08s.83.51.82,1.11c0,.07,0,.14-.02.2l-1.65-.03Z"/>
            <path class="cls-1" d="M152.14,184.52c0-.07-.01-.13-.01-.2.01-.61.4-1.09.86-1.08s.83.51.82,1.11c0,.07,0,.14-.02.2l-1.65-.03Z"/>
            <path class="cls-1" d="M151.4,172.48c0-.07-.01-.13-.01-.2.01-.61.4-1.09.86-1.08s.83.51.82,1.11c0,.07,0,.14-.02.2l-1.65-.03Z"/>
            <path class="cls-1" d="M148.47,177.78c0-.07-.01-.13-.01-.2.01-.61.4-1.09.86-1.08s.83.51.82,1.11c0,.07,0,.14-.02.2l-1.65-.03Z"/>
            <path class="cls-1" d="M157.94,177.94c0-.07-.01-.13-.01-.2.01-.61.4-1.09.86-1.08s.83.51.82,1.11c0,.07,0,.14-.02.2l-1.65-.03Z"/>
            <path class="cls-1" d="M160.89,171.31c0-.07-.01-.13-.01-.2.01-.61.4-1.09.86-1.08s.83.51.82,1.11c0,.07,0,.14-.02.2l-1.65-.03Z"/>
            <path class="cls-1" d="M155.3,165.87c0-.07-.01-.13-.01-.2.01-.61.4-1.09.86-1.08s.83.51.82,1.11c0,.07,0,.14-.02.2l-1.65-.03Z"/>
            <path class="cls-1" d="M166.59,170.07c0-.07-.01-.13-.01-.2.01-.61.4-1.09.86-1.08s.83.51.82,1.11c0,.07,0,.14-.02.2l-1.65-.03Z"/>
            <path class="cls-1" d="M167.41,178.1c0-.07-.01-.13-.01-.2.01-.61.4-1.09.86-1.08s.83.51.82,1.11c0,.07,0,.14-.02.2l-1.65-.03Z"/>
          </g>
        </g>
      </g>
    </g>
  </g>
</svg>